<svg xmlns="http://www.w3.org/2000/svg" width="210" height="51" viewBox="0 0 210 51"><g fill="none" fill-rule="evenodd"><path fill="#4E6CA8" d="M22.9671274,11.2882543 C23.7096285,15.6234263 24.4521297,19.9585984 25.2142737,24.2908206 C28.6390112,23.7234824 32.0470522,23.0529024 35.4708075,22.4708153 C35.4658968,22.5484925 35.4560754,22.70483 35.4511646,22.7825072 C35.3103528,23.9635148 34.9707639,26.408299 34.8113744,27.559582 C34.7617602,27.9179488 34.7296061,28.1509847 34.7263421,28.1815613 C34.642699,28.7551189 34.541163,29.3163821 34.4636928,29.8584154 C34.3502306,30.6522725 34.2648451,31.3997545 34.1783055,32.0428044 C34.0166022,33.244374 33.8929598,34.0910686 33.8708943,34.2629945 C33.7795549,35.012235 33.6705369,35.7585257 33.5664296,36.5067828 C31.7180338,37.4811887 29.7360665,38.2078143 27.678474,38.5863675 C26.8603477,33.829379 26.0451679,29.0723905 25.2123094,24.3183518 C22.2305191,24.8168621 19.2595323,25.3832171 16.2816705,25.9102419 C15.5411337,26.0616632 14.7809539,26.1255748 14.0610421,26.3684388 C13.5080948,24.0282915 13.2625587,21.6242326 12.7488972,19.275236 C12.9266653,18.9733767 13.1113085,18.6764336 13.3038088,18.3844068 C13.8354762,18.503053 14.8280968,18.7190413 16.2816705,19.032372 C15.2707166,17.7842934 14.6198822,16.9881845 14.3291675,16.6440452 C14.5599714,16.1799487 14.8300611,15.7374839 15.0932758,15.2910861 C15.161111,15.1837888 15.1267177,15.2329526 15.2072046,15.0855857 C15.4272049,14.6962167 15.6530981,14.3097974 15.8544377,13.9096126 C14.8939005,14.2635844 13.9628276,14.6932669 13.0150583,15.078703 C12.5426469,14.57036 12.0957712,14.0403855 11.6400562,13.5172937 C11.8246993,13.3894706 12.0152353,13.2547646 12.2430928,13.2164177 C15.8190805,12.5832013 19.3940861,11.9381859 22.9671274,11.2882543 Z"/><path fill="#AEB8D8" d="M22.9671274 11.2882543C26.7022224 10.6107915 30.4382997 9.93529517 34.1763412 9.26864817 34.7774136 12.5448544 35.2910751 15.8367927 35.9019689 19.1110324 35.9206296 19.0648194 35.9599154 18.9743599 35.9785762 18.9281469 35.8027723 20.2112949 35.6014327 21.4944429 35.4511646 22.7825072 35.4560754 22.70483 35.4658968 22.5484925 35.4708075 22.4708153 32.0470522 23.0529024 28.6390112 23.7234824 25.2142737 24.2908206 24.4521297 19.9585984 23.7096285 15.6234263 22.9671274 11.2882543M16.2816705 25.9102419C19.2595323 25.3832171 22.2305191 24.8168621 25.2123094 24.3183518 26.0451679 29.0723905 26.8603477 33.829379 27.678474 38.5863675 26.1777573 38.8597125 24.6475764 38.9216575 23.1252526 38.8715115 22.754002 38.4487118 22.3906086 38.0190293 22.0006973 37.6119616 22.0173937 37.9924814 22.0399831 38.3730011 22.0723938 38.7525376 20.1631051 38.5106569 18.1614949 37.8912061 16.8287249 36.4261559 17.0428324 36.4654861 17.2589042 36.4949838 17.474976 36.5215317 16.7982785 35.6837983 16.0911345 34.8716295 15.4252406 34.02603 15.1571152 32.646523 14.9606863 31.2532505 14.679793 29.87571 15.1404188 29.062558 15.5961337 28.2444897 16.0813131 27.4451032 16.2924741 28.2395734 16.1402417 29.2198788 16.8395285 29.7990161 16.7589927 29.933722 16.6784569 30.068428 16.5989032 30.2041172 16.6774747 30.2414809 16.7570284 30.2788446 16.8356 30.3171916 16.9259572 30.2247656 17.0163145 30.1323396 17.107654 30.0408968 17.3207793 30.1736363 17.5348868 30.3053925 17.7489942 30.4371487 17.6871191 30.5689049 17.625244 30.7006611 17.5633689 30.8334005 17.6635477 30.8835465 17.7627443 30.9336925 17.8639051 30.9848218 18.3716738 30.6455988 18.9098889 30.3417729 19.3341753 29.8953751 18.4561382 29.7783677 17.6331012 29.3722833 17.0172967 28.7341507 17.0202431 28.3782124 17.1007789 27.9819605 16.9014036 27.6633859 16.7334569 27.3998735 16.3877421 27.4254381 16.1176524 27.3772586 16.2836348 27.0773658 16.4437244 26.7745232 16.5900639 26.4647978 15.8072948 26.746992 15.0520258 27.0960476 14.2820246 27.4087228 14.217203 27.0596672 14.1523815 26.7106116 14.0610421 26.3684388 14.7809539 26.1255748 15.5411337 26.0616632 16.2816705 25.9102419"/><path fill="#004890" d="M38.5714373,0.0968439607 C37.712061,6.37492821 36.8536668,12.6530125 35.9785762,18.9281469 C35.9599154,18.9743599 35.9206296,19.0648194 35.9019689,19.1110324 C35.2910751,15.8367927 34.7774136,12.5448544 34.1763412,9.26864817 C30.4382997,9.93529517 26.7022224,10.6107915 22.9671274,11.2882543 C19.3940861,11.9381859 15.8190805,12.5832013 12.2430928,13.2164177 C12.0152353,13.2547646 11.8246993,13.3894706 11.6400562,13.5172937 C11.4131808,13.2508316 11.1804126,12.9883025 10.9368408,12.7365891 C10.9898766,13.7847392 11.0998768,14.8299394 11.1509483,15.8790727 C10.2316611,16.3205542 9.2819275,16.6981242 8.36755108,17.1523881 C9.33692758,17.4689963 10.3426434,17.6548315 11.32577,17.9222769 C11.455413,18.9655106 11.5212167,20.0166104 11.6538062,21.0608274 C12.0417532,20.4797236 12.3855038,19.8710886 12.7488972,19.275236 C13.2625587,21.6242326 13.5080948,24.0282915 14.0610421,26.3684388 C14.1523815,26.7106116 14.217203,27.0596672 14.2820246,27.4087228 L12.0946799,28.3286126 C11.7297587,28.4809079 11.3640736,28.6312367 10.9967516,28.777414 C9.64728521,27.2435359 8.31451528,25.6939258 6.96210246,24.1629975 C7.05835261,26.2278333 7.25772792,28.2877529 7.39129956,30.3506222 C5.53602881,31.1883556 3.67290092,32.0093737 1.82155875,32.8569396 C3.77799037,33.405596 5.80218994,33.7762832 7.72719294,34.3927842 C7.95505043,36.4310722 8.13281857,38.4762429 8.3371046,40.5184639 C9.43219559,38.7869516 10.4771972,37.0229918 11.5261274,35.262965 C13.3038088,35.6002216 15.0647936,36.0269543 16.8287249,36.4261559 C18.1614949,37.8912061 20.1631051,38.5106569 22.0723938,38.7525376 C22.1529297,39.8193695 22.2315012,40.8862014 22.3110549,41.9530332 C21.0136422,42.5518356 19.6965866,43.1063915 18.4080131,43.7228925 L19.7816694,44.0801783 L22.5379303,44.7621932 C22.7107877,46.2095448 22.8158771,47.6637792 22.9828417,49.1121141 C23.7587357,47.8909112 24.481594,46.6382441 25.2407916,45.4072086 C26.6344545,45.7031684 28.0192781,46.0345254 29.4139231,46.3226192 C28.5241003,45.1948255 27.5841881,44.1083285 26.6737403,42.9972502 C27.3533842,41.717052 28.1214211,40.4869998 28.8069579,39.2097513 C27.4771344,39.7308765 26.1738288,40.3178799 24.848916,40.8488377 C24.2714151,40.1920232 23.6998071,39.5312757 23.1252526,38.8715115 C24.6475764,38.9216575 26.1777573,38.8597125 27.678474,38.5863675 C29.7360665,38.2078143 31.7180338,37.4811887 33.5664296,36.5067828 C32.9732143,40.8370386 32.3780348,45.1682776 31.7799089,49.4985334 C24.8744517,50.6194443 17.5122974,49.9370652 11.244252,46.6824906 C8.15442574,45.0699521 5.37692142,42.7878168 3.38807904,39.9058959 C1.09280762,36.6473883 -0.0219262587,32.638657 0.000326605466,28.6722057 C0.20396695,24.7067376 1.42084384,20.8209131 3.46468631,17.4218 C6.72540566,11.9362194 11.7186277,7.61382972 17.332565,4.66209771 C23.8274858,1.27183389 31.2466045,-0.439030106 38.5714373,0.0968439607 Z M68.1104119,33.8116804 C69.288003,35.0151847 69.492289,36.927616 69.104342,38.4762429 C67.1302318,38.5077071 65.152193,38.4762429 63.1771006,38.4909918 C63.1535291,39.2648136 63.5139761,40.1546595 64.336031,40.3503273 C65.805319,40.6944666 67.2628212,40.110413 68.6083591,39.5774887 C68.4541624,40.3640929 68.295055,41.1497137 68.1359476,41.9353346 C66.5949631,42.6678597 64.812371,42.8182978 63.1623684,42.4004143 C61.9101344,42.0651243 60.7875433,41.1113668 60.4084356,39.8488671 C59.642363,37.5981961 60.4899536,34.86573 62.485671,33.5393187 C64.1366557,32.4174246 66.635231,32.3603958 68.1104119,33.8116804 Z M132.67954,33.7703837 C133.921953,34.9788043 134.047667,36.8715705 133.761863,38.488042 C131.770074,38.4909918 129.778285,38.484109 127.786497,38.4909918 C127.775693,39.2362992 128.088997,40.1005805 128.872748,40.3267292 C130.359715,40.7210145 131.855521,40.1172958 133.223648,39.5735557 L132.749272,41.9343514 C131.211234,42.6668765 129.433553,42.8163312 127.786497,42.4043473 C126.535245,42.0710238 125.407743,41.1251324 125.026671,39.863616 C124.265509,37.6522751 125.063992,34.966022 126.991942,33.6130629 C128.630159,32.4302069 131.163109,32.3308981 132.67954,33.7703837 Z M178.669433,33.7458023 C179.934435,34.9512732 180.060149,36.8587882 179.778274,38.4870587 C177.787467,38.491975 175.796661,38.4850922 173.805854,38.4900085 C173.783265,39.251048 174.122104,40.1320446 174.928445,40.3404947 C176.404608,40.7062657 177.87586,40.1133628 179.23122,39.578472 C179.078987,40.3532771 178.937558,41.1320151 178.761754,41.9019039 C177.339609,42.6639267 175.641482,42.7760178 174.074961,42.4702254 C172.724513,42.20278 171.469332,41.2362402 171.050939,39.8960634 C170.312366,37.7761653 170.994957,35.2177353 172.752995,33.8047976 C174.382373,32.4508553 177.061663,32.2601038 178.669433,33.7458023 Z M143.545003,33.0575237 C143.411432,34.0476617 143.274914,35.0377996 143.127592,36.0259711 C141.748661,35.486164 139.974908,35.2020032 138.759996,36.2550695 C137.765084,37.0387239 137.531333,38.8125162 138.683389,39.5597901 C140.12223,40.2166046 141.712322,39.5725724 143.040181,38.9393561 C142.875181,40.0219201 142.721966,41.1064505 142.54518,42.1870479 C141.64259,42.4987398 140.690892,42.6629434 139.734283,42.618697 C138.45946,42.5911658 137.058922,42.3787827 136.108206,41.4496066 C135.263562,40.5204304 134.734186,39.2785792 134.741957,38.014113 C134.757757,36.2304881 135.698652,34.4724279 137.246511,33.5589838 C139.133211,32.4341399 141.479554,32.6042431 143.545003,33.0575237 Z M53.3644961,32.8746382 C53.0855671,34.9168592 52.7771737,36.9561304 52.5051197,39.0003179 C52.4432446,39.4309837 52.5866377,40.0327359 53.1061921,40.0769823 C54.0903008,40.152693 54.7954804,39.2923447 55.4378029,38.672894 C55.7550355,36.7486636 55.9946787,34.8087012 56.282447,32.8795545 C57.3097701,32.869722 58.3380752,32.8756215 59.3663804,32.8756215 C58.9096833,36.0672678 58.4294147,39.254981 57.9736997,42.4476106 C56.9493231,42.4682589 55.9249465,42.4574431 54.9005699,42.4535101 C54.9506592,42.0877392 55.0027129,41.7219682 55.0537844,41.3561973 C54.1305687,42.0739736 53.0384241,42.7012904 51.8274401,42.618697 C50.8904744,42.6403286 50.0026158,42.0375932 49.6618117,41.1674123 C49.3308291,40.3906407 49.3367219,39.5263595 49.4653829,38.7063246 L50.0214221,34.8467204 C50.1152351,34.2036715 50.2108304,33.5609504 50.310027,32.9188847 C51.3108322,32.8117099 52.3489588,32.9061024 53.3644961,32.8746382 Z M208.468676,34.9837206 C209.537249,37.1272168 208.958766,40.0120875 207.059299,41.5036856 C205.141171,43.0306809 202.085719,43.0306809 200.296252,41.2962188 C198.818125,39.8842643 198.59125,37.4929878 199.50268,35.7123127 C200.299199,34.0663435 201.988487,32.9129852 203.805454,32.7448486 C205.610636,32.5206664 207.609299,33.31317 208.468676,34.9837206 Z M117.010399,33.058507 C116.874863,34.0476617 116.732452,35.0358331 116.595934,36.0240045 C115.608879,35.6710159 114.545216,35.389805 113.496286,35.6267695 C112.361909,35.8322698 111.403336,36.8440394 111.35914,38.0131298 C111.35914,38.730906 111.770658,39.5312757 112.513159,39.7112114 C113.89209,40.0858316 115.274949,39.5302925 116.500666,38.9344398 C116.344505,40.017987 116.178522,41.0995677 116.01254,42.1811484 C115.116824,42.5007063 114.168073,42.6580272 113.217357,42.618697 C111.960212,42.5941156 110.588156,42.3935315 109.629584,41.5066354 C108.369492,40.2097218 107.852884,38.2058478 108.454939,36.4802349 C108.887082,34.9168592 110.146192,33.6504266 111.655747,33.1017702 C113.380393,32.5216496 115.260217,32.6612719 117.010399,33.058507 Z M101.694839,34.9965029 C102.749662,37.1331164 102.181001,40.002255 100.292337,41.4918865 C98.3791196,43.0267479 95.3226863,43.0346139 93.5273264,41.3050681 C92.110092,39.9609582 91.8272345,37.7102872 92.606075,35.9620595 C93.3436654,34.2138318 95.0702752,32.9503489 96.9520639,32.7527146 C98.782781,32.5019845 100.828588,33.2925217 101.694839,34.9965029 Z M82.7826668,30.9671232 C82.6716845,31.5993563 82.5518629,32.2306061 82.4261484,32.8608727 C83.0488279,32.8893871 83.6724896,32.8667722 84.2951692,32.8756215 C84.1380261,33.6661587 83.9690972,34.4527628 83.8099898,35.2423167 C83.2040068,35.247233 82.5990058,35.2413334 81.9930227,35.247233 C81.7759688,36.3710936 81.5363256,37.490038 81.3330217,38.6158652 C81.2632895,39.012117 81.2721288,39.6001036 81.7474866,39.7318598 C82.5174878,39.8665657 83.1971317,39.3660889 83.8031148,38.9629542 C83.7481147,39.8921304 83.7029361,40.823273 83.634186,41.7514659 C83.6361503,41.9146863 83.4456143,41.9589327 83.3365962,42.0336601 C82.2542731,42.5891993 80.9313247,42.8399294 79.7665014,42.3974645 C78.6311425,41.9461504 78.0114094,40.6698852 78.1587311,39.4850627 C78.3198027,38.060326 78.654714,36.6601706 78.8835536,35.2452665 C78.308017,35.2432999 77.7324804,35.2462497 77.1569438,35.2432999 C77.2895333,34.453746 77.4309621,33.6651754 77.5694444,32.8766048 C78.1528382,32.8716885 78.736232,32.8756215 79.3196257,32.8746382 C79.4404295,32.2384721 79.5602511,31.6032893 79.6790906,30.9671232 C80.7132886,30.9641735 81.7484688,30.9652615 82.7826668,30.9671232 Z M76.8161397,33.5933978 C76.7395324,34.3505043 76.6639073,35.1066275 76.5843536,35.863734 C75.6198878,35.4458505 74.6190827,34.915876 73.5416703,34.9729048 C73.0172052,35.0191178 73.0820267,35.7182122 73.4414916,35.9463274 C74.4747075,36.7938933 75.7740845,37.536251 76.2111387,38.8842938 C76.668818,40.3090306 75.6699772,41.8497914 74.3264037,42.341419 C72.7530084,42.9215395 70.9880949,42.522338 69.5325569,41.7907961 L69.6555068,41.0520437 L69.9234504,39.578472 C70.8997019,39.9255611 71.8700606,40.5086314 72.9445265,40.3572101 C73.4149737,40.3050975 73.6497062,39.6856468 73.2725627,39.3660889 C72.3031862,38.4447788 70.9988985,37.7909141 70.4086297,36.5274312 C69.8163966,35.1498907 70.7072016,33.4970388 72.063543,32.9995116 C73.6330097,32.4203744 75.4057803,32.7448486 76.8161397,33.5933978 Z M197.018827,30.9631902 C196.923559,31.6032893 196.779183,32.2345391 196.679005,32.873655 C197.297756,32.8766048 197.917489,32.8726717 198.537222,32.8756215 C198.380079,33.6651754 198.212132,34.4527628 198.052043,35.2423167 C197.446059,35.2482162 196.840076,35.2403502 196.235075,35.2482162 C196.018022,36.3887922 195.767575,37.5224854 195.569182,38.6669944 C195.510253,39.0455477 195.528914,39.5942041 195.973825,39.7269435 C196.748737,39.8744318 197.439184,39.3680554 198.048114,38.9590212 C197.985257,39.9186783 197.948917,40.8822683 197.864453,41.8399589 C196.955969,42.4643259 195.791146,42.7160392 194.699984,42.5832998 C193.716857,42.4682589 192.843731,41.7465496 192.538284,40.8075409 C192.333998,40.1585925 192.370337,39.4604814 192.48132,38.7977674 C192.692481,37.6129449 192.91641,36.4310722 193.124624,35.2452665 L191.398996,35.2432999 C191.534532,34.4547293 191.672033,33.6661587 191.811497,32.8785713 C192.394891,32.8707052 192.977302,32.8766048 193.561678,32.873655 C193.682482,32.2394554 193.803286,31.6062391 193.920161,30.9710562 C194.952395,30.9582739 195.985611,30.9710562 197.018827,30.9631902 Z M162.320657,32.8008941 C163.743785,33.02016 164.398875,34.6454808 164.2545,35.9384613 C163.99816,38.1134218 163.639677,40.2755999 163.354856,42.4466273 C162.32164,42.4702254 161.289406,42.4544933 160.25619,42.4554766 C160.528244,40.4516026 160.849405,38.4546113 161.105745,36.449754 C161.152888,35.9935236 161.125388,35.2649316 160.541012,35.1902042 C159.797529,35.1852879 159.168956,35.7172289 158.660205,36.2059068 C158.328241,38.2805752 158.072883,40.3709756 157.771365,42.4525268 C156.744042,42.4633426 155.717701,42.4574431 154.69136,42.4554766 C154.978146,40.4162054 155.297343,38.3808672 155.562522,36.3386462 C155.596897,35.9541934 155.648951,35.3711231 155.194218,35.2177353 C154.552878,35.0554982 154.010734,35.5412263 153.56484,35.929612 C153.356626,36.1400287 153.037429,36.3140648 153.01975,36.6434553 C152.753589,38.5814512 152.477606,40.5174807 152.209481,42.4554766 C151.180194,42.4594096 150.150906,42.4584264 149.121619,42.4564599 C149.583227,39.2628471 150.038942,36.068251 150.507425,32.8746382 C151.528855,32.8756215 152.550285,32.8707052 153.571715,32.877588 C153.515733,33.2404092 153.458769,33.6022471 153.404751,33.9650682 C154.235645,33.2295934 155.288504,32.6052263 156.441541,32.7251835 C157.308775,32.7507481 158.076812,33.3190696 158.446098,34.0919081 C159.443957,33.0801386 160.89262,32.4439725 162.320657,32.8008941 Z M125.451939,33.6927065 C124.964796,34.7054594 124.496313,35.7270615 123.992473,36.7319483 C123.707651,36.2973495 123.40024,35.7447601 122.826667,35.6857648 C121.983005,35.5982551 121.327915,36.3543783 121.017558,37.0564225 C120.733718,38.8528297 120.497021,40.6590694 120.223003,42.4584264 C119.207465,42.4554766 118.191928,42.4613761 117.176391,42.4554766 C117.650767,39.2608806 118.095678,36.0613682 118.589697,32.8707052 C119.601305,32.8795545 120.612914,32.8707052 121.624523,32.8756215 C121.564612,33.3190696 121.49979,33.7625177 121.447737,34.2079323 C122.043898,33.5688164 122.689167,32.7910616 123.624169,32.7173174 C124.374527,32.6573389 124.953992,33.2109115 125.451939,33.6927065 Z M189.845244,33.3751151 C190.528817,34.1813844 190.724263,35.3042618 190.569084,36.3297969 C190.29703,38.3739844 189.979798,40.4112891 189.691047,42.4525268 C188.671582,42.4633426 187.652116,42.4564599 186.633632,42.4564599 C186.914525,40.4162054 187.220954,38.3789007 187.492026,36.3376629 C187.556848,35.9020809 187.404615,35.3003287 186.883097,35.259032 C185.898988,35.1921707 185.204612,36.0554687 184.562289,36.672953 C184.238182,38.592267 184.010324,40.530263 183.712735,42.4554766 C182.684429,42.4584264 181.656124,42.4594096 180.628801,42.4554766 C181.099248,39.2618638 181.558892,36.0662845 182.03425,32.873655 C183.054698,32.877588 184.076128,32.8687387 185.097558,32.8795545 C185.046487,33.2443422 184.993451,33.6091299 184.94729,33.975884 C185.728095,33.4567253 186.5089,32.819576 187.48024,32.7418988 C188.299349,32.6593054 189.252029,32.7300997 189.845244,33.3751151 Z M148.357501,32.8825043 L147.015892,42.4564599 C145.971872,42.4584264 144.928835,42.4603929 143.88678,42.4554766 C144.331691,39.2628471 144.781513,36.0702175 145.22446,32.877588 C146.26848,32.8756215 147.313481,32.8667722 148.357501,32.8825043 Z M92.8712539,33.6927065 C92.3860746,34.7054594 91.9077703,35.721162 91.4206267,36.7329315 C91.0984833,36.2167226 90.6594648,35.5628579 89.9552673,35.6847815 C89.076248,35.8548847 88.3769612,36.734898 88.3425862,37.6237607 C88.1157108,39.2333494 87.8780319,40.8419549 87.6452637,42.4515436 C86.6287442,42.4653092 85.6122248,42.4554766 84.5957054,42.4564599 C85.0602596,39.2628471 85.5287425,36.0702175 85.9952611,32.877588 C87.0117805,32.8726717 88.0273178,32.8716885 89.0428551,32.877588 C88.9829443,33.3230026 88.9181228,33.7684172 88.8631227,34.2138318 C89.4524093,33.5766824 90.0908032,32.8067936 91.015001,32.7192839 C91.7751808,32.6455398 92.3693782,33.201079 92.8712539,33.6927065 Z M47.343951,33.3642993 C48.0432378,34.1735183 48.2367202,35.3131111 48.0766307,36.3484788 C47.8045767,38.3867667 47.4902905,40.4201384 47.1995758,42.4564599 C46.181092,42.4584264 45.1626083,42.4584264 44.1431424,42.4564599 C44.4250179,40.4162054 44.7334112,38.3789007 45.0005545,36.3376629 C45.0702867,35.8942149 44.9052865,35.2855799 44.3729642,35.2560823 C43.3976948,35.2069195 42.7072473,36.060385 42.0698356,36.6778692 C41.7555494,38.5971833 41.5119776,40.530263 41.2281379,42.4554766 C40.1978684,42.4594096 39.1685811,42.4574431 38.1392938,42.4564599 C38.6067945,39.2628471 39.072331,36.0702175 39.5408138,32.8766048 C40.562244,32.873655 41.5836742,32.8716885 42.6060865,32.877588 C42.5589435,33.2433589 42.5068899,33.6081466 42.4568005,33.9739175 C43.2346589,33.4616416 44.0076065,32.827442 44.9720723,32.7438653 C45.7911807,32.6593054 46.7468072,32.7222337 47.343951,33.3642993 Z M169.878259,32.877588 C169.433347,36.0712008 168.986471,39.2638303 168.535667,42.4564599 C167.49263,42.4574431 166.449592,42.4594096 165.407537,42.4564599 C165.855395,39.2638303 166.301289,36.0702175 166.748164,32.877588 C167.791202,32.8716885 168.834239,32.8726717 169.878259,32.877588 Z M203.609025,35.5048458 C202.245809,36.0741506 201.685987,38.0721251 202.491345,39.293328 C203.011881,40.060267 204.203223,40.1231953 204.867152,39.5116106 C205.73635,38.7446716 206.082065,37.393679 205.655814,36.3130816 C205.332689,35.5372932 204.368223,35.2315009 203.609025,35.5048458 Z M96.8469744,35.4989463 C95.4984902,36.0367869 94.9504536,37.9590507 95.6418832,39.1920527 C96.1152768,40.0229033 97.3459038,40.156626 98.048137,39.544058 C98.9291205,38.8056334 99.2777818,37.4870882 98.9153705,36.4025578 C98.6295665,35.5815397 97.6366185,35.2187186 96.8469744,35.4989463 Z M24.4246296,29.8570281 C24.5130226,30.0192652 24.6014156,30.1834688 24.6868622,30.3486557 C24.4735965,30.7939298 24.6832543,31.1669648 24.9178236,31.5261683 L25.0583705,31.7404978 C25.1040931,31.8116993 25.1476282,31.8828147 25.1857915,31.9543114 C25.6621315,32.8441573 24.6407014,33.787099 23.7597179,33.6887735 C23.814718,34.1135398 24.0307897,34.588452 24.5257905,34.592385 C24.8243624,34.6730119 24.5395405,34.8903113 24.3804331,34.9542229 C24.4040046,35.0849959 24.4275761,35.2167521 24.4511475,35.3485082 L24.8194517,35.397671 C24.8302553,35.5087788 24.842041,35.6208699 24.8538267,35.732961 C24.7683802,35.7418103 24.5994513,35.7585257 24.5149869,35.7663917 C24.5198976,35.8303033 24.5297191,35.9561599 24.5346298,36.0190883 C24.6534693,36.0436696 24.7723087,36.068251 24.8911482,36.0928324 C24.9019518,36.1970575 24.9137375,36.3012825 24.9265054,36.4055076 C24.788023,36.4055076 24.6505228,36.4064908 24.5130226,36.4064908 L24.4393618,36.8381398 C23.7273071,36.9748123 23.0142703,37.1105015 22.298287,37.2206261 C22.3041799,36.8686207 22.2698048,36.4173066 22.6076625,36.199024 C22.7969981,36.0897734 22.9996715,36.1043401 23.2043994,36.1387001 L23.450337,36.1827753 C23.5321635,36.1961956 23.6135966,36.2061253 23.6939142,36.2059068 C23.8844502,35.7123127 23.5406997,35.2197018 23.2273956,34.86573 C22.8875737,34.7742872 22.5074838,34.9217755 22.1735547,34.7703542 C21.2414997,34.4026168 21.4055178,33.02016 20.3909626,32.7330495 C20.8682848,32.3397474 21.3554284,31.9523449 21.7581076,31.4793992 C21.7463219,31.8500864 21.8101613,32.3299149 22.2334655,32.4449557 C22.8119485,32.6160421 23.3894494,32.8362913 23.8333787,33.263024 C24.2832008,33.2276268 24.9117732,33.0653897 24.9196304,32.5069008 C24.9490947,32.2293547 24.8239322,32.016614 24.6714305,31.8139201 L24.483452,31.5720054 C24.3602464,31.4092711 24.2521294,31.2389486 24.2242722,31.0330013 C24.1643614,30.6308499 24.3401652,30.2434474 24.4246296,29.8570281 Z M174.901927,35.2668981 C174.518891,35.7005136 174.287105,36.2422872 174.067104,36.7712785 C175.013892,36.7820943 175.961661,36.7702952 176.90943,36.7781613 C176.931037,36.2511365 176.93202,35.6660997 176.600055,35.2256013 C176.178715,34.7241412 175.324249,34.8096844 174.901927,35.2668981 Z M128.913016,35.2423167 C128.511319,35.6769155 128.277569,36.2344212 128.051676,36.773245 C129.003374,36.777178 129.954089,36.777178 130.905787,36.773245 C130.904805,36.2806341 130.919537,35.7486931 130.65043,35.3150776 C130.279179,34.731024 129.360874,34.7752705 128.913016,35.2423167 Z M64.2957631,35.2491995 C63.8970124,35.682815 63.6652264,36.2373709 63.4393332,36.773245 C64.3910311,36.7781613 65.342729,36.7761947 66.295409,36.7742282 C66.2963912,36.2776844 66.3081769,35.7388605 66.0312122,35.3042618 C65.6530866,34.727091 64.7387102,34.7792035 64.2957631,35.2491995 Z M21.277839,34.2167815 C20.5117664,34.7133254 20.5510522,35.7319778 20.6571238,36.530381 C20.5520343,36.5598786 20.4469449,36.5903595 20.3418554,36.6218237 C20.2898018,36.484168 20.236766,36.345529 20.1847123,36.2088565 C20.0020335,36.253103 19.8193546,36.2963662 19.6366757,36.3396295 C19.6533722,36.4753187 19.6710508,36.6110079 19.6897115,36.7486636 C19.5797114,36.7407976 19.4697112,36.7339148 19.3606932,36.727032 C19.3106038,36.6001921 19.2605144,36.4743354 19.2114072,36.3484788 C19.1357821,36.3376629 18.9864962,36.3170146 18.9118532,36.3061988 C18.8597995,36.4448378 18.808728,36.58446 18.7586387,36.7250655 C18.6476564,36.6955678 18.536674,36.6650869 18.4256917,36.6365725 L18.4384596,36.2521197 C18.2597093,36.2324546 18.0819412,36.2127895 17.9051552,36.1921412 L17.7711016,35.8313548 L17.4914269,35.1128957 C17.3546633,34.7526556 17.2294399,34.3888512 17.1469397,34.0122645 C17.4857795,33.9739175 17.8864945,33.8982069 18.1605127,34.1597527 C18.543549,34.4714446 18.4973883,35.016168 18.5651562,35.4576496 C18.9422997,35.5736737 19.3341753,35.5146784 19.706408,35.4084868 C19.2143537,34.7978854 19.2241751,33.7507186 19.9696227,33.3505337 C20.5962308,33.0781721 21.1334638,33.6523931 21.277839,34.2167815 Z M17.1322076,31.9198975 C17.5044403,31.9208807 17.8756909,31.8933496 18.2400664,31.8156724 C18.6417635,32.1784936 19.0503355,32.5373817 19.5109613,32.8244922 C19.4520326,32.9857461 19.3940861,33.1479832 19.3361396,33.3102203 C19.2173001,33.3367682 19.0994428,33.3652826 18.9825676,33.3928137 L19.0257819,32.9375666 L18.4443525,32.9169182 C18.3716738,33.0535907 18.2989951,33.1912464 18.2272986,33.3289021 L17.8707801,33.2994045 L17.8334587,32.9267508 L17.2736364,32.8589062 L17.1371183,33.1745311 C17.0281003,33.1411004 16.9200644,33.1076697 16.8110464,33.0752223 C16.8395285,32.9454326 16.8680107,32.8146597 16.8974751,32.6858533 C16.7236355,32.6475063 16.5488138,32.6091593 16.3749742,32.5727789 C16.2551526,31.9208807 16.1520275,31.267016 16.0616702,30.6111848 C16.8739036,30.4135506 17.244172,31.2463677 17.1322076,31.9198975 Z M22.4102515,28.935718 C22.488823,29.1766156 22.6469483,29.4420945 22.4917695,29.6888915 C21.9525722,30.8707642 21.0696244,31.8854835 20.0177478,32.6406235 C19.9146226,32.588511 19.8124796,32.5373817 19.7093544,32.4872357 C20.9763207,31.640653 21.9221257,30.3761869 22.4102515,28.935718 Z M21.9506079,28.076353 C22.0429295,28.2425231 22.2629298,28.395911 22.1951619,28.6053443 C21.7698933,30.1087415 20.8319455,31.4882485 19.5031041,32.3299149 C19.3891754,32.2424052 19.1092642,32.0782016 19.3646218,31.9710267 C20.6659631,31.0536497 21.6746253,29.6633269 21.9506079,28.076353 Z M170.04816,30.5600556 C170.147356,31.3368272 169.498159,32.1165485 168.711461,32.1342471 C167.930656,32.2050415 167.198959,31.5157796 167.193066,30.7380248 C167.159673,30.1195573 167.579049,29.5246879 168.154585,29.317221 C168.999229,28.9917636 169.990213,29.6702097 170.04816,30.5600556 Z M148.508751,30.4302659 C148.689466,31.2365351 148.033393,32.106716 147.204463,32.1332638 C146.412855,32.2158573 145.66839,31.5118466 145.6733,30.7232759 C145.643836,30.1067749 146.06714,29.5138721 146.645623,29.313288 C147.442142,29.0173282 148.374197,29.6043316 148.508751,30.4302659 Z M21.3888213,27.3575935 C21.5184644,27.544412 21.7178397,27.7322137 21.6549825,27.983927 C21.468375,29.6289129 20.2976589,30.9877716 18.9707819,31.8854835 C18.8676567,31.7969906 18.7635494,31.7084976 18.6604242,31.6219712 C20.0953372,30.6564146 21.3485534,29.166783 21.3888213,27.3575935 Z M23.7931108,28.9671822 C24.0209683,29.1893979 24.2075757,29.4833912 24.0779327,29.8127816 C23.8913252,30.3427562 23.8775752,30.9041949 23.9355217,31.4587508 C23.8098072,31.3574755 23.5868605,31.3142123 23.5878426,31.1195278 C23.474896,30.3909357 23.8687359,29.7006906 23.7931108,28.9671822 Z M20.3477483,29.5374702 C19.9205155,30.3437394 19.2006036,30.9513911 18.427656,31.4125378 C18.3372987,31.3328941 18.2469414,31.2532505 18.1565842,31.1736068 C18.774353,30.8668312 19.3803361,30.4823784 19.7722117,29.8973416 C19.890069,29.6790589 20.1198908,29.5935157 20.3477483,29.5374702 Z M24.1319506,26.8866143 C24.0101647,26.9013631 23.8883788,26.9170952 23.7665929,26.931844 C23.5112353,26.7135614 23.0486453,26.31141 22.7805199,26.735193 C22.4082872,27.4411702 23.0201632,28.1471474 23.4041816,28.7026866 C23.6801642,29.4932237 23.1134669,30.2621293 23.2431099,31.0683985 C22.7648056,30.8368419 22.8377298,30.4501768 22.9629532,30.0358577 L23.0334448,29.8078889 C23.1379657,29.4641202 23.2167706,29.1173521 22.9965917,28.8373925 C22.6106089,28.1943436 22.0959653,27.4264214 22.3228406,26.6516163 C22.7215913,25.8640289 23.8873966,26.0891943 24.1319506,26.8866143 Z M16.1176524,27.3772586 C16.3877421,27.4254381 16.7334569,27.3998735 16.9014036,27.6633859 C17.1007789,27.9819605 17.0202431,28.3782124 17.0172967,28.7341507 C17.6331012,29.3722833 18.4561382,29.7783677 19.3341753,29.8953751 C18.9098889,30.3417729 18.3716738,30.6455988 17.8639051,30.9848218 C17.7627443,30.9336925 17.6635477,30.8835465 17.5633689,30.8334005 L17.7489942,30.4371487 L17.107654,30.0408968 L16.8356,30.3171916 C16.7570284,30.2788446 16.6774747,30.2414809 16.5989032,30.2041172 C16.6784569,30.068428 16.7589927,29.933722 16.8395285,29.7990161 C16.3733373,29.4129245 16.2855991,28.8485361 16.2163397,28.2797776 L16.1741218,27.9393895 C16.1512418,27.7703247 16.1235453,27.6039972 16.0813131,27.4451032 L16.1176524,27.3772586 Z M20.0442657,28.7341507 C19.8360511,28.9986464 19.6543543,29.4381614 19.250693,29.3988312 C18.958014,29.2621588 18.7291743,29.0094622 18.4306024,28.873773 C18.7841744,28.6820382 19.1220321,28.9003209 19.4245326,29.0832063 C19.6298007,28.9642324 19.8350689,28.8452586 20.0442657,28.7341507 Z M20.9635528,26.9151287 C20.9900707,27.6191394 20.8810527,28.3369156 20.6158737,28.9907803 C20.5176593,29.2680583 20.2151588,29.2739578 19.9696227,29.2326611 C20.1906052,29.0084789 20.6964095,28.7017033 20.2947125,28.3909947 C19.9666763,28.0271903 19.495247,28.3850951 19.4559612,28.7872465 C19.2526573,28.6830215 19.0493534,28.5778132 18.8470317,28.4706383 C19.039532,27.968195 19.3489074,27.5011487 19.7653367,27.1570094 C20.1464087,27.0085379 20.5628379,26.9878896 20.9635528,26.9151287 Z M24.3784688,27.2455024 C24.6888265,27.7213979 24.4462368,28.303485 24.3941831,28.8177274 C23.8333787,28.4735881 23.6428427,27.8039913 23.7430214,27.1796243 C23.951236,27.1481601 24.2517722,26.9888728 24.3784688,27.2455024 Z M20.9399813,26.0075841 C20.9812314,26.1924361 21.0224815,26.3772881 21.0647137,26.5631233 C20.6571238,26.6358842 20.250516,26.7086451 19.8439082,26.7804227 C19.801676,26.5995038 19.7594438,26.4195681 19.7172116,26.2396324 C19.8252475,26.3182928 19.9323012,26.3959699 20.0413192,26.4746304 L20.3094446,26.1009934 C20.4381056,26.2003022 20.5657843,26.3015774 20.6934631,26.4018695 L20.9399813,26.0075841 Z M135.11132,10.3040159 C135.03373,10.8575885 134.947302,11.4091947 134.871676,11.9637506 C136.500072,11.5773313 138.489896,11.9116381 139.488737,13.3776715 C140.832311,15.3736795 140.539632,18.2664162 138.996683,20.0716727 C137.672752,21.610467 135.378463,22.1286425 133.49471,21.421682 C133.258995,22.9211462 133.038995,24.4235601 132.813102,25.9240075 C131.788725,25.93384 130.765331,25.9308902 129.741936,25.925974 C130.224169,22.6291194 130.730956,19.3352146 131.198456,16.0363935 C130.644527,16.6194638 130.220241,17.3274075 129.608365,17.849516 C129.178185,18.0255187 129.1114,17.4542474 129.220418,17.17107 C129.549436,15.9862475 130.326312,14.9734947 131.218099,14.1485436 C131.363457,14.000072 131.56185,13.8614331 131.570689,13.6313513 C131.734707,12.5232228 131.896761,11.4141109 132.062743,10.3059824 C133.078281,10.3000828 134.0948,10.3020493 135.11132,10.3040159 Z M33.4839294,15.0521551 C33.5703581,15.2065261 33.6567868,15.3608972 33.7412513,15.5162515 C33.5457467,15.9433313 33.7117258,16.2874502 33.9228166,16.6254594 L34.08465,16.8790216 C34.2717893,17.1763094 34.432912,17.4836294 34.3560736,17.8524658 C34.1233054,18.4738831 33.5025902,18.9340465 32.8229463,18.8632521 C32.8465177,19.3568462 33.1666968,19.8199594 33.7049119,19.791445 C33.7127691,19.8356915 33.7284834,19.9251677 33.7363405,19.9703974 C33.6361618,20.0156272 33.5379474,20.0618401 33.4387508,20.1080531 C33.4593758,20.2437424 33.480983,20.3804148 33.501608,20.5170873 C33.6175011,20.5416687 33.7343762,20.56625 33.8522336,20.5908314 L33.9327694,20.9261214 L33.562501,20.9428368 C33.569376,21.0047819 33.5850903,21.128672 33.5919653,21.1906171 C33.7029476,21.217165 33.8139299,21.2446961 33.9249123,21.271244 C33.9494659,21.3744858 33.9740195,21.4787108 33.9995552,21.5829359 C33.8541979,21.5868689 33.7098226,21.5908019 33.5664296,21.594735 C33.5448224,21.737307 33.5241973,21.8818455 33.5035723,22.0254007 C32.7924998,22.1561737 32.0824094,22.2948126 31.3683904,22.4019874 C31.3556225,22.0480156 31.3291046,21.5898187 31.6758016,21.3774356 C32.0195521,21.2024161 32.413392,21.3656365 32.773839,21.4010337 C32.9182143,20.8681094 32.5793744,20.4049962 32.2739275,20.0087444 C31.6944624,20.0785555 30.9941934,20.0520076 30.6632108,19.4846694 C30.3479424,18.8986493 30.1534778,18.1484256 29.4463339,17.9104778 C29.9266025,17.5329079 30.4009782,17.1425556 30.7987467,16.6755093 C30.8154431,17.0255482 30.8566932,17.4817786 31.2485688,17.6135348 C31.8152661,17.7875709 32.379017,17.992088 32.8337498,18.3893231 C33.3267863,18.5348449 34.0761625,18.1631744 33.9681266,17.5584725 C33.957323,17.0589789 33.4407151,16.8023493 33.3120542,16.3490686 C33.1794647,15.9115201 33.3847328,15.4739715 33.4839294,15.0521551 Z M30.3341924,19.3981429 C29.5524055,19.9114021 29.6270484,20.9418535 29.7105307,21.7559888 C29.6005305,21.7638548 29.4895482,21.7727041 29.379548,21.7815534 C29.3324051,21.6507805 29.2862443,21.5209908 29.2400835,21.3912011 C29.066244,21.4305313 28.8924044,21.4688783 28.719547,21.5072252 C28.7156184,21.6645461 28.712672,21.8218669 28.7087434,21.980171 C28.440618,21.9713217 28.338475,21.7333739 28.2373141,21.5239406 C28.1705283,21.5150913 28.0359745,21.4964094 27.9682066,21.4875601 C27.9161529,21.6212828 27.8640993,21.7550055 27.8140099,21.8897115 C27.7118669,21.8779124 27.6097239,21.8651301 27.508563,21.8533311 C27.4918665,21.7146921 27.4761522,21.5760531 27.4614201,21.4374141 C27.2679376,21.3823518 26.9487407,21.4580625 26.889812,21.2024161 C26.6472224,20.5465849 26.3977577,19.891737 26.1728466,19.2300063 C26.5077579,19.1395468 26.9045442,19.0766185 27.1913304,19.3224323 C27.5910631,19.6223251 27.5586524,20.1739312 27.6077596,20.6193458 C27.9799923,20.7756834 28.3826715,20.6901402 28.7607971,20.6055803 C28.2834749,19.9851462 28.2677606,18.9173311 29.0416904,18.5338616 C29.6614235,18.2683827 30.188835,18.8416205 30.3341924,19.3981429 Z M174.860667,12.1220547 C174.393166,15.271421 173.917809,18.4207873 173.442451,21.5691703 C172.422985,21.5681871 171.404501,21.5681871 170.386999,21.5691703 C170.431196,21.2918924 170.476375,21.0136312 170.523518,20.7363532 C169.918517,21.2368301 169.233962,21.7441897 168.408961,21.7284577 C167.159673,21.841532 165.9811,21.0500116 165.42717,19.9585984 C164.171008,17.5319246 165.046098,14.1259287 167.49262,12.8005007 C169.726998,11.5596327 172.422985,11.6904056 174.860667,12.1220547 Z M145.354103,11.9853822 C145.102674,14.0148209 144.776603,16.034427 144.512406,18.0609159 C144.467227,18.4542179 144.513388,18.9950083 144.951424,19.1464296 C145.988569,19.3873271 146.753659,18.4286533 147.430357,17.79937 C147.76625,15.8731731 147.98625,13.9233781 148.284822,11.9893152 C149.313127,11.992265 150.342415,11.9804659 151.37072,11.9971813 C150.900273,15.186861 150.439647,18.3785073 149.968218,21.5681871 C148.946788,21.5681871 147.925357,21.5672038 146.904909,21.5691703 C146.95107,21.2024161 147.002142,20.8366452 147.051249,20.469891 C146.087765,21.2191315 144.929817,21.8582473 143.666779,21.7186251 C142.666956,21.6891275 141.802669,20.9172721 141.554187,19.9664644 C141.269365,19.120865 141.401954,18.2221697 141.530615,17.3618215 C141.791866,15.5713138 142.047223,13.7798229 142.310438,11.9893152 C143.324993,11.9863655 144.339548,11.9932482 145.354103,11.9853822 Z M164.272169,12.6923427 C164.217168,13.4543654 164.125829,14.2134384 164.046275,14.9725114 C163.096542,14.5526614 162.110469,14.0453018 161.047789,14.0747994 C160.495823,14.0856152 160.525288,14.809291 160.901449,15.0511718 C161.954308,15.9125033 163.289042,16.6725596 163.698596,18.0638656 C164.098329,19.4738536 163.113238,20.9634851 161.793236,21.4492132 C160.217877,22.0322835 158.446088,21.6320987 156.992514,20.8926908 C157.119211,20.1552494 157.255729,19.4187913 157.389301,18.6823331 C158.318409,19.0264725 159.237696,19.552514 160.261091,19.4856526 C160.593056,19.4836861 160.972163,19.2191905 160.927967,18.8534195 C160.875913,18.5092802 160.559663,18.3037799 160.317073,18.0943466 L160.10636,17.9297084 L159.678447,17.600091 C158.96398,17.0463129 158.26288,16.4569998 157.871534,15.6303091 C157.292068,14.27735 158.14457,12.6579287 159.461625,12.1338537 C161.040914,11.5153862 162.842166,11.8437935 164.272169,12.6923427 Z M112.932545,11.9902985 C112.503348,15.1848945 112.040758,18.3745743 111.598793,21.5681871 C110.556738,21.5701536 109.515665,21.5652373 108.474592,21.5711368 C108.908699,18.3755575 109.364414,15.182928 109.810308,11.9893152 C110.851381,11.9893152 111.891472,11.988332 112.932545,11.9902985 Z M121.072548,11.8359274 C121.928978,11.8772241 122.66755,12.4514451 123.036837,13.2075684 C123.799963,12.4534117 124.787018,11.8369107 125.889966,11.8231451 C126.658003,11.811346 127.521308,11.9313032 128.075237,12.520273 C128.725417,13.2773795 128.969971,14.3284793 128.811846,15.3068182 C128.537827,17.3962354 128.224523,19.4817196 127.92988,21.5681871 L124.835143,21.5681871 C125.116036,19.5790619 125.420501,17.5928864 125.68568,15.6008115 C125.743626,15.1268825 125.718091,14.3648597 125.105233,14.2930821 C124.368624,14.3107807 123.740052,14.8260064 123.241123,15.321567 C122.91014,17.3972186 122.655765,19.4876191 122.3513,21.5681871 C121.326923,21.5691703 120.302547,21.5672038 119.27817,21.5691703 C119.552188,19.5702126 119.865492,17.5761711 120.131653,15.5762301 C120.154243,15.1848945 120.260314,14.6804846 119.920492,14.3933741 C119.450045,14.1298617 118.902991,14.415989 118.528794,14.7198148 C118.182097,15.0580546 117.62031,15.3117344 117.5879,15.8515415 C117.329596,17.75709 117.054595,19.660672 116.792363,21.5652373 C115.764057,21.5731033 114.736734,21.5652373 113.708429,21.5701536 C114.159233,18.3755575 114.625752,15.182928 115.08736,11.9893152 C116.107808,11.988332 117.129238,11.9893152 118.149686,11.9893152 C118.097632,12.3511531 118.043615,12.712991 117.989597,13.0738457 C118.82933,12.3246052 119.90576,11.6963052 121.072548,11.8359274 Z M157.222336,8.51645796 C156.600639,12.8683453 155.965191,17.2182662 155.336619,21.5691703 C154.295546,21.5681871 153.255455,21.5681871 152.215364,21.5681871 C152.840008,17.2182662 153.474473,12.8703118 154.101081,8.52039099 C155.141172,8.50859192 156.182245,8.51449145 157.222336,8.51645796 Z M134.564265,14.1593594 C134.303015,15.8220439 134.059443,17.4876781 133.811943,19.1523291 C134.782301,19.3735615 135.938285,19.1572454 136.52659,18.2850981 C137.180698,17.2939768 137.347662,15.8967713 136.764269,14.8358389 C136.336054,14.0679166 135.334266,14.0099046 134.564265,14.1593594 Z M169.789856,14.4169722 C168.560211,15.0580546 167.942442,16.5211383 168.022978,17.8642648 C168.058335,18.4424189 168.387354,19.1051329 169.011015,19.2093579 C169.703427,19.317516 170.313339,18.8848837 170.867268,18.5318951 C171.095126,17.0658617 171.321019,15.5988449 171.546912,14.1318282 C170.95075,14.1131464 170.32316,14.1151129 169.789856,14.4169722 Z M26.1875788,17.0914263 C26.5529365,17.1110914 26.9133835,17.0550458 27.2748126,17.0117826 C27.7157955,17.321508 28.0850817,17.7334919 28.5594575,18.0009373 C28.5074038,18.1661242 28.454368,18.3313111 28.4032965,18.4974812 C28.2854392,18.520096 28.1675819,18.5427109 28.0507067,18.5653258 C28.059546,18.4188208 28.0683853,18.2742823 28.0782067,18.1287605 C27.88276,18.122861 27.6873133,18.1169614 27.4918665,18.1110619 C27.4152593,18.2497009 27.3396342,18.3883399 27.2630269,18.5269788 L26.9271335,18.4984644 C26.9202585,18.3745743 26.9143656,18.2497009 26.9084728,18.1258107 L26.3368647,18.0392843 L26.1885609,18.3588422 L25.8644533,18.2447846 L25.950882,17.8652481 C25.7760603,17.8278844 25.6022207,17.7895375 25.427399,17.7521738 C25.3154346,17.0983091 25.2064166,16.4454276 25.1150771,15.7886132 C25.9135605,15.602778 26.3123111,16.4139635 26.1875788,17.0914263 Z M31.460712,14.0934813 C31.5383014,14.3422448 31.7091945,14.61264 31.5500871,14.8673031 C31.0177649,16.0590084 30.1181206,17.0658617 29.0711547,17.8337839 C28.9739224,17.7777384 28.875708,17.7226761 28.7784757,17.6666306 C30.0336562,16.8072655 31.0099077,15.5536152 31.460712,14.0934813 Z M31.0177649,13.2901618 C31.1100864,13.4111022 31.2014259,13.5320426 31.2947296,13.6539662 C30.8753539,15.1937438 29.9501739,16.6450284 28.5741896,17.4906279 L28.256957,17.3165917 C29.5975841,16.3362863 30.705443,14.9557961 31.0177649,13.2901618 Z M30.4510676,12.520273 C30.5924964,12.7375724 30.7820502,12.9647043 30.7044608,13.2439488 C30.4962462,14.8614036 29.3265122,16.1573339 28.0497245,17.0747109 C27.9407065,16.982285 27.8316885,16.889859 27.7236526,16.797433 C29.1674049,15.8358094 30.4117818,14.331429 30.4510676,12.520273 Z M32.8710713,14.184924 C33.1038395,14.3894411 33.2570541,14.6814679 33.1372325,14.9951263 C32.9516072,15.5310003 32.9024999,16.1042381 33.039018,16.658794 L32.6726782,16.4631262 C32.4958922,15.6922542 32.8956249,14.9567793 32.8710713,14.184924 Z M29.4306196,14.7099823 C28.9739224,15.5093687 28.2736535,16.1445516 27.4781165,16.5968489 C27.3946342,16.5191718 27.3121341,16.4414946 27.229634,16.3638175 C27.8307063,16.0363935 28.4416002,15.6676728 28.8275829,15.0836192 C28.9464224,14.8496045 29.1968692,14.7758604 29.4306196,14.7099823 Z M33.1853575,12.0650259 C33.0684824,12.0856742 32.9525893,12.1073058 32.8376784,12.1269709 C32.5793744,11.907705 32.1216952,11.5016207 31.8447304,11.9136046 C31.4616941,12.6028664 32.0637486,13.3206427 32.4487492,13.8653661 C32.7640176,14.6539367 32.1649095,15.4395576 32.2945526,16.2497599 C31.3566047,15.7895964 32.5675887,14.7286641 32.0706237,14.0453018 C31.6777659,13.4101189 31.1945509,12.6677613 31.3536583,11.891973 C31.6974088,11.0630888 32.9417857,11.241058 33.1853575,12.0650259 Z M26.0716858,13.9214116 C26.6933831,14.5447954 27.5046344,14.9734947 28.3836536,15.0737867 C27.9907959,15.5467324 27.4231164,15.795496 26.9487407,16.1671664 C26.8367762,16.1189869 26.7257939,16.0688409 26.6157937,16.0196782 C26.6796331,15.8849722 26.7444547,15.7512495 26.8102583,15.6175268 C26.5882937,15.4867539 26.3673112,15.3520479 26.1473109,15.2183252 C26.0657929,15.3196005 25.9842749,15.4198925 25.9027569,15.5211678 C25.8192746,15.460206 25.7357924,15.4002274 25.6523101,15.3402488 C25.739721,15.2281577 25.8271318,15.1160667 25.9155248,15.0049588 C25.1926665,14.4189387 25.3331132,13.4101189 25.1543629,12.5881176 C25.9636499,12.4042489 26.2524003,13.2813125 26.0716858,13.9214116 Z M29.1448155,13.8948637 C28.9041902,14.1603426 28.7136541,14.6480372 28.2815106,14.5801926 C27.998653,14.4150057 27.7540991,14.1918068 27.4712415,14.0266199 C27.8307063,13.8879809 28.1499033,14.0836487 28.461243,14.2399863 C28.7087434,14.1731249 28.9179402,14.0108878 29.1448155,13.8948637 Z M30.0297276,12.1082891 C30.0326741,12.8270486 29.9452632,13.5713728 29.644727,14.2291705 C29.5278518,14.4867833 29.22928,14.4228718 29.0043689,14.412056 C29.22928,14.2114719 29.74687,13.9263279 29.3785659,13.6018537 C29.0544583,13.1967526 28.5545468,13.5625235 28.5034753,13.9813902 C28.3031178,13.8692991 28.1037425,13.757208 27.9053493,13.6431504 C28.1076711,13.14464 28.4111537,12.6736608 28.8364222,12.3393541 C29.2135656,12.1859663 29.6319591,12.1741672 30.0297276,12.1082891 Z M33.2816077,12.2439783 C33.7864299,12.7110245 33.5202688,13.4189682 33.4662508,14.0040051 C32.8995535,13.6736313 32.6864282,12.9951853 32.8023212,12.3727847 C32.9614286,12.3305048 33.1215181,12.2872415 33.2816077,12.2439783 Z M29.9933883,11.1673139 C30.0366026,11.3600319 30.079817,11.5517667 30.1240135,11.7444847 C29.7144593,11.8221618 29.3049051,11.8968892 28.8924044,11.9598176 C28.8560651,11.7916809 28.8207079,11.6235443 28.7853507,11.4544244 C28.8973151,11.522269 29.0092796,11.5891304 29.1222262,11.656975 L29.3608873,11.2744887 C29.4895482,11.3787138 29.6182091,11.4829388 29.7478522,11.5871639 L29.9933883,11.1673139 Z M112.974767,10.4387218 C112.575035,11.3472496 111.208872,11.5330848 110.603871,10.7356649 C109.84762,9.94611098 110.402531,8.47221148 111.483872,8.36012039 C112.576017,8.16445261 113.495304,9.46628246 112.974767,10.4387218 Z"/><path fill="#AEB8D8" d="M86.5108869,10.2990996 C86.4617797,10.8507057 86.3507974,11.3934626 86.3026723,11.9440855 C87.4291919,11.7366186 88.6568724,11.7435014 89.6871418,12.3010071 C90.7665185,12.8673621 91.443216,14.0089213 91.6504485,15.1878443 C91.9981276,17.1130579 91.4353588,19.2899848 89.899285,20.5731328 C88.5527651,21.7363237 86.5747263,22.0322835 84.9158844,21.4305313 C84.6585626,22.9231127 84.4631159,24.4265098 84.2234726,25.9220409 C83.2040068,25.9485888 82.1835587,25.9358065 81.1640929,25.929907 C81.5873971,22.6409185 82.1698087,19.371595 82.5754344,16.0816232 C82.0912372,16.6174973 81.6738258,17.2123667 81.1739143,17.7334919 C81.0393605,17.9124444 80.818378,17.8573821 80.627842,17.8465663 C80.491324,16.6351959 81.3310574,15.5732803 82.06963,14.7001497 C82.3888269,14.2891491 82.9732028,14.0236702 83.0056136,13.4464994 C83.164721,12.3993326 83.2982926,11.3482328 83.4740965,10.3030326 C84.4857052,10.289267 85.498296,10.2951666 86.5108869,10.2990996 Z M85.9775825,14.1731249 C85.7182964,15.8279434 85.4658853,17.4837451 85.2350813,19.1424966 C86.0581183,19.3273485 87.0196377,19.2280398 87.6442815,18.6095723 C88.5576758,17.6744966 88.7757119,16.1180037 88.2296396,14.9430137 C87.8416925,14.1003641 86.7809766,13.992206 85.9775825,14.1731249 Z M79.7468585,13.8044043 C80.947039,15.7895964 80.5640027,18.5771248 78.9424823,20.2201442 C77.0577472,22.1542071 73.5701525,22.2898964 71.6569352,20.3283023 C70.1581829,18.8239219 70.0324684,16.3136714 71.0922022,14.5280801 C71.8700606,13.1466066 73.2922056,12.1682677 74.8498866,11.9018055 C76.6540859,11.5635657 78.7450713,12.184983 79.7468585,13.8044043 Z M71.0725593,12.7828021 C70.6325586,13.8063708 70.1188971,14.7994585 69.6494321,15.8102448 C69.2968423,15.4592227 69.0699669,14.9046668 68.5317518,14.8102743 C67.6409468,14.6647525 66.8974635,15.4769213 66.6332667,16.2497599 C66.3543377,18.0196192 66.1284445,19.799311 65.8514798,21.5691703 C64.8408532,21.5770364 63.8312088,21.5721201 62.8215643,21.5721201 C63.2399578,18.3716245 63.7261193,15.1780117 64.2132629,11.9863655 C65.2229074,11.9824324 66.2335339,11.9824324 67.2431784,11.9873487 C67.2019283,12.4081819 67.1410353,12.8270486 67.0860353,13.2468986 C67.7077327,12.6677613 68.3078229,11.903772 69.2172886,11.8231451 C69.9745219,11.7464512 70.5697014,12.2941243 71.0725593,12.7828021 Z M75.2456908,14.5644605 C73.7243492,14.9793942 73.0928303,17.1691034 73.9551531,18.4247203 C74.4806003,19.1562621 75.6218521,19.2162407 76.2818531,18.6351369 C77.1284616,17.9193271 77.4604264,16.6656768 77.1638188,15.6096607 C76.9369434,14.809291 76.0333706,14.3550272 75.2456908,14.5644605 Z M102.554215,12.130904 C102.100465,15.279287 101.629035,18.4266868 101.134035,21.5691703 C100.121444,21.5770364 99.1088529,21.5740866 98.0962621,21.5701536 C98.1267085,21.309591 98.1581372,21.0500116 98.1885836,20.789449 C97.7318865,21.1011409 97.306618,21.4924764 96.7595636,21.6379982 C95.4886687,21.9949198 94.0625951,21.4511797 93.3515225,20.3401014 C92.1464314,18.5053472 92.3467888,15.9193861 93.626523,14.1731249 C94.4937565,12.9578216 95.932598,12.285275 97.3645645,12.0070138 C99.0803707,11.6992549 100.851177,11.7788986 102.554215,12.130904 Z M97.5698327,14.381575 C96.2645628,15.0108583 95.6094725,16.5644015 95.7381334,17.9616071 C95.7892049,18.5417277 96.1830448,19.1719942 96.8125994,19.217224 C97.4500111,19.2477049 98.061887,18.9065153 98.5372449,18.508297 C98.6531379,17.9313228 98.7493881,17.3501011 98.8390068,16.7674004 L99.1009801,15.017631 C99.1456637,14.7261863 99.1919423,14.4350641 99.2414424,14.1446105 C98.6767094,14.1151129 98.0844763,14.1170794 97.5698327,14.381575 Z M43.0009085,8.52039099 C45.8157343,8.50564216 48.6315423,8.51055843 51.4463681,8.51842448 C51.3461894,9.29716257 51.2440463,10.0759007 51.1242247,10.851689 C49.4044899,10.8752871 47.6847551,10.8330071 45.9650203,10.8713541 C45.8334129,11.807413 45.6880556,12.7415054 45.5810018,13.6805141 C47.0689506,13.7218108 48.5598457,13.6549495 50.0477945,13.7129615 C49.9044014,14.4690848 49.92208,15.3078014 49.6627939,16.0098456 C48.1817201,16.0688409 46.6957357,16.0019796 45.2126977,16.03836 C45.0555546,17.0963426 44.9268937,18.1572749 44.7785898,19.2162407 C46.8695752,19.2506546 48.9605606,19.2103412 51.051546,19.2359058 C50.9543137,20.0146439 50.8433314,20.7923987 50.7274384,21.5691703 C47.5354691,21.5731033 44.3434999,21.5770364 41.1515306,21.5672038 C41.7614423,17.2172829 42.3752825,12.8683453 43.0009085,8.52039099 M53.0669063,11.9971813 C54.0873543,11.9706334 55.1087845,11.9863655 56.1292325,11.9893152 C55.8640535,13.9450097 55.5753031,15.8977545 55.3022669,17.853449 C55.2649454,18.2703492 55.1932489,18.8347377 55.6106603,19.0913673 C56.1007503,19.3440639 56.6743226,19.0894008 57.0799483,18.7865582 C57.5297704,18.3667082 58.2378965,18.0451838 58.2811109,17.3549387 C58.5305755,15.5673808 58.7790581,13.7798229 59.0471835,11.9952147 C60.0745065,11.9735831 61.1018295,11.9843989 62.1281704,11.988332 C61.6783483,15.1809615 61.2079011,18.3716245 60.7305789,21.560321 C59.7179881,21.5878522 58.7044151,21.5652373 57.6928064,21.5750699 C57.7075385,21.2181482 57.7428957,20.8622099 57.8008422,20.5092212 C56.6753048,21.359737 55.2374454,22.0539151 53.8044967,21.6016177 C52.4903876,21.1729185 52.0091368,19.6183921 52.1623513,18.3608087 C52.4265482,16.235011 52.7712809,14.1190459 53.0669063,11.9971813"/><path fill="#004890" d="M17.8206908 5.28449823C17.8442622 5.82430531 17.9081016 6.36017938 17.9228338 6.89998647 17.4572974 7.11826912 16.9613144 7.28050622 16.5291709 7.56368371 17.019261 7.70920547 17.5201546 7.81441377 18.0151554 7.94223695 18.0868519 8.47811101 18.1133698 9.01890136 18.1909592 9.55379217 18.4865847 9.10739432 18.7547101 8.64329788 19.0306927 8.18510097 19.5463185 8.29719206 20.0589978 8.42501523 20.5795344 8.51645796 20.257391 8.08677546 19.8930154 7.69249013 19.5689078 7.26477414 19.8380153 6.80264421 20.1120336 6.34346404 20.359534 5.86953505 19.8566761 6.05438702 19.3764075 6.29528454 18.8666745 6.46145466 18.5258704 6.06323632 18.1889949 5.65911845 17.8206908 5.28449823M13.5768449 31.8107562C13.9323812 31.158858 14.3085425 30.5187589 14.679793 29.87571 14.9606863 31.2532505 15.1571152 32.646523 15.4252406 34.02603 14.7976504 33.2964547 14.1887208 32.5521305 13.5768449 31.8107562"/><path fill="#FFC422" d="M17.8206908 5.28449823C18.1889949 5.65911845 18.5258704 6.06323632 18.8666745 6.46145466 19.3764075 6.29528454 19.8566761 6.05438702 20.359534 5.86953505 20.1120336 6.34346404 19.8380153 6.80264421 19.5689078 7.26477414 19.8930154 7.69249013 20.257391 8.08677546 20.5795344 8.51645796 20.0589978 8.42501523 19.5463185 8.29719206 19.0306927 8.18510097 18.7547101 8.64329788 18.4865847 9.10739432 18.1909592 9.55379217 18.1133698 9.01890136 18.0868519 8.47811101 18.0151554 7.94223695 17.5201546 7.81441377 17.019261 7.70920547 16.5291709 7.56368371 16.9613144 7.28050622 17.4572974 7.11826912 17.9228338 6.89998647 17.9081016 6.36017938 17.8442622 5.82430531 17.8206908 5.28449823M10.9368408 12.7365891C11.1804126 12.9883025 11.4131808 13.2508316 11.6400562 13.5172937 12.0957712 14.0403855 12.5426469 14.57036 13.0150583 15.078703 13.9628276 14.6932669 14.8939005 14.2635844 15.8544377 13.9096126 15.6530981 14.3097974 15.4272049 14.6962167 15.2072046 15.0855857 15.1689009 15.1544136 15.1305973 15.2232415 15.0932758 15.2910861 14.8300611 15.7374839 14.5599714 16.1799487 14.3291675 16.6440452 14.7652396 17.1602541 15.1934545 17.6843292 15.6305088 18.2005381 15.8573842 18.46995 16.0754202 18.747228 16.2826527 19.032372 16.0862238 18.9979581 15.8897949 18.9625609 15.6953303 18.9222474 14.8978291 18.7442782 14.10131 18.562376 13.3038088 18.3844068 13.1113085 18.6764336 12.9266653 18.9733767 12.7488972 19.275236 12.3855038 19.8710886 12.0417532 20.4797236 11.6538062 21.0608274 11.5212167 20.0166104 11.455413 18.9655106 11.32577 17.9222769 10.3426434 17.6548315 9.33692758 17.4689963 8.36755108 17.1523881 9.2819275 16.6981242 10.2316611 16.3205542 11.1509483 15.8790727 11.0998768 14.8299394 10.9898766 13.7847392 10.9368408 12.7365891M6.96210246 24.1629975C8.31451528 25.6939258 9.64728521 27.2435359 10.9967516 28.777414 12.0987176 28.3388822 13.1859514 27.8629867 14.2820246 27.4087228 15.0520258 27.0960476 15.8072948 26.746992 16.5900639 26.4647978 16.4437244 26.7745232 16.2836348 27.0773658 16.1176524 27.3772586L16.0813131 27.4451032C15.5961337 28.2444897 15.1404188 29.062558 14.679793 29.87571 14.3085425 30.5187589 13.9323812 31.158858 13.5768449 31.8107562 14.1887208 32.5521305 14.7976504 33.2964547 15.4252406 34.02603 16.0911345 34.8716295 16.7982785 35.6837983 17.474976 36.5215317 17.2589042 36.4949838 17.0428324 36.4654861 16.8287249 36.4261559 15.0647936 36.0269543 13.3038088 35.6002216 11.5261274 35.262965 10.4771972 37.0229918 9.43219559 38.7869516 8.3371046 40.5184639 8.13281857 38.4762429 7.95505043 36.4310722 7.72719294 34.3927842 5.80218994 33.7762832 3.77799037 33.405596 1.82155875 32.8569396 3.67290092 32.0093737 5.53602881 31.1883556 7.39129956 30.3506222 7.25772792 28.2877529 7.05835261 26.2278333 6.96210246 24.1629975M22.0006973 37.6119616C22.3906086 38.0190293 22.754002 38.4487118 23.1252526 38.8715115 23.6998071 39.5312757 24.2714151 40.1920232 24.848916 40.8488377 26.1738288 40.3178799 27.4771344 39.7308765 28.8069579 39.2097513 28.1214211 40.4869998 27.3533842 41.717052 26.6737403 42.9972502 27.5841881 44.1083285 28.5241003 45.1948255 29.4139231 46.3226192 28.0192781 46.0345254 26.6344545 45.7031684 25.2407916 45.4072086 24.481594 46.6382441 23.7587357 47.8909112 22.9828417 49.1121141 22.8158771 47.6637792 22.7107877 46.2095448 22.5379303 44.7621932 21.1609638 44.4180539 19.7781045 44.0925965 18.4080131 43.7228925 19.6965866 43.1063915 21.0136422 42.5518356 22.3110549 41.9530332 22.2315012 40.8862014 22.1529297 39.8193695 22.0723938 38.7525376 22.0399831 38.3730011 22.0173937 37.9924814 22.0006973 37.6119616"/><path fill="#AEB8D8" d="M23.2784671,21.8523478 C23.3324851,22.122743 23.3815923,22.3951047 23.4248066,22.6684496 C20.726856,23.1758093 18.0230125,23.6536713 15.319169,24.1325165 C15.2651511,23.8552386 15.2199724,23.5759941 15.1865795,23.2957664 C17.8855123,22.8238039 20.5765879,22.3105447 23.2784671,21.8523478 Z M18.2086378,21.6861777 C18.2430129,21.9192092 18.2783701,22.1522406 18.3127451,22.3852721 C17.2530113,22.5996217 16.1883668,22.7962728 15.1197937,22.9604764 C15.1158651,22.893615 15.108008,22.7608756 15.1050616,22.6940142 C15.326044,22.4491837 15.5244372,22.1129104 15.8878306,22.0824295 C16.6617604,21.9516566 17.4307795,21.7864697 18.2086378,21.6861777 Z M22.468198,20.9585689 C22.7382877,21.0224804 23.318735,21.2004496 23.1547169,21.5514717 C22.1195368,21.7579553 21.0784637,21.9565729 20.0334621,22.1040611 C19.9981049,21.8710297 19.9627477,21.6379982 19.9273905,21.4049667 C20.7710525,21.2446961 21.6156967,21.0618107 22.468198,20.9585689 Z M21.0725708,17.1691034 C21.6029288,18.2959139 21.9515901,19.5171168 22.3788229,20.6921067 C21.556768,20.8425448 20.7356953,21.0018321 19.9087297,21.1267055 C19.7142652,20.3961469 19.7103366,19.6183921 19.4500683,18.9074986 C18.9756926,18.5849909 18.243995,18.7501778 17.8747087,19.1660947 C17.8452444,19.9114021 18.0897983,20.6360612 18.148727,21.3764523 C17.31194,21.5298401 16.4790815,21.7058428 15.6354195,21.8120343 C15.6393481,20.8484443 15.6884553,19.8858375 15.6953303,18.9222474 C15.8897949,18.9625609 16.0862238,18.9979581 16.2826527,19.032372 C16.0754202,18.747228 15.8573842,18.46995 15.6305088,18.2005381 C17.4111366,17.7246426 19.2565859,17.4758791 21.0725708,17.1691034 Z M21.2473925,16.0295107 C21.3171248,16.3205542 21.2365889,16.6037317 21.087303,16.855445 C19.264443,17.1809025 17.4425652,17.5171758 15.6187231,17.8357504 C15.3889013,17.6479487 15.2042581,17.4109842 15.1777402,17.1051919 C15.5155979,17.0393138 15.8544377,16.9783519 16.1942597,16.9213231 C16.2492598,17.0245649 16.3042598,17.1268235 16.3592599,17.2300653 L16.8247964,17.1455053 C16.8483678,17.0314477 16.8729214,16.9183734 16.8974751,16.805299 C17.1793505,16.7502367 17.4622081,16.6991075 17.7460478,16.6519112 C17.8049765,16.75122 17.8639051,16.8505288 17.9218516,16.9498375 C18.1074769,16.9134571 18.2931022,16.8790432 18.4787275,16.8446292 C18.5013168,16.7315549 18.5248883,16.6194638 18.5484598,16.5063895 C18.8676567,16.4414946 19.1888179,16.3874156 19.5119434,16.3451356 C19.5649792,16.4405114 19.618015,16.5349039 19.6720329,16.6302796 C19.8301582,16.6017652 19.9892656,16.5732508 20.148373,16.5457197 C20.1660516,16.4306788 20.182748,16.3166212 20.2004266,16.2025636 C20.5461414,16.1258697 20.8957848,16.0688409 21.2473925,16.0295107 Z M16.7481891,14.8191236 C16.7285462,15.4041604 16.8522964,15.9793647 16.9151537,16.5575187 C16.4476529,16.650928 15.9781879,16.7335214 15.5047943,16.7944832 C15.3987227,16.2861403 15.4016692,15.7325676 15.0932758,15.2910861 C15.1305973,15.2232415 15.1689009,15.1544136 15.2072046,15.0855857 C15.4812229,15.0393727 15.7621161,15.0521551 15.9997951,15.2104591 C16.1716704,14.9577626 16.4594387,14.8663198 16.7481891,14.8191236 Z M18.6437278,13.8791317 C18.4541739,14.6608195 18.8146209,15.4287418 18.8656924,16.2074799 C18.4197989,16.319571 17.9660481,16.3972481 17.509351,16.4523104 C17.3217614,15.6883212 17.3600651,14.855504 16.951493,14.1603426 C17.1921184,14.1180627 17.434708,14.080699 17.6782798,14.0512013 C17.7205121,14.1623091 17.7637264,14.273417 17.8069408,14.3855081 L18.0004232,14.3058644 L18.074084,13.945993 L18.6437278,13.8791317 Z M20.7818561,14.1691919 C20.6286416,14.7394799 20.8486419,15.3038684 20.9075706,15.8702234 C20.4381056,15.9655991 19.9666763,16.0511423 19.4932827,16.1248865 C19.332211,15.6096607 19.3999789,15.0167579 19.046407,14.5762596 C19.0517641,14.4330619 19.1994267,14.4001513 19.3681017,14.3867344 L19.5392885,14.3764527 C19.6238916,14.371198 19.7036401,14.3632507 19.7633724,14.3412616 L19.8051681,14.4185746 L19.8959619,14.5880586 L20.0020335,14.5339796 C20.1139979,14.1859073 20.4803378,14.1937733 20.7818561,14.1691919 Z M33.9970943,33.3800314 C33.9554073,33.6829343 33.9091979,33.9699845 33.8708943,34.2629945 C32.1786595,34.5619041 30.4913355,34.8932611 28.7951721,35.1646395 L28.6606184,34.3613201 C30.4137461,33.9876831 32.2390558,33.7281037 33.9970943,33.3800314 Z M31.6836588,32.7153509 C31.7278553,32.9572317 31.7632125,33.2000957 31.7877661,33.4449262 C30.7270501,33.6219122 29.6732092,33.8362618 28.610529,34.0053817 C28.5329396,33.6209289 28.8973151,33.3102203 29.2076728,33.162732 C30.0277633,32.9906624 30.8576753,32.8559564 31.6836588,32.7153509 Z M34.1399165,32.3144956 C34.1065236,32.581941 34.0692875,32.8372745 34.0349124,33.1057032 L33.5291081,33.1322511 C33.4937509,32.8972531 33.4574115,32.6622551 33.42009,32.4272571 L34.1399165,32.3144956 Z M34.7263421,28.1815613 C34.6924811,28.3752927 34.6611226,28.6016481 34.6301204,28.7957883 C34.4560991,29.8855334 34.3216901,30.9486777 34.1783055,32.0428044 C33.9121444,32.0811513 33.6459832,32.1175318 33.3798221,32.1529289 C33.2600005,31.5541266 33.1755361,30.9494246 33.0635716,30.349639 C33.0036608,29.4922405 31.7484803,29.7124896 31.3624976,30.2041172 C31.3153546,30.9454916 31.5864265,31.6701507 31.6266944,32.4115251 C30.7967824,32.5776952 29.9649061,32.7359993 29.1261548,32.8520234 C29.147762,31.6200046 29.1349941,30.3870027 29.2145478,29.1579337 C31.0472292,28.8108446 32.8808928,28.4529398 34.7263421,28.1815613 Z M34.8432173,27.4234716 C34.8425625,27.5080315 34.8235744,27.5904065 34.8019672,27.6720531 L34.7694395,27.7924388 L34.7747582,27.7468169 C34.7788322,27.7104728 34.7836338,27.6683021 34.7862529,27.6427375 C34.569199,27.8098909 34.3325022,27.9622954 34.0545553,27.9947428 C32.3898206,28.2700543 30.7358894,28.6053443 29.0701726,28.8747562 C28.868833,28.6712224 28.7205292,28.4254086 28.6547255,28.1451809 C28.9670474,28.0832358 29.2803515,28.026207 29.596602,27.983927 C29.7665129,28.1294488 29.9590132,28.253339 30.1927636,28.2356404 C30.3646389,27.7204147 31.1346401,27.5178641 31.481337,27.9672117 C31.6060694,27.9455801 31.7298196,27.9239485 31.8545519,27.9013336 C32.086338,27.3939739 32.8298213,27.2474689 33.2374112,27.6260222 C33.5006259,27.7361467 33.6538404,27.4303544 33.7510727,27.2386196 C34.1144661,27.1727415 34.7322349,26.8718654 34.8432173,27.4234716 Z M30.297853,25.8866438 C30.1505314,26.4549653 30.3499067,27.0193537 30.4245497,27.5817757 C29.9521382,27.6456873 29.4482981,27.8620034 28.9876724,27.7735104 C28.8383865,27.2415694 28.8884758,26.6368675 28.5054395,26.1934194 C28.7431185,26.1472064 28.9827617,26.1059097 29.2224049,26.0675627 C29.3078515,26.1422901 29.3952624,26.218984 29.4826732,26.2937114 C29.624102,25.9544884 29.9629418,25.8817275 30.297853,25.8866438 Z M32.1305345,24.9004388 C31.9311592,25.6968755 32.318124,26.4756136 32.3328562,27.2720503 C31.8899091,27.3467777 31.4479441,27.4283879 31.004997,27.4991822 C30.7908895,26.746992 30.8684789,25.9004093 30.433389,25.2239298 C30.6612465,25.1718173 30.889104,25.1216712 31.1179436,25.0715252 C31.1729437,25.1787 31.2279438,25.2868581 31.283926,25.3950162 C31.3261582,25.3969827 31.4106226,25.4009157 31.453837,25.4028822 C31.4774084,25.2721093 31.5019621,25.1433029 31.5265157,25.0135132 C31.7278553,24.9761495 31.9282127,24.9378025 32.1305345,24.9004388 Z M34.2480378,25.1973819 C34.1105375,25.7735694 34.3423236,26.3369746 34.3816094,26.9092291 C33.9150908,27.0065714 33.4466079,27.0901481 32.9761608,27.1619257 C32.8199998,26.6103196 32.8700892,25.972187 32.4654457,25.5198896 C32.6991961,25.4717101 32.9349107,25.4284469 33.1706254,25.3881334 C33.2708041,25.4608943 33.3709828,25.5336552 33.4711615,25.6073993 C33.569376,25.2406451 33.9337516,25.2278628 34.2480378,25.1973819 Z"/><path fill="#4E6CA8" d="M17.8540837,15.0187244 C17.965066,15.0275737 18.0770305,15.0374062 18.1889949,15.0472388 C18.2538165,15.329433 18.3088165,15.6135938 18.3539952,15.899721 C18.2204235,15.9311852 18.0868519,15.9636326 17.9532803,15.9950968 C17.8688159,15.6765221 17.8256015,15.3481149 17.8540837,15.0187244 M19.9077476,15.0206909 C20.0216763,15.03249 20.1356051,15.044289 20.250516,15.0570713 C20.2809625,15.2684712 20.3123911,15.4798711 20.3438197,15.6912709 C20.2023909,15.6971705 20.0609621,15.70307 19.9195333,15.7099528 C19.8841761,15.4818376 19.869444,15.2497894 19.9077476,15.0206909 M15.9045271,15.7237183 C16.0223844,15.7197853 16.1402417,15.7168356 16.2580991,15.7138858 C16.3042598,15.9292187 16.3474742,16.1455348 16.3877421,16.361851 C16.2463133,16.3746333 16.1058667,16.3864323 15.9644379,16.3992146 C15.9231878,16.1760157 15.9064914,15.949867 15.9045271,15.7237183 M20.3222125,19.3420974 C20.2937303,19.0117236 19.999087,18.3873566 20.5039092,18.3145957 C20.9252492,18.3873566 20.8260526,18.9369962 20.9134634,19.2496714 C20.7160524,19.2801523 20.5186414,19.3106332 20.3222125,19.3420974 M16.5036352,19.9900625 C16.4653315,19.6685381 16.1667596,19.0068074 16.672564,18.9537116 C17.1007789,18.9979581 16.9956895,19.5859446 17.0752432,19.8966533 C16.8847072,19.9271342 16.6941712,19.9585984 16.5036352,19.9900625 M31.3467832,26.0351153 C31.848659,26.0085674 31.7700875,26.6408005 31.8113375,26.98199 C31.6807123,26.9878896 31.5500871,26.9947723 31.4204441,27.0016551 C31.344819,26.685047 31.3025867,26.3595895 31.3467832,26.0351153 M33.4043757,26.0567469 C33.5025902,26.0626464 33.6017868,26.068546 33.7009833,26.0754288 C33.7550013,26.2789626 33.8060728,26.4834797 33.8571443,26.68898 C33.7088405,26.7204441 33.5615188,26.7519083 33.4141972,26.7833725 C33.3739293,26.542475 33.3621435,26.2976444 33.4043757,26.0567469 M29.3864231,26.7735399 C29.4974054,26.7578078 29.6083877,26.7420758 29.7203521,26.7273269 C29.7851737,26.9406933 29.8293702,27.1599592 29.8578524,27.3811916 C29.7252629,27.4106893 29.5926734,27.4411702 29.461066,27.4716511 C29.419816,27.2405861 29.3923159,27.0075547 29.3864231,26.7735399 M33.7982156,29.3998145 C34.3207164,29.1805486 34.3816094,29.9071741 34.3727701,30.25328 C34.2166091,30.3889692 33.9828588,30.3230911 33.7933049,30.357505 C33.773662,30.0467964 33.590001,29.6810255 33.7982156,29.3998145 M30.072942,29.9966504 C30.5649963,29.9455211 30.4923176,30.6023355 30.5797285,30.9248432 C30.3774067,30.9582739 30.175085,30.9926879 29.9737454,31.0271018 C29.9619597,30.6986946 29.6810664,30.1942847 30.072942,29.9966504"/></g></svg>