<?xml version="1.0" encoding="UTF-8"?>
<svg width="282px" height="44px" viewBox="0 0 282 44" version="1.1" xmlns="http://www.w3.org/2000/svg" xmlns:xlink="http://www.w3.org/1999/xlink">
    <title>finetwork/logo/finetwork_principal</title>
    <g id="finetwork/logo/finetwork_principal" stroke="none" stroke-width="1" fill="none" fill-rule="evenodd">
        <path d="M93.9644459,12.3637653 C98.5773083,12.3637653 102.330255,13.8225223 105.234029,16.7404627 C108.137373,19.658403 109.608384,23.6784017 109.647491,28.8042942 L109.647491,30.8745956 L88.4783455,30.8745956 C88.8376108,32.3312219 89.492969,33.4648163 90.4444202,34.2741005 C91.4010283,35.0825323 92.5712188,35.4844044 93.9644459,35.4844044 C96.5089548,35.4844044 98.2760584,34.5195706 99.2713435,32.5881984 L109.22978,34.5387479 C107.996418,37.6535757 106.049252,40.0085543 103.383985,41.6070929 C100.723016,43.2030746 97.5815936,44 93.9644459,44 C89.3520132,44 85.4679951,42.5216394 82.3068049,39.5653444 C79.1460444,36.6090494 77.5684575,32.8242929 77.5684575,28.2119271 C77.5684575,23.5607806 79.1460444,19.7572729 82.3068049,16.8005517 C85.4679951,13.8442567 89.3520132,12.3637653 93.9644459,12.3637653 Z M126.292601,4.83644239 L126.272833,13.2523158 L147.223239,13.2523158 L151.214263,26.969661 L156.346685,13.2523158 L163.678102,13.2523158 L168.805367,26.969661 L172.801118,13.2523158 L183.774179,13.2523158 L174.355069,43.1140064 L164.872788,43.1140064 L160.041186,28.3900634 L155.151999,43.1140064 L145.669717,43.1140064 L138.97389,21.8851064 L126.272833,21.8851064 L126.272833,30.8140804 C126.272833,33.2193463 127.467519,34.4207007 129.851304,34.4207007 C131.201127,34.4207007 132.473166,34.1053398 133.667422,33.4746181 L135.872005,41.8137821 C133.128525,43.2704084 130.269014,44 127.287456,44 C123.388827,44 120.387931,42.9576045 118.280901,40.8676995 C116.17387,38.7782207 115.124867,35.8411031 115.124867,32.0567727 L115.124867,21.8851064 L110.531773,21.8851064 L110.531773,19.564647 L124.23628,4.83644239 L126.292601,4.83644239 Z M199.545149,12.4237691 C204.235365,12.4237691 208.221662,13.9021297 211.50404,16.8584247 C214.78126,19.8147197 216.42202,23.5994762 216.42202,28.2118419 C216.42202,32.8242076 214.78126,36.5995886 211.50404,39.5362801 C208.221662,42.4733977 204.235365,43.9419566 199.545149,43.9419566 C194.854932,43.9419566 190.868635,42.4733977 187.591415,39.5362801 C184.309037,36.5995886 182.673005,32.8242076 182.673005,28.2118419 C182.673005,23.5994762 184.309037,19.8147197 187.591415,16.8584247 C190.868635,13.9021297 194.854932,12.4237691 199.545149,12.4237691 Z M21.5249723,0.00421901696 L21.5249723,9.2724191 L20.1046714,9.28733481 C19.0702798,9.28733481 18.245173,9.56434098 17.6284917,10.1153702 C17.0118103,10.6689563 16.7058332,11.4177253 16.7058332,12.3638079 L16.7058332,13.2523584 L37.3360804,13.2523584 L37.3360804,43.1140491 L26.1833875,43.1140491 L26.1833875,21.8855751 L16.7058332,21.8855751 L16.7058332,43.1140491 L5.49512501,43.1140491 L5.49512501,21.8855751 L2.48689958e-14,21.8855751 L2.48689958e-14,13.2523584 L5.49512501,13.2523584 L5.49512501,11.6538198 C5.49512501,8.10515774 6.63609293,5.27671172 8.92275596,3.16762941 C11.2098487,1.05854709 14.200431,0.00421901696 17.8953621,0.00421901696 L21.5249723,0.00421901696 Z M63.4423291,12.3637653 C66.8605057,12.3637653 69.6035559,13.4688068 71.6671823,15.6763328 C73.7355358,17.884285 74.7699274,20.8597574 74.7699274,24.6057331 L74.7699274,43.1140064 L63.5587895,43.1140064 L63.5587895,26.969661 C63.5587895,25.5518156 63.1707314,24.4079933 62.3984831,23.5416032 C61.6215076,22.674787 60.597,22.2388219 59.3249605,22.2388219 C57.8152729,22.2388219 56.6111328,22.7928343 55.7176969,23.8953188 C54.824261,25.0003603 54.3777579,26.5771646 54.3777579,28.6261579 L54.3777579,43.1140064 L43.225065,43.1140064 L43.225065,13.224189 L54.3777579,13.224189 L54.3777579,16.2686999 C56.8002197,13.6661204 59.8204542,12.3637653 63.4423291,12.3637653 Z M258.208992,-7.10542736e-14 L258.208992,23.1274577 L259.519709,23.1274577 L267.691274,13.2519749 L280.868486,13.2519749 L268.939248,27.4440661 L282,43.1140917 L268.108554,43.1140917 L260.058607,33.1785198 L258.208992,33.1785198 L258.208992,43.1140917 L247.056299,43.1140917 L247.056299,-7.10542736e-14 L258.208992,-7.10542736e-14 Z M241.206722,12.8983872 C242.119497,12.8983872 242.837597,12.9559192 243.35243,13.0739665 L242.934719,24.4874727 L241.148277,24.4874727 C237.929072,24.4874727 235.462346,25.2268661 233.753688,26.7048005 C232.04417,28.1831611 231.18984,30.6361572 231.18984,34.066772 L231.18984,43.1137934 L220.037147,43.1137934 L220.037147,13.2521027 L231.18984,13.2521027 L231.18984,19.1646928 C233.413761,14.985309 236.753724,12.8983872 241.206722,12.8983872 Z M199.545149,21.6493528 C197.83606,21.6493528 196.384388,22.2800745 195.194859,23.541518 C194.000173,24.8029614 193.40326,26.3605884 193.40326,28.2118419 C193.40326,30.0656524 194.010058,31.6232794 195.224082,32.8847228 C196.437676,34.1461663 197.875167,34.776888 199.545149,34.776888 C201.21513,34.776888 202.657348,34.1461663 203.871372,32.8847228 C205.08024,31.6232794 205.687467,30.0656524 205.687467,28.2118419 C205.687467,26.3605884 205.090124,24.8029614 203.900165,23.541518 C202.705909,22.2800745 201.254237,21.6493528 199.545149,21.6493528 Z M93.9644459,20.9991128 C92.6924063,20.9991128 91.580661,21.333651 90.6240528,22.0031536 C89.6726016,22.674787 88.9974752,23.5995614 88.5995331,24.7838693 L98.8540629,24.7838693 C98.0964258,22.2609824 96.4698482,20.9991128 93.9644459,20.9991128 Z M37.31339,4.26163329e-05 L37.3361664,9.27207817 L26.1383505,9.27207817 L26.1606971,4.26163329e-05 L37.31339,4.26163329e-05 Z" id="Combined-Shape" fill="#0B0A0C"></path>
    </g>
</svg>