<?xml version="1.0" encoding="UTF-8"?>
<svg width="118px" height="120px" viewBox="0 0 118 120" version="1.1" xmlns="http://www.w3.org/2000/svg" xmlns:xlink="http://www.w3.org/1999/xlink">
    <title>google/icon/google_principal</title>
    <g id="google/icon/google_principal" stroke="none" stroke-width="1" fill="none" fill-rule="evenodd">
        <g id="Group" fill-rule="nonzero">
            <path d="M117.481356,61.3044026 C117.481356,57.2309229 117.151074,53.1354245 116.446472,49.1280012 L59.9241888,49.1280012 L59.9241888,72.2037131 L92.2918381,72.2037131 C90.9486908,79.6460706 86.6330042,86.2296945 80.313606,90.4132682 L80.313606,105.386058 L99.6241016,105.386058 C110.963788,94.9491428 117.481356,79.5359765 117.481356,61.3044026 Z" id="Path" fill="#4285F4"></path>
            <path d="M59.9241888,119.852416 C76.0859947,119.852416 89.7156375,114.545883 99.6461204,105.386058 L80.3356248,90.4132682 C74.9630354,94.0683905 68.0271106,96.1381585 59.9462076,96.1381585 C44.3128532,96.1381585 31.0575302,85.591149 26.3014674,71.411036 L6.37444522,71.411036 L6.37444522,86.8462211 C16.547135,107.081507 37.2668343,119.852416 59.9241888,119.852416 Z" id="Path" fill="#34A853"></path>
            <path d="M26.2794486,71.411036 C23.7693044,63.9686785 23.7693044,55.9097944 26.2794486,48.4674369 L26.2794486,33.0322518 L6.37444522,33.0322518 C-2.12481507,49.964716 -2.12481507,69.913757 6.37444522,86.8462211 L26.2794486,71.411036 L26.2794486,71.411036 Z" id="Path" fill="#FBBC04"></path>
            <path d="M59.9241888,23.7182956 C68.4674867,23.5861827 76.7245401,26.8009288 82.9118255,32.7019697 L100.02044,15.593355 C89.1871861,5.42066525 74.8089038,-0.172112251 59.9241888,0.0040382215 C37.2668343,0.0040382215 16.547135,12.7749475 6.37444522,33.0322518 L26.2794486,48.4674369 C31.0134925,34.2653051 44.2908344,23.7182956 59.9241888,23.7182956 Z" id="Path" fill="#EA4335"></path>
        </g>
    </g>
</svg>