<svg xmlns="http://www.w3.org/2000/svg" width="81" height="81" viewBox="0 0 81 81"><g fill="none" fill-rule="evenodd" transform="translate(2 33)"><path fill="#4D4D4D" d="M71.3697105,12.27 L71.3697105,12.27 L71.0512249,12.27 L71.0512249,14.85 L71.3697105,14.85 L71.3697105,13.35 C71.3697105,12.84 71.6302895,12.51 72.1514477,12.51 C72.6436526,12.51 72.7305122,12.84 72.7305122,13.26 L72.7305122,14.88 L73.0489978,14.88 L73.0489978,13.26 C73.0489978,12.63 72.8463252,12.24 72.1224944,12.24 C71.7750557,12.24 71.4565702,12.45 71.3407572,12.75 L71.3407572,12.27 L71.3697105,12.27 Z M67.8374165,12.27 L67.8374165,12.27 L67.5478842,12.27 L67.5478842,14.85 L67.8374165,14.85 L67.8374165,12.27 Z M67.8374165,11.31 L67.8374165,11.31 L67.5478842,11.31 L67.5478842,11.82 L67.8374165,11.82 L67.8374165,11.31 Z M65.376392,14.01 L65.376392,14.01 L65.1158129,14.01 C65.1158129,14.61 65.5501114,14.91 66.1002227,14.91 C66.5924276,14.91 67.1135857,14.7 67.1135857,14.13 C67.1135857,13.74 66.7371938,13.53 66.4187082,13.47 L65.9844098,13.35 C65.7817372,13.29 65.4922049,13.17 65.4922049,12.9 C65.4922049,12.63 65.7817372,12.51 66.0423163,12.51 C66.4187082,12.51 66.6792873,12.69 66.6792873,13.08 L66.9977728,13.08 C66.9977728,12.51 66.5634744,12.24 66.1002227,12.24 C65.6659243,12.24 65.1737194,12.42 65.1737194,12.96 C65.1737194,13.38 65.4922049,13.53 65.8975501,13.65 L66.2739421,13.77 C66.5345212,13.83 66.7951002,13.95 66.7951002,14.22 C66.7951002,14.55 66.4187082,14.67 66.1581292,14.67 C65.7238307,14.61 65.4342984,14.46 65.376392,14.01 Z M63.986637,12.27 L63.986637,12.27 L63.7260579,12.27 L63.7260579,14.85 L64.0445434,14.85 L64.0445434,13.53 C64.0445434,12.96 64.4209354,12.57 64.9710468,12.57 L64.9710468,12.3 C64.5367483,12.24 64.1603563,12.51 64.0445434,12.9 L63.986637,12.9 L63.986637,12.27 Z M62.5389755,9.36 L62.5389755,9.36 L62.5389755,7.95 C62.5389755,7.44 62.9153675,7.05 63.4654788,7.05 L63.4654788,6.72 C62.9732739,6.72 62.6547884,6.93 62.5100223,7.38 L62.5100223,6.78 L62.2494432,6.78 L62.2494432,9.36 L62.5389755,9.36 Z M61.467706,13.38 L61.467706,13.38 C61.5256125,12.93 61.7861915,12.48 62.2783964,12.48 C62.7706013,12.48 63.0311804,12.87 63.0311804,13.38 L61.467706,13.38 Z M61.1202673,13.56 L61.1202673,13.56 C61.1202673,14.28 61.467706,14.88 62.2494432,14.88 C62.8285078,14.88 63.1759465,14.55 63.3207127,13.98 L63.0022272,13.98 C62.8864143,14.37 62.6837416,14.58 62.2494432,14.58 C61.6703786,14.58 61.4387528,14.07 61.4387528,13.65 L63.3207127,13.65 C63.3207127,12.9 63.0022272,12.18 62.2494432,12.18 C61.467706,12.21 61.1202673,12.87 61.1202673,13.56 Z M56.8062361,12.27 L56.8062361,12.27 L56.4877506,12.27 L56.4877506,14.85 L56.8062361,14.85 L56.8062361,13.35 C56.8062361,12.84 57.0668151,12.51 57.5879733,12.51 C58.0801782,12.51 58.1670379,12.84 58.1670379,13.26 L58.1670379,14.88 L58.4855234,14.88 L58.4855234,13.26 C58.4855234,12.63 58.2828508,12.24 57.55902,12.24 C57.2405345,12.24 56.8930958,12.45 56.7772829,12.75 L56.7772829,12.27 L56.8062361,12.27 Z M55.7349666,11.31 L55.7349666,11.31 L55.4164811,11.31 L55.4164811,14.82 L55.7349666,14.82 L55.7349666,11.31 Z M51.7973274,13.38 L51.7973274,13.38 C51.8552339,12.93 52.1158129,12.48 52.6080178,12.48 C53.1002227,12.48 53.389755,12.87 53.4476615,13.38 L51.7973274,13.38 Z M51.4498886,13.56 L51.4498886,13.56 C51.4498886,14.28 51.8262806,14.88 52.5790646,14.88 C53.2449889,14.88 53.5634744,14.55 53.6792873,13.98 L53.3608018,13.98 C53.3028953,14.37 53.0423163,14.58 52.5790646,14.58 C52,14.58 51.7683742,14.07 51.7683742,13.65 L53.6503341,13.65 C53.7082405,12.9 53.389755,12.18 52.5501114,12.18 C51.8262806,12.21 51.4498886,12.87 51.4498886,13.56 Z M51.6815145,3.81 L51.6815145,3.81 L54.0556793,3.81 L54.0556793,3.51 L52,3.51 L52,2.13 L53.9109131,2.13 L53.9109131,1.86 L52,1.86 L52,0.63 L53.9977728,0.63 L53.9977728,0.3 L51.6815145,0.3 L51.6815145,3.81 Z M51.6815145,9.36 L51.6815145,9.36 L54.0556793,9.36 L54.0556793,9.09 L52,9.09 L52,7.68 L53.9109131,7.68 L53.9109131,7.41 L52,7.41 L52,6.12 L53.9977728,6.12 L53.9977728,5.82 L51.6815145,5.82 L51.6815145,9.36 Z M54.6926503,1.92 L54.6926503,1.92 C54.6926503,1.59 55.0400891,1.47 55.3006682,1.47 C55.6191537,1.47 55.8797327,1.65 55.8797327,2.04 L56.1982183,2.04 C56.1982183,1.47 55.7639198,1.23 55.3006682,1.23 C54.8663697,1.23 54.3741648,1.41 54.3741648,1.92 C54.3741648,2.37 54.6926503,2.52 55.0979955,2.64 L55.4743875,2.7 C55.7349666,2.76 56.0244989,2.88 56.0244989,3.15 C56.0244989,3.54 55.6481069,3.66 55.3875278,3.66 C54.9532294,3.66 54.6636971,3.45 54.6057906,3.06 L54.3452116,3.06 C54.403118,3.66 54.77951,3.96 55.3296214,3.96 C55.8218263,3.96 56.3429844,3.72 56.3429844,3.15 C56.3429844,2.7 55.9665924,2.49 55.6481069,2.49 L55.2138085,2.37 C54.9821826,2.31 54.6926503,2.19 54.6926503,1.92 Z M56.5167038,9.36 L56.5167038,9.36 L55.5612472,8.01 L56.4877506,6.78 L56.1113586,6.78 L55.4164811,7.71 L54.6926503,6.78 L54.3162584,6.78 L55.1848552,8.01 L54.2583519,9.36 L54.5768374,9.36 L55.3585746,8.22 L56.169265,9.36 L56.5167038,9.36 Z M58.688196,2.58 L58.688196,2.58 C58.688196,3.09 58.4855234,3.63 57.8775056,3.63 C57.2405345,3.63 57.0089087,3.09 57.0089087,2.58 C57.0089087,1.98 57.2405345,1.47 57.8775056,1.47 C58.4855234,1.47 58.688196,2.04 58.688196,2.58 Z M59.0066815,2.58 L59.0066815,2.58 C59.0066815,1.86 58.6302895,1.23 57.8775056,1.23 C57.5011136,1.23 57.1826281,1.41 57.0089087,1.8 L57.0089087,1.29 L56.7483296,1.29 L56.7483296,4.77 L57.0089087,4.77 L57.0089087,3.36 C57.1826281,3.69 57.5011136,3.93 57.8775056,3.93 C58.6302895,3.93 59.0066815,3.3 59.0066815,2.58 Z M58.8040089,8.07 L58.8040089,8.07 C58.8040089,8.58 58.5434298,9.15 57.9933185,9.15 C57.3563474,9.15 57.1247216,8.61 57.1247216,8.07 C57.1247216,7.53 57.3273942,6.96 57.9933185,6.96 C58.5144766,6.96 58.8040089,7.5 58.8040089,8.07 Z M59.064588,8.07 L59.064588,8.07 C59.064588,7.35 58.7461024,6.75 57.9933185,6.75 C57.55902,6.75 57.2405345,6.96 57.1247216,7.32 L57.0668151,7.32 L57.0668151,6.78 L56.8062361,6.78 L56.8062361,10.29 L57.1536748,10.29 L57.1536748,8.85 C57.2694878,9.24 57.6458797,9.42 58.0222717,9.42 C58.7461024,9.42 59.064588,8.79 59.064588,8.07 Z M59.8752784,14.49 L59.8752784,14.49 L59.0935412,12.24 L58.7171492,12.24 L59.701559,14.82 L60.0200445,14.82 L60.9465479,12.24 L60.6280624,12.24 L59.8752784,14.49 Z M61.0623608,2.85 L61.0623608,2.85 C61.0623608,3.36 60.6280624,3.63 60.1937639,3.63 C59.8752784,3.63 59.6146993,3.45 59.6146993,3.12 C59.6146993,2.61 60.2516704,2.61 60.8017817,2.55 C60.8596882,2.49 61.0044543,2.49 61.0044543,2.43 L61.0623608,2.43 L61.0623608,2.85 L61.0623608,2.85 Z M61.467706,3.81 L61.467706,3.81 C61.5256125,3.81 61.5835189,3.81 61.6414254,3.81 L61.6414254,3.51 C61.6414254,3.57 61.5835189,3.57 61.5256125,3.57 C61.4097996,3.57 61.3518931,3.51 61.3518931,3.36 L61.3518931,2.04 C61.3518931,1.35 60.8596882,1.23 60.4253898,1.23 C59.9042316,1.23 59.4699332,1.47 59.4699332,2.07 L59.7305122,2.07 C59.7884187,1.62 60.0489978,1.47 60.4253898,1.47 C60.7438753,1.47 61.0623608,1.59 61.0623608,2.04 C61.0623608,2.31 60.8886414,2.31 60.6280624,2.37 C59.9910913,2.43 59.3541203,2.49 59.3541203,3.15 C59.3541203,3.72 59.7305122,3.96 60.1648107,3.96 C60.6570156,3.96 60.8596882,3.72 61.091314,3.45 C61.0623608,3.63 61.1202673,3.81 61.467706,3.81 Z M61.467706,8.07 L61.467706,8.07 C61.467706,8.64 61.1781737,9.15 60.5991091,9.15 C60.0489978,9.15 59.7305122,8.64 59.7305122,8.07 C59.7305122,7.53 60.0489978,6.96 60.5991091,6.96 C61.1781737,6.96 61.467706,7.5 61.467706,8.07 Z M61.7861915,8.07 L61.7861915,8.07 C61.7861915,7.35 61.3518931,6.75 60.5991091,6.75 C59.8463252,6.75 59.4699332,7.35 59.4699332,8.07 C59.4699332,8.82 59.8463252,9.42 60.5991091,9.42 C61.3229399,9.42 61.7861915,8.79 61.7861915,8.07 Z M63.7260579,0.33 L63.7260579,0.33 L63.4944321,0.33 C63.4365256,0.45 63.3786192,0.54 63.2917595,0.54 C63.2048998,0.54 63.0890869,0.48 62.9732739,0.42 C62.857461,0.36 62.7706013,0.3 62.6547884,0.3 C62.3942094,0.3 62.22049,0.57 62.22049,0.81 L62.3942094,0.81 C62.3942094,0.63 62.5100223,0.54 62.6547884,0.54 C62.7126949,0.54 62.7995546,0.6 62.9153675,0.66 C63.0311804,0.72 63.1180401,0.78 63.2917595,0.78 C63.4944321,0.78 63.6681514,0.57 63.7260579,0.33 Z M63.6681514,3.81 L63.6681514,3.81 L63.9287305,3.81 L63.9287305,2.19 C63.9287305,1.59 63.7260579,1.23 63.0022272,1.23 C62.6837416,1.23 62.3652561,1.41 62.2494432,1.74 L62.2494432,1.29 L61.9309577,1.29 L61.9309577,3.84 L62.2494432,3.84 L62.2494432,2.37 C62.2494432,1.86 62.5100223,1.47 63.0022272,1.47 C63.4944321,1.47 63.6681514,1.8 63.6681514,2.25 L63.6681514,3.81 L63.6681514,3.81 Z M64.6815145,6.78 L64.6815145,6.78 L64.1893096,6.78 L64.1893096,5.97 L63.8708241,5.97 L63.8708241,6.78 L63.4365256,6.78 L63.4365256,7.05 L63.8708241,7.05 L63.8708241,8.79 C63.8708241,9.24 64.0155902,9.36 64.3919822,9.36 C64.5077951,9.36 64.5657016,9.36 64.6525612,9.36 L64.6525612,9.09 C64.5367483,9.09 64.4788419,9.15 64.3919822,9.15 C64.1893096,9.09 64.1893096,8.97 64.1893096,8.76 L64.1893096,7.08 L64.6815145,7.08 L64.6815145,6.78 L64.6815145,6.78 Z M66.1002227,2.85 L66.1002227,2.85 C66.1002227,3.36 65.6659243,3.63 65.2316258,3.63 C64.9710468,3.63 64.7104677,3.45 64.7104677,3.12 C64.7104677,2.61 65.3474388,2.61 65.8396437,2.55 C65.8975501,2.49 66.0423163,2.49 66.1002227,2.43 L66.1002227,2.85 Z M66.4766147,3.81 L66.4766147,3.81 C66.5345212,3.81 66.5924276,3.81 66.6213808,3.81 L66.6213808,3.51 C66.6213808,3.57 66.5634744,3.57 66.5634744,3.57 C66.389755,3.57 66.3608018,3.51 66.3608018,3.36 L66.3608018,2.04 C66.3608018,1.35 65.9265033,1.23 65.4922049,1.23 C64.9131403,1.23 64.5367483,1.47 64.4788419,2.07 L64.7973274,2.07 C64.7973274,1.62 65.0579065,1.47 65.4342984,1.47 C65.7817372,1.47 66.1002227,1.59 66.1002227,2.04 C66.1002227,2.31 65.9265033,2.31 65.7238307,2.37 C65.0579065,2.43 64.363029,2.49 64.363029,3.15 C64.363029,3.72 64.7394209,3.96 65.2316258,3.96 C65.6659243,3.96 65.8975501,3.72 66.1002227,3.45 C66.1002227,3.63 66.1581292,3.81 66.4766147,3.81 Z M66.6792873,8.34 L66.6792873,8.34 C66.6792873,8.85 66.3028953,9.15 65.8106904,9.15 C65.5211581,9.15 65.2605791,8.97 65.2605791,8.64 C65.2605791,8.13 65.9265033,8.13 66.389755,8.07 C66.5055679,8.07 66.5924276,8.01 66.6503341,7.95 L66.6503341,8.34 L66.6792873,8.34 Z M67.0556793,9.36 L67.0556793,9.36 C67.1714922,9.36 67.2004454,9.36 67.2583519,9.3 L67.2583519,9.09 C67.2004454,9.09 67.2004454,9.09 67.1714922,9.09 C67.0556793,9.09 66.9977728,9.03 66.9977728,8.91 L66.9977728,7.5 C66.9977728,6.84 66.5055679,6.72 66.1002227,6.72 C65.5501114,6.72 65.1158129,6.93 65.1158129,7.56 L65.376392,7.56 C65.376392,7.17 65.6659243,6.96 66.0423163,6.96 C66.4187082,6.96 66.6792873,7.08 66.6792873,7.53 C66.6792873,7.8 66.5634744,7.8 66.3028953,7.86 C65.6659243,7.92 65,7.98 65,8.7 C65,9.21 65.376392,9.42 65.8106904,9.42 C66.3028953,9.42 66.5055679,9.24 66.6792873,8.91 L66.7371938,8.91 C66.7371938,9.15 66.7951002,9.36 67.0556793,9.36 Z M67.7505568,8.07 L67.7505568,8.07 C67.7505568,7.53 68.0400891,6.96 68.6191537,6.96 C68.9955457,6.96 69.2561247,7.23 69.3140312,7.56 L69.6325167,7.56 C69.5167038,6.99 69.1403118,6.72 68.6191537,6.72 C67.8663697,6.72 67.4899777,7.32 67.4899777,8.04 C67.4899777,8.79 67.8953229,9.39 68.6191537,9.39 C69.169265,9.39 69.5746102,9 69.6325167,8.4 L69.3429844,8.4 C69.3429844,8.85 69.0244989,9.12 68.6481069,9.12 C68.0400891,9.15 67.7505568,8.64 67.7505568,8.07 Z M70.0957684,6.27 L70.0957684,6.27 L70.3563474,6.27 L70.3563474,5.82 L70.0957684,5.82 L70.0957684,6.27 Z M70.0957684,9.36 L70.0957684,9.36 L70.3563474,9.36 L70.3563474,6.78 L70.0957684,6.78 L70.0957684,9.36 Z M70.298441,13.56 L70.298441,13.56 C70.298441,14.13 70.0378619,14.61 69.4298441,14.61 C68.8797327,14.61 68.5612472,14.1 68.5612472,13.56 C68.5612472,12.99 68.8797327,12.48 69.4298441,12.48 C70.0378619,12.48 70.298441,12.99 70.298441,13.56 Z M70.6169265,13.56 L70.6169265,13.56 C70.6169265,12.81 70.1826281,12.21 69.4298441,12.21 C68.6770601,12.21 68.3006682,12.81 68.3006682,13.56 C68.3006682,14.28 68.6770601,14.88 69.4298441,14.88 C70.2115813,14.88 70.6169265,14.28 70.6169265,13.56 Z M71.9777283,6.45 L71.9777283,6.45 L72.5857461,5.7 L72.2093541,5.7 L71.7171492,6.45 L71.9777283,6.45 Z M72.8463252,8.07 L72.8463252,8.07 C72.8463252,8.64 72.5857461,9.15 71.9777283,9.15 C71.4565702,9.15 71.1091314,8.64 71.1091314,8.07 C71.1091314,7.53 71.4276169,6.96 71.9777283,6.96 C72.5857461,6.96 72.8463252,7.5 72.8463252,8.07 Z M73.1648107,8.07 L73.1648107,8.07 C73.1648107,7.35 72.7305122,6.75 71.9777283,6.75 C71.2249443,6.75 70.8485523,7.35 70.8485523,8.07 C70.8485523,8.82 71.2249443,9.42 71.9777283,9.42 C72.7305122,9.42 73.1648107,8.79 73.1648107,8.07 Z M75.3363029,9.36 L75.3363029,9.36 L75.596882,9.36 L75.596882,7.68 C75.596882,7.08 75.3942094,6.75 74.6993318,6.75 C74.3808463,6.75 74.0334076,6.93 73.9175947,7.26 L73.9175947,6.78 L73.5991091,6.78 L73.5991091,9.36 L73.9175947,9.36 L73.9175947,7.83 C73.9175947,7.32 74.1781737,6.93 74.6993318,6.93 C75.1915367,6.93 75.3363029,7.26 75.3363029,7.71 L75.3363029,9.36 Z M73.8017817,13.38 L73.8017817,13.38 C73.8596882,12.93 74.1202673,12.48 74.6124722,12.48 C75.1046771,12.48 75.3652561,12.87 75.3652561,13.38 L73.8017817,13.38 Z M73.8017817,13.68 L73.8017817,13.68 L75.6837416,13.68 C75.6837416,12.93 75.3652561,12.21 74.6124722,12.21 C73.8017817,12.21 73.4832962,12.87 73.4832962,13.56 C73.4832962,14.28 73.8017817,14.88 74.6124722,14.88 C75.1915367,14.88 75.5389755,14.55 75.6837416,13.98 L75.3652561,13.98 C75.2494432,14.37 75.0467706,14.58 74.6124722,14.58 C74.0334076,14.61 73.8017817,14.13 73.8017817,13.68 Z M77.5946548,13.05 L77.5946548,13.05 L77.8552339,13.05 C77.8552339,12.48 77.4788419,12.21 76.986637,12.21 C76.5523385,12.21 76.0022272,12.39 76.0022272,12.93 C76.0022272,13.35 76.3207127,13.5 76.7260579,13.62 L77.1024499,13.74 C77.363029,13.8 77.6525612,13.92 77.6525612,14.19 C77.6525612,14.52 77.2761693,14.64 77.0155902,14.64 C76.5812918,14.64 76.2917595,14.46 76.2628062,14.04 L76.0022272,14.04 C76.0601336,14.64 76.4365256,14.94 77.0445434,14.94 C77.4788419,14.94 78,14.73 78,14.16 C78,13.77 77.623608,13.56 77.3051225,13.5 L76.8708241,13.38 C76.7260579,13.32 76.3786192,13.2 76.3786192,12.93 C76.3786192,12.66 76.7260579,12.54 76.986637,12.54 C77.2761693,12.48 77.5367483,12.66 77.5946548,13.05 Z"/><path fill="gray" d="M0,0.3 L3.06904232,0.3 L3.06904232,3.15 L0,3.15 L0,3.15 L0,0.3 Z M30.0244989,5.76 L30.0244989,5.76 L21.3385301,5.76 L21.3385301,9.3 L30.0244989,9.3 L30.0244989,5.76 Z"/><path fill="#4D4D4D" d="M47.0200445,14.79 L43.4008909,14.79 L40.4476615,10.26 L37.4075724,14.79 L33.8463252,14.79 L38.6525612,7.5 L33.8463252,0.27 L37.4075724,0.27 L40.4476615,4.8 L43.4008909,0.27 L47.0200445,0.27 L42.2138085,7.5 L42.2138085,7.5 L47.0200445,14.79 Z M13.1158129,15 C15.8084633,15 17.4298441,14.01 18.8485523,12.42 L16.908686,10.35 C15.8084633,11.43 14.8530067,12.09 13.2316258,12.09 C10.857461,12.09 9.17817372,10.02 9.17817372,7.5 C9.17817372,4.98 10.857461,2.97 13.2316258,2.97 C14.6503341,2.97 15.7216036,3.57 16.7928731,4.59 L18.7327394,2.25 C17.4298441,0.96 15.8663697,0 13.2316258,0 C8.94654788,0 5.93541203,3.42 5.93541203,7.5 L5.93541203,7.56 L5.93541203,7.56 C5.93541203,11.7 9.00445434,15 13.1158129,15 Z M0,6 L0,6 L0,14.79 L3.06904232,14.79 L3.06904232,3.18 L0,6 Z M31.8485523,0.3 L31.8485523,0.3 L21.3095768,0.3 L21.3095768,3.84 L31.8485523,3.84 L31.8485523,0.3 Z M31.8485523,11.22 L31.8485523,11.22 L21.3095768,11.22 L21.3095768,14.79 L31.8485523,14.79 L31.8485523,11.22 Z"/></g></svg>