<svg xmlns="http://www.w3.org/2000/svg" width="81" height="81" viewBox="0 0 81 81"><g fill="#4D4D4D" transform="translate(1 32)"><path d="M5.69333963,5.25582813 L5.69333963,5.59982836 L3.119,5.59973424 L3.119,17.3637342 L5.96445104,17.3646362 L5.96445104,17.7086364 L3.119,17.7077342 L2.77746806,17.7105628 L2.777,17.7077342 L0.271111411,17.7086364 L0.271111411,17.3646362 L2.777,17.3637342 L2.777,5.59973424 L-5.26689803e-13,5.59982836 L-5.26689803e-13,5.25582813 L5.69333963,5.25582813 Z M18.3192691,12.4278201 L17.9362232,12.4278201 C17.8340776,13.111931 17.6361705,13.7496616 17.342502,14.3410118 C17.0488334,14.9323619 16.6657875,15.4425464 16.1933641,15.8715651 C15.7209408,16.3005838 15.1591401,16.6368418 14.5079619,16.8803389 C13.8567838,17.123836 13.1226124,17.2455846 12.3054477,17.2455846 C11.3861375,17.2455846 10.5657807,17.0774556 9.84437751,16.7411977 C9.12297431,16.4049397 8.51329284,15.9585284 8.0153331,15.4019635 C7.51737337,14.8453987 7.14071152,14.2018705 6.88534755,13.4713792 C6.62998359,12.7408878 6.5023016,11.9814087 6.5023016,11.1929418 C6.5023016,10.5436162 6.60763924,9.85370766 6.81831451,9.1232163 C7.02898978,8.39272493 7.37053909,7.7173103 7.84296243,7.09697239 C8.31538576,6.47663449 8.93783543,5.96065249 9.71031143,5.5490264 C10.4827874,5.13740032 11.4308262,4.93158727 12.5544276,4.93158727 C13.2949831,4.93158727 13.9685056,5.03884196 14.574995,5.25335133 C15.1814844,5.4678607 15.7049805,5.7490419 16.1454834,6.09689493 C16.5859862,6.44474796 16.9339196,6.83608262 17.1892836,7.27089891 C17.4446476,7.70571519 17.5914818,8.14922781 17.6297864,8.60143675 L18.0128324,8.60143675 C18.0000642,8.21879841 17.8787663,7.79557723 17.6489387,7.33177319 C17.4191112,6.86796914 17.0775619,6.43025408 16.6242908,6.01862799 C16.1710198,5.60700191 15.606027,5.26494643 14.9293125,4.99246155 C14.252598,4.71997668 13.4609697,4.58373424 12.5544276,4.58373424 C11.3925216,4.58373424 10.4029862,4.78664851 9.58582149,5.19247705 C8.7686568,5.59830558 8.10471049,6.12008513 7.59398256,6.75781569 C7.08325463,7.39554624 6.70978483,8.10574618 6.47357316,8.8884155 C6.23736149,9.67108482 6.11925565,10.4392603 6.11925565,11.1929418 C6.11925565,12.1205499 6.27247403,12.9756886 6.57891079,13.7583579 C6.88534755,14.5410273 7.30989015,15.2135431 7.85253857,15.7759055 C8.395187,16.3382679 9.04636512,16.7788817 9.80607292,17.097747 C10.5657807,17.4166123 11.3989057,17.5760449 12.3054477,17.5760449 C13.1736852,17.5760449 13.9525453,17.4484988 14.642028,17.1934066 C15.3315107,16.9383144 15.928424,16.5846638 16.4327678,16.1324549 C16.9371117,15.6802459 17.3488861,15.138175 17.668091,14.5062419 C17.987296,13.8743089 18.2043554,13.1815017 18.3192691,12.4278201 Z M19.3642047,17.3177638 L19.3642047,11.1882001 L25.6610224,11.1882001 L25.6610224,10.829746 L19.3642047,10.829746 L19.3642047,5.23786334 L26.0591818,5.23786334 L26.0591818,4.87940932 L19.0692717,4.87940932 L19.0692717,17.6762178 L26.1181684,17.6762178 L26.1181684,17.3177638 L19.3642047,17.3177638 Z M35.9630017,4.62138163 L31.5192806,10.617585 L27.1112521,4.62138163 L26.6650954,4.62138163 L31.2872791,10.9074317 L26.3974013,17.5557902 L26.8435581,17.5557902 L31.5192806,11.1972784 L36.1771569,17.5557902 L36.6233137,17.5557902 L31.7691284,10.9074317 L36.4091584,4.62138163 L35.9630017,4.62138163 Z"/><g transform="translate(37.272)"><path d="M0 4.2442473 0 17.7105628.516196126 17.7105628.516196126 10.0866371C.516196126 9.33559745.619435351 8.61948988.825913802 7.93831439 1.03239225 7.2571389 1.33780829 6.65892709 1.74216193 6.14367896 2.14651556 5.62843083 2.64980678 5.21797893 3.25203559 4.91232326 3.85426441 4.60666759 4.55112918 4.45383976 5.34262991 4.45383976 5.91044564 4.45383976 6.44814994 4.53680344 6.9557428 4.7027308 7.46333566 4.86865816 7.91070563 5.13064874 8.29785273 5.48870252 8.68499982 5.84675631 8.99041586 6.3008733 9.21410085 6.85105351 9.43778584 7.40123371 9.54962833 8.06930968 9.54962833 8.8552814L9.54962833 17.7105628 10.0658245 17.7105628 10.0658245 8.77668423C10.0658245 7.9907125 9.94968033 7.29643748 9.71739208 6.69385916 9.48510382 6.09128084 9.15817961 5.58476573 8.73661944 5.17431383 8.31505927 4.76386194 7.81606968 4.45383976 7.23965067 4.2442473 6.66323166 4.03465484 6.03089141 3.92985861 5.34262991 3.92985861 4.68878148 3.92985861 4.09515593 4.02155531 3.56175327 4.20494871 3.02835061 4.38834211 2.55947246 4.64596618 2.15511883 4.9778209 1.75076519 5.30967563 1.41523771 5.69392847 1.14853638 6.13057943.881835049 6.56723039.688261502 7.04754644.567815739 7.57152759L.516196126 7.57152759.516196126 4.2442473 0 4.2442473ZM12.6468051 11.0822013 23.7450218 11.0822013C23.7794349 10.1565012 23.6891006 9.2657333 23.4740188 8.40989742 23.2589371 7.55406155 22.9148064 6.79428888 22.4416266 6.13057943 21.9684468 5.46686998 21.3576147 4.93415581 20.6091303 4.53243693 19.860646 4.13071805 18.9702076 3.92985861 17.9378154 3.92985861 17.1979343 3.92985861 16.4752597 4.08705295 15.7697917 4.40144164 15.0643236 4.71583033 14.4448883 5.17431383 13.9114856 5.77689215 13.3780829 6.37947047 12.9479195 7.11741059 12.6209953 7.9907125 12.2940711 8.86401442 12.130609 9.8595786 12.130609 10.977405 12.130609 11.9729692 12.2424515 12.9030358 12.4661364 13.7676047 12.6898214 14.6321736 13.0339522 15.3832132 13.4985287 16.0207236 13.9631052 16.658234 14.5610324 17.1516496 15.2923102 17.5009703 16.0235881 17.8502911 16.9054231 18.0162185 17.9378154 17.9987524 19.4519907 17.9987524 20.7252745 17.566468 21.7576667 16.7018991 22.790059 15.8373302 23.4008911 14.619074 23.590163 13.0471306L23.0739668 13.0471306C22.8502819 14.5317438 22.2781645 15.6452038 21.3576147 16.3875104 20.437065 17.129817 19.2799253 17.5009703 17.8861958 17.5009703 16.9398362 17.5009703 16.1397322 17.335043 15.4858838 17.0031882 14.8320354 16.6713335 14.2986327 16.2172165 13.8856758 15.6408373 13.4727189 15.064458 13.1673029 14.387649 12.9694277 13.6104103 12.7715525 12.8331716 12.6640116 11.9904353 12.6468051 11.0822013ZM23.2288257 10.5582201 12.6468051 10.5582201C12.6984247 9.61505406 12.8704901 8.76795121 13.1630012 8.01691156 13.4555124 7.26587192 13.8383578 6.62399501 14.3115376 6.09128084 14.7847174 5.55856668 15.3353266 5.15248129 15.9633652 4.87302467 16.5914038 4.59356806 17.2667604 4.45383976 17.989435 4.45383976 18.8497619 4.45383976 19.6068495 4.61540061 20.260698 4.93852232 20.9145464 5.26164403 21.4608539 5.70266149 21.8996207 6.26157472 22.3383874 6.82048794 22.6696132 7.47109787 22.8932982 8.21340449 23.1169832 8.95571112 23.2288257 9.73731633 23.2288257 10.5582201Z"/><polygon points="34.198 4.244 29.63 10.349 25.165 4.244 24.494 4.244 29.32 10.742 24.029 17.711 24.648 17.711 29.63 11.135 34.637 17.711 35.282 17.711 29.965 10.742 34.817 4.244"/><path d="M37.7339368,4.76822844 L40.7278744,4.76822844 L40.7278744,4.2442473 L37.7339368,4.2442473 L37.7339368,0 L37.2177407,0 L37.2177407,4.2442473 L34.7916189,4.2442473 L34.7916189,4.76822844 L37.2177407,4.76822844 L37.2177407,15.1954533 C37.2177407,16.1560854 37.4285208,16.8154283 37.850081,17.1734821 C38.2716411,17.5315359 38.7835356,17.7105628 39.3857644,17.7105628 C39.7815148,17.7105628 40.0525178,17.7018298 40.1987733,17.6843637 C40.3450289,17.6668977 40.4955861,17.6494317 40.6504449,17.6319656 L40.6504449,17.1079845 C40.5644122,17.1429166 40.4181567,17.1647491 40.2116782,17.1734821 C40.0051998,17.1822151 39.7729115,17.1865816 39.5148135,17.1865816 C39.308335,17.1865816 39.1018566,17.1734821 38.8953781,17.1472831 C38.6888997,17.121084 38.4996277,17.0381203 38.3275624,16.898392 C38.155497,16.7586637 38.0135431,16.5490713 37.9017006,16.2696146 C37.7898581,15.990158 37.7339368,15.5971722 37.7339368,15.0906571 L37.7339368,4.76822844 Z"/></g></g></svg>