<?xml version="1.0" encoding="UTF-8"?>
<svg width="32px" height="32px" viewBox="0 0 32 32" version="1.1" xmlns="http://www.w3.org/2000/svg" xmlns:xlink="http://www.w3.org/1999/xlink">
    <title>icon_ui_088a</title>
    <g id="icon_ui_088a" stroke="none" stroke-width="1" fill="none" fill-rule="evenodd">
        <path d="M15.8070888,4 C16.3593735,4 16.8070888,4.44771525 16.8070888,5 C16.8070888,5.51283584 16.4210486,5.93550716 15.9237099,5.99327227 L15.8070888,6 L8,6 C6.40231912,6 5.09633912,7.24891996 5.00509269,8.82372721 L5,9 L5,23 C5,24.5976809 6.24891996,25.9036609 7.82372721,25.9949073 L8,26 L24,26 C25.5976809,26 26.9036609,24.75108 26.9949073,23.1762728 L27,23 L27,16 C27,15.4477153 27.4477153,15 28,15 C28.5128358,15 28.9355072,15.3860402 28.9932723,15.8833789 L29,16 L29,23 C29,25.6887547 26.8776933,27.8818181 24.2168896,27.9953805 L24,28 L8,28 C5.3112453,28 3.11818189,25.8776933 3.00461951,23.2168896 L3,23 L3,9 C3,6.3112453 5.12230671,4.11818189 7.78311038,4.00461951 L8,4 L15.8070888,4 Z M27,4 C28.0543618,4 28.9181651,4.81587779 28.9945143,5.85073766 L29,6 L29,12 C29,12.5522847 28.5522847,13 28,13 C27.4871642,13 27.0644928,12.6139598 27.0067277,12.1166211 L27,12 L26.999,7.415 L16.7071068,17.7071068 C16.3165825,18.0976311 15.6834175,18.0976311 15.2928932,17.7071068 C14.9324093,17.3466228 14.9046797,16.7793918 15.2097046,16.3871006 L15.2928932,16.2928932 L25.584,6 L21,6 C20.4477153,6 20,5.55228475 20,5 C20,4.48716416 20.3860402,4.06449284 20.8833789,4.00672773 L21,4 L27,4 Z" id="Combined-Shape" fill="#000000"></path>
    </g>
</svg>