<?xml version="1.0" encoding="UTF-8"?>
<svg width="32px" height="32px" viewBox="0 0 32 32" version="1.1" xmlns="http://www.w3.org/2000/svg" xmlns:xlink="http://www.w3.org/1999/xlink">
    <title>icon_ui_012d</title>
    <g id="icon_ui_012d" stroke="none" stroke-width="1" fill="none" fill-rule="evenodd">
        <path d="M16,0 C24.836556,0 32,7.163444 32,16 C32,24.836556 24.836556,32 16,32 C7.163444,32 0,24.836556 0,16 C0,7.163444 7.163444,0 16,0 Z M24.1110665,9.79307429 C23.6718605,9.35481997 22.9607531,9.35489357 22.5216379,9.79323881 L12.658266,19.6393149 L9.47826997,16.4655522 C9.03910936,16.0272524 8.32800193,16.0272524 7.88884132,16.4655522 L7.79783906,16.5563761 C7.35736962,16.9977075 7.35806843,17.7100178 7.79783906,18.1489264 L11.8636437,22.2067613 C12.3028365,22.6450932 13.0140073,22.6450564 13.4531548,22.2066791 L24.2022434,11.4764394 C24.6426671,11.0350623 24.6418946,10.3227522 24.2020785,9.88388908 Z" id="Combined-Shape" fill="#000000"></path>
    </g>
</svg>