<?xml version="1.0" encoding="UTF-8"?>
<svg width="32px" height="32px" viewBox="0 0 32 32" version="1.1" xmlns="http://www.w3.org/2000/svg" xmlns:xlink="http://www.w3.org/1999/xlink">
    <title>icon_ui_012a</title>
    <g id="icon_ui_012a" stroke="none" stroke-width="1" fill="none" fill-rule="evenodd">
        <path d="M11.5443547,21.0936379 L24.69898,8.04734958 C25.283661,7.46748382 26.2264894,7.46738623 26.8112904,8.04713095 L26.9256763,8.16052784 C27.5140006,8.74376538 27.5181243,9.69350389 26.9348867,10.2818282 C26.9319028,10.2848381 26.9289061,10.2878354 26.9258968,10.29082 L12.6007432,24.4979965 C12.0160192,25.0779049 11.0731065,25.0779537 10.4883225,24.4981059 L5.07421345,19.129697 C4.48594952,18.5463986 4.48192418,17.5966597 5.0652226,17.0083958 C5.06820684,17.0053861 5.07120381,17.0023891 5.07421345,16.9994049 L5.18858564,16.8859981 C5.77332665,16.3061929 6.71615507,16.3061929 7.30089608,16.8859981 L11.5443547,21.0936379 L11.5443547,21.0936379 Z" id="Path" fill="#000000"></path>
    </g>
</svg>