<?xml version="1.0" encoding="UTF-8"?>
<svg width="32px" height="32px" viewBox="0 0 32 32" version="1.1" xmlns="http://www.w3.org/2000/svg" xmlns:xlink="http://www.w3.org/1999/xlink">
    <title>icon_de_001a</title>
    <g id="icon_de_001a" stroke="none" stroke-width="1" fill="none" fill-rule="evenodd">
        <path d="M20.2241675,4 L20.3926039,4.00512285 C21.8416346,4.09348847 23,5.31382241 23,6.79331539 L23,25.2066846 C23,26.7429483 21.750816,28 20.2241675,28 L11.7758325,28 C10.249184,28 9,26.7429483 9,25.2066846 L9,6.79331539 C9,5.25691883 10.249184,4 11.7758325,4 L20.2241675,4 Z M20.3060423,5 L11.6939577,5 C10.7599453,5 10,5.75841218 10,6.69070553 L10,25.3091601 C10,26.2414534 10.7599453,27 11.6939577,27 L20.3060423,27 C21.2400547,27 22,26.2414534 22,25.3091601 L22,6.69070553 C22,5.75841218 21.2400547,5 20.3060423,5 Z M16,23.7142857 C16.4832492,23.7142857 16.875,24.0980416 16.875,24.5714286 C16.875,25.0448155 16.4832492,25.4285714 16,25.4285714 C15.5167508,25.4285714 15.125,25.0448155 15.125,24.5714286 C15.125,24.0980416 15.5167508,23.7142857 16,23.7142857 Z" id="Combined-Shape" fill="#000000"></path>
    </g>
</svg>