<?xml version="1.0" encoding="UTF-8"?>
<svg width="32px" height="32px" viewBox="0 0 32 32" version="1.1" xmlns="http://www.w3.org/2000/svg" xmlns:xlink="http://www.w3.org/1999/xlink">
    <title>icon_de_003a</title>
    <g id="icon_de_003a" stroke="none" stroke-width="1" fill="none" fill-rule="evenodd">
        <path d="M22.3048554,4.60368801 C22.4994128,4.75334754 22.5533831,5.01801456 22.444725,5.22870617 L22.396312,5.30485538 L18.014,10.9999751 L24,11 C25.6568542,11 27,12.3431458 27,14 L27,24 C27,25.6568542 25.6568542,27 24,27 L8,27 C6.34314575,27 5,25.6568542 5,24 L5,14 C5,12.3431458 6.34314575,11 8,11 L13.985,10.9999751 L9.60368801,5.30485538 L9.55527498,5.22870617 C9.44661693,5.01801456 9.50058722,4.75334754 9.69514462,4.60368801 C9.91402169,4.43532103 10.227945,4.47626755 10.396312,4.69514462 L15.246,10.9999751 L16.753,10.9999751 L21.603688,4.69514462 C21.772055,4.47626755 22.0859783,4.43532103 22.3048554,4.60368801 Z M24,12 L8,12 C6.9456382,12 6.08183488,12.8158778 6.00548574,13.8507377 L6,14 L6,24 C6,25.0543618 6.81587779,25.9181651 7.85073766,25.9945143 L8,26 L24,26 C25.0543618,26 25.9181651,25.1841222 25.9945143,24.1492623 L26,24 L26,14 C26,12.9456382 25.1841222,12.0818349 24.1492623,12.0054857 L24,12 Z" id="Combined-Shape" fill="#000000"></path>
    </g>
</svg>