<svg xmlns="http://www.w3.org/2000/svg" width="81" height="81" viewBox="0 0 81 81"><defs><linearGradient id="a" x1="50%" x2="50%" y1="0%" y2="100%"><stop offset="0%" stop-color="#4D4D4D"/><stop offset="27.103%" stop-color="#4D4D4D"/><stop offset="100%" stop-color="gray"/></linearGradient></defs><g fill="none" fill-rule="evenodd" transform="translate(1.012 29.363)"><path fill="url(#a)" d="M11.8362004,0 C11.9019452,0.0355204918 11.9733114,0.023702459 12.0423837,0.0228393443 C12.9679794,0.0112868852 13.8927028,0.054442623 14.8179107,0.0673229508 C15.9858089,0.0835561475 17.1334829,0.224609016 18.2383178,0.646140984 C19.8866534,1.27501967 21.283576,2.27746107 22.4579032,3.61578689 C23.4881736,4.78992172 24.2517173,6.12389877 24.7419115,7.62445697 C25.1906558,8.9981373 25.3263452,10.4073713 25.2150475,11.8458184 C25.0364544,14.1536877 24.2309439,16.2088303 22.8095004,17.998698 C21.3858922,19.7913209 19.5891059,21.0127279 17.4011787,21.5965586 C16.6295906,21.8024447 15.8398459,21.9273639 15.047032,21.9955168 C14.4478663,22.0470713 13.8959335,21.8363053 13.4201159,21.4616139 C12.6129577,20.8260295 11.8192393,20.1724193 11.0181225,19.5286684 C10.1448965,18.8269893 9.269409,18.1282648 8.39585993,17.4270172 C8.32462299,17.3698525 8.25774749,17.3217836 8.16312027,17.3716119 C8.06768539,17.4218717 8.09230332,17.5125984 8.09210948,17.5913078 C8.09004183,18.4598668 8.09672938,19.3285254 8.0880711,20.197018 C8.07879899,21.124468 7.49856521,21.809748 6.61584095,21.9565107 C5.93148169,22.070309 5.15772896,21.5799934 4.89077618,20.8636082 C4.80516263,20.6339201 4.76080511,20.3965635 4.76083742,20.150277 C4.76086972,19.8459959 4.76099895,19.5417148 4.75834978,19.2374336 C4.73567026,16.6211336 4.72048597,14.0048004 4.73247187,11.3883676 C4.73292417,11.288877 4.73295647,11.1888885 4.72458896,11.0898959 C4.69790337,10.7752242 4.52913159,10.6091078 4.22454116,10.5933061 C3.91749539,10.5773385 3.6121296,10.6200627 3.30576228,10.6237143 C2.68734162,10.6311504 2.06504411,10.6492758 1.45395714,10.5546984 C0.584672594,10.4201189 -0.000633390735,9.68172418 0.0133555418,8.80559631 C0.0285075265,7.85859344 0.787722111,7.08607254 1.70714713,7.06061066 C3.63865365,7.00716393 5.57045093,7.05383852 7.50202206,7.03478361 C7.95254322,7.03033525 8.12021657,7.20007008 8.11966735,7.66449221 C8.1189566,8.31133033 8.10403076,8.95813525 8.09928163,9.60500656 C8.09546941,10.1302119 8.09333715,10.6555832 8.12160577,11.180357 C8.12389957,11.2227492 8.10364308,11.2804783 8.14674062,11.3025209 C8.19907797,11.3292443 8.23303263,11.2718471 8.26869956,11.2426672 C8.77071809,10.8320238 9.21658705,10.3587049 9.67980487,9.90464016 C10.5130025,9.08793443 11.3439386,8.26877213 12.1822408,7.45761025 C12.5346455,7.11661352 12.9466891,6.88114918 13.4384986,6.83371107 C14.3817339,6.74275205 15.0828605,7.58249631 15.1994887,8.27016639 C15.3062311,8.89954303 15.0898711,9.42823402 14.7007332,9.88837377 C14.2803545,10.3854947 13.7860573,10.8082217 13.3240349,11.2632492 C12.3335344,12.2388344 11.3335681,13.2042615 10.3379308,14.1743361 C10.1668653,14.3409836 10.1685452,14.3414152 10.3459107,14.4942197 C11.5420452,15.5246791 12.79714,16.4791844 14.0045173,17.4951701 C14.1543895,17.6212844 14.3057155,17.7456061 14.4537462,17.8739779 C14.9585754,18.3118758 15.5358693,18.447584 16.1751602,18.3007881 C17.6987908,17.9509279 18.9806358,17.1756848 20.0187568,15.9761877 C20.9776933,14.8682139 21.577602,13.5833016 21.7947051,12.1168365 C22.0007914,10.7247984 21.8173846,9.37462131 21.2648056,8.09409098 C20.2539841,5.75166393 18.5332484,4.27819426 16.07895,3.74409221 C15.6999888,3.66163156 15.3141786,3.62770451 14.92559,3.62159631 C10.6368029,3.55440615 6.34775743,3.60745451 2.05884117,3.59298074 C1.62847957,3.59155328 1.21010388,3.53900287 0.831465794,3.30669221 C0.234884666,2.94063197 -0.0811101367,2.25946844 0.0179754433,1.55596352 C0.118385611,0.843030738 0.614847335,0.276694672 1.30360035,0.0959053279 C1.45402175,0.0564012295 1.60812616,0.031570082 1.7605506,0 L11.8362004,0 Z"/><path fill="#4D4D4D" d="M45.131107,22.275 C44.9348743,22.2252049 44.735217,22.2547168 44.5373366,22.2507 C43.5325565,22.2302176 42.675484,21.6162443 42.3316405,20.6716316 C42.1872605,20.2749971 42.1758885,19.8593078 42.1619964,19.4465066 C42.1393492,18.7726131 42.115959,18.0973586 42.1333724,17.4237971 C42.1503659,16.767332 42.1321125,16.1080451 42.2168214,15.4544016 C42.3603614,14.3472578 43.2510655,13.4801594 44.3382285,13.4067615 C45.4398004,13.3324008 46.5433753,13.3659295 47.6457226,13.3839885 C48.3286281,13.3951758 48.9518948,13.6108549 49.4336891,14.1377533 C49.8580093,14.6018102 50.0834799,15.1616398 50.1109085,15.798718 C50.1210206,16.0337176 49.9977048,16.1727787 49.7678405,16.1998008 C49.5809444,16.2217439 49.3919808,16.214175 49.203954,16.1950205 C49.0950794,16.183966 49.0339869,16.1309176 48.9992891,16.0200074 C48.9219462,15.7727582 48.8275128,15.5317832 48.7269734,15.2928996 C48.536039,14.8391336 48.1922925,14.6394885 47.7264578,14.6131635 C46.8017021,14.5609119 45.876365,14.5866061 44.9512862,14.5852119 C44.7745023,14.5849795 44.59536,14.5969967 44.4213221,14.6274713 C43.7328599,14.7481082 43.3452081,15.1961311 43.3360976,15.9366836 C43.3207517,17.1865734 43.3181995,18.4370607 43.3372606,19.6868508 C43.3500219,20.525898 43.8417345,20.9822201 44.6596186,21.0160143 C45.4880671,21.0502734 46.3161925,21.0320816 47.1444148,21.033841 C47.401094,21.0343721 47.6609715,21.029459 47.9150338,20.9777053 C48.5155564,20.8554086 48.8517108,20.4662434 48.900462,19.8367008 C48.9286337,19.472898 48.9416535,19.1082984 48.932349,18.7431676 C48.925403,18.4710873 48.9125448,18.4577422 48.6433952,18.4581406 C47.7985347,18.4593357 46.9537066,18.4615598 46.1088785,18.4622238 C45.6771277,18.4625225 45.5137511,18.2944143 45.5113281,17.8511717 C45.5109727,17.7848115 45.509002,17.7181525 45.5136865,17.652091 C45.5342338,17.3615201 45.6990641,17.1896939 45.9815566,17.1888307 C47.1977214,17.1850795 48.4138862,17.1852455 49.6300188,17.1885652 C49.9225264,17.1893951 50.0639018,17.3260992 50.1000857,17.6243053 C50.1106501,17.7115131 50.1093255,17.8012439 50.1041564,17.8892484 C50.0718494,18.4359652 50.1259959,18.982682 50.1036718,19.5290668 C50.0867429,19.9424988 50.0743693,20.3558975 49.9224941,20.7511709 C49.5795229,21.6438971 48.7568897,22.2346992 47.8237988,22.2515299 C47.6583547,22.2545176 47.4906167,22.2241426 47.3270786,22.275 L45.131107,22.275 Z M78.975,21.9098361 C78.8814712,22.183543 78.6594898,22.2423676 78.4177688,22.2432971 C77.4920762,22.2468824 76.5662544,22.2489406 75.6406265,22.2395127 C75.0595527,22.2336037 74.509429,22.1049332 74.0336115,21.7339598 C73.4535392,21.2817209 73.2114306,20.6670172 73.1879434,19.9347971 C73.1261724,18.0101508 73.1639393,16.085073 73.1545379,14.1601943 C73.1538595,14.0169172 73.1315676,13.8743705 73.1514364,13.7300643 C73.1819666,13.5081111 73.2738154,13.3975992 73.49066,13.3782455 C73.6615963,13.362975 73.8353757,13.3632074 74.0066351,13.375291 C74.1715947,13.386943 74.2844108,13.4841762 74.3313528,13.6528156 C74.35526,13.7385959 74.3642737,13.8258037 74.3642737,13.9150365 C74.3639506,15.7961619 74.3649521,17.6772541 74.3632398,19.5583795 C74.3631106,19.7145369 74.3782626,19.8681381 74.4091481,20.0193492 C74.5312686,20.6173549 74.9508719,20.9840127 75.5642527,21.0031672 C76.2684808,21.0251434 76.9731288,21.0585725 77.67768,21.0336418 C77.9301269,21.0246787 78.1825092,21.0083127 78.43515,21.009873 C78.6775171,21.0113336 78.8810835,21.0875201 78.975,21.3454918 L78.975,21.9098361 Z M32.7376946,7.2284898 C32.7376946,7.6931443 32.7386638,8.15783201 32.7374038,8.62248652 C32.7363377,9.02337012 32.621357,9.17637381 32.2401344,9.2129566 C31.7846057,9.25667668 31.326137,9.24216971 30.8713836,9.18985168 C30.6353486,9.16269676 30.5573272,9.0580607 30.521951,8.80848775 C30.4702275,8.44398775 30.537523,8.08081561 30.5289617,7.71618283 C30.4783043,5.55398078 30.5139066,3.39118119 30.494587,1.22871357 C30.4941347,1.17895168 30.4942894,1.1291566 30.4946516,1.07936152 C30.4990777,0.571219303 30.7401202,0.332734057 31.236582,0.371740205 C31.4950057,0.392056598 31.7525571,0.383325861 32.0103993,0.390496353 C32.0749487,0.392288975 32.1395627,0.391093893 32.2041121,0.3930525 C32.6227462,0.405833238 32.7289394,0.513158238 32.7300701,0.942823402 C32.7325254,1.86107791 32.7307809,2.77939881 32.7309747,3.69768652 C32.731007,3.96870455 32.7340762,3.97381684 32.9703373,3.83794266 C33.3758548,3.6047025 33.7234459,3.28667791 34.0973025,3.00722791 C34.9155097,2.39564471 35.718791,1.76417668 36.4952252,1.09652422 C37.081565,0.592332418 37.7561353,0.3080025 38.5310511,0.364968074 C39.010067,0.400156598 39.4877584,0.387409057 39.9661605,0.390961107 C40.0461526,0.391558648 40.1271786,0.381035287 40.1641378,0.488293893 C40.2034877,0.602490615 40.1327354,0.648667254 40.0618861,0.701947992 C38.3595655,1.98221275 36.657471,3.26277627 34.9552796,4.5432402 C34.9292402,4.56282627 34.9033622,4.58287709 34.8760305,4.60043816 C34.7804664,4.6617193 34.7786249,4.71002053 34.8788735,4.77767545 C35.2206816,5.00842586 35.5570622,5.24757504 35.8964472,5.48210988 C37.4951916,6.58692996 39.0941945,7.69128529 40.6931004,8.7958398 C40.7154245,8.81127627 40.7362625,8.82953447 40.7598789,8.8424148 C40.8465909,8.88972012 40.8578984,8.96550824 40.8405495,9.05457504 C40.8201961,9.15894553 40.7386209,9.13710209 40.6731669,9.13726807 C40.1888527,9.13869553 39.7044737,9.13368283 39.2201918,9.13833037 C38.9199305,9.14118529 38.6216399,9.19327094 38.3190202,9.15074594 C37.8608423,9.0863443 37.4435004,8.91743939 37.0701607,8.64423037 C35.7374645,7.6689107 34.3815718,6.7282816 33.0291684,5.78247381 C32.9433933,5.72248734 32.8517383,5.59079594 32.7621833,5.63750373 C32.6880064,5.67617791 32.7375653,5.8311734 32.7367254,5.93405004 C32.7332039,6.36550783 32.7352392,6.79699881 32.7352392,7.2284898 C32.7360469,7.2284898 32.7368869,7.2284898 32.7376946,7.2284898 M52.2188113,0.35745425 C53.6715926,0.35745425 55.124374,0.357558566 56.577123,0.35745425 C56.7224076,0.35745425 56.8673045,0.356263894 57.0102953,0.391883976 C57.2647453,0.455190123 57.4168789,0.602019221 57.4350678,0.8685225 C57.4669548,1.33646348 57.4620441,1.80639627 57.4113544,2.27327496 C57.3870273,2.49751881 57.2926262,2.58711676 57.0727124,2.59654463 C56.1054731,2.63804053 55.1379429,2.64965939 54.1704128,2.60265283 C54.1274444,2.60056143 54.0843792,2.59866922 54.0413786,2.59923357 C53.6417733,2.60427947 53.4693185,2.77623848 53.4691246,3.18777824 C53.46822,4.91902045 53.4610479,6.65036225 53.4769752,8.38147168 C53.4829843,9.03491594 53.2909192,9.18181143 52.7066147,9.16056553 C52.3788602,9.14864791 52.0513318,9.13895447 51.7233834,9.13649791 C51.3517882,9.13367619 51.2345784,9.01121348 51.2307662,8.62357537 C51.226857,8.23095775 51.2294093,7.83824053 51.2297647,7.44558971 C51.2309923,6.05726963 51.2324785,4.66898275 51.2338677,3.28069586 C51.2338677,3.25304299 51.2340615,3.22539012 51.2336092,3.19773725 C51.2271478,2.81534422 51.0860954,2.66732004 50.7090727,2.66476389 C50.1172084,2.66081348 49.5253441,2.66336963 48.9334475,2.66350242 C48.535296,2.66360201 48.1371121,2.6666893 47.7389283,2.66413316 C47.3420368,2.66154381 47.158113,2.48304504 47.1616022,2.07781266 C47.1653498,1.64147496 47.1325905,1.20404176 47.1874478,0.768699959 C47.2240839,0.477963074 47.3297278,0.372131926 47.6184232,0.362803648 C47.8441199,0.355533566 48.0703013,0.3642975 48.2962564,0.364363894 C49.6037855,0.364662664 50.9112822,0.364529877 52.2188113,0.364529877 L52.2188113,0.35745425 Z M36.4672183,17.8199768 L36.4714505,17.8199768 C36.4714505,17.5047075 36.477395,17.1893055 36.4699644,16.8742354 C36.4605954,16.4767046 36.4910286,16.0785432 36.4383681,15.6815436 C36.3700711,15.1667288 36.0882895,14.832637 35.598903,14.7099419 C35.4367541,14.6693091 35.271633,14.6474989 35.1040889,14.6473993 C34.6790256,14.6471337 34.2539947,14.6453079 33.8289315,14.6449759 C33.3016812,14.6445776 32.7743986,14.6426522 32.2471483,14.6460714 C31.9185537,14.6481628 31.7511711,14.8191923 31.7376991,15.1550104 C31.7354699,15.2102497 31.7364715,15.2656218 31.7367622,15.3209276 C31.7451943,17.0625936 31.7537234,18.8042595 31.7622524,20.5459255 C31.7623494,20.5680345 31.7623494,20.5901768 31.763157,20.6122858 C31.7731076,20.8881505 31.8849544,21.0108788 32.1498396,21.0111112 C33.1882513,21.0119332 34.2266953,21.0144973 35.2650101,21.00248 C35.6609324,20.9978989 35.9977652,20.8353014 36.2345109,20.4947362 C36.4141056,20.2363661 36.4623076,19.9356038 36.4654091,19.6285341 C36.4715474,19.0257481 36.4672183,18.4228292 36.4672183,17.8199768 L36.4672183,17.8199768 Z M33.1391769,13.3778571 C33.7903246,13.3778571 34.4415692,13.3697571 35.092523,13.3804796 C35.5917954,13.3887124 36.0796958,13.4730985 36.5191357,13.7374772 C37.1921228,14.1424108 37.5543813,14.7617288 37.6786017,15.5418518 C37.7405988,15.9313157 37.7176932,16.325228 37.7303898,16.716385 C37.752294,17.3905108 37.7528755,18.0665288 37.7303252,18.7405882 C37.7166917,19.1485095 37.7333621,19.5580243 37.6810893,19.9653149 C37.5012363,21.3664821 36.6557297,22.1201473 35.3083984,22.2170153 C34.7174064,22.2595071 34.126899,22.2418132 33.5354869,22.2205673 C32.7880321,22.1937112 32.0406419,22.2402198 31.2931224,22.2467595 C31.239299,22.2472243 31.1853463,22.2485854 31.1317166,22.2450665 C30.7463264,22.2196378 30.563178,22.0289891 30.5638241,21.6304956 C30.5644703,21.221678 30.5892821,20.8128604 30.5881836,20.4040759 C30.5846622,19.1267325 30.5517413,17.8489907 30.5741947,16.5722116 C30.5878929,15.7923542 30.5572981,15.0142231 30.5616919,14.2352952 C30.5621119,14.1578473 30.5592689,14.0802333 30.5630165,14.0029845 C30.5848237,13.5567542 30.7686182,13.372944 31.202049,13.3713505 C31.8477368,13.3689604 32.4934569,13.3707198 33.1391769,13.3707198 L33.1391769,13.3778571 Z M71.5225658,17.8147948 C71.5226304,19.0871587 71.5223719,20.3595558 71.5230511,21.6319198 C71.5230511,21.7376181 71.5190766,21.841889 71.4847666,21.9428734 C71.3996053,22.1933427 71.2027588,22.2801521 70.7918783,22.2477189 C70.5314192,22.2271702 70.3854562,22.099728 70.345137,21.8533087 C70.3326665,21.7771886 70.316933,21.6990103 70.3216175,21.623023 C70.3647474,20.9212775 70.2972581,20.2197976 70.3202283,19.5182513 C70.3258175,19.3471886 70.3482385,19.1757939 70.3416156,19.0054284 C70.3222637,18.5092038 70.1156281,18.4383952 69.7497513,18.4462296 C69.3358016,18.4550599 68.9218197,18.4584128 68.5078701,18.4613673 C67.9105459,18.4656497 67.3131571,18.4636911 66.7158006,18.4617657 C66.4938838,18.4610685 66.2648594,18.4397562 66.1767582,18.1885898 C66.0753788,17.8995792 66.0561885,17.5979206 66.2460244,17.3326124 C66.3513776,17.1853185 66.5279999,17.172073 66.6892442,17.1801398 C67.3350612,17.212573 67.9795536,17.1479722 68.6248537,17.1621804 C68.9903105,17.170214 69.3557027,17.1844886 69.7211919,17.1867128 C70.121831,17.1891693 70.2965796,17.0483489 70.3311804,16.6415894 C70.3709503,16.1736484 70.367235,15.700728 70.2949643,15.2354427 C70.2287349,14.8088648 70.0300145,14.6474292 69.5829825,14.6162907 C68.7608339,14.5590263 67.9373607,14.5817661 67.1145336,14.5884054 C66.8913891,14.590198 66.664174,14.6099169 66.4453909,14.681157 C65.9492846,14.8427255 65.6397835,15.236007 65.5780771,15.7689472 C65.5435409,16.0671866 65.5494531,16.3651271 65.5491947,16.6633001 C65.5478055,18.2952841 65.5496793,19.9272349 65.549647,21.5592189 C65.549647,22.1416554 65.3627833,22.3115562 64.7977338,22.246723 C64.5417654,22.2173439 64.3906978,22.0557423 64.3716044,21.789903 C64.369246,21.756839 64.3693106,21.7235759 64.3693106,21.6903792 C64.3697952,19.7596911 64.3649168,17.8289698 64.372832,15.8983148 C64.3785181,14.5146423 65.3783229,13.4617087 66.7235219,13.4018882 C68.1433824,13.3387148 69.5639537,13.3858542 70.9841696,13.3759284 C71.3517264,13.373339 71.5214027,13.563523 71.5218873,13.9478747 C71.523535,15.2368702 71.5225335,16.5258325 71.5225658,17.8147948 M43.0875049,4.91367578 C43.0875049,3.78575078 43.0861157,2.65782578 43.0888295,1.52990078 C43.0892817,1.33181594 43.0518056,1.1368516 43.0813988,0.935214713 C43.1350285,0.570017582 43.2607027,0.41684791 43.6173074,0.399718402 C44.0035376,0.381128238 44.3918678,0.374488893 44.7766765,0.431554057 C45.1631975,0.488884795 45.3104529,0.6984225 45.3335524,1.17283684 C45.362576,1.76941512 45.3571042,2.3660598 45.3576534,2.96280406 C45.3582672,3.67606881 45.37035,4.38963234 45.3542289,5.10249873 C45.3383984,5.80427742 45.3316463,6.50585693 45.3352969,7.20760242 C45.3376554,7.66601594 45.3563611,8.12432988 45.3611102,8.5827766 C45.3663763,9.09095201 45.2461942,9.24013807 44.7566785,9.28571717 C44.376522,9.32110488 43.9931025,9.30341102 43.6160474,9.23841184 C43.3074833,9.1852307 43.1716323,9.02489053 43.123721,8.70982045 C43.0979077,8.54015201 43.0882156,8.36978643 43.0884095,8.1979602 C43.0897664,7.10319873 43.0891202,6.00843725 43.0891202,4.91367578 L43.0875049,4.91367578 Z M58.7929602,13.3705108 C59.9754935,13.3705108 61.0784546,13.3703513 62.1814157,13.3707165 C62.588807,13.3708493 62.7086337,13.4873366 62.7334455,13.9052833 C62.7360047,13.9494017 62.7365146,13.9937525 62.7355131,14.0379374 C62.726241,14.4551206 62.6006314,14.5826292 62.1996045,14.5826956 C61.6723219,14.5827288 61.1450393,14.5793095 60.6178213,14.584289 C60.3869555,14.5864468 60.1555404,14.5975677 59.9256115,14.6188136 C59.4097009,14.6664509 59.20103,14.8891013 59.1581909,15.4382083 C59.137999,15.6968107 59.1254316,15.9567743 59.1249147,16.2161734 C59.1218778,17.7481689 59.1223947,19.2801976 59.1242685,20.8121931 C59.1246562,21.1264001 59.1754105,21.4399431 59.1275316,21.7550132 C59.0785541,22.0773866 58.9336572,22.2210952 58.6182439,22.2447976 C58.5700419,22.2484161 58.5214199,22.2473466 58.473024,22.2464907 C58.0367179,22.2384239 57.872566,22.0768222 57.8842611,21.629264 C57.9097837,20.6509566 57.8971516,19.6720185 57.9250649,18.6942423 C57.9471629,17.9201943 57.932657,17.1464784 57.9506843,16.3727956 C57.9615072,15.908805 57.9682916,15.4446816 57.9762069,14.9806247 C57.9771438,14.9253853 57.9784684,14.869482 57.971587,14.8149398 C57.9469367,14.6196767 57.9052607,14.582928 57.7139386,14.5828616 C57.014492,14.5824964 56.3150777,14.5813345 55.615631,14.5837579 C55.4708633,14.5842558 55.3258372,14.6084894 55.1813926,14.604373 C54.9775677,14.5985636 54.7674107,14.5641054 54.6727188,14.3506505 C54.5695303,14.1179747 54.5865237,13.873514 54.7220839,13.652789 C54.8216541,13.4907226 54.9588296,13.4055398 55.1615561,13.3977054 C56.398462,13.3499021 57.6356587,13.3893066 58.7929602,13.3705108 M52.9536438,17.7988836 C52.9536438,19.0706832 52.9536115,20.3424827 52.9536761,21.6143155 C52.9537084,22.0729946 52.8037716,22.2303139 52.3548335,22.2420655 C51.7559908,22.2577676 51.6096401,22.1044651 51.6199137,21.4877364 C51.6521238,19.5529651 51.656356,17.6178618 51.6385549,15.6830573 C51.6334504,15.1308631 51.6358411,14.5779385 51.6177815,14.0256778 C51.6143246,13.9198799 51.627732,13.8164721 51.6452101,13.7126327 C51.6753526,13.5332377 51.780738,13.4241864 51.9469899,13.3851471 C52.169262,13.332995 52.3950557,13.3248618 52.6185555,13.3811303 C52.8255142,13.4332491 52.9378133,13.5847258 52.9502192,13.8342655 C52.9576498,13.9831528 52.9511884,14.1327705 52.9511884,14.2820561 C52.9511238,15.4543319 52.9511561,16.6266077 52.9511561,17.7988836 L52.9536438,17.7988836 Z M39.278451,17.7763364 C39.278451,16.5095495 39.2781602,15.2427626 39.2786125,13.9759757 C39.2787741,13.5326003 39.3876487,13.405988 39.8132934,13.3516118 C39.9698209,13.3316273 40.1257668,13.3437773 40.2781266,13.3812896 C40.4507106,13.4237482 40.5549976,13.5338618 40.5894046,13.7200622 C40.626073,13.918645 40.6198055,14.1184892 40.6071734,14.3155118 C40.566402,14.9511958 40.5907938,15.5870458 40.5883384,16.2226966 C40.5831693,17.5724753 40.5846878,18.9222872 40.5880154,20.2720659 C40.5890492,20.697515 40.6046858,21.122931 40.6135702,21.548347 C40.6244577,22.06844 40.4481584,22.2526155 39.9421661,22.2456773 C39.8673107,22.2446482 39.7920031,22.234656 39.7179555,22.22234 C39.4087774,22.1710179 39.2819401,22.0235581 39.2800663,21.6928523 C39.2765772,21.0733019 39.2806156,20.4537183 39.2809386,19.8341679 C39.2813263,19.1482241 39.2810355,18.4622802 39.2810355,17.7763364 C39.2801633,17.7763364 39.2793233,17.7763364 39.278451,17.7763364"/></g></svg>