<svg xmlns="http://www.w3.org/2000/svg" width="281" height="36" viewBox="0 0 281 36">
  <path fill="#003764" d="M2.27383008,9.97013624 L2.27578691,33.7487738 L2.27578691,33.7487738 C7.02108635,33.7526975 11.7654074,33.746812 16.5107068,33.7507357 C16.5116852,34.5001635 16.5107068,35.2505722 16.5107068,36 L-1.77635684e-15,36 L-1.77635684e-15,9.96817439 C0.758269499,9.96915531 1.51556058,9.96719346 2.27383008,9.97013624 Z M38.9349373,9.96915531 C42.835867,18.6444687 46.7240773,27.3256676 50.6259854,36 L48.1417967,36 C45.5186734,30.1271935 42.9063127,24.2485014 40.2880815,18.373733 L39.1485981,15.8157221 C38.7710533,14.9620708 38.3997458,14.1057221 38.046539,13.2415259 C36.7677542,16.3049591 35.3666678,19.3144414 34.0330919,22.3533515 C32.0068001,26.9019074 29.9873572,31.453406 27.9571518,36 L25.4729631,36 C29.3748712,27.3256676 33.2611247,18.6434877 37.1620543,9.96915531 C37.7530153,9.96915531 38.3439763,9.96719346 38.9349373,9.96915531 Z M82.8587987,9.96915531 C82.8597772,18.6464305 82.8587987,27.3227248 82.8597772,36 L80.8755571,36 C76.2251636,29.7220708 71.5825975,23.4392371 66.9351393,17.159346 C66.1602368,16.1107357 65.3921831,15.0562398 64.6368489,13.9929155 C64.7366469,19.0711717 64.6730501,24.1504087 64.69164,29.2296458 L64.69164,36 L64.69164,36 L62.410961,36 C62.410961,27.3237057 62.4090042,18.6464305 62.4119394,9.97013624 C63.0723677,9.96719346 63.732796,9.96915531 64.3932242,9.96915531 C69.8175418,17.2760763 75.2359889,24.586921 80.6563928,31.8958038 C80.6116304,30.3243597 80.5850298,28.751812 80.5782421,27.1794022 L80.5781198,25.6070845 C80.5790982,20.3944414 80.5771414,15.1817984 80.5790982,9.96915531 C81.3383461,9.96841962 82.0985724,9.96841962 82.8587987,9.96915531 Z M116.386052,9.96817439 C116.391922,10.5930245 116.384095,11.2168937 116.390944,11.8417439 C111.769903,17.599782 107.132228,23.3440872 102.505317,29.0962398 C101.231424,30.65297 100.008409,32.252861 98.6953795,33.7752589 C101.606156,33.7134605 104.518889,33.7566213 107.430644,33.7438692 L116.386052,33.7438692 L116.386052,33.7438692 C116.390944,34.4962398 116.38703,35.2476294 116.388008,36 L95.4744464,36 C95.4744464,35.3751499 95.4754248,34.7512807 95.473468,34.1264305 C100.342047,28.0839237 105.222368,22.0522071 110.094861,16.013624 C111.152524,14.7443052 112.123109,13.3984741 113.269808,12.2056676 C107.457061,12.2468665 101.643336,12.2154768 95.82961,12.2233243 C95.82961,11.4719346 95.8256964,10.719564 95.8315669,9.96817439 L116.386052,9.96817439 L116.386052,9.96817439 Z M173.083085,9.96915531 C175.065348,9.96719346 177.055439,10.3536785 178.869415,11.1629428 C181.348712,12.2517711 183.469909,14.1479019 184.802507,16.5129155 C186.868914,20.1707902 187.067531,24.827248 185.325958,28.6499183 C184.197848,31.1424523 182.209714,33.2229973 179.786187,34.4785831 C178.031894,35.4085014 176.065286,35.879346 174.09085,36 L162.288263,36 C162.289241,27.3237057 162.286306,18.6464305 162.289241,9.97013624 C165.886863,9.96719346 169.484485,9.96817439 173.083085,9.96915531 Z M215.151877,9.96915531 C215.151877,10.7215259 215.154812,11.4738965 215.150898,12.2252861 C210.288189,12.2252861 205.425481,12.2243052 200.56375,12.226267 C200.561793,15.1092098 200.561793,17.9911717 200.56375,20.8741144 C204.508708,20.8770572 208.454645,20.8741144 212.400581,20.8760763 L212.400581,23.0880654 L212.400581,23.0880654 C208.454645,23.0900272 204.509687,23.0870845 200.56375,23.0890463 C200.560815,26.6409809 200.562772,30.1919346 200.56375,33.7428883 C205.497883,33.7458311 210.432016,33.7419074 215.366149,33.7448501 C215.367127,34.4962398 215.365171,35.2486104 215.367127,36 L198.275244,36 C198.276222,27.3227248 198.272308,18.6454496 198.277201,9.96817439 C203.902093,9.97013624 209.526985,9.96719346 215.151877,9.96915531 Z M228.302716,9.96523161 C230.767336,9.97504087 233.231957,9.96425068 235.696577,9.97013624 C237.323677,9.99171662 238.970345,10.253624 240.467315,10.9157493 C241.841985,11.5190191 243.072827,12.5009264 243.862406,13.7908447 C244.811466,15.3132425 245.109882,17.1701362 244.945508,18.9397275 C244.812444,20.4209264 244.271382,21.8815259 243.310581,23.0252861 C242.349781,24.1876839 241.011313,24.986158 239.58968,25.4471935 C241.771539,28.9677384 243.959269,32.4843597 246.147977,36 L243.437775,36 C241.381153,32.6462125 239.335292,29.2855586 237.281605,25.9298093 C236.721953,25.9965123 236.160345,26.0288828 235.599714,26.0308447 C233.924673,26.0337875 232.249631,26.026921 230.574589,26.0337875 C230.575568,29.3561853 230.574589,32.6776022 230.575568,36 L228.29391,36 C228.299781,27.3217439 228.282169,18.6425068 228.302716,9.96523161 Z M267.548788,9.96719346 C268.139749,9.97111717 268.731689,9.96523161 269.325585,9.97013624 C273.216731,18.6415259 277.102984,27.3138965 281,35.9813624 L281,36 L278.521682,36 C275.87312,30.0644142 273.234342,24.1249046 270.589694,18.1873569 C269.861755,16.5384196 269.10055,14.9032153 268.433273,13.2287738 C267.734687,14.9502997 266.952935,16.6365123 266.203471,18.3354768 C263.582305,24.2239782 260.967009,30.1144414 258.341929,36 L255.860675,36 C259.75867,27.3227248 263.644923,18.640545 267.548788,9.96719346 Z M164.57579,12.2252861 C164.574812,19.3978202 164.574812,26.5703542 164.574812,33.7428883 C167.148036,33.7448501 169.720282,33.7428883 172.293506,33.7438692 L173.269539,33.7450149 C173.757915,33.743673 174.246221,33.7313134 174.73171,33.6712807 C176.874432,33.4309537 178.965299,32.5971662 180.621751,31.2042507 C181.837918,30.1889918 182.795783,28.8676839 183.387723,27.3972752 C184.067719,25.7189101 184.281013,23.8728065 184.134251,22.0737875 C183.976727,20.1649046 183.341737,18.2864305 182.238088,16.7179292 C181.203907,15.2347684 179.760749,14.0478474 178.122886,13.2925341 C176.551556,12.5617439 174.811939,12.2203815 173.083085,12.2252861 C170.246668,12.2252861 167.411229,12.2243052 164.57579,12.2252861 Z M138.814196,3.55271368e-15 C142.714147,8.67433243 146.608228,17.3525886 150.502308,26.0298638 C149.674572,26.0328065 148.846835,26.0308447 148.019098,26.0308447 C145.386191,20.1266485 142.760132,14.2195095 140.129182,8.31433243 L139.007065,5.79666213 C138.634902,4.95662125 138.269709,4.11351499 137.926776,3.26059946 C137.769251,3.64119891 137.616619,4.02376022 137.454203,4.40141689 C136.046267,7.62277929 134.598217,10.826485 133.174627,14.0409809 C131.389025,18.0382561 129.624948,22.0453406 127.825648,26.0357493 C127.000846,26.0249591 126.177023,26.0337875 125.3532,26.0308447 C129.246302,17.3525886 133.144297,8.6772752 137.039356,3.55271368e-15 L138.814196,3.55271368e-15 Z M234.915804,12.2252861 C233.468733,12.2252861 232.021661,12.2233243 230.575568,12.2252861 C230.574589,16.1117166 230.574589,19.9981471 230.575568,23.8845777 L232.159739,23.885436 L232.159739,23.885436 L233.744645,23.8855586 C235.183889,23.8777112 236.644659,23.9522616 238.057486,23.612861 C239.437047,23.3038692 240.792148,22.6182016 241.642389,21.4548229 C242.662873,20.0687738 242.854641,18.2158038 242.51024,16.5649046 C242.219652,15.1543324 241.281354,13.9114986 240.020181,13.2277929 C238.473311,12.3635967 236.655421,12.18703 234.915804,12.2252861 Z"/>
</svg>
