<?xml version="1.0" encoding="UTF-8"?>
<svg width="120px" height="120px" viewBox="0 0 120 120" version="1.1" xmlns="http://www.w3.org/2000/svg" xmlns:xlink="http://www.w3.org/1999/xlink">
    <!-- Generator: Sketch 60.1 (88133) - https://sketch.com -->
    <title>operador/orange/icon/negro</title>
    <desc>Created with Sketch.</desc>
    <g id="operador/orange/icon/negro" stroke="none" stroke-width="1" fill="none" fill-rule="evenodd">
        <path d="M120.307702,0 L120.307702,120.307702 L0,120.307702 L0,0 L120.307702,0 Z M78.8101349,92.1162471 C75.2526793,92.1220915 72.0756286,95.3119802 72.0756286,101.009875 C72.0756286,106.76605 75.153277,109.524663 79.0643754,109.524663 C81.6201617,109.524663 82.6868249,108.318256 83.3883758,107.041912 L83.3883758,107.041912 L83.4457233,107.102135 L83.4457233,109.085616 C83.4457233,111.745152 82.3484747,112.856368 80.0583985,112.856368 C77.5924567,112.856368 77.0839756,112.026841 76.9061984,111.187601 L76.9061984,111.187601 L72.5573475,111.898624 C73.1614077,114.822365 76.2199402,116.166703 79.5174206,116.141448 C87.5001905,116.098709 87.7200225,111.403239 87.7200225,108.561091 L87.7200225,108.561091 L87.7200225,92.4309784 L83.992436,92.4309784 L83.6429491,94.376084 L83.6196109,94.3193944 C83.2368798,93.4802173 81.9580484,92.1107876 78.8101349,92.1162471 Z M13.8048492,92.0443841 C9.44644039,92.0443841 5.51049135,94.8651626 5.51049135,101.033187 C5.51049135,107.201212 9.44644039,110.02199 13.8048492,110.02199 C18.1651697,110.02199 22.095384,107.201212 22.095384,101.033187 C22.095384,94.8651626 18.1651697,92.0443841 13.8048492,92.0443841 Z M98.1918644,92.1084927 C93.3632062,92.1084927 90.3830485,95.3352924 90.3830485,101.002104 C90.3830485,106.604808 93.3249745,109.837435 98.2664161,109.837435 C101.711088,109.837435 104.266875,108.572747 105.687181,106.154105 L105.687181,106.154105 L102.464252,104.335752 C101.430086,105.833562 100.323279,106.517387 98.6582906,106.517387 C96.0623611,106.517387 94.7414574,104.889417 94.7127836,101.656789 L94.7127836,101.656789 L105.870693,101.656789 C105.870693,101.365386 105.905101,101.075926 105.905101,100.776753 C105.905101,95.2401008 103.028169,92.1084927 98.1918644,92.1084927 Z M43.7029605,92.1327763 C40.5048824,92.1327763 38.1249618,93.243992 36.5651102,95.4683663 L36.5651102,95.4683663 L39.5395331,97.1895851 C40.5392909,95.9171265 41.9251884,95.2274734 43.6322319,95.2274734 C45.3392754,95.2274734 46.2625699,95.9540375 46.2625699,97.1895851 L46.2625699,97.1895851 L46.2625699,98.1395581 C39.1533933,98.9516004 35.7068095,100.968107 35.7068095,104.781598 C35.7068095,107.621803 37.5572217,109.735444 40.6864828,109.735444 C42.6745289,109.735444 44.5211179,109.185665 46.2262498,108.043366 L46.2262498,108.043366 L46.6200359,109.533405 L50.5292228,109.533405 C50.5253301,109.514944 50.526722,103.834093 50.5280179,100.186482 L50.5289795,97.7373839 L50.5292228,97.1895851 C50.5292228,94.057977 48.0747504,92.1327763 43.7029605,92.1327763 Z M33.9338164,92.1421012 C32.0872274,92.1421012 30.1182971,93.4145598 29.3173439,94.4946926 L29.3173439,94.4946926 L29.3173439,92.4937271 L25.119508,92.4937271 L25.119508,109.525246 L29.5983466,109.525246 L29.5983466,98.1974501 C30.2750469,96.6821558 32.3758764,96.379097 34.2912824,96.379097 L34.2912824,96.379097 L34.5072913,96.379097 L34.5072913,92.1673561 C34.3256909,92.1421012 34.1096821,92.1421012 33.9338164,92.1421012 Z M63.8237079,92.1108239 C61.7668447,92.1108239 60.1267067,92.9228662 58.0717551,94.4556446 L58.0717551,94.4556446 L57.6684111,92.437195 L54.0153764,92.9461784 L54.0153764,109.50951 L58.37952,109.50951 L58.37952,97.2977927 C59.8839356,96.0136779 61.2010162,95.4056176 62.5142736,95.4056176 C64.1104453,95.4056176 64.6437769,96.3439344 64.6437769,98.430378 L64.6437769,98.430378 L64.6437769,109.50951 L69.0557101,109.50951 L69.0557101,97.653304 C69.0557101,93.9680307 67.2760264,92.1108239 63.8237079,92.1108239 Z M46.1230243,100.841833 L46.1230243,104.874847 C44.7715353,106.089025 43.4219578,106.67183 42.0360602,106.67183 C40.7552998,106.67183 40.0499257,105.599468 40.0499257,104.453284 C40.0499257,102.440662 42.0016518,101.358587 46.1230243,100.841833 L46.1230243,100.841833 Z M13.8048492,95.8326197 C17.1042412,95.8326197 17.7044782,98.8515521 17.7044782,101.033187 C17.7044782,103.214822 17.1042412,106.235697 13.8048492,106.235697 C10.5073689,106.235697 9.90713186,103.214822 9.90713186,101.033187 C9.90713186,98.8515521 10.5073689,95.8326197 13.8048492,95.8326197 Z M79.8213622,95.2964387 C82.1993713,95.2964387 83.4839549,97.4547616 83.4839549,100.127896 C83.4839549,102.377525 83.1972175,105.841332 79.850036,105.864645 C76.6118147,105.895728 76.4627112,102.406666 76.4627112,100.310508 C76.4627112,96.4737057 78.2385717,95.2964387 79.8213622,95.2964387 Z M98.1918644,95.1332531 C100.288871,95.1332531 101.573454,96.4775911 101.573454,98.7505325 L101.573454,98.7505325 L94.779689,98.7505325 C94.9555546,96.4445655 96.1999951,95.1332531 98.1918644,95.1332531 Z M107.640627,86.0309972 L103.253545,86.0309972 L103.253545,86.7789309 L104.985439,86.7789309 L104.985439,91.6608981 L105.90491,91.6608981 L105.90491,86.7789309 L107.640627,86.7789309 L107.640627,86.0309972 Z M110.179209,86.0309972 L108.764638,86.0309972 L108.764638,91.6608981 L109.682198,91.6608981 L109.682198,86.9634859 L109.705137,86.9634859 L111.519229,91.6608981 L112.106085,91.6608981 L113.914442,86.9634859 L113.941204,86.9634859 L113.941204,91.6608981 L114.853029,91.6608981 L114.853029,86.0309972 L113.455662,86.0309972 L111.828905,90.3010186 L110.179209,86.0309972 Z" id="Combined-Shape" fill="#000000"></path>
    </g>
</svg>