<?xml version="1.0" encoding="UTF-8"?>
<svg width="120px" height="120px" viewBox="0 0 120 120" version="1.1" xmlns="http://www.w3.org/2000/svg" xmlns:xlink="http://www.w3.org/1999/xlink">
    <!-- Generator: Sketch 60.1 (88133) - https://sketch.com -->
    <title>operador/masmovil/icon/negro</title>
    <desc>Created with Sketch.</desc>
    <g id="operador/masmovil/icon/negro" stroke="none" stroke-width="1" fill="none" fill-rule="evenodd">
        <path d="M60.024704,96.3016663 C54.0443271,96.3016663 48,99.9134386 48,106.792902 L48,109.651591 C48,116.773426 54.2341149,120 60.024704,120 C66.0855344,120 72.2000005,116.803722 72.2000005,109.651591 L72.2000005,106.792902 C72.2000005,100.623242 67.2015689,96.3016663 60.024704,96.3016663 M60.024704,0 C54.0443271,0 48,4.15061675 48,12.0666522 L48,72.2808916 C48,80.4631032 54.2341149,84.1874053 60.024704,84.1874053 C66.0855344,84.1874053 72.2000005,80.5085479 72.2000005,72.2808916 L72.2000005,12.0666522 C72.2000005,4.96429344 67.2015689,0 60.024704,0" id="Fill-93" fill="#000000"></path>
    </g>
</svg>