<?xml version="1.0" encoding="UTF-8"?>
<svg width="120px" height="120px" viewBox="0 0 120 120" version="1.1" xmlns="http://www.w3.org/2000/svg" xmlns:xlink="http://www.w3.org/1999/xlink">
    <!-- Generator: Sketch 60.1 (88133) - https://sketch.com -->
    <title>operador/euskaltel/icon/negro</title>
    <desc>Created with Sketch.</desc>
    <g id="operador/euskaltel/icon/negro" stroke="none" stroke-width="1" fill="none" fill-rule="evenodd">
        <path d="M31.9383687,85.243572 C42.4758955,97.1807069 59.6192518,105.577166 74.3775713,108.749323 C73.6114685,116.314807 69.9833214,120 64.3170519,120 C51.6763561,120 37.3661345,102.274944 31.9383687,85.243572 Z M76.7553808,2.06057393e-13 C85.2692399,2.06057393e-13 90.5524581,6.20702114 90.5524581,16.3665924 C90.5524581,36.295538 74.4570725,56.0727404 71.5227543,59.4905763 C73.9367008,60.3143253 105,74.6359969 105,92.4983441 C105,102.152105 94.9972997,105.36039 86.4183941,105.36039 C63.6521325,105.36039 26.8069256,85.9444812 26.8069256,61.5499488 C26.8069256,37.8057446 54.9720435,2.06057393e-13 76.7553808,2.06057393e-13 Z M29.1124613,0.715360992 C35.0172345,0.715360992 40.5389564,5.54224122 44.8753872,12.8548203 C31.6781828,27.1331366 22.0151696,47.1487927 22.0151696,61.5499488 C22.0151696,61.8823388 22.022397,62.2075029 22.0368517,62.5398928 C17.0788659,53.124586 14,40.3420244 14,28.3326308 C14,13.6135365 19.6734969,0.715360992 29.1124613,0.715360992 Z" id="Combined-Shape" fill="#000000"></path>
    </g>
</svg>