<?xml version="1.0" encoding="UTF-8"?>
<svg width="120px" height="120px" viewBox="0 0 120 120" version="1.1" xmlns="http://www.w3.org/2000/svg" xmlns:xlink="http://www.w3.org/1999/xlink">
    <!-- Generator: Sketch 60.1 (88133) - https://sketch.com -->
    <title>operador/finetwork/icon/negro</title>
    <desc>Created with Sketch.</desc>
    <g id="operador/finetwork/icon/negro" stroke="none" stroke-width="1" fill="none" fill-rule="evenodd">
        <path d="M120,0 L120,120 L0,120 L0,0 L120,0 Z M52.639188,35.7792587 C51.7204662,36.731932 51.0036241,37.8863426 50.5355789,39.1646188 C50.0673083,40.439252 50.0837744,41.8120214 50.1480602,43.1847909 L50.1480602,45.059171 L45.7143759,45.059171 L45.7143759,52.140694 L50.1480602,52.140694 L50.1480602,87.9592975 L59.1358797,87.9592975 L59.1358797,52.140694 L66.7646767,52.140694 L66.7646767,87.9577037 L75.7143759,87.9577037 L75.7143759,45.059171 L58.976406,45.059171 L58.976406,43.8293937 C58.9398647,43.0757252 59.2193383,41.890576 59.7356541,41.3935191 C60.2828722,40.8916807 60.9805414,40.6302876 61.6928722,40.6605709 L63.0108421,40.6605709 L63.0108421,33.0211967 L60.0954286,33.0211967 C57.4522707,32.8864016 54.6374586,33.8757337 52.639188,35.7792587 Z M75.6687607,33.0251681 L65.7142607,33.0251681 L65.7142607,41.3613866 L75.7142607,41.3613866 L75.6687607,33.0251681 Z" id="Combined-Shape" fill="#000000"></path>
    </g>
</svg>