<?xml version="1.0" encoding="UTF-8"?>
<svg width="120px" height="120px" viewBox="0 0 120 120" version="1.1" xmlns="http://www.w3.org/2000/svg" xmlns:xlink="http://www.w3.org/1999/xlink">
    <!-- Generator: Sketch 60.1 (88133) - https://sketch.com -->
    <title>operador/pepephone/icon/negro</title>
    <desc>Created with Sketch.</desc>
    <g id="operador/pepephone/icon/negro" stroke="none" stroke-width="1" fill="none" fill-rule="evenodd">
        <path d="M14.4693826,65.1673773 C15.9342494,65.0813934 17.4022801,65.0813934 18.8671469,65.1673773 C22.4264884,65.1673773 24.1877034,67.055858 24.1877034,72.9217534 C24.1877034,73.5500161 24.1877034,74.2194245 24.1455186,74.9320886 L24.1455186,74.9320886 C24.0643129,77.1317994 23.4763624,79.2824519 22.4317615,81.2199909 C21.4245997,82.8921931 20.1696022,83.8153331 18.6193112,83.9836084 C16.3671708,84.2563303 14.1013203,84.4093078 11.8328333,84.4425408 C9.93820898,84.4741913 8.04780312,84.2415601 6.21698328,83.7520321 C6.1273406,85.0497032 5.96387454,87.4815178 5.7529506,91 L5.7529506,91 L-2.23820962e-13,91 C0.622225638,80.5817055 0.95970395,74.4198778 0.95970395,72.5371997 C0.95970395,70.4799162 0.754053103,68.0270013 0.627498736,66.3067958 L0.627498736,66.3067958 L6.61246567,65.7792872 L6.67574286,68.3593317 C7.55635033,67.6466676 8.87989808,66.132718 10.4618277,65.7792872 C11.7848481,65.4986527 13.1231605,65.2939793 14.4693826,65.1673773 Z M110.2394,61.4066103 C112.649206,61.4066103 114.573887,61.8233421 116.039808,62.7464821 C118.217598,64.0710562 119.182575,66.3757412 118.971651,69.6040937 L118.971651,69.6040937 L118.908374,69.625194 C118.744908,72.3471383 118.412703,73.3494046 117.806296,74.109017 C117.073863,75.0432347 115.960712,75.5992287 114.774265,75.6229666 C114.478971,75.6229666 110.829987,75.8497953 110.455597,75.8497953 C108.215585,75.8276399 105.975572,75.9368342 103.748215,76.1768506 C104.544453,77.3906479 105.061217,79.3313519 109.147868,79.1097983 C112.454101,78.9304454 115.169747,78.5822897 117.853754,77.5747484 L117.853754,77.5747484 L118.444341,83.5303202 C115.587904,84.6465284 112.546908,85.2157102 109.480074,85.2078789 C106.780247,85.2078789 104.855566,84.9545934 103.679665,84.4956609 C101.501875,83.6569223 99.2766278,81.8950436 98.6069443,79.1730994 C98.485663,78.5875648 98.3169238,77.9181564 98.1481847,77.1632917 L98.1481847,77.1632917 L96.2456507,77.2635183 C96.201884,77.8743732 96.1533715,78.4999984 96.0969493,79.1572741 C96.0125797,79.8694107 96.1602265,82.0163706 96.2867809,84.194981 L96.2867809,84.194981 L91.0347746,84.374334 C90.8628716,82.2817074 90.8628716,80.1790582 91.0347746,78.0864317 C91.2035138,76.4511551 91.2878834,75.0638075 91.2878834,73.9771398 C91.2878834,73.6237091 91.2562448,73.3024564 91.2562448,73.0117991 C91.1977134,72.1630378 90.5227568,71.4878268 89.6743152,71.4292734 C88.1240242,71.3343218 83.1040343,71.2393703 81.9281333,71.9937076 C81.0643998,72.5787146 80.4221364,73.436971 80.1036412,74.4307972 C79.8094023,75.3834777 79.6200981,76.3646437 79.5394196,77.3584698 C79.3390419,79.5529055 79.0701139,81.9425194 78.6799046,84.5800623 L78.6799046,84.5800623 L73.6546416,84.3532336 C74.3264343,79.7322584 74.6786773,75.0701376 74.7092613,70.4011592 C74.7092613,68.6809537 74.6670765,66.8367837 74.5827069,64.8670666 L74.5827069,64.8670666 L79.6607009,63.5535703 L79.8294401,67.2461303 C81.801579,65.6952551 83.6577097,65.0411445 87.4279752,65.0411445 C87.9763774,65.0411445 91.7888277,65.1677465 92.2475873,65.1677465 C94.5793515,65.1677465 95.9229371,67.2498229 96.2873082,71.3839076 L96.2873082,71.3839076 L97.7737947,71.2973962 C98.1534578,67.2566805 100.078139,63.8073019 102.714688,62.5091033 C104.09624,61.8391674 106.975352,61.4066103 110.2394,61.4066103 Z M31.9127401,54.3223811 C31.9496518,58.6790745 31.8283706,62.6986899 31.5752618,66.3912499 C33.1677376,65.7218415 37.2332967,65.3837085 43.8088506,65.3837085 C46.6141391,65.3837085 47.9956909,68.2538827 47.9956909,74.0564771 C47.9956909,75.6390029 47.9113214,77.553859 47.7003974,79.8590715 C47.5791162,81.5312737 47.410377,83.2082235 47.2838226,84.8862283 L47.2838226,84.8862283 L41.8103463,84.8018269 C41.9369006,83.3353531 42.1056398,81.9105524 42.2321941,80.4440785 C42.4800298,77.9072898 42.5643994,75.9813559 42.5643994,74.6414841 C42.5643994,72.9218062 42.6382227,72.3731972 42.0370895,72.0408668 C41.4359563,71.7090639 32.5718775,72.4686763 31.5172577,73.3548907 C31.2362016,73.5938521 31.0695717,73.9404252 31.0584982,74.3091537 C30.9688555,76.6465443 30.8053894,80.0009713 30.5733731,84.4061955 L30.5733731,84.4061955 L24.7729646,84.5533704 C25.7326686,69.6781559 26.1545164,59.6074896 26.1123317,54.9553914 L26.1123317,54.9553914 Z M66.2618628,65.056917 C69.8844815,65.056917 72.7108624,67.5894857 73.0483407,70.4797052 L73.0483407,70.4797052 L73.0694331,70.5008055 C73.1079267,70.9323075 73.1221641,71.3659196 73.1116179,71.7984766 C73.1116179,74.9371527 71.9726286,78.2288062 71.6087848,79.99596 C70.9338282,83.2665132 67.0053697,84.6016374 62.8712604,84.6274853 L62.8712604,84.6274853 L55.9371357,84.6274853 C53.922812,84.6274853 51.4075439,83.8362225 50.5743944,82.6234802 C49.7412448,81.409683 49.3193969,79.3946002 49.3193969,76.6304552 C49.3193969,75.8813931 49.3615817,75.0426544 49.4037665,74.0773137 C49.6199635,71.1021653 50.0892693,69.482714 50.6745832,68.3485705 C51.3231744,67.0508994 52.69418,66.1435846 54.3657523,65.6793771 C56.5037353,65.0813272 65.1302712,65.0578742 66.1730371,65.0569545 Z M62.5654206,71.0604921 C59.5228427,71.0604921 57.1024905,70.8542363 55.262179,71.450321 C54.94052,71.5558227 54.5397645,72.4525873 54.5397645,72.7954679 C54.4712142,73.850485 54.297202,76.1504224 54.3393868,77.5430451 C54.3552061,78.0230779 54.6610458,79.0939203 55.151444,79.1255708 C56.1427865,79.1835968 58.2625722,79.1413961 60.8147519,79.0838977 C64.5850174,78.9989688 66.0245733,79.3101988 66.7628071,78.6086124 C67.6275953,77.7862265 67.8648848,72.1677326 67.8385193,72.1782828 C67.8385193,70.7803851 64.7010256,71.0604921 62.5654206,71.0604921 Z M17.6332418,71.1604023 C15.8018946,71.1092339 13.9694929,71.1604023 12.1439461,71.3133797 C9.1804647,71.608257 7.86746315,71.5560337 7.07122525,72.3683969 C6.74429314,72.7007273 6.63883117,77.7168064 7.31378779,78.244315 C8.16275667,78.888403 12.4972437,78.4505708 14.8859574,78.4083702 C17.4434102,78.3714446 17.7703424,77.93836 18.1078207,77.6856834 C18.7701219,77.0479255 19.1661316,76.1822839 19.2151714,75.264419 L19.2151714,75.264419 C19.2626293,74.3887548 19.3048141,73.8026927 19.3048141,73.4656148 C19.3048141,71.914212 18.7616849,71.1604023 17.6332418,71.1604023 Z M109.664632,66.7027965 C106.42695,66.7027965 104.84502,67.0826027 103.7904,68.423002 C103.510926,68.7759052 102.915066,71.160244 102.888651,71.223545 C102.862335,71.2868461 113.30307,70.7857129 114.183678,70.7857129 C114.895546,70.7698877 114.658256,68.4066492 114.452606,68.0584935 C113.793468,67.0087515 112.301181,66.7027965 109.664632,66.7027965 Z M37.9926756,29.0001055 C40.4024817,29.0001055 42.3271627,29.4168373 43.7930841,30.3399773 C45.9708738,31.6634963 46.9358509,33.9692363 46.7249269,37.1975889 C46.5614608,39.9190056 46.2292556,40.9212719 45.6228493,41.6814118 C44.8930524,42.6119369 43.7841198,43.167931 42.6013638,43.1948339 C42.3060703,43.1948339 38.6623591,43.4216626 38.2721498,43.4269377 C36.0316102,43.4047823 33.7921252,43.5139766 31.5647684,43.753993 C32.3610063,44.9672628 32.8777699,46.9084943 36.9644214,46.6869407 C40.2706542,46.5075878 42.9863,46.1594321 45.6703072,45.1518908 L45.6703072,45.1518908 L46.2608942,51.1074626 C43.4044567,52.2241983 40.3634607,52.7928526 37.2966266,52.7849399 C34.5968001,52.7849399 32.6721191,52.5317358 31.4962181,52.0728033 C29.3184283,51.2340647 27.0931807,49.472186 26.4234972,46.7502418 C26.3022159,46.1647072 26.1334768,45.4947713 25.9647376,44.7404341 L25.9647376,44.7404341 L23.8924099,44.8512109 C23.6408831,46.2390859 23.1615584,47.5757927 22.4739463,48.8075252 C21.4667845,50.4797274 20.211787,51.4028674 18.661496,51.5716702 C16.4093556,51.8438646 14.1435051,51.9968421 11.8750181,52.0306027 C9.97722991,52.0680558 8.08366019,51.8406996 6.24862187,51.3559192 C6.15897919,52.6530628 5.99551314,55.0848773 5.78458919,58.6033596 L5.78458919,58.6033596 L-9.9475983e-14,58.6033596 C0.622225638,48.1850651 0.95970395,42.0237649 0.95970395,40.1405592 C0.95970395,38.0832758 0.754053103,35.6303609 0.627498736,33.9106829 L0.627498736,33.9106829 L6.61246567,33.3831743 L6.67574286,35.9626913 C7.55635033,35.2505547 8.87989808,33.7366051 10.4618277,33.3831743 C11.7848481,33.1025397 13.1231605,32.8978664 14.4693826,32.7712643 C15.9342494,32.6852805 17.4022801,32.6852805 18.8671469,32.7712643 C22.0942832,32.7712643 23.8396789,34.3168645 24.1402455,38.9694902 L24.1402455,38.9694902 L25.5270704,38.8908914 C25.9067335,34.8496482 27.8314145,31.399742 30.4679638,30.1020709 C31.8495157,29.432135 34.7286275,29.0001055 37.9926756,29.0001055 Z M85.8460456,29 C88.2558517,29 90.1805327,29.4162043 91.6464541,30.3393443 C93.8242438,31.6639183 94.7892209,33.9691308 94.5782969,37.1969558 C94.4148309,39.9189001 94.0826256,40.9211664 93.4762193,41.6807788 C92.7437859,42.6149965 91.6306348,43.1709905 90.4441876,43.1947284 C90.1647134,43.1947284 86.5210022,43.4220846 86.083335,43.4220846 C83.8427954,43.3999293 81.6033104,43.5091235 79.3759536,43.7491399 C80.1721915,44.9624097 80.6889551,46.9031137 84.7756066,46.6815601 C88.0818394,46.5027347 90.7974852,46.1540516 93.4814924,45.1465102 L93.4814924,45.1465102 L94.0720795,51.1020821 C91.2156419,52.2182902 88.174646,52.7879995 85.1078118,52.7795593 C82.4079853,52.7795593 80.4833043,52.5263552 79.3074033,52.0674228 C77.1296136,51.2292116 74.904366,49.467333 74.2346824,46.7453887 C74.1134012,46.1593266 73.944662,45.4899183 73.7759228,44.7350535 L73.7759228,44.7350535 L71.6244986,44.8458303 C71.3729718,46.2342329 70.8936471,47.5709396 70.2060351,48.8021446 C69.1988732,50.4748743 67.9438758,51.3980144 66.3935848,51.5662896 C64.1414444,51.8390115 61.8755939,51.991989 59.6071068,52.0252221 C57.7151191,52.0632027 55.8268224,51.8379565 53.9965299,51.3558137 C53.9068872,52.6534848 53.7434212,55.0847718 53.5324972,58.6032541 L53.5324972,58.6032541 L47.7795466,58.6032541 C48.4017723,48.1849596 48.7392506,42.0236594 48.7392506,40.1404537 C48.7392506,38.0836978 48.5335997,35.6302554 48.4070454,33.9105774 L48.4070454,33.9105774 L54.3920123,33.3830688 L54.4552895,35.9625858 C55.335897,35.2504492 56.6594447,33.7364996 58.2413743,33.3830688 C59.5643947,33.1024342 60.9021799,32.8982884 62.2489293,32.7711588 C63.7137961,32.6851749 65.182354,32.6851749 66.6466935,32.7711588 C69.8738299,32.7711588 71.6192255,34.316759 71.9197921,38.9746598 L71.9197921,38.9746598 L73.3804405,38.8907859 C73.7601036,34.8500702 75.6847845,31.400164 78.3213339,30.1024929 C79.7028857,29.4320295 82.5819975,29 85.8460456,29 Z M65.4233346,38.7430835 C63.5956786,38.6956077 61.7664407,38.7499411 59.9445852,38.9060836 C56.9811037,39.202016 55.6681022,39.1487376 54.8718643,39.9611008 C54.5449322,40.2934312 54.4394702,45.3105653 55.1144268,45.8380739 C55.9633957,46.4816344 60.2978828,46.0432748 62.6865964,46.0010741 C65.2440493,45.9641485 65.5709814,45.5321189 65.9084597,45.2783873 C66.5707609,44.6406294 66.9667706,43.7760429 67.0158104,42.8571229 L67.0158104,42.8571229 L67.0316297,42.8523753 C67.0738145,41.971436 67.1159993,41.385374 67.0949069,41.048296 C67.0949069,39.4968933 66.5517777,38.7430835 65.4233346,38.7430835 Z M17.6754266,38.7479366 C15.8440794,38.6967682 14.0116777,38.7479366 12.1861309,38.9009141 C9.22264949,39.1963189 7.90964794,39.143568 7.11341004,39.9559312 C6.78647793,40.2882616 6.68101596,45.3048682 7.35597258,45.8323768 C8.20494146,46.4764648 12.5394285,46.0381052 14.9281422,45.9959045 C17.485595,45.9589789 17.8125272,45.5264218 18.1500055,45.2732177 C18.8123067,44.6354599 19.2083164,43.7703458 19.2573562,42.8519533 C19.2942679,41.971014 19.3364527,41.3854795 19.3469989,41.0531491 C19.3469989,39.5022738 18.8038697,38.7479366 17.6754266,38.7479366 Z M37.4337271,34.2962917 C34.1960446,34.2962917 32.614115,34.6755703 31.5594953,36.0154421 C31.280021,36.3688729 30.6577954,38.8165127 30.6577954,38.8165127 L30.6577954,38.8165127 C30.6261568,38.8745386 41.0668921,38.3945058 41.9527727,38.3734055 C42.6593679,38.3575802 42.4378977,35.9943418 42.2217007,35.6514612 C41.5625634,34.6017191 40.0702764,34.2962917 37.4337271,34.2962917 Z M85.2660047,34.3014612 C82.0283222,34.3014612 80.4463926,34.6807399 79.3917729,36.0206117 C79.1122987,36.3740425 78.490073,38.8216823 78.490073,38.8216823 L78.490073,38.8216823 L78.5111654,38.8164072 C78.4847999,38.8749606 88.9255352,38.3944003 89.7850503,38.3785751 C90.4916455,38.3632773 90.2701753,35.9995114 90.0539783,35.6566308 C89.394841,34.6074162 87.9025541,34.3014612 85.2660047,34.3014612 Z" id="Combined-Shape" fill="#000000"></path>
    </g>
</svg>