<?xml version="1.0" encoding="UTF-8"?>
<svg width="120px" height="120px" viewBox="0 0 120 120" version="1.1" xmlns="http://www.w3.org/2000/svg" xmlns:xlink="http://www.w3.org/1999/xlink">
    <!-- Generator: Sketch 60.1 (88133) - https://sketch.com -->
    <title>operador/telecable/icon/negro</title>
    <desc>Created with Sketch.</desc>
    <g id="operador/telecable/icon/negro" stroke="none" stroke-width="1" fill="none" fill-rule="evenodd">
        <path d="M59.9975877,-1.98951966e-13 C93.1371367,-1.98951966e-13 120,26.8617834 120,60 C120,93.1382166 93.1371367,120 59.9975877,120 C26.8580388,120 4.97379915e-14,93.1382166 4.97379915e-14,60 C4.97379915e-14,26.8617834 26.8580388,-1.98951966e-13 59.9975877,-1.98951966e-13 Z M60.2002171,12.0817616 C33.6123507,12.0817616 12.0612713,33.636799 12.0612713,60.2187722 C12.0612713,86.8055696 33.6123507,108.355783 60.2002171,108.355783 C86.783259,108.355783 108.334338,86.8055696 108.334338,60.2187722 C108.334338,33.636799 86.783259,12.0817616 60.2002171,12.0817616 Z M53.5197202,17.9568119 C73.2230129,17.9568119 89.1921361,33.9301174 89.1921361,53.6277936 C89.1921361,73.3254699 73.2230129,89.2987754 53.5197202,89.2987754 C33.821252,89.2987754 17.8521288,73.3254699 17.8521288,53.6277936 C17.8521288,33.9301174 33.821252,17.9568119 53.5197202,17.9568119 Z M62.5897962,30.3668786 C49.6745869,30.3668786 39.2054034,40.8404655 39.2054034,53.7551555 C39.2054034,66.6698456 49.6745869,77.1386082 62.5897962,77.1386082 C75.5050054,77.1386082 85.9741889,66.6698456 85.9741889,53.7551555 C85.9741889,40.8404655 75.5050054,30.3668786 62.5897962,30.3668786 Z" id="Combined-Shape" fill="#000000"></path>
    </g>
</svg>