<?xml version="1.0" encoding="UTF-8"?>
<svg width="120px" height="120px" viewBox="0 0 120 120" version="1.1" xmlns="http://www.w3.org/2000/svg" xmlns:xlink="http://www.w3.org/1999/xlink">
    <!-- Generator: Sketch 60.1 (88133) - https://sketch.com -->
    <title>operador/lowi/icon/negro</title>
    <desc>Created with Sketch.</desc>
    <g id="operador/lowi/icon/negro" stroke="none" stroke-width="1" fill="none" fill-rule="evenodd">
        <path d="M9.57270438,44.3497509 C18.8639182,44.3497509 19.3296939,45.9519038 19.3296939,47.5520053 C19.3296939,50.2824348 15.6581659,48.2105086 15.6581659,52.6354045 L15.6581659,52.6354045 L15.6581659,67.604559 C15.6581659,70.9934918 16.2150717,72.6448786 19.5160042,72.6448786 C27.4159661,72.6448786 24.7225672,66.0988225 27.6954316,66.0988225 C28.7019122,66.0988225 29.4086763,66.623984 29.8683767,67.370698 C29.7347193,60.352817 35.4313594,55.2448008 42.1851079,53.8395835 C47.1385318,52.8138774 51.26571,54.5021896 53.9611341,57.3003158 C53.959109,57.2674932 53.9570839,57.2387734 53.9570839,57.201848 C53.9570839,54.1883235 61.0652269,53.9524111 63.2037452,53.9524111 L63.4607407,53.9529106 C65.492585,53.96185 70.6379313,54.1224108 70.6379313,56.7792571 C70.6379313,57.8603513 69.7570076,58.2849936 69.7570076,58.8963144 C69.7570076,59.6963652 71.8935008,63.8874002 73.0538899,63.8874002 C73.8922863,63.8874002 75.1924082,61.4400655 75.1924082,60.7815622 C75.1924082,58.520906 72.3126989,58.520906 72.3126989,56.7792571 C72.3126989,55.8376589 72.5435617,53.9524111 81.6525154,53.9524111 C83.4184131,53.9524111 88.3920881,53.8600976 88.3920881,56.4469283 C88.3920881,58.1434462 86.9056559,58.2849936 86.9056559,59.3681392 C86.9056559,60.3097374 88.6695285,63.9817651 89.69221,63.9817651 C91.0875122,63.9817651 92.8513847,59.6963652 92.8513847,59.3681392 C92.8513847,58.1906286 91.5512628,57.9095852 91.5512628,56.3546148 C91.5512628,54.001645 95.6865415,53.9524111 97.2236015,53.9524111 L97.4852096,53.9527288 C99.2095627,53.9586045 102.88784,54.0731815 102.88784,56.3074323 C102.88784,58.9434969 100.054708,57.0603005 97.9668176,61.0154232 L97.9668176,61.0154232 L92.0170386,72.8315571 C91.2252198,74.339345 89.1818818,78.3867812 87.1344936,78.3867812 C85.3240435,78.3867812 83.1409727,74.573206 82.3025764,73.209017 L82.3025764,73.209017 L79.9331953,69.3482593 C79.6091774,68.8313034 79.094799,67.7953403 78.3981605,67.7953403 C77.4240816,67.7953403 76.7740206,69.1595294 76.3568476,69.9123976 L76.3568476,69.9123976 L72.9627599,75.892264 C72.3126989,76.9733582 71.5208801,78.3867812 70.0810255,78.3867812 C68.3617054,78.3867812 67.3390239,76.5015334 66.5492302,75.1865783 L66.5492302,75.1865783 L57.7197419,60.6379633 C56.96235,59.3701906 56.0044721,59.1240212 55.24303,58.8737489 C56.1806568,60.2317837 56.8307178,61.7416231 57.1405599,63.2801822 C58.6715446,70.8437388 51.5917531,77.1169571 44.8987579,78.5057631 C38.6168605,79.8125127 32.5030474,77.4492859 30.5083121,71.2191472 C30.0850637,74.6737252 27.7703607,78.5283286 25.8363788,78.5283286 C25,78.5283286 24.3499466,78.3395987 23.5115502,78.1980513 C22.6306265,78.0113728 21.6059198,77.8698254 20.0283576,77.8698254 L20.0283576,77.8698254 L4.50587418,77.8698254 C3.01944198,77.8698254 0.648035837,77.9621389 0.648035837,75.7958477 C0.648035837,72.880791 4.27096119,75.3281257 4.41271903,69.8652152 C4.49034832,67.0017857 4.50328653,64.4318222 4.5054429,62.047293 L4.50587418,60.6379633 C4.50587418,57.8131688 4.27096119,55.1791556 4.18185626,52.5410396 C4.086676,48.5879684 -1.27897692e-13,50.6578432 -1.27897692e-13,47.9745962 C-1.27897692e-13,44.5405322 7.29445339,44.3497509 9.57270438,44.3497509 Z M115.298941,53.9528214 C116.690193,53.9528214 116.740821,55.0380185 116.740821,56.0267991 L116.740821,69.1599397 C116.740821,74.7151638 119.480797,72.69042 119.480797,75.1869885 C119.480797,78.3871915 113.577596,78.3871915 111.485655,78.3871915 C103.492538,78.3871915 103.16852,76.5511776 103.16852,75.4208495 C103.16852,73.7263831 105.074151,73.6340696 105.633082,72.1714127 C106.236565,70.5261802 106.327695,63.6990805 105.817367,61.9553802 C105.398169,60.3101477 103.026762,60.8271035 103.026762,58.7100462 C103.026762,55.3662444 114.83519,53.9528214 115.298941,53.9528214 Z M47.377495,68.958491 C46.9603219,66.8824619 44.4248817,59.0481189 41.3284855,59.6902109 C39.8278775,60.0020256 39.2972982,61.602127 39.6577681,62.921185 C40.4273107,65.7870078 42.6832854,72.7207809 45.8647363,72.2530589 C47.612408,71.9884267 47.6772116,70.4334563 47.377495,68.958491 Z M110.000033,41 C111.516842,41 112.83519,41.5354186 113.949001,42.6021529 C115.087114,43.6832471 115.652121,45.0843616 115.652121,46.7972907 C115.652121,48.3953408 115.087114,49.7492728 113.949001,50.8467783 C112.83519,51.9135126 111.516842,52.4489312 110.000033,52.4489312 C108.483224,52.4489312 107.166901,51.9135126 106.051065,50.8467783 C104.912952,49.7492728 104.349971,48.3748267 104.349971,46.7254913 C104.349971,45.0433333 104.912952,43.6688872 106.051065,42.6021529 C107.166901,41.5497785 108.483224,41.0184627 110.000033,41 Z" id="Combined-Shape" fill="#000000"></path>
    </g>
</svg>