<?xml version="1.0" encoding="UTF-8"?>
<svg width="120px" height="120px" viewBox="0 0 120 120" version="1.1" xmlns="http://www.w3.org/2000/svg" xmlns:xlink="http://www.w3.org/1999/xlink">
    <!-- Generator: Sketch 60.1 (88133) - https://sketch.com -->
    <title>operador/mundo r/icon/negro</title>
    <desc>Created with Sketch.</desc>
    <g id="operador/mundo-r/icon/negro" stroke="none" stroke-width="1" fill="none" fill-rule="evenodd">
        <path d="M38.1772346,119.28 L5,119.28 L5,0.270039544 C5.93440018,0.165039579 6.73316162,-0.00296036596 7.52890886,0 C27.3170932,0.0810396063 47.111306,0.0810396063 66.8964761,0.315039529 C76.9548419,0.435039489 86.2958295,3.06903862 94.4582671,9.26403657 C107.814161,19.4010332 113.41152,41.6010259 97.9878884,56.1600211 C94.2653587,59.6730199 90.7357374,63.4620187 87.6070039,67.5000173 C84.7314627,71.2200161 85.1805776,73.8090153 89.2105552,76.2960144 C95.7392996,80.3250131 99.4769003,86.2650111 102.491094,92.9880089 C105.876034,100.539006 109.526223,107.973004 113.049816,115.464001 C113.586343,116.601001 114.0445,117.771001 115,120 C103.965035,119.418 93.6203211,119.169 83.3419192,118.197001 C78.4770099,117.735001 75.2518222,113.850002 73.2684825,109.677003 C67.764564,98.1000072 62.5590508,86.3850111 57.3686085,74.667015 C54.7402313,68.7300169 56.304598,63.5700186 60.7897189,59.0400201 C63.990793,55.8090212 67.3666904,52.6650222 70.0704225,49.0440234 C78.1544911,38.226027 74.8991615,22.9020321 63.2734148,16.8090341 C55.5962624,12.7860354 47.6508467,13.3590352 39.8772401,16.6830341 C39.0031238,17.058034 38.276703,18.8400334 38.261632,19.980033 C38.1259933,29.07003 38.1772346,38.160027 38.1772346,47.253024 C38.1742204,69.7500166 38.1772346,92.2470092 38.1772346,114.744002 L38.1772346,119.28 Z" id="Fill-1-Copy-6" fill="#000000" transform="translate(60.000000, 60.000000) scale(-1, 1) rotate(-13.000000) translate(-60.000000, -60.000000) "></path>
    </g>
</svg>