<?xml version="1.0" encoding="UTF-8"?>
<svg width="120px" height="120px" viewBox="0 0 120 120" version="1.1" xmlns="http://www.w3.org/2000/svg" xmlns:xlink="http://www.w3.org/1999/xlink">
    <!-- Generator: Sketch 60.1 (88133) - https://sketch.com -->
    <title>operador/adamo/icon/negro</title>
    <desc>Created with Sketch.</desc>
    <g id="operador/adamo/icon/negro" stroke="none" stroke-width="1" fill="none" fill-rule="evenodd">
        <path d="M47.5207883,66.8974795 C48.7219293,67.9419441 48.977094,69.6584446 50.1844585,70.6966673 C52.5991875,72.9374808 56.2980379,73.4451488 59.3579393,72.3902812 C62.6232172,71.1627233 66.3863774,71.4227991 69.5105886,72.9458032 C71.1183335,73.7426756 72.5995332,74.9494275 73.4127409,76.5827037 C74.076584,77.9018084 74.1180742,79.5496489 73.3982194,80.8562699 C72.6410234,82.2502764 71.2614746,83.226081 69.7823494,83.7191848 C65.1105541,85.2650756 60.4408333,86.8151276 55.7711125,88.363099 C54.2567205,88.8270743 52.7838188,89.4346114 51.2403838,89.7945564 C47.4212119,90.4603505 43.2991616,89.4928684 40.222664,87.1105737 C39.0920564,86.2179934 38.1502291,85.0757404 37.6046331,83.733749 C35.4886334,79.2646058 33.3601867,74.803785 31.2421125,70.3346418 C30.6757715,69.1278899 30.7732734,67.6236112 31.553289,66.5312927 C32.6403319,64.9812407 34.513614,64.2238999 36.3142882,63.8889222 C40.2205895,63.2397729 44.5853574,64.1094665 47.5207883,66.8974795 Z M86.6377388,56.3945768 C90.1312127,56.8460684 93.5002161,58.1547701 96.4418705,60.0897343 C102.285764,63.7994561 108.131731,67.5050166 113.977699,71.2126578 L114.883845,71.7866889 C116.093699,72.5524853 117.296914,73.336125 118.334169,74.3314873 C119.07062,75.047216 119.76558,75.8815393 120,76.9114396 L120,77.4690422 C119.572651,78.9525148 117.794796,79.2021876 116.487855,79.3062179 C110.330711,79.4164901 104.173567,79.501795 98.0184977,79.6099865 C96.2759098,79.6183089 94.5291728,79.745226 92.7969574,79.5288429 C88.8844325,79.0919154 85.0403665,77.9995969 81.4929553,76.2934994 C79.8623909,75.4612567 78.2090068,74.5312255 77.0244619,73.1018487 C76.4664189,72.4214903 76.0038033,71.4456858 76.4311522,70.5843146 C76.9145129,69.6584446 77.9745873,69.2797742 78.9247126,69.0384238 C80.9058691,68.5161915 83.0114962,68.984328 84.9781312,68.3684684 C85.6087821,68.1666496 86.3161898,67.7526088 86.4157663,67.0285577 C86.4614055,66.3627636 86.0630997,65.7718713 85.6502723,65.2891705 C84.3993431,63.8597937 82.5758493,63.1315813 81.2564612,61.7833482 C80.4868182,61.0156043 79.7316968,60.0502028 79.7399948,58.9079497 C79.7462183,58.0444979 80.4038378,57.3495753 81.1485867,57.002114 C82.84761,56.1823549 84.8017979,56.1885967 86.6377388,56.3945768 Z M8.79177111,41.9863753 C17.0172011,42.5439779 25.2447057,43.1057417 33.4722102,43.6550219 C36.4180137,43.7632134 39.3700406,44.1210778 42.2058951,44.9470786 C43.7534791,45.4193764 45.3301063,45.976979 46.5997061,47.0172823 C47.1681217,47.5145473 47.7406863,48.2698076 47.5041922,49.0729218 C47.226208,49.8677135 46.3984787,50.26719 45.6661769,50.5439107 C43.622785,51.2554782 41.419656,51.2180273 39.2849857,51.1368836 C37.8328291,51.1077551 36.3267352,51.1015133 34.95341,51.6341486 C34.3870689,51.8359675 33.8165788,52.4580689 34.1609474,53.0843315 C34.7833002,54.303567 36.1234333,54.848686 37.1254214,55.6892511 C37.8660213,56.3113525 38.6667819,57.070774 38.7601348,58.0902713 C38.8099231,59.01198 37.917884,59.5820663 37.148241,59.8275779 C35.0094217,60.4892108 32.7253868,60.2249738 30.5533754,59.8983185 C25.4459331,58.9953352 20.4048751,57.2601092 16.1064915,54.3056476 C11.1172962,51.0432563 6.10320685,47.8183159 1.13060766,44.5330379 C0.653470481,44.1606093 0.0975019449,43.744488 -1.42108547e-14,43.1057417 C0.0248941136,42.37961 0.865070447,42.1611463 1.43556055,42.0051007 C3.8585876,41.5057551 6.34799896,41.8095237 8.79177111,41.9863753 Z M76.9103639,30 C77.7152736,30.0873855 78.474544,30.6012953 78.7338577,31.3898453 C79.8665399,35.8361018 80.9992221,40.2886002 82.1650964,44.7265343 C82.7998963,46.5304204 82.8372374,48.5985434 81.9846141,50.3379306 C81.2294926,51.9524815 79.6611635,53.1696364 77.8874579,53.3943419 C74.8980897,53.8916069 71.4170628,52.3061846 70.4524159,49.2893049 C70.1204944,48.219873 69.3321808,47.294003 68.282479,46.8862041 C66.5751577,46.1892009 64.6458639,46.6074028 63.0401936,47.3793079 C60.8121705,48.4799488 58.2190336,48.8960702 55.777336,48.3759185 C54.6446538,48.1075202 53.4787795,47.6144165 52.7630737,46.6552568 C52.1925836,45.8999965 52.2589679,44.8451289 52.6800934,44.0357729 C53.3356383,42.7395549 54.4911401,41.786637 55.6860576,41.0043289 C56.7067162,40.3177287 57.8684415,39.8912043 58.9285159,39.2711835 C63.1480681,36.9159367 67.3738439,34.5690123 71.5996197,32.2179268 C73.1347567,31.412732 74.5184545,30.1830934 76.3129052,30 L76.9103639,30 Z" id="Combined-Shape" fill="#000000"></path>
    </g>
</svg>