<?xml version="1.0" encoding="UTF-8"?>
<svg width="120px" height="120px" viewBox="0 0 120 120" version="1.1" xmlns="http://www.w3.org/2000/svg" xmlns:xlink="http://www.w3.org/1999/xlink">
    <!-- Generator: Sketch 60.1 (88133) - https://sketch.com -->
    <title>operador/movistar/icon/negro</title>
    <desc>Created with Sketch.</desc>
    <defs>
        <path d="M120,60.6050066 C119.905911,66.6704545 119.47889,73.0446124 118.016889,79.3100201 C117.575393,81.1938521 116.645357,82.8426436 115.320871,84.2353462 C113.594696,86.0279685 111.434262,86.8523642 108.919185,86.2489767 C106.422202,85.6455892 105.151998,83.8424427 104.623651,81.5341346 C103.889031,78.3944146 104.496992,75.2301381 104.837161,72.0974343 C105.340176,67.3334792 105.767196,62.5835564 105.553686,57.798553 C105.445122,55.286777 105.126666,52.7329042 103.205075,50.8560883 C100.628478,48.3408042 97.0639437,48.6565302 93.9553807,51.4805242 C91.1218477,54.030889 89.2219693,57.2056896 87.633309,60.6050066 C84.4306568,67.4843261 82.2702236,74.7249765 79.9686566,81.8989736 C78.7237839,85.7753877 77.3160644,89.5816404 74.5006255,92.6757555 C64.671921,103.389392 46.4801326,102.23173 38.3450341,90.135915 C33.7998011,83.3793779 29.9349056,76.2264292 25.7443165,69.259408 C24.8287561,67.7579553 23.8516757,66.2915833 22.606803,65.0006146 C21.2425093,63.6324685 19.7370819,62.9975083 17.7612083,63.4851297 C15.6695326,63.9973074 14.9385317,65.5548892 14.5911254,67.3264631 C14.0700159,70.0136424 14.4355163,72.6727572 14.9855763,75.3318721 C16.1761668,81.1517553 18.4922091,86.6629286 19.950592,92.3916021 C20.4065628,94.163176 20.6996869,95.9487821 20.5730284,97.7799931 C20.4246569,99.8743091 19.5235717,101.607294 17.4825594,102.43169 C15.1520419,103.389392 12.8359996,103.15786 10.8239379,101.575722 C8.87701482,100.046204 7.80584526,97.8712028 6.95542348,95.6856771 C2.5694184,84.5475642 -0.557238688,73.1463463 0.0832917571,61.0785957 C0.506693238,53.1608883 1.95783848,45.4326166 5.76483299,38.3112405 C8.86253955,32.5124057 13.281114,28.1694187 20.3341865,27.1485712 C25.1291178,26.4539739 29.3993208,27.5765554 33.1158449,30.646114 C37.4548054,34.2383747 40.490992,38.8164022 43.5959362,43.3523329 C45.9445479,46.7446337 47.8371887,50.4561686 50.5947265,53.5748402 C53.2436999,56.5847618 56.4137828,58.847465 60.7237927,58.7036343 C65.5223428,58.5387551 68.4680591,55.7463337 70.3100365,51.7260889 C73.5054511,44.7274952 76.1290927,37.4903528 79.4801164,30.5303478 C82.0567135,25.1735294 85.7877128,20.8130021 91.4764917,18.4766294 C100.006041,14.9755785 107.808209,17.7995725 112.393249,25.8926832 C116.138723,32.526438 117.966225,39.7670883 119.033776,47.2041905 C119.645356,51.5506856 119.873341,55.9077048 120,60.6050066" id="path-1"></path>
    </defs>
    <g id="operador/movistar/icon/negro" stroke="none" stroke-width="1" fill="none" fill-rule="evenodd">
        <mask id="mask-2" fill="white">
            <use xlink:href="#path-1"></use>
        </mask>
        <use id="Fill-1" fill="#000000" xlink:href="#path-1"></use>
    </g>
</svg>