<?xml version="1.0" encoding="UTF-8"?>
<svg width="122px" height="120px" viewBox="0 0 122 120" version="1.1" xmlns="http://www.w3.org/2000/svg" xmlns:xlink="http://www.w3.org/1999/xlink">
    <!-- Generator: Sketch 60.1 (88133) - https://sketch.com -->
    <title>operador/vodafone/icon/negro</title>
    <desc>Created with Sketch.</desc>
    <g id="operador/vodafone/icon/negro" stroke="none" stroke-width="1" fill="none" fill-rule="evenodd">
        <path d="M60.9312107,-5.68434189e-14 C69.4499972,-5.68434189e-14 77.5608566,1.71513777 84.9242106,4.81262692 C84.1294926,4.72153806 83.240682,4.68375279 82.3736465,4.68679272 C69.9714176,4.7274309 56.2959994,10.1199436 46.30942,18.5237093 C36.0784337,27.1471058 28.0698451,41.6658538 28.1207563,56.7625773 C28.1948905,79.5810554 45.2294826,93.7934763 61.6047444,93.7358543 C81.82231,93.6663217 93.7811962,76.7894331 93.7358543,61.3806027 C93.6845702,45.977552 85.4486263,34.8399615 67.2999935,30.3433111 C67.2602063,30.1525791 67.226103,29.7479962 67.226103,29.3549727 C67.1870638,17.9390385 75.4931168,7.83632535 86.055451,5.30386852 C107.168641,14.6887856 121.856611,35.5396722 121.856611,59.7566071 C121.856611,92.7609478 94.5752799,119.513214 60.9312107,119.513214 C27.27552,119.513214 2.27373675e-13,92.7609478 2.27373675e-13,59.7566071 C2.27373675e-13,26.7522665 27.27552,-5.68434189e-14 60.9312107,-5.68434189e-14 Z" id="Combined-Shape" fill="#000000"></path>
    </g>
</svg>