<?xml version="1.0" encoding="UTF-8"?>
<svg width="120px" height="120px" viewBox="0 0 120 120" version="1.1" xmlns="http://www.w3.org/2000/svg" xmlns:xlink="http://www.w3.org/1999/xlink">
    <!-- Generator: Sketch 60.1 (88133) - https://sketch.com -->
    <title>operador/simyo/icon/negro</title>
    <desc>Created with Sketch.</desc>
    <g id="operador/simyo/icon/negro" stroke="none" stroke-width="1" fill="none" fill-rule="evenodd">
        <path d="M26.8082865,11.5627524 C33.8965226,10.944571 41.0260723,11.0753401 48.1320143,11.0158996 C58.8912602,10.9921234 69.6446042,10.9742913 80.3979482,11.1228926 C87.1851851,11.3071582 94.1435784,11.3249903 100.635718,13.5956184 C106.118625,15.3847782 111.507101,18.6718392 114.186584,24.0036542 C116.311284,27.9980574 116.429323,32.6344183 116.32899,37.0627374 C111.22971,37.0389612 106.124527,37.1043458 101.031148,37.021129 C99.4258193,36.9438564 97.7614708,36.9914088 96.2269651,36.4623881 C94.9049293,35.992808 94.6924593,34.41169 93.8130695,33.4784738 C91.5644284,30.9344193 88.5190247,28.8896653 85.0781907,28.5865186 C78.5447375,27.8970085 71.9640687,28.1288266 65.4129096,28.0337218 C56.0937382,28.0337218 46.7686649,27.944561 37.4553955,28.2774279 C34.0558752,28.4854697 30.5678256,28.5686865 27.3217558,29.7218326 C25.7459364,30.2449093 24.4652143,31.4931603 23.8868237,33.0623901 C22.6828269,36.2424582 22.1870635,39.7791694 22.9071008,43.137559 C23.3497467,45.1050404 24.2763521,47.0665777 25.9111909,48.3148287 C27.1683052,49.3015414 28.797242,49.5452475 30.3317478,49.7651775 C33.5896215,50.1574849 36.871103,50.28231 40.1466825,50.4130792 C56.7783639,50.9302117 73.4218491,50.9896523 90.0535305,51.5127289 C94.8518118,51.7920993 99.8330535,51.7980434 104.306728,53.789301 C109.105009,55.602237 113.696723,58.6218156 116.240461,63.2344003 C119.138316,68.4711105 120,74.6053726 120,80.5256488 C119.881961,87.6525677 117.745457,95.1123535 112.604863,100.224239 C108.573834,104.058152 103.279789,106.376333 97.8381961,107.250109 C90.425353,108.480527 82.894471,108.522136 75.4108046,108.771786 C61.2107247,109.02738 46.9988408,109.158149 32.8046628,108.670737 C27.4397947,108.545912 22.0985343,107.61864 17.0287635,105.835424 C13.9951637,104.747663 11.0087795,103.392419 8.45913916,101.389273 C6.41706615,99.814099 4.98289349,97.6088555 3.76119085,95.3620037 C2.22668511,92.3959216 0.957766914,89.2574619 0.320356841,85.9644568 C-0.169504604,83.5333394 0.0665732004,81.0368373 0.00165180406,78.5759996 C6.64134006,78.5581675 13.2810283,78.5700556 19.9266185,78.5700556 C20.41648,80.6801942 20.6525578,82.9508222 21.9922993,84.739982 C24.5537435,88.3004694 28.6673993,91.0525657 33.1469756,91.0109573 C43.0209298,91.3200481 52.894884,91.2189992 62.7688382,91.1417265 C69.6091926,91.0347335 76.4554489,90.975293 83.2899013,90.6483701 C86.3884225,90.4403283 89.5223554,90.297671 92.5264455,89.4536156 C94.1022648,89.0196998 95.6308686,88.1280919 96.4689448,86.6717991 C98.3103517,83.6462764 98.5818412,79.8896352 98.0034505,76.459917 C97.5608047,73.8801982 96.3095923,71.1102698 93.7363442,70.1057249 C90.3427258,68.756425 86.6245003,68.6672642 83.0361177,68.4057259 C71.066973,67.8707612 59.0860244,68.0906911 47.1109778,67.8885934 C39.1374499,67.7043277 31.1521182,67.6508313 23.2021981,66.9791533 C18.3094856,66.3609719 13.3341458,64.9522314 9.34443093,61.9207647 C5.8091658,59.228109 3.59003444,55.1802092 2.14995983,51.0431487 C0.822022176,46.7158786 1.13482527,42.121126 1.11121749,37.6571427 C1.19974666,33.5735786 1.43582447,29.418686 2.74605629,25.5193876 C3.63725,22.8088997 5.28979463,20.3361738 7.53253378,18.5767343 C10.7549958,15.9910715 14.6974952,14.5644989 18.580975,13.3162479 C21.2545562,12.4424722 23.9989607,11.7826824 26.8082865,11.5627524" id="Fill-7" fill="#000000"></path>
    </g>
</svg>