<?xml version="1.0" encoding="UTF-8"?>
<svg width="120px" height="120px" viewBox="0 0 120 120" version="1.1" xmlns="http://www.w3.org/2000/svg" xmlns:xlink="http://www.w3.org/1999/xlink">
    <!-- Generator: Sketch 60.1 (88133) - https://sketch.com -->
    <title>operador/yoigo/icon/negro</title>
    <desc>Created with Sketch.</desc>
    <g id="operador/yoigo/icon/negro" stroke="none" stroke-width="1" fill="none" fill-rule="evenodd">
        <path d="M15,42.0296465 C15,64.6841505 23.7592461,81.4595211 50.3151282,81.4595211 C58.4633701,81.4595211 65.7361435,80.2554162 71.2397406,77.5553022 C71.2397406,90.68187 61.550309,95.2109464 49.2207924,94.3945268 C40.5117033,93.8107184 34.857635,91.5438997 28.159388,87.7628278 C27.0741716,87.1562144 25.5147431,86.7502851 24.37481,86.7502851 C21.5842537,86.7502851 19.2724693,88.0866591 18.1553349,91.1242873 C16.8512514,94.718358 15.1048738,102.86431 15.1048738,105.199544 C15.1048738,108.086659 15.9666633,110.581528 18.4973148,112.082098 C27.4070321,117.286203 42.9739589,120 55.2715574,120 C81.4444219,120 101.324856,111.808438 104.306921,78.5997719 L104.516668,70.0980616 L105,50.1163056 C105,34.8369441 104.685378,18.1299886 103.431452,6.73204105 C103.148749,4.10034208 100.526902,2.58608894 97.7773837,2.56328392 L76.8254129,2.34891676 C73.3873746,2.34891676 70.8795217,4.31927024 70.8795217,7.85860889 L71.1120681,52.1322691 C69.7350289,54.2576967 65.1160199,55.8038769 61.431756,55.8038769 C52.4445233,55.8038769 50.2284933,53.0627138 49.5262945,43.981756 C48.7374607,33.7833523 49.6813254,18.4310148 51.0492451,6.23945268 C51.341068,3.55302166 49.2116729,1.8608894 46.4712737,1.55530217 L26.6455568,0.0136830103 C26.4449286,0.00456100342 26.2488601,0 26.0573513,0 C22.8609788,0 21.050765,1.18129989 19.7831594,4.02736602 C17.3619414,9.56442417 15,25.6419612 15,42.0296465 Z" id="Fill-1" fill="#000000"></path>
    </g>
</svg>