<svg xmlns="http://www.w3.org/2000/svg" width="244" height="58" viewBox="0 0 244 58"><g fill="none" fill-rule="evenodd"><polygon fill="#039" points="0 58 86.766 58 86.766 .003 0 .003"/><path fill="#FC0" d="M41.5339588,12.6398773 L43.3647107,11.3003067 L45.1960744,12.6398773 L44.4988345,10.4733129 L46.3586508,9.13374233 L44.0662338,9.13374233 L43.3647107,6.94110429 L42.6631876,9.13619632 L40.3723003,9.13374233 L42.2305868,10.4733129 L41.5339588,12.6398773 M32.0592673,15.1920245 L33.8900192,13.852454 L35.7198532,15.1920245 L35.024143,13.0254601 L36.8827355,11.6858896 L34.5903185,11.6858896 L33.8891013,9.49079755 L33.1875783,11.6883436 L30.896385,11.6858896 L32.7546716,13.0254601 L32.0592673,15.1920245 M26.9573927,16.457362 L26.2558696,18.654908 L23.9649823,18.652454 L25.8232688,19.9920245 L25.1266408,22.158589 L26.9573927,20.8190184 L28.7881445,22.158589 L28.0915165,19.9920245 L29.9498031,18.652454 L27.6589157,18.652454 L26.9573927,16.457362 M24.4144098,30.3067485 L26.2442439,31.6460123 L25.5485337,29.4800613 L27.4068202,28.140184 L25.1159329,28.140184 L24.4144098,25.945092 L23.7128868,28.145092 L21.4207757,28.140184 L23.280286,29.4800613 L22.583658,31.6460123 L24.4144098,30.3067485 M27.6589157,37.6564417 L26.9573927,35.4613497 L26.2558696,37.6588957 L23.9649823,37.6564417 L25.8232688,38.9957055 L25.1266408,41.1625767 L26.9573927,39.8205521 L28.7881445,41.1625767 L28.0915165,38.9957055 L29.9498031,37.6564417 L27.6589157,37.6564417 M34.6046977,44.6202454 L33.9031746,42.4279141 L33.2028753,44.6230061 L30.9107642,44.6202454 L32.7690508,45.959816 L32.0736466,48.1266871 L33.9043984,46.7871166 L35.7339265,48.1266871 L35.0385223,45.959816 L36.8968088,44.6202454 L34.6046977,44.6202454 M44.0674575,47.1441718 L43.3659345,44.9490798 L42.6656352,47.1466258 L40.3735241,47.1441718 L42.2318106,48.4837423 L41.5364064,50.6503067 L43.3671582,49.3104294 L45.1969922,50.6503067 L44.5000583,48.4837423 L46.3595686,47.1441718 L44.0674575,47.1441718 M53.5302173,44.6202454 L52.829918,42.4279141 L52.1271712,44.6230061 L49.8378136,44.6202454 L51.6945704,45.959816 L50.9991662,48.1266871 L52.829918,46.7871166 L54.6606699,48.1266871 L53.9628181,45.959816 L55.8223284,44.6202454 L53.5302173,44.6202454 M60.4784468,37.6564417 L59.7757,35.4613497 L59.0729532,37.6588957 L56.7835955,37.6564417 L58.6427999,38.9957055 L57.9452541,41.1625767 L59.7757,39.8205521 L61.6064518,41.1625767 L60.9086001,38.9957055 L62.7681104,37.6564417 L60.4784468,37.6564417 M65.2853942,28.1138037 L62.9932831,28.1138037 L62.2905363,25.9187117 L61.590237,28.1162577 L59.2978199,28.1138037 L61.1576362,29.4533742 L60.4616201,31.6196319 L62.2905363,30.2779141 L64.1209822,31.6196319 L63.4258839,29.4533742 L65.2853942,28.1138037 M57.9449481,22.1294479 L59.7753941,20.790184 L61.6064518,22.1294479 L60.9086001,19.9631902 L62.7681104,18.6260736 L60.4781409,18.6260736 L59.7753941,16.4309816 L59.0729532,18.6285276 L56.7832896,18.6260736 L58.642494,19.9631902 L57.9449481,22.1294479 M52.8565349,9.49325153 L52.1562356,11.6907975 L49.8638186,11.6858896 L51.7208814,13.0279141 L51.0254771,15.1944785 L52.8589824,13.852454 L54.6869808,15.1944785 L53.9918825,13.0279141 L55.8510869,11.6858896 L53.5565283,11.6858896 L52.8565349,9.49325153"/><path fill="#194789" d="M97.5068103,12.9552147 L97.5068103,0 L106.364724,0 L106.364724,2.19171779 L100.115571,2.19171779 L100.115571,5.25828221 L105.509619,5.25828221 L105.509619,7.44969325 L100.115571,7.44969325 L100.115571,12.9552147 L97.5068103,12.9552147 M108.49744,12.9552147 L110.97434,12.9552147 L110.97434,3.5702454 L108.49744,3.5702454 L108.49744,12.9552147 Z M108.49744,2.29754601 L110.97434,2.29754601 L110.97434,0 L108.49744,0 L108.49744,2.29754601 Z M122.027076,12.9552147 L119.550176,12.9552147 L119.550176,8.16564417 C119.550176,7.15214724 119.497248,6.49693252 119.391393,6.19907975 C119.285843,5.90184049 119.113904,5.67055215 118.875882,5.50552147 C118.63786,5.34079755 118.351499,5.25828221 118.016493,5.25828221 C117.587564,5.25828221 117.20269,5.37607362 116.861871,5.61165644 C116.521053,5.84723926 116.28762,6.1595092 116.161266,6.54846626 C116.034912,6.93711656 115.971889,7.65582822 115.971889,8.70460123 L115.971889,12.9552147 L113.495295,12.9552147 L113.495295,3.5702454 L115.79536,3.5702454 L115.79536,4.94877301 C116.611917,3.88834356 117.640492,3.35828221 118.880165,3.35828221 C119.426576,3.35828221 119.925872,3.45674847 120.378665,3.65429448 C120.830846,3.85153374 121.173194,4.10337423 121.405403,4.40981595 C121.637307,4.71625767 121.798844,5.06380368 121.890014,5.45245399 C121.981185,5.84141104 122.027076,6.39815951 122.027076,7.12269939 L122.027076,12.9552147 M129.703445,8.44815951 C129.386184,8.55429448 128.883829,8.6809816 128.196379,8.82822086 C127.508623,8.97576687 127.059502,9.11993865 126.847791,9.26134969 C126.524717,9.49110429 126.362874,9.78282209 126.362874,10.1361963 C126.362874,10.4837423 126.491981,10.7843558 126.750807,11.0374233 C127.009327,11.2911043 127.338214,11.4174847 127.737773,11.4174847 C128.184141,11.4174847 128.610623,11.2702454 129.01569,10.9757669 C129.315818,10.7518405 129.512232,10.4779141 129.606462,10.1539877 C129.671015,9.94171779 129.703445,9.53834356 129.703445,8.94325153 L129.703445,8.44815951 Z M126.389491,6.43343558 L124.142047,6.02699387 C124.394448,5.1196319 124.829497,4.44815951 125.446274,4.01226994 C126.063357,3.57638037 126.979957,3.35828221 128.196379,3.35828221 C129.300827,3.35828221 130.123196,3.4892638 130.6641,3.75153374 C131.204698,4.01349693 131.585289,4.34662577 131.805261,4.75 C132.025845,5.15368098 132.135983,5.89447853 132.135983,6.97239264 L132.109672,9.87116564 C132.109672,10.6960123 132.149139,11.3042945 132.228378,11.6957055 C132.307922,12.0877301 132.455998,12.507362 132.673522,12.9552147 L130.223545,12.9552147 C130.158686,12.790184 130.079447,12.5457055 129.985523,12.2217791 C129.944221,12.0745399 129.915157,11.9773006 129.897106,11.9300613 C129.473989,12.342638 129.021808,12.6518405 128.540257,12.8579755 C128.058094,13.0641104 127.544113,13.1671779 126.997702,13.1671779 C126.033681,13.1671779 125.274641,12.9052147 124.719052,12.3806748 C124.164075,11.8564417 123.886586,11.193865 123.886586,10.3923313 C123.886586,9.86226994 124.012634,9.38957055 124.265341,8.97392638 C124.517743,8.55889571 124.871717,8.24079755 125.327569,8.0196319 C125.782809,7.79877301 126.439053,7.60582822 127.297218,7.44079755 C128.454593,7.22300614 129.256771,7.0196319 129.703445,6.8309816 L129.703445,6.58374233 C129.703445,6.10644172 129.585964,5.76625767 129.351001,5.56288344 C129.115732,5.35981595 128.672118,5.25828221 128.019851,5.25828221 C127.579296,5.25828221 127.235724,5.34509202 126.988829,5.51901841 C126.742241,5.69263804 126.542155,5.99754601 126.389491,6.43343558 L126.389491,6.43343558 Z M143.091736,12.9552147 L140.614836,12.9552147 L140.614836,8.16564417 C140.614836,7.15214724 140.561909,6.49693252 140.456359,6.19907975 C140.350503,5.90184049 140.17887,5.67055215 139.940542,5.50552147 C139.702826,5.34079755 139.416159,5.25828221 139.081459,5.25828221 C138.652224,5.25828221 138.26735,5.37607362 137.926531,5.61165644 C137.586019,5.84723926 137.35228,6.1595092 137.225926,6.54846626 C137.099573,6.93711656 137.036549,7.65582822 137.036549,8.70460123 L137.036549,12.9552147 L134.559955,12.9552147 L134.559955,3.5702454 L136.860327,3.5702454 L136.860327,4.94877301 C137.676884,3.88834356 138.705152,3.35828221 139.945131,3.35828221 C140.491542,3.35828221 140.990838,3.45674847 141.443325,3.65429448 C141.895812,3.85153374 142.23816,4.10337423 142.470369,4.40981595 C142.702273,4.71625767 142.86381,5.06380368 142.95498,5.45245399 C143.046151,5.84141104 143.091736,6.39815951 143.091736,7.12269939 L143.091736,12.9552147 M153.765411,6.34509202 L151.323695,6.78680982 C151.241396,6.29815951 151.054772,5.9297546 150.764128,5.68220859 C150.473178,5.43496933 150.095647,5.31104294 149.631534,5.31104294 C149.014451,5.31104294 148.522497,5.52484663 148.155368,5.95184049 C147.787933,6.3791411 147.604368,7.09325153 147.604368,8.09478528 C147.604368,9.20828221 147.790686,9.99478528 148.163934,10.4542945 C148.537183,10.9138037 149.038008,11.1435583 149.666717,11.1435583 C150.136643,11.1435583 150.521823,11.009816 150.821339,10.741411 C151.121161,10.4736196 151.332873,10.0125767 151.455861,9.35858896 L153.888399,9.77392638 C153.635998,10.8932515 153.151081,11.7386503 152.434261,12.3101227 C151.717135,12.8815951 150.756786,13.1671779 149.551989,13.1671779 C148.183209,13.1671779 147.091611,12.7343558 146.277807,11.8680982 C145.464004,11.0021472 145.057408,9.80337423 145.057408,8.27147239 C145.057408,6.72239264 145.465533,5.51595092 146.282396,4.65276074 C147.098953,3.7898773 148.203707,3.35828221 149.596351,3.35828221 C150.735982,3.35828221 151.642485,3.60429448 152.31525,4.09601227 C152.988014,4.58803681 153.471401,5.33773006 153.765411,6.34509202 M155.64236,12.9552147 L158.118953,12.9552147 L158.118953,3.5702454 L155.64236,3.5702454 L155.64236,12.9552147 Z M155.64236,2.29754601 L158.118953,2.29754601 L158.118953,0 L155.64236,0 L155.64236,2.29754601 Z M165.822552,8.44815951 C165.505291,8.55429448 165.002629,8.6809816 164.31518,8.82822086 C163.62773,8.97576687 163.178302,9.11993865 162.966897,9.26134969 C162.643517,9.49110429 162.48198,9.78282209 162.48198,10.1361963 C162.48198,10.4837423 162.611087,10.7843558 162.869914,11.0374233 C163.128128,11.2911043 163.457015,11.4174847 163.85688,11.4174847 C164.303248,11.4174847 164.72973,11.2702454 165.134796,10.9757669 C165.434618,10.7518405 165.631338,10.4779141 165.725568,10.1539877 C165.789816,9.94171779 165.822552,9.53834356 165.822552,8.94325153 L165.822552,8.44815951 Z M162.508597,6.43343558 L160.260847,6.02699387 C160.513249,5.1196319 160.948297,4.44815951 161.565381,4.01226994 C162.182158,3.57638037 163.099063,3.35828221 164.31518,3.35828221 C165.419627,3.35828221 166.242303,3.4892638 166.783207,3.75153374 C167.323499,4.01349693 167.70409,4.34662577 167.924367,4.75 C168.144951,5.15368098 168.25509,5.89447853 168.25509,6.97239264 L168.228473,9.87116564 C168.228473,10.6960123 168.268245,11.3042945 168.347484,11.6957055 C168.427029,12.0877301 168.575104,12.507362 168.792628,12.9552147 L166.342346,12.9552147 C166.277486,12.790184 166.198247,12.5457055 166.104629,12.2217791 C166.063327,12.0745399 166.033957,11.9773006 166.016212,11.9300613 C165.593096,12.342638 165.140609,12.6518405 164.659057,12.8579755 C164.1772,13.0641104 163.662913,13.1671779 163.116502,13.1671779 C162.152788,13.1671779 161.393442,12.9052147 160.838158,12.3806748 C160.282875,11.8564417 160.005387,11.193865 160.005387,10.3923313 C160.005387,9.86226994 160.131434,9.38957055 160.384448,8.97392638 C160.636849,8.55889571 160.990823,8.24079755 161.446369,8.0196319 C161.90161,7.79877301 162.55816,7.60582822 163.416324,7.44079755 C164.5737,7.22300614 165.375878,7.0196319 165.822552,6.8309816 L165.822552,6.58374233 C165.822552,6.10644172 165.704764,5.76625767 165.470107,5.56288344 C165.234839,5.35981595 164.791224,5.25828221 164.138957,5.25828221 C163.698402,5.25828221 163.354524,5.34509202 163.107936,5.51901841 C162.861041,5.69263804 162.661262,5.99754601 162.508597,6.43343558 L162.508597,6.43343558 Z M172.670432,8.0595092 C172.670432,9.06104294 172.808412,9.78558282 173.084677,10.2334356 C173.484236,10.8815951 174.042273,11.2055215 174.759399,11.2055215 C175.329061,11.2055215 175.813978,10.9625767 176.213843,10.4763804 C176.613096,9.9904908 176.813182,9.26441718 176.813182,8.29815951 C176.813182,7.21993865 176.618909,6.44386503 176.230976,5.96932515 C175.843348,5.49539877 175.346806,5.25828221 174.741654,5.25828221 C174.153941,5.25828221 173.661988,5.49233129 173.265488,5.9607362 C172.868682,6.42883436 172.670432,7.12883436 172.670432,8.0595092 Z M179.280903,12.9552147 L176.980531,12.9552147 L176.980531,11.5766871 C176.598411,12.1128834 176.147454,12.5119632 175.62766,12.7739264 C175.10756,13.0361963 174.583176,13.1671779 174.054204,13.1671779 C172.978821,13.1671779 172.057938,12.7328221 171.29125,11.8638037 C170.524255,10.9947853 170.140911,9.78282209 170.140911,8.22730061 C170.140911,6.63680982 170.514159,5.42760736 171.260044,4.6 C172.00654,3.77208589 172.949451,3.35828221 174.089387,3.35828221 C175.135094,3.35828221 176.040068,3.79417178 176.804003,4.66595092 L176.804003,0 L179.280903,0 L179.280903,12.9552147 L179.280903,12.9552147 Z M183.687373,8.26257669 C183.687373,9.19355828 183.907651,9.90644172 184.348818,10.401227 C184.789067,10.8960123 185.332419,11.1435583 185.979178,11.1435583 C186.625326,11.1435583 187.167148,10.8960123 187.605256,10.401227 C188.043057,9.90644172 188.262111,9.18773006 188.262111,8.24509202 C188.262111,7.32607362 188.043057,6.61901841 187.605256,6.12423313 C187.167148,5.62944785 186.625326,5.38190184 185.979178,5.38190184 C185.332419,5.38190184 184.789067,5.62944785 184.348818,6.12423313 C183.907651,6.61901841 183.687373,7.33190184 183.687373,8.26257669 Z M181.149285,8.13006135 C181.149285,7.30552147 181.352124,6.50705521 181.757191,5.73527607 C182.162869,4.96380368 182.73712,4.37453988 183.480557,3.96809816 C184.223382,3.56134969 185.053706,3.35828221 185.970306,3.35828221 C187.386202,3.35828221 188.546637,3.81932515 189.451611,4.74110429 C190.356279,5.66319018 190.809071,6.82822086 190.809071,8.23619632 C190.809071,9.65613497 190.352301,10.8328221 189.438455,11.7665644 C188.524609,12.7003067 187.374576,13.1671779 185.987745,13.1671779 C185.129886,13.1671779 184.311493,12.9726994 183.533485,12.5840491 C182.754865,12.195092 182.162869,11.6251534 181.757191,10.8742331 C181.352124,10.1226994 181.149285,9.20828221 181.149285,8.13006135 L181.149285,8.13006135 Z M200.14303,8.10368098 C200.14303,9.15828221 200.35107,9.93742331 200.76868,10.4411043 C201.185677,10.9447853 201.694152,11.1966258 202.29349,11.1966258 C202.869272,11.1966258 203.347764,10.9656442 203.729884,10.5030675 C204.111699,10.0404908 204.302912,9.28190184 204.302912,8.22730061 C204.302912,7.24355828 204.105886,6.51288344 203.712445,6.03588957 C203.318393,5.55858896 202.831029,5.31993865 202.249129,5.31993865 C201.643977,5.31993865 201.141622,5.55429448 200.742369,6.02239264 C200.342504,6.49110429 200.14303,7.18466258 200.14303,8.10368098 Z M197.692441,3.5702454 L200.001991,3.5702454 L200.001991,4.94877301 C200.301202,4.47760736 200.70688,4.09478528 201.217801,3.8 C201.729335,3.50552147 202.296244,3.35828221 202.91914,3.35828221 C204.006149,3.35828221 204.928561,3.78527607 205.686684,4.63957055 C206.4445,5.49386503 206.823561,6.68404908 206.823561,8.20981595 C206.823561,9.77699387 206.44144,10.9947853 205.677811,11.8638037 C204.913876,12.7328221 203.988404,13.1671779 202.901395,13.1671779 C202.384355,13.1671779 201.915959,13.0641104 201.495596,12.8579755 C201.075233,12.6518405 200.633148,12.2984663 200.169341,11.797546 L200.169341,16.5254601 L197.692441,16.5254601 L197.692441,3.5702454 L197.692441,3.5702454 Z M210.754599,8.26257669 C210.754599,9.19355828 210.974876,9.90644172 211.415738,10.401227 C211.856293,10.8960123 212.399644,11.1435583 213.046098,11.1435583 C213.692552,11.1435583 214.234373,10.8960123 214.672481,10.401227 C215.109977,9.90644172 215.329031,9.18773006 215.329031,8.24509202 C215.329031,7.32607362 215.109977,6.61901841 214.672481,6.12423313 C214.234373,5.62944785 213.692552,5.38190184 213.046098,5.38190184 C212.399644,5.38190184 211.856293,5.62944785 211.415738,6.12423313 C210.974876,6.61901841 210.754599,7.33190184 210.754599,8.26257669 Z M208.216205,8.13006135 C208.216205,7.30552147 208.419044,6.50705521 208.824416,5.73527607 C209.230094,4.96380368 209.804346,4.37453988 210.547477,3.96809816 C211.290608,3.56134969 212.120932,3.35828221 213.037532,3.35828221 C214.453427,3.35828221 215.613862,3.81932515 216.518836,4.74110429 C217.423504,5.66319018 217.875991,6.82822086 217.875991,8.23619632 C217.875991,9.65613497 217.419221,10.8328221 216.505681,11.7665644 C215.591834,12.7003067 214.441802,13.1671779 213.05497,13.1671779 C212.197111,13.1671779 211.378719,12.9726994 210.600404,12.5840491 C209.821784,12.195092 209.230094,11.6251534 208.824416,10.8742331 C208.419044,10.1226994 208.216205,9.20828221 208.216205,8.13006135 L208.216205,8.13006135 Z M222.18609,12.9552147 L219.709496,12.9552147 L219.709496,3.5702454 L222.009868,3.5702454 L222.009868,4.90460123 C222.403308,4.27453988 222.757588,3.85920245 223.072096,3.65858896 C223.386297,3.45828221 223.743024,3.35828221 224.14289,3.35828221 C224.707045,3.35828221 225.250397,3.51441718 225.77325,3.82668712 L225.006561,5.99171779 C224.589258,5.72055215 224.201324,5.58496933 223.843067,5.58496933 C223.496436,5.58496933 223.202732,5.6809816 222.961957,5.87239264 C222.720569,6.06380368 222.531192,6.40981595 222.393212,6.9107362 C222.255233,7.41165644 222.18609,8.4601227 222.18609,10.0567485 L222.18609,12.9552147 M97.4716271,34.6730061 L99.9482207,34.6730061 L99.9482207,21.7177914 L97.4716271,21.7177914 L97.4716271,34.6730061 Z M107.651819,30.1659509 C107.334558,30.2720859 106.831897,30.398773 106.144447,30.5457055 C105.456997,30.6932515 105.007875,30.8377301 104.796164,30.9791411 C104.47309,31.2088957 104.311247,31.5003067 104.311247,31.853681 C104.311247,32.2015337 104.440355,32.5018405 104.699181,32.7552147 C104.957701,33.008589 105.286588,33.1352761 105.686147,33.1352761 C106.132515,33.1352761 106.558997,32.9877301 106.964063,32.6932515 C107.264191,32.4696319 107.460606,32.1953988 107.554836,31.8714724 C107.619389,31.6592025 107.651819,31.2558282 107.651819,30.6607362 L107.651819,30.1659509 Z M104.337864,28.151227 L102.090115,27.7447853 C102.342822,26.8374233 102.77787,26.1659509 103.394648,25.7297546 C104.011731,25.293865 104.928331,25.0757669 106.144447,25.0757669 C107.2492,25.0757669 108.07157,25.2070552 108.612474,25.4693252 C109.152766,25.7312883 109.533663,26.0644172 109.753635,26.4677914 C109.974218,26.8711656 110.084357,27.6122699 110.084357,28.690184 L110.05774,31.5886503 C110.05774,32.4134969 110.097512,33.0217791 110.176751,33.4134969 C110.256296,33.8052147 110.404371,34.2251534 110.621896,34.6730061 L108.171613,34.6730061 C108.106753,34.5079755 108.027821,34.2634969 107.933897,33.9392638 C107.892595,33.7920245 107.86353,33.6947853 107.84548,33.6478528 C107.422363,34.0604294 106.970182,34.3693252 106.488325,34.5754601 C106.006467,34.7815951 105.492486,34.8849693 104.945769,34.8849693 C103.982055,34.8849693 103.223015,34.6230061 102.667426,34.0984663 C102.112448,33.5742331 101.83496,32.9113497 101.83496,32.1101227 C101.83496,31.5800613 101.961008,31.107362 102.213715,30.6917178 C102.466116,30.2766871 102.82009,29.9582822 103.275637,29.7374233 C103.731183,29.5165644 104.387427,29.3236196 105.245592,29.158589 C106.402967,28.9407975 107.205145,28.7374233 107.651819,28.548773 L107.651819,28.3015337 C107.651819,27.8242331 107.534032,27.4840491 107.299375,27.2806748 C107.064106,27.0776074 106.620491,26.9757669 105.968225,26.9757669 C105.527669,26.9757669 105.184098,27.0628834 104.937203,27.2365031 C104.690309,27.4104294 104.490529,27.7153374 104.337864,28.151227 L104.337864,28.151227 Z M117.540449,21.7177914 L120.149515,21.7177914 L120.149515,28.7343558 C120.149515,29.8478528 120.181639,30.5696319 120.246498,30.8993865 C120.357861,31.4294479 120.62403,31.8552147 121.044393,32.1763804 C121.46445,32.497546 122.038702,32.6579755 122.767147,32.6579755 C123.507525,32.6579755 124.065868,32.5064417 124.441869,32.2030675 C124.817871,31.8996933 125.044267,31.5269939 125.120447,31.0849693 C125.196932,30.6432515 125.235175,29.909816 125.235175,28.8846626 L125.235175,21.7177914 L127.843935,21.7177914 L127.843935,28.5223926 C127.843935,30.0776074 127.773568,31.1763804 127.63253,31.8184049 C127.491491,32.4607362 127.231441,33.002454 126.85238,33.4444785 C126.473624,33.8861963 125.966374,34.2386503 125.331852,34.5006135 C124.69733,34.7625767 123.869147,34.8935583 122.846692,34.8935583 C121.612831,34.8935583 120.676652,34.7506135 120.039376,34.4653374 C119.401795,34.1794479 118.898216,33.8082822 118.527721,33.3518405 C118.157838,32.8953988 117.913697,32.4165644 117.796216,31.9156442 C117.625806,31.1733129 117.540449,30.0776074 117.540449,28.6285276 L117.540449,21.7177914 M139.090332,34.6730061 L136.613432,34.6730061 L136.613432,29.8831288 C136.613432,28.8699387 136.560504,28.2144172 136.454955,27.9168712 C136.349099,27.6196319 136.17716,27.3883436 135.939138,27.2233129 C135.701421,27.0582822 135.414755,26.9757669 135.080055,26.9757669 C134.65082,26.9757669 134.265946,27.093865 133.925127,27.3294479 C133.584615,27.5650307 133.350876,27.8773006 133.224522,28.2659509 C133.098168,28.654908 133.035144,29.3736196 133.035144,30.4220859 L133.035144,34.6730061 L130.558551,34.6730061 L130.558551,25.2880368 L132.858922,25.2880368 L132.858922,26.6665644 C133.675479,25.606135 134.703747,25.0757669 135.943727,25.0757669 C136.490138,25.0757669 136.989434,25.1745399 137.441921,25.3717791 C137.894408,25.5693252 138.236756,25.8211656 138.468965,26.1276074 C138.700869,26.4340491 138.862405,26.7815951 138.953576,27.1702454 C139.044746,27.5592025 139.090332,28.1159509 139.090332,28.8404908 L139.090332,34.6730061 M141.601803,34.6730061 L144.078702,34.6730061 L144.078702,25.2880368 L141.601803,25.2880368 L141.601803,34.6730061 Z M141.601803,24.0153374 L144.078702,24.0153374 L144.078702,21.7177914 L141.601803,21.7177914 L141.601803,24.0153374 Z M149.622662,24.1392638 L150.838778,21.4969325 L153.6155,21.4969325 L151.191528,24.1392638 L149.622662,24.1392638 Z M148.582462,29.9803681 C148.582462,30.9113497 148.802739,31.6239264 149.243601,32.1187117 C149.684156,32.6138037 150.227507,32.8610429 150.874267,32.8610429 C151.520415,32.8610429 152.062236,32.6138037 152.500344,32.1187117 C152.938146,31.6239264 153.156894,30.9052147 153.156894,29.9628834 C153.156894,29.043865 152.938146,28.3368098 152.500344,27.8420245 C152.062236,27.3469325 151.520415,27.0996933 150.874267,27.0996933 C150.227507,27.0996933 149.684156,27.3469325 149.243601,27.8420245 C148.802739,28.3368098 148.582462,29.0496933 148.582462,29.9803681 Z M146.044068,29.8478528 C146.044068,29.0233129 146.247213,28.2248466 146.652279,27.4530675 C147.057957,26.6812883 147.632209,26.0920245 148.375646,25.6855828 C149.118471,25.2791411 149.948795,25.0757669 150.865395,25.0757669 C152.28129,25.0757669 153.441725,25.5368098 154.346699,26.4588957 C155.251367,27.3809816 155.70416,28.5460123 155.70416,29.9539877 C155.70416,31.3739264 155.247084,32.5506135 154.333544,33.4843558 C153.419697,34.4180982 152.269665,34.8849693 150.882833,34.8849693 C150.024974,34.8849693 149.206582,34.6904908 148.428267,34.3018405 C147.649647,33.9128834 147.057957,33.3429448 146.652279,32.5917178 C146.247213,31.8404908 146.044068,30.9260736 146.044068,29.8478528 L146.044068,29.8478528 Z M166.157251,34.6730061 L163.680352,34.6730061 L163.680352,29.8831288 C163.680352,28.8699387 163.627424,28.2144172 163.521568,27.9168712 C163.416019,27.6196319 163.24408,27.3883436 163.006057,27.2233129 C162.768035,27.0582822 162.481674,26.9757669 162.146669,26.9757669 C161.717739,26.9757669 161.332865,27.093865 160.992047,27.3294479 C160.651534,27.5650307 160.417795,27.8773006 160.291442,28.2659509 C160.165088,28.654908 160.102064,29.3736196 160.102064,30.4220859 L160.102064,34.6730061 L157.62547,34.6730061 L157.62547,25.2880368 L159.925536,25.2880368 L159.925536,26.6665644 C160.742093,25.606135 161.770667,25.0757669 163.010341,25.0757669 C163.557057,25.0757669 164.056047,25.1745399 164.50884,25.3717791 C164.961021,25.5693252 165.303675,25.8211656 165.535579,26.1276074 C165.767482,26.4340491 165.929325,26.7815951 166.02019,27.1702454 C166.11136,27.5592025 166.157251,28.1159509 166.157251,28.8404908 L166.157251,34.6730061 M173.70176,34.6730061 L173.70176,21.7177914 L183.282001,21.7177914 L183.282001,23.9095092 L176.31052,23.9095092 L176.31052,26.7815951 L182.79739,26.7815951 L182.79739,28.9641104 L176.31052,28.9641104 L176.31052,32.4898773 L183.528896,32.4898773 L183.528896,34.6730061 L173.70176,34.6730061 M191.884455,34.6730061 L191.884455,33.2677914 C191.543636,33.7684049 191.095738,34.1631902 190.540455,34.4518405 C189.985172,34.7404908 189.398989,34.8849693 188.782211,34.8849693 C188.153196,34.8849693 187.589041,34.746319 187.090051,34.4696319 C186.590449,34.192638 186.229132,33.8039877 186.005795,33.3030675 C185.782458,32.802454 185.671096,32.1101227 185.671096,31.2263804 L185.671096,25.2880368 L188.147689,25.2880368 L188.147689,29.6003067 C188.147689,30.9199387 188.192969,31.7288344 188.284139,32.0263804 C188.37531,32.3236196 188.54113,32.5595092 188.782211,32.7331288 C189.022987,32.9070552 189.328622,32.993865 189.698811,32.993865 C190.121928,32.993865 190.500989,32.8776074 190.835688,32.6447853 C191.170694,32.4119632 191.399538,32.1233129 191.523444,31.7788344 C191.646432,31.4340491 191.708232,30.590184 191.708232,29.2469325 L191.708232,25.2880368 L194.184826,25.2880368 L194.184826,34.6730061 L191.884455,34.6730061 M199.120575,34.6730061 L196.643675,34.6730061 L196.643675,25.2880368 L198.944353,25.2880368 L198.944353,26.6223926 C199.337793,25.9920245 199.691767,25.5766871 200.006274,25.3763804 C200.320782,25.1760736 200.677509,25.0757669 201.077068,25.0757669 C201.641224,25.0757669 202.184575,25.2322086 202.707429,25.5441718 L201.941046,27.7092025 C201.523436,27.4383436 201.135809,27.3027607 200.777552,27.3027607 C200.430615,27.3027607 200.136911,27.398773 199.896135,27.590184 C199.655054,27.7815951 199.465676,28.1276074 199.327697,28.6285276 C199.189411,29.1291411 199.120575,30.1779141 199.120575,31.7742331 L199.120575,34.6730061 M205.739917,29.9803681 C205.739917,30.9113497 205.959889,31.6239264 206.401056,32.1187117 C206.841306,32.6138037 207.384657,32.8610429 208.031417,32.8610429 C208.677564,32.8610429 209.219692,32.6138037 209.657494,32.1187117 C210.095296,31.6239264 210.31435,30.9052147 210.31435,29.9628834 C210.31435,29.043865 210.095296,28.3368098 209.657494,27.8420245 C209.219692,27.3469325 208.677564,27.0996933 208.031417,27.0996933 C207.384657,27.0996933 206.841306,27.3469325 206.401056,27.8420245 C205.959889,28.3368098 205.739917,29.0496933 205.739917,29.9803681 Z M203.201524,29.8478528 C203.201524,29.0233129 203.404363,28.2248466 203.809429,27.4530675 C204.215107,26.6812883 204.789358,26.0920245 205.532795,25.6855828 C206.27562,25.2791411 207.105945,25.0757669 208.022544,25.0757669 C209.43844,25.0757669 210.598875,25.5368098 211.503849,26.4588957 C212.408517,27.3809816 212.86131,28.5460123 212.86131,29.9539877 C212.86131,31.3739264 212.404539,32.5506135 211.490693,33.4843558 C210.576847,34.4180982 209.426814,34.8849693 208.039983,34.8849693 C207.182124,34.8849693 206.364037,34.6904908 205.585723,34.3018405 C204.807103,33.9128834 204.215107,33.3429448 203.809429,32.5917178 C203.404363,31.8404908 203.201524,30.9260736 203.201524,29.8478528 L203.201524,29.8478528 Z M217.179975,29.8214724 C217.179975,30.8760736 217.388321,31.6552147 217.805625,32.158589 C218.222622,32.6625767 218.731097,32.9141104 219.330435,32.9141104 C219.906216,32.9141104 220.385014,32.6831288 220.767135,32.2205521 C221.148949,31.7582822 221.340163,30.9996933 221.340163,29.945092 C221.340163,28.9613497 221.142831,28.2306748 220.74939,27.7533742 C220.355644,27.2763804 219.867974,27.0377301 219.28638,27.0377301 C218.680922,27.0377301 218.178873,27.2720859 217.779314,27.740184 C217.379449,28.208589 217.179975,28.902454 217.179975,29.8214724 Z M214.729386,25.2880368 L217.038936,25.2880368 L217.038936,26.6665644 C217.338452,26.1953988 217.74413,25.8122699 218.255052,25.5177914 C218.766586,25.2233129 219.333189,25.0757669 219.956085,25.0757669 C221.043094,25.0757669 221.965812,25.5030675 222.723629,26.357362 C223.481751,27.2116564 223.860506,28.4015337 223.860506,29.9273006 C223.860506,31.4944785 223.478691,32.7125767 222.715062,33.5815951 C221.951127,34.4506135 221.025349,34.8849693 219.938646,34.8849693 C219.4213,34.8849693 218.952904,34.7815951 218.532847,34.5754601 C218.112484,34.3693252 217.670399,34.0159509 217.206286,33.5150307 L217.206286,38.2429448 L214.729386,38.2429448 L214.729386,25.2880368 L214.729386,25.2880368 Z M231.387576,29.1763804 C231.369831,28.4576687 231.184431,27.9113497 230.831987,27.5371166 C230.479543,27.1628834 230.050613,26.9757669 229.545504,26.9757669 C229.0046,26.9757669 228.558232,27.1733129 228.205788,27.5677914 C227.853344,27.9628834 227.679569,28.498773 227.685688,29.1763804 L231.387576,29.1763804 Z M231.246537,31.6858896 L233.714258,32.101227 C233.396998,33.008589 232.895866,33.6993865 232.211476,34.1736196 C231.527085,34.6478528 230.67045,34.8849693 229.642182,34.8849693 C228.014575,34.8849693 226.810085,34.3518405 226.028711,33.2852761 C225.411628,32.4312883 225.103545,31.3530675 225.103545,30.051227 C225.103545,28.4957055 225.508611,27.2779141 226.319355,26.3969325 C227.130405,25.5162577 228.155614,25.0757669 229.395593,25.0757669 C230.788237,25.0757669 231.886566,25.5368098 232.691803,26.4588957 C233.496734,27.3809816 233.881914,28.7935583 233.846731,30.696319 L227.641633,30.696319 C227.659071,31.4325153 227.858851,32.0055215 228.240971,32.4150307 C228.622786,32.8245399 229.09883,33.0291411 229.668493,33.0291411 C230.056426,33.0291411 230.382559,32.9230061 230.647198,32.7110429 C230.911532,32.4990798 231.111005,32.1570552 231.246537,31.6858896 L231.246537,31.6858896 Z M241.029923,30.1659509 C240.712662,30.2720859 240.210001,30.398773 239.522551,30.5457055 C238.835101,30.6932515 238.38598,30.8377301 238.174269,30.9791411 C237.851195,31.2088957 237.689352,31.5003067 237.689352,31.853681 C237.689352,32.2015337 237.818459,32.5018405 238.077285,32.7552147 C238.3355,33.008589 238.664692,33.1352761 239.064251,33.1352761 C239.51062,33.1352761 239.937102,32.9877301 240.342168,32.6932515 C240.642296,32.4696319 240.83871,32.1953988 240.93294,31.8714724 C240.997494,31.6592025 241.029923,31.2558282 241.029923,30.6607362 L241.029923,30.1659509 Z M237.715969,28.151227 L235.468219,27.7447853 C235.720927,26.8374233 236.155669,26.1659509 236.772752,25.7297546 C237.389835,25.293865 238.306435,25.0757669 239.522551,25.0757669 C240.627305,25.0757669 241.449675,25.2070552 241.990579,25.4693252 C242.530871,25.7312883 242.911767,26.0644172 243.131739,26.4677914 C243.352323,26.8711656 243.462461,27.6122699 243.462461,28.690184 L243.435845,31.5886503 C243.435845,32.4134969 243.475617,33.0217791 243.554856,33.4134969 C243.6344,33.8052147 243.782476,34.2251534 244,34.6730061 L241.549717,34.6730061 C241.484858,34.5079755 241.405925,34.2634969 241.312001,33.9392638 C241.270699,33.7920245 241.241635,33.6947853 241.223584,33.6478528 C240.800467,34.0604294 240.348286,34.3693252 239.866429,34.5754601 C239.384572,34.7815951 238.870591,34.8849693 238.323874,34.8849693 C237.360159,34.8849693 236.601119,34.6230061 236.04553,34.0984663 C235.490553,33.5742331 235.212758,32.9113497 235.212758,32.1101227 C235.212758,31.5800613 235.339112,31.107362 235.591819,30.6917178 C235.844221,30.2766871 236.198195,29.9582822 236.653741,29.7374233 C237.109287,29.5165644 237.765531,29.3236196 238.623696,29.158589 C239.781072,28.9407975 240.583249,28.7374233 241.029923,28.548773 L241.029923,28.3015337 C241.029923,27.8242331 240.912136,27.4840491 240.677479,27.2806748 C240.44221,27.0776074 239.998596,26.9757669 239.346329,26.9757669 C238.905774,26.9757669 238.562202,27.0628834 238.315307,27.2365031 C238.068413,27.4104294 237.868633,27.7153374 237.715969,28.151227 L237.715969,28.151227 Z"/><g fill="#515251" fill-rule="nonzero" transform="translate(97.493 43.223)"><polygon points="0 11.389 0 .191 1.516 .191 7.382 8.983 7.382 .191 8.8 .191 8.8 11.389 7.283 11.389 1.417 2.59 1.417 11.389"/><path d="M16.646754 8.77693036 18.0638232 8.95262174C17.8403428 9.78269987 17.426396 10.4269016 16.821983 10.8852269 16.21757 11.3435523 15.4455466 11.572715 14.5059129 11.572715 13.3224823 11.572715 12.3841184 11.2073278 11.6908211 10.4765535 10.9975238 9.74577921 10.6508751 8.72091282 10.6508751 7.40195432 10.6508751 6.0371633 11.0013331 4.9779225 11.702249 4.22423193 12.403165 3.47054136 13.3123241 3.09369608 14.4297264 3.09369608 15.5115749 3.09369608 16.3953385 3.46290261 17.0810172 4.20131566 17.7666958 4.93972872 18.1095351 5.9785995 18.1095351 7.31792801 18.1095351 7.39940807 18.1069956 7.52162816 18.1019165 7.68458829L12.0679443 7.68458829C12.1187353 8.57577646 12.3701508 9.25817197 12.8221908 9.73177483 13.2742308 10.2053777 13.8380111 10.4421791 14.5135315 10.4421791 15.0163625 10.4421791 15.4455466 10.309774 15.8010837 10.0449638 16.1566207 9.78015361 16.4385109 9.3574758 16.646754 8.77693036ZM12.1441308 6.55405243 16.6619913 6.55405243C16.6010421 5.87165692 16.4283527 5.35986029 16.143923 5.01866253 15.7071203 4.48904213 15.1408005 4.22423193 14.4449637 4.22423193 13.8151551 4.22423193 13.2856588 4.43557084 12.8564748 4.85824866 12.4272907 5.28092648 12.1898428 5.8461944 12.1441308 6.55405243ZM18.8714003 11.3893848 21.8274372 7.17279165 19.0923412 3.27702622 20.8065379 3.27702622 22.0483781 5.1790764C22.2820167 5.54064417 22.4699435 5.84364815 22.6121583 6.08808833 22.8356388 5.75198308 23.0413424 5.45407161 23.2292691 5.19435391L24.5930078 3.27702622 26.2310179 3.27702622 23.4349727 7.09640409 26.4443401 11.3893848 24.7606181 11.3893848 23.099752 8.86859543 22.6578702 8.18874617 20.5322664 11.3893848 18.8714003 11.3893848ZM30.581268 10.1595451 30.779353 11.3741073C30.3933413 11.4555874 30.0479624 11.4963274 29.7432163 11.4963274 29.2454644 11.4963274 28.8594527 11.4173936 28.5851813 11.259526 28.3109098 11.1016584 28.117904 10.8941388 28.0061637 10.6369674 27.8944235 10.3797959 27.8385534 9.83871741 27.8385534 9.01373179L27.8385534 4.34645202 26.8328914 4.34645202 26.8328914 3.27702622 27.8385534 3.27702622 27.8385534 1.26803345 29.202292.443047834 29.202292 3.27702622 30.581268 3.27702622 30.581268 4.34645202 29.202292 4.34645202 29.202292 9.09011934C29.202292 9.48224214 29.2264178 9.73432108 29.2746692 9.84635616 29.3229207 9.95839125 29.4016468 10.0475101 29.5108474 10.1137126 29.6200481 10.1799152 29.7762305 10.2130164 29.9793945 10.2130164 30.1317676 10.2130164 30.3323921 10.1951927 30.581268 10.1595451ZM37.3237748 6.99710027 37.3237748 5.68323428 42.0549575 5.67559552 42.0549575 9.83107865C41.328646 10.4116241 40.5794786 10.8483063 39.8074552 11.1411253 39.0354319 11.4339442 38.2430921 11.5803537 37.4304359 11.5803537 36.3333501 11.5803537 35.3365765 11.3448254 34.4401151 10.8737688 33.5436538 10.4027122 32.8668635 9.72158982 32.4097444 8.83040165 31.9526253 7.93921348 31.7240658 6.94362898 31.7240658 5.84364815 31.7240658 4.75385233 31.9513555 3.73662469 32.4059351 2.79196523 32.8605146 1.84730577 33.5144489 1.14581336 34.3677379.687488018 35.2210269.229162673 36.203833 0 37.3161561 0 38.1237332 0 38.853854.131131974 39.5065185.393395921 40.159183.655659869 40.6709024 1.02104702 41.0416768 1.48955737 41.4124512 1.95806772 41.6943413 2.56916818 41.8873472 3.32285875L40.5540831 3.68951903C40.3864728 3.1191586 40.1782296 2.67101826 39.9293537 2.34509802 39.6804777 2.01917777 39.3249406 1.75818695 38.8627424 1.56212555 38.4005442 1.36606415 37.887555 1.26803345 37.3237748 1.26803345 36.6482543 1.26803345 36.0641577 1.37115666 35.5714849 1.57740306 35.0788121 1.78364947 34.6813724 2.0548253 34.3791659 2.39093055 34.0769594 2.7270358 33.8420509 3.09624233 33.6744406 3.49855013 33.3900109 4.19113066 33.2477961 4.94227497 33.2477961 5.75198308 33.2477961 6.75011383 33.4192158 7.58528446 33.7620551 8.25749497 34.1048944 8.92970547 34.6039161 9.42877085 35.2591202 9.75469109 35.9143242 10.0806113 36.6101611 10.2435715 37.3466307 10.2435715 37.9865975 10.2435715 38.6113269 10.1200782 39.2208191 9.87309181 39.8303112 9.62610537 40.2925094 9.3625683 40.6074137 9.08248059L40.6074137 6.99710027 37.3237748 6.99710027ZM49.5974227 8.77693036 51.0144919 8.95262174C50.7910115 9.78269987 50.3770647 10.4269016 49.7726517 10.8852269 49.1682387 11.3435523 48.3962153 11.572715 47.4565816 11.572715 46.273151 11.572715 45.3347871 11.2073278 44.6414898 10.4765535 43.9481925 9.74577921 43.6015438 8.72091282 43.6015438 7.40195432 43.6015438 6.0371633 43.9520018 4.9779225 44.6529177 4.22423193 45.3538337 3.47054136 46.2629928 3.09369608 47.3803951 3.09369608 48.4622436 3.09369608 49.3460072 3.46290261 50.0316859 4.20131566 50.7173645 4.93972872 51.0602038 5.9785995 51.0602038 7.31792801 51.0602038 7.39940807 51.0576643 7.52162816 51.0525852 7.68458829L45.018613 7.68458829C45.069404 8.57577646 45.3208195 9.25817197 45.7728595 9.73177483 46.2248995 10.2053777 46.7886798 10.4421791 47.4642002 10.4421791 47.9670312 10.4421791 48.3962153 10.309774 48.7517524 10.0449638 49.1072894 9.78015361 49.3891796 9.3574758 49.5974227 8.77693036ZM45.0947995 6.55405243 49.61266 6.55405243C49.5517108 5.87165692 49.3790214 5.35986029 49.0945917 5.01866253 48.657789 4.48904213 48.0914692 4.22423193 47.3956324 4.22423193 46.7658238 4.22423193 46.2363275 4.43557084 45.8071435 4.85824866 45.3779594 5.28092648 45.1405114 5.8461944 45.0947995 6.55405243ZM52.7363072 11.3893848 52.7363072 3.27702622 53.9705288 3.27702622 53.9705288 4.43047834C54.5647836 3.53929016 55.4231517 3.09369608 56.5456331 3.09369608 57.0332268 3.09369608 57.4814575 3.18154177 57.8903251 3.35723315 58.2991927 3.53292453 58.6052086 3.76336033 58.8083726 4.04854055 59.0115367 4.33372076 59.1537515 4.67237227 59.2350171 5.06449506 59.2858081 5.31912025 59.3112036 5.76471434 59.3112036 6.40127732L59.3112036 11.3893848 57.9398463 11.3893848 57.9398463 6.45474861C57.9398463 5.89457319 57.8865158 5.47571475 57.7798547 5.19817329 57.6731935 4.92063183 57.483997 4.69910791 57.2122651 4.53360154 56.9405332 4.36809516 56.6218196 4.28534198 56.2561243 4.28534198 55.6720277 4.28534198 55.1679269 4.47121837 54.7438219 4.84297115 54.319717 5.21472393 54.1076645 5.92003571 54.1076645 6.95890649L54.1076645 11.3893848 52.7363072 11.3893848ZM66.9527113 8.77693036 68.3697805 8.95262174C68.1463001 9.78269987 67.7323534 10.4269016 67.1279403 10.8852269 66.5235273 11.3435523 65.7515039 11.572715 64.8118702 11.572715 63.6284396 11.572715 62.6900757 11.2073278 61.9967784 10.4765535 61.3034811 9.74577921 60.9568324 8.72091282 60.9568324 7.40195432 60.9568324 6.0371633 61.3072904 4.9779225 62.0082064 4.22423193 62.7091223 3.47054136 63.6182814 3.09369608 64.7356837 3.09369608 65.8175322 3.09369608 66.7012958 3.46290261 67.3869745 4.20131566 68.0726531 4.93972872 68.4154925 5.9785995 68.4154925 7.31792801 68.4154925 7.39940807 68.4129529 7.52162816 68.4078738 7.68458829L62.3739016 7.68458829C62.4246927 8.57577646 62.6761082 9.25817197 63.1281482 9.73177483 63.5801882 10.2053777 64.1439684 10.4421791 64.8194888 10.4421791 65.3223199 10.4421791 65.7515039 10.309774 66.107041 10.0449638 66.4625781 9.78015361 66.7444682 9.3574758 66.9527113 8.77693036ZM62.4500882 6.55405243 66.9679486 6.55405243C66.9069994 5.87165692 66.73431 5.35986029 66.4498803 5.01866253 66.0130776 4.48904213 65.4467578 4.22423193 64.750921 4.22423193 64.1211124 4.22423193 63.5916161 4.43557084 63.1624321 4.85824866 62.733248 5.28092648 62.4958001 5.8461944 62.4500882 6.55405243ZM70.0763585 11.3893848 70.0763585 3.27702622 71.3105801 3.27702622 71.3105801 4.50686589C71.6254844 3.93141296 71.9162629 3.55202142 72.1829157 3.36869129 72.4495685 3.18536115 72.7428866 3.09369608 73.06287 3.09369608 73.5250682 3.09369608 73.9948851 3.24137869 74.4723206 3.53674391L73.9999642 4.81241612C73.6647435 4.61380847 73.3295228 4.51450465 72.9943021 4.51450465 72.6946352 4.51450465 72.4254428 4.60489659 72.1867251 4.78568048 71.9480073 4.96646436 71.7778574 5.21727018 71.6762754 5.53809792 71.5239024 6.02697829 71.4477158 6.56169119 71.4477158 7.14223663L71.4477158 11.3893848 70.0763585 11.3893848ZM80.567242 10.3887078C80.0593318 10.8215706 79.5704684 11.1271209 79.1006515 11.3053585 78.6308346 11.4835961 78.1267338 11.572715 77.5883491 11.572715 76.6995064 11.572715 76.0163673 11.3550104 75.5389318 10.9196013 75.0614963 10.4841923 74.8227786 9.92783622 74.8227786 9.25053321 74.8227786 8.85331792 74.9129326 8.49047702 75.0932407 8.16201052 75.2735488 7.83354402 75.509727 7.57000695 75.8017753 7.3713993 76.0938236 7.17279165 76.4226954 7.02256279 76.7883907 6.92071271 77.0575831 6.84941766 77.4639111 6.78066886 78.007375 6.71446631 79.114619 6.58206121 79.9298148 6.42419359 80.4529622 6.24086345 80.4580413 6.05244081 80.4605808 5.93276697 80.4605808 5.88184193 80.4605808 5.32166651 80.3310637 4.92699746 80.0720296 4.69783479 79.7215716 4.38719205 79.2009637 4.23187069 78.510206 4.23187069 77.8651601 4.23187069 77.3889944 4.3451789 77.0817088 4.57179532 76.7744232 4.79841174 76.5471334 5.19944641 76.3998395 5.77489935L75.0589568 5.59156921C75.1808552 5.01611628 75.3814797 4.5514253 75.6608302 4.19749629 75.9401808 3.84356727 76.3439693 3.57111831 76.8721959 3.38014942 77.4004224 3.18918053 78.0124541 3.09369608 78.7082909 3.09369608 79.3990487 3.09369608 79.9602894 3.17517614 80.392013 3.33813626 80.8237366 3.50109639 81.1411804 3.70606967 81.3443444 3.9530561 81.5475085 4.20004254 81.6897233 4.5119584 81.7709889 4.88880368 81.8167008 5.12305886 81.8395568 5.54573668 81.8395568 6.15683714L81.8395568 7.99013852C81.8395568 9.26835698 81.8687616 10.076792 81.9271713 10.4154435 81.9855809 10.754095 82.1011305 11.0787421 82.2738199 11.3893848L80.8415134 11.3893848C80.6992986 11.1042046 80.6078748 10.7706456 80.567242 10.3887078ZM80.4529622 7.31792801C79.9552103 7.52162816 79.2085824 7.69477329 78.2130786 7.8373634 77.6492983 7.91884346 77.2505889 8.01050853 77.0169502 8.11235861 76.7833116 8.21420868 76.6030035 8.36316442 76.476026 8.55922582 76.3490484 8.75528722 76.2855597 8.97299176 76.2855597 9.21233944 76.2855597 9.57899971 76.4239652 9.88454994 76.7007762 10.1289901 76.9775872 10.3734303 77.3826455 10.4956504 77.9159512 10.4956504 78.4441777 10.4956504 78.9139945 10.3797959 79.3254017 10.148087 79.7368089 9.91637809 80.0390154 9.59936973 80.2320213 9.19706192 80.3793152 8.88641919 80.4529622 8.42809385 80.4529622 7.82208589L80.4529622 7.31792801ZM86.9592907 10.1595451 87.1573757 11.3741073C86.771364 11.4555874 86.4259851 11.4963274 86.1212391 11.4963274 85.6234871 11.4963274 85.2374755 11.4173936 84.963204 11.259526 84.6889325 11.1016584 84.4959267 10.8941388 84.3841865 10.6369674 84.2724462 10.3797959 84.2165761 9.83871741 84.2165761 9.01373179L84.2165761 4.34645202 83.2109141 4.34645202 83.2109141 3.27702622 84.2165761 3.27702622 84.2165761 1.26803345 85.5803148.443047834 85.5803148 3.27702622 86.9592907 3.27702622 86.9592907 4.34645202 85.5803148 4.34645202 85.5803148 9.09011934C85.5803148 9.48224214 85.6044405 9.73432108 85.652692 9.84635616 85.7009434 9.95839125 85.7796695 10.0475101 85.8888702 10.1137126 85.9980709 10.1799152 86.1542532 10.2130164 86.3574173 10.2130164 86.5097903 10.2130164 86.7104148 10.1951927 86.9592907 10.1595451ZM88.3077921 1.77219133 88.3077921.190968894 89.6791494.190968894 89.6791494 1.77219133 88.3077921 1.77219133ZM88.3077921 11.3893848 88.3077921 3.27702622 89.6791494 3.27702622 89.6791494 11.3893848 88.3077921 11.3893848ZM91.2562103 7.33320552C91.2562103 5.83091689 91.6726966 4.7182048 92.5056692 3.99506926 93.2015061 3.39415381 94.0497159 3.09369608 95.0502989 3.09369608 96.162622 3.09369608 97.0717811 3.45908323 97.7777762 4.18985753 98.4837712 4.92063183 98.8367688 5.93022071 98.8367688 7.21862419 98.8367688 8.26258747 98.6805864 9.08375371 98.3682217 9.68212291 98.055857 10.2804921 97.6012774 10.7451831 97.004483 11.0761958 96.4076887 11.4072086 95.7562939 11.572715 95.0502989 11.572715 93.9176593 11.572715 93.0021513 11.2086009 92.3037749 10.4803729 91.6053985 9.75214484 91.2562103 8.70308905 91.2562103 7.33320552ZM92.6656609 7.33320552C92.6656609 8.3720763 92.8916809 9.14995626 93.3437209 9.6668454 93.7957609 10.1837345 94.3646202 10.4421791 95.0502989 10.4421791 95.7308984 10.4421791 96.2972182 10.1824614 96.7492582 9.66302603 97.2012982 9.14359063 97.4273182 8.35170629 97.4273182 7.28737299 97.4273182 6.28414973 97.2000284 5.52409353 96.7454489 5.00720439 96.2908693 4.49031526 95.7258193 4.23187069 95.0502989 4.23187069 94.3646202 4.23187069 93.7957609 4.48904213 93.3437209 5.00338502 92.8916809 5.5177279 92.6656609 6.29433474 92.6656609 7.33320552ZM100.444304 11.3893848 100.444304 3.27702622 101.678526 3.27702622 101.678526 4.43047834C102.272781 3.53929016 103.131149 3.09369608 104.25363 3.09369608 104.741224 3.09369608 105.189455 3.18154177 105.598322 3.35723315 106.00719 3.53292453 106.313206 3.76336033 106.51637 4.04854055 106.719534 4.33372076 106.861749 4.67237227 106.943014 5.06449506 106.993805 5.31912025 107.019201 5.76471434 107.019201 6.40127732L107.019201 11.3893848 105.647843 11.3893848 105.647843 6.45474861C105.647843 5.89457319 105.594513 5.47571475 105.487852 5.19817329 105.381191 4.92063183 105.191994 4.69910791 104.920262 4.53360154 104.64853 4.36809516 104.329817 4.28534198 103.964121 4.28534198 103.380025 4.28534198 102.875924 4.47121837 102.451819 4.84297115 102.027714 5.21472393 101.815662 5.92003571 101.815662 6.95890649L101.815662 11.3893848 100.444304 11.3893848Z"/><polygon points="109.328 11.389 109.328 .191 117.403 .191 117.403 1.512 110.806 1.512 110.806 4.942 116.984 4.942 116.984 6.256 110.806 6.256 110.806 10.068 117.662 10.068 117.662 11.389"/><path d="M127.033399,0.190968894 L128.511417,0.190968894 L128.511417,6.66099502 C128.511417,7.78643836 128.38444,8.68017279 128.130485,9.34219828 C127.87653,10.0042238 127.418141,10.5427561 126.755318,10.9577951 C126.092495,11.3728342 125.222699,11.5803537 124.14593,11.5803537 C123.099635,11.5803537 122.243806,11.3995698 121.578444,11.0380021 C120.913082,10.6764343 120.438186,10.1531795 120.153756,9.46823775 C119.869327,8.78329599 119.727112,7.84754841 119.727112,6.66099502 L119.727112,0.190968894 L121.20513,0.190968894 L121.20513,6.65335626 C121.20513,7.62602449 121.295284,8.34279441 121.475592,8.803666 C121.6559,9.2645376 121.965726,9.61973974 122.405068,9.86927243 C122.84441,10.1188051 123.381525,10.2435715 124.016413,10.2435715 C125.10334,10.2435715 125.877903,9.99658503 126.340101,9.50261215 C126.8023,9.00863928 127.033399,8.05888732 127.033399,6.65335626 L127.033399,0.190968894 Z"/></g></g></svg>