<?xml version="1.0" encoding="UTF-8"?>
<svg width="120px" height="119px" viewBox="0 0 120 119" version="1.1" xmlns="http://www.w3.org/2000/svg" xmlns:xlink="http://www.w3.org/1999/xlink">
    <title>orange/logo/orange_principal</title>
    <g id="orange/logo/orange_principal" stroke="none" stroke-width="1" fill="none" fill-rule="evenodd">
        <g id="Group-17">
            <polygon id="Fill-1" fill="#FF6500" points="0 119.32986 119.32986 119.32986 119.32986 0 0 0"></polygon>
            <g id="Group-16" transform="translate(4.679602, 85.224715)" fill="#FFFFFF">
                <path d="M9.01304325,9.82899261 C5.74236427,9.82899261 5.14700589,12.8233876 5.14700589,14.9872908 C5.14700589,17.151194 5.74236427,20.1475158 9.01304325,20.1475158 C12.2856183,20.1475158 12.8809767,17.151194 12.8809767,14.9872908 C12.8809767,12.8233876 12.2856183,9.82899261 9.01304325,9.82899261 M9.01304325,23.9030344 C4.69005886,23.9030344 0.786100583,21.1051827 0.786100583,14.9872908 C0.786100583,8.86939886 4.69005886,6.07154718 9.01304325,6.07154718 C13.3379237,6.07154718 17.2361938,8.86939886 17.2361938,14.9872908 C17.2361938,21.1051827 13.3379237,23.9030344 9.01304325,23.9030344" id="Fill-2"></path>
                <path d="M20.2357383,6.51723802 L24.3994548,6.51723802 L24.3994548,8.50193996 C25.193898,7.43058629 27.1468252,6.16847001 28.9784054,6.16847001 C29.1528416,6.16847001 29.3670948,6.16847001 29.5472191,6.19351964 L29.5472191,10.3710282 L29.332966,10.3710282 C27.4331281,10.3710282 25.3493738,10.6716238 24.6781735,12.174602 L24.6781735,23.4103273 L20.2357383,23.4103273 L20.2357383,6.51723802 Z" id="Fill-4"></path>
                <path d="M35.0448039,18.3795896 C35.0448039,19.5164577 35.7444448,20.5801038 37.0147955,20.5801038 C38.3894287,20.5801038 39.728037,20.0020353 41.0685413,18.7977258 L41.0685413,14.7974916 C36.9806666,15.3100457 35.0448039,16.3833263 35.0448039,18.3795896 L35.0448039,18.3795896 Z M41.1709278,21.9404917 C39.479655,23.073506 37.6480747,23.6188173 35.6761871,23.6188173 C32.5723602,23.6188173 30.7369879,21.5223555 30.7369879,18.7052349 C30.7369879,14.9227398 34.1555584,12.9226227 41.2069527,12.1171805 L41.2069527,11.1749288 C41.2069527,9.94942356 40.2911626,9.22876479 38.5979937,9.22876479 C36.9048248,9.22876479 35.5301916,9.91281255 34.5385597,11.1749288 L31.5883124,9.46769978 C33.1354858,7.2614049 35.4960628,6.15922091 38.6681474,6.15922091 C43.0044041,6.15922091 45.4389269,8.06877395 45.4389269,11.1749288 C45.4389269,11.1749288 45.4332387,23.3914437 45.4389269,23.4184203 L41.5615133,23.4184203 L41.1709278,21.9404917 Z" id="Fill-6"></path>
                <path d="M48.8967456,6.96601188 L52.5200891,6.46116537 L52.9201547,8.46320937 C54.958404,6.94288914 56.5852113,6.13744699 58.6253565,6.13744699 C62.0496152,6.13744699 63.8148338,7.9795587 63.8148338,11.6348787 L63.8148338,23.3947194 L59.4387602,23.3947194 L59.4387602,12.4056367 C59.4387602,10.3361514 58.9097634,9.40546107 57.3265652,9.40546107 C56.0239817,9.40546107 54.7176062,10.0085792 53.2254181,11.2822569 L53.2254181,23.3947194 L48.8967456,23.3947194 L48.8967456,6.96601188 Z" id="Fill-8"></path>
                <path d="M82.3274457,6.45499931 L82.3274457,22.4540093 C82.3274457,25.2730568 82.1094004,29.9303622 74.1915132,29.9727539 C70.9208342,29.9978035 67.887161,28.6643921 67.2880105,25.764415 L71.6015147,25.0591714 C71.7778469,25.8915901 72.2821951,26.7143743 74.7280942,26.7143743 C76.999557,26.7143743 78.0878873,25.6121903 78.0878873,22.9742709 L78.0878873,21.006911 L78.0310059,20.9471773 C77.3351571,22.2131474 76.2771636,23.4097492 73.7421504,23.4097492 C69.8628407,23.4097492 66.810207,20.6735582 66.810207,14.964168 C66.810207,9.31258473 69.9614351,6.14862299 73.4899763,6.14282607 C76.8137445,6.13706162 78.0366941,7.67665079 78.322997,8.48209294 L78.2680117,8.47631226 L78.6301564,6.45499931 L82.3274457,6.45499931 Z M74.5214252,19.7794789 C77.8414014,19.7563561 78.1258082,16.3207022 78.1258082,14.0893577 C78.1258082,11.43795 76.8516655,9.29716957 74.4929845,9.29716957 C72.9230586,9.29716957 71.1616321,10.464868 71.1616321,14.2704858 C71.1616321,16.3496056 71.3095236,19.8103092 74.5214252,19.7794789 L74.5214252,19.7794789 Z" id="Fill-10"></path>
                <path d="M96.0682791,12.723189 C96.0682791,10.4687218 94.7941363,9.13531038 92.7141741,9.13531038 C90.7384944,9.13531038 89.5041686,10.4359646 89.3297324,12.723189 L96.0682791,12.723189 Z M92.7881199,23.7199793 C87.8868415,23.7199793 84.9688271,20.5136259 84.9688271,14.9564605 C84.9688271,9.33570747 87.9247625,6.13513472 92.7141741,6.13513472 C97.51117,6.13513472 100.364719,9.24128961 100.364719,14.7329406 C100.364719,15.0296825 100.33059,15.3167898 100.33059,15.6058241 L89.2633708,15.6058241 C89.2918115,18.8121775 90.6019791,20.4269156 93.1768093,20.4269156 C94.8282652,20.4269156 95.9260757,19.7486485 96.9518365,18.2630124 L100.14857,20.0665862 C98.7398076,22.4655706 96.2047944,23.7199793 92.7881199,23.7199793 L92.7881199,23.7199793 Z" id="Fill-12"></path>
                <path d="M97.7347138,0.107036113 L97.7347138,0.848890723 L99.4525312,0.848890723 L99.4525312,5.69117809 L100.364529,5.69117809 L100.364529,0.848890723 L102.086139,0.848890723 L102.086139,0.107036113 L97.7347138,0.107036113 Z M107.85391,0.107036113 L106.240375,4.34235153 L104.604088,0.107036113 L103.201014,0.107036113 L103.201014,5.69117809 L104.111116,5.69117809 L104.111116,1.03194576 L104.133868,1.03194576 L105.933216,5.69117809 L106.515302,5.69117809 L108.308961,1.03194576 L108.335506,1.03194576 L108.335506,5.69117809 L109.23992,5.69117809 L109.23992,0.107036113 L107.85391,0.107036113 Z" id="Fill-14"></path>
            </g>
        </g>
    </g>
</svg>