<svg xmlns="http://www.w3.org/2000/svg" xmlns:xlink="http://www.w3.org/1999/xlink" width="174" height="58" viewBox="0 0 174 58"><defs><polygon id="a" points="0 0 91.909 0 91.909 21.664 0 21.664"/></defs><g fill="none" fill-rule="evenodd" transform="translate(.967 .967)"><polyline fill="#BD243A" points="44.147 0 44.147 11.156 33.942 11.156 33.942 56.029 21.852 56.029 21.852 11.156 11.595 11.156 11.595 0 44.147 0"/><path fill="#BD243A" d="M56.1008119,38.170011 L54.4112723,38.7071487 C51.6648144,39.5811202 48.8364667,40.1290366 45.9775229,40.3414665 L42.9089051,40.4191628 L54.0198211,55.9849283 L68.9377128,55.9849283 L56.1008119,38.170011"/><path fill="#F9C730" d="M19.5338668,48.4820668 L15.9347651,48.2736789 L15.3619864,45.044116 L13.56716,48.1366998 L9.77863193,47.9179824 L12.4040549,50.1639904 L10.6024793,53.3666066 L14.0324021,51.5809381 L17.4218299,53.7609267 L16.3757102,50.503968 L19.5338668,48.4820668 M5.45107099,34.2748644 L5.99055379,37.1851088 L9.34488596,37.3791251 L6.40540212,39.194435 L6.88549231,42.1015356 L4.22362389,40.1604744 L0.539932744,41.7341621 L2.70371321,38.881404 L0.252868502,36.8532152 L3.78402865,37.0575611 L5.45107099,34.2748644 Z M45.5944778,0.0773549042 C46.6069246,0.0881031685 50.2914706,0.218172774 54.1269077,1.48027246 C56.9120608,2.39735873 59.2639178,3.73795742 61.2013765,5.44727689 C63.1374853,7.15749459 64.625,9.20050412 65.6648205,11.5776528 C66.7032912,13.9556997 67.2225265,16.5865966 67.2225265,19.4712416 L67.2225265,19.6311254 C67.2225265,22.8912279 66.6038535,25.7493753 65.3701072,28.2064659 C64.1332113,30.6644548 62.4351228,32.7218359 60.274492,34.3768128 C58.1120613,36.0331371 55.5869759,37.2758294 52.6947361,38.1030933 C49.8024964,38.9321537 46.7010327,39.3453365 43.3889953,39.3453365 L35.0555833,39.3453365 C35.0555833,35.6720512 35.074031,32.0629889 35.0555833,28.3820686 L43.8105928,28.3672479 C47.0659373,28.3672479 49.5914727,27.5525592 51.3889988,25.9222834 C53.1860749,24.2933549 54.0841631,22.2759448 54.0841631,19.8718493 L54.0841631,19.7119655 C54.0841631,16.9346582 53.1433302,14.8229346 51.2639144,13.3808367 C49.3808989,11.9378405 47.2823603,11.4114815 45.3219545,11.2165669 C45.3404022,7.46872906 45.3219545,3.79948574 45.3219545,0.0772472277 L45.5944778,0.0773549042 Z M4.67581756,22.6563424 L5.16985602,25.1385833 L8.1925795,25.3132878 L5.54915877,26.852843 L5.9896539,29.3319401 L3.58650325,27.6702265 L0.272216092,29.0013938 L2.21372425,26.5752919 L0,24.8394748 L3.18155369,25.0236107 L4.67581756,22.6563424 Z M10.7716582,13.8600389 L11.2130533,15.8195137 L13.8425257,15.9713135 L11.5509612,17.1726875 L11.946012,19.1290184 L9.8479233,17.8077316 L6.97188155,18.8415869 L8.64882267,16.937802 L6.7154135,15.5590288 L9.4834687,15.7193617 L10.7716582,13.8600389 Z"/><path fill="#4D4E4C" d="M83.7606664,9.86384223 C84.2146599,9.86384223 84.5674159,9.7448276 84.8180347,9.50634924 C85.0686535,9.26787088 85.1941879,8.97235533 85.1941879,8.6207008 L85.1941879,8.59734698 C85.1941879,8.19090081 85.0628042,7.8819119 84.8004869,7.67082936 C84.5381696,7.45974682 84.1795642,7.35420555 83.7255708,7.35420555 L82.327145,7.35420555 L82.327145,9.86384223 L83.7606664,9.86384223 Z M80.5179204,5.72392975 L83.8781018,5.72392975 C84.3716903,5.72392975 84.8121854,5.79264386 85.2000371,5.92917384 C85.5878888,6.06615294 85.9167978,6.25972012 86.1867642,6.50987539 C86.4571805,6.76003065 86.6646047,7.0591391 86.8099366,7.40675163 C86.9548185,7.75481327 87.0272595,8.13970207 87.0272595,8.56186715 L87.0272595,8.58567008 C87.0272595,9.0626268 86.9408703,9.48119898 86.7685418,9.84048842 C86.5962132,10.200227 86.3590928,10.5011319 86.0576303,10.7436522 C85.7561679,10.9861726 85.4034118,11.1676138 85.000262,11.2888739 C84.5966623,11.4101341 84.1642662,11.4707642 83.7021737,11.4707642 L82.327145,11.4707642 L82.327145,13.9332442 L80.5179204,13.9332442 L80.5179204,5.72392975 L80.5179204,5.72392975 Z"/><polygon fill="#4D4E4C" points="88.261 13.933 90.047 13.933 90.047 5.372 88.261 5.372"/><path fill="#4D4E4C" d="M94.0531344 12.8194469C94.4765316 12.8194469 94.8148895 12.7174985 95.0695577 12.5140509 95.324226 12.3110524 95.4515602 12.0451782 95.4515602 11.7168775L95.4515602 11.4002537C95.2945297 11.3297431 95.1204014 11.273155 94.9287253 11.2300403 94.7365992 11.1873747 94.5309748 11.1658173 94.3118521 11.1658173 93.9276 11.1658173 93.6261375 11.2399208 93.4070148 11.3885768 93.1878921 11.5372328 93.0781058 11.7519082 93.0781058 12.0335013L93.0781058 12.0573042C93.0781058 12.2993755 93.1680946 12.4871042 93.3480722 12.6200413 93.5284997 12.7529784 93.7633704 12.8194469 94.0531344 12.8194469ZM93.5127517 14.0509114C93.2148888 14.0509114 92.9350236 14.0095932 92.6727063 13.9274057 92.409939 13.8452182 92.1809176 13.7226107 91.9851919 13.5577867 91.7894663 13.3938609 91.6346856 13.1926588 91.5212997 12.9541805 91.4074639 12.7157021 91.350771 12.4403966 91.350771 12.1273656L91.350771 12.1040118C91.350771 11.7599922 91.4133132 11.4626802 91.5388475 11.2125249 91.663932 10.9623697 91.8385102 10.7553291 92.0616824 10.5909542 92.2848546 10.4270284 92.5512214 10.3039718 92.8607829 10.2217843 93.1698944 10.1395969 93.5127517 10.0982786 93.8889048 10.0982786 94.2097148 10.0982786 94.48958 10.1220815 94.7289502 10.1687891 94.9678704 10.2159459 95.2004914 10.2783724 95.4277131 10.3565179L95.4277131 10.2509766C95.4277131 9.87551914 95.3143273 9.59033315 95.0871056 9.39496952 94.8598839 9.19960589 94.5233258 9.10169952 94.0769814 9.10169952 93.7318744 9.10169952 93.4286121 9.13089179 93.1662948 9.18972543 92.9035276 9.24810997 92.6277119 9.33254298 92.337948 9.44167715L91.8916036 8.08131754C92.2358107 7.93266153 92.5962158 7.81140135 92.972369 7.71753699 93.3480722 7.62412174 93.8025156 7.576965 94.3352492 7.576965 94.8288377 7.576965 95.2499853 7.63759509 95.5982419 7.75885527 95.9469485 7.88011546 96.2349126 8.05392172 96.4616843 8.28072317 96.697005 8.51515953 96.8693336 8.80259107 96.9791199 9.1425687 97.0884563 9.48254632 97.1433494 9.86384223 97.1433494 10.2860073L97.1433494 13.9332442 95.4160146 13.9332442 95.4160146 13.2532889C95.1968919 13.4953602 94.9345746 13.6889273 94.6290626 13.8339904 94.3235507 13.9781553 93.951447 14.0509114 93.5127517 14.0509114L93.5127517 14.0509114ZM98.6826077 7.64747555 100.468435 7.64747555 100.468435 8.54614824C100.570123 8.41231293 100.681709 8.28386695 100.803194 8.16215766 100.924678 8.03999925 101.059662 7.93176331 101.208593 7.83744984 101.357075 7.74268725 101.521754 7.66813469 101.702182 7.61289394 101.882159 7.55765319 102.085984 7.53025737 102.313205 7.53025737 102.994421 7.53025737 103.521305 7.73729791 103.893409 8.15137898 104.265512 8.56590916 104.451339 9.13673024 104.451339 9.86384223L104.451339 13.9332442 102.665512 13.9332442 102.665512 10.4355615C102.665512 10.0142947 102.571473 9.69632353 102.383397 9.48209721 102.19577 9.26787088 101.929403 9.16008405 101.584746 9.16008405 101.240089 9.16008405 100.967873 9.26787088 100.768098 9.48209721 100.568323 9.69632353 100.468435 10.0142947 100.468435 10.4355615L100.468435 13.9332442 98.6826077 13.9332442 98.6826077 7.64747555M112.570128 12.5378538C112.781601 12.5378538 112.979577 12.4965355 113.163604 12.4147972 113.347631 12.3326097 113.508261 12.2153916 113.645494 12.0626935 113.782277 11.9104447 113.892063 11.7267579 113.974403 11.5116334 114.056743 11.2969579 114.097688 11.060276 114.097688 10.8020368L114.097688 10.7786829C114.097688 10.5208928 114.056743 10.2842109 113.974403 10.0690863 113.892063 9.85441088 113.782277 9.67027505 113.645494 9.51802615 113.508261 9.36532814 113.347631 9.24810997 113.163604 9.16592251 112.979577 9.08373505 112.781601 9.04286588 112.570128 9.04286588 112.358654 9.04286588 112.160679 9.08373505 111.977102 9.16592251 111.792625 9.24810997 111.630195 9.36532814 111.489362 9.51802615 111.34808 9.67027505 111.236494 9.85216532 111.154604 10.0632479 111.072264 10.2743304 111.03087 10.5132579 111.03087 10.7786829L111.03087 10.8020368C111.03087 11.060276 111.072264 11.2969579 111.154604 11.5116334 111.236494 11.7267579 111.34808 11.9104447 111.489362 12.0626935 111.630195 12.2153916 111.792625 12.3326097 111.977102 12.4147972 112.160679 12.4965355 112.358654 12.5378538 112.570128 12.5378538ZM112.112085 14.0509114C111.743581 14.0509114 111.387225 13.9799518 111.042568 13.8393798 110.697911 13.6988078 110.392399 13.4895217 110.126482 13.2124197 109.859665 12.9348686 109.646392 12.594891 109.485762 12.1920377 109.325132 11.7891845 109.245042 11.3261502 109.245042 10.8020368L109.245042 10.7786829C109.245042 10.2550186 109.325132 9.79198434 109.485762 9.38913107 109.646392 8.98627779 109.857866 8.64630017 110.120183 8.36874908 110.3825 8.091198 110.686212 7.8819119 111.03087 7.74133991 111.375527 7.60031881 111.735932 7.53025737 112.112085 7.53025737 112.589475 7.53025737 112.983176 7.62412174 113.292738 7.81140135 113.602299 7.99913008 113.862367 8.21829663 114.07384 8.4684519L114.07384 5.37227522 115.860118 5.37227522 115.860118 13.9332442 114.07384 13.9332442 114.07384 13.0305295C113.854718 13.3278415 113.590151 13.5717092 113.281039 13.7634799 112.971478 13.9548015 112.581826 14.0509114 112.112085 14.0509114L112.112085 14.0509114ZM121.593754 10.2976842C121.538861 9.89932206 121.397578 9.57641068 121.170806 9.33029742 120.943135 9.08373505 120.642122 8.96067842 120.265969 8.96067842 119.889816 8.96067842 119.586104 9.08238772 119.355283 9.32445897 119.124011 9.56697934 118.97328 9.89168716 118.903089 10.2976842L121.593754 10.2976842ZM120.442347 14.0742653C119.972156 14.0742653 119.53526 13.9956707 119.13211 13.8393798 118.728511 13.6830889 118.380254 13.4603294 118.086441 13.1711014 117.792627 12.8823226 117.563606 12.5396503 117.398926 12.144881 117.234697 11.7501117 117.152357 11.3104313 117.152357 10.8258397L117.152357 10.8020368C117.152357 10.3565179 117.228847 9.93435278 117.381378 9.53554151 117.534359 9.13673024 117.747633 8.78911772 118.021649 8.49180571 118.296115 8.19494282 118.622774 7.96005735 119.002976 7.78804754 119.382729 7.61603772 119.803877 7.53025737 120.265969 7.53025737 120.790604 7.53025737 121.245047 7.62412174 121.628849 7.81140135 122.012652 7.99913008 122.331662 8.25108179 122.58633 8.56815472 122.840998 8.88432942 123.029075 9.24810997 123.15056 9.65859814 123.272045 10.0690863 123.332787 10.4970899 123.332787 10.9430579 123.332787 11.0131193 123.330537 11.0876719 123.326488 11.1658173 123.322888 11.2439628 123.316589 11.3261502 123.30894 11.4119306L118.926486 11.4119306C119.012425 11.8188258 119.191053 12.1255692 119.461019 12.3326097 119.731436 12.5396503 120.066194 12.6433951 120.465744 12.6433951 120.763157 12.6433951 121.029524 12.5926455 121.264845 12.4906971 121.499715 12.3891978 121.742235 12.225272 121.992854 11.9984706L123.015127 12.9016344C122.717714 13.2690078 122.357309 13.5564394 121.934361 13.7634799 121.511414 13.9705204 121.013776 14.0742653 120.442347 14.0742653L120.442347 14.0742653ZM84.3037488 22.9788047C84.7500932 22.9788047 85.0929505 22.8732634 85.3318707 22.6621809 85.5707909 22.4506492 85.690476 22.1695053 85.690476 21.8174016L85.690476 21.7940478C85.690476 21.4033205 85.5649417 21.1100505 85.3143229 20.9146869 85.0632542 20.7193233 84.7149976 20.6214169 84.2686531 20.6214169L82.4706771 20.6214169 82.4706771 22.9788047 84.3037488 22.9788047ZM80.6614525 18.9911411 84.4211841 18.9911411C85.4628044 18.9911411 86.2619049 19.2686922 86.8180356 19.8237944 87.288227 20.2931162 87.5230978 20.9187289 87.5230978 21.7001834L87.5230978 21.7235372C87.5230978 22.3886718 87.360668 22.9298515 87.0353585 23.3479746 86.710499 23.7665468 86.2853019 24.0732901 85.7606673 24.2686538L87.769667 27.2004555 85.6549305 27.2004555 83.8925 24.5736007 82.4706771 24.5736007 82.4706771 27.2004555 80.6614525 27.2004555 80.6614525 18.9911411 80.6614525 18.9911411ZM93.1037526 23.5648956C93.0493094 23.1660843 92.908027 22.8436221 92.6808053 22.5975088 92.4535836 22.3509464 92.1525711 22.2278898 91.776418 22.2278898 91.4002648 22.2278898 91.0965526 22.3495991 90.8657314 22.5916703 90.6344602 22.8341907 90.483729 23.1584494 90.4135377 23.5648956L93.1037526 23.5648956ZM91.952796 27.3414766C91.4826045 27.3414766 91.045709 27.2628821 90.6425592 27.1065912 90.2389595 26.9503003 89.8907028 26.7275408 89.5968894 26.4383128 89.303076 26.1490848 89.0740546 25.8068616 88.9093751 25.4120924 88.7451455 25.0173231 88.6628058 24.5776427 88.6628058 24.0926019L88.6628058 24.0692481C88.6628058 23.6237292 88.7388463 23.2015641 88.8918273 22.8027529 89.0443583 22.4039416 89.2580816 22.0563291 89.5320975 21.7590171 89.8061134 21.4617051 90.1332226 21.2272687 90.5134253 21.0552589 90.893178 20.8832491 91.3138756 20.7970196 91.776418 20.7970196 92.3010526 20.7970196 92.755496 20.8913331 93.1392982 21.0786127 93.5231004 21.2663414 93.8421106 21.5182932 94.0967789 21.8353661 94.3514472 22.1515408 94.5390738 22.5153213 94.6610086 22.9258095 94.7820436 23.3362977 94.842786 23.7643012 94.842786 24.2098201 94.842786 24.2803307 94.8409862 24.3548832 94.8369367 24.4330287 94.8328872 24.5111741 94.827038 24.5929125 94.8193889 24.6791419L90.4369348 24.6791419C90.5228741 25.0855881 90.7010519 25.3923315 90.9714682 25.5998211 91.2418845 25.8068616 91.5766428 25.9106065 91.9761931 25.9106065 92.273606 25.9106065 92.5399728 25.8598568 92.7748436 25.7579085 93.0101643 25.6564092 93.2526841 25.4924834 93.5033028 25.2656819L94.5255755 26.1688457C94.2277126 26.5362192 93.8677574 26.8236507 93.4448101 27.0306913 93.0218628 27.2377318 92.5242248 27.3414766 91.952796 27.3414766L91.952796 27.3414766ZM99.1433503 27.3414766C98.6731589 27.3414766 98.2362633 27.2552472 97.8331135 27.0832373 97.4295138 26.9112275 97.0830569 26.6785876 96.793293 26.3853176 96.5035291 26.0920476 96.2763074 25.7484771 96.1116279 25.3532587 95.9473984 24.9589386 95.8650587 24.5385699 95.8650587 24.0926019L95.8650587 24.0692481C95.8650587 23.6237292 95.9473984 23.2015641 96.1116279 22.8027529 96.2763074 22.4039416 96.5035291 22.0563291 96.793293 21.7590171 97.0830569 21.4617051 97.4295138 21.2272687 97.8331135 21.0552589 98.2362633 20.8832491 98.6808079 20.7970196 99.1667474 20.7970196 99.7620232 20.7970196 100.255162 20.8913331 100.647063 21.0786127 101.038514 21.2663414 101.383171 21.5245807 101.681034 21.8524323L100.58857 23.0255123C100.384746 22.8144298 100.175072 22.646462 99.9595486 22.5211598 99.7440255 22.3963067 99.4758589 22.3334311 99.1545989 22.3334311 98.9273772 22.3334311 98.7217528 22.3787913 98.5377257 22.4686137 98.3536987 22.5584361 98.1930687 22.6814927 98.0562857 22.8377836 97.9190528 22.9945236 97.813316 23.1759648 97.7390752 23.3834544 97.6643845 23.590495 97.6274891 23.811458 97.6274891 24.0458943L97.6274891 24.0692481C97.6274891 24.3117685 97.6643845 24.5385699 97.7390752 24.7496525 97.813316 24.960735 97.9213025 25.1444217 98.062135 25.3007127 98.2029674 25.4570036 98.3716964 25.5805093 98.567422 25.6698825 98.7631477 25.760154 98.9827203 25.8050652 99.2252401 25.8050652 99.523103 25.8050652 99.7831706 25.7444351 100.006343 25.6231749 100.229965 25.5019147 100.451337 25.3397854 100.67046 25.1367868L101.71613 26.1921996C101.411068 26.5281352 101.061911 26.8038898 100.67046 27.0185652 100.278559 27.2336898 99.7696723 27.3414766 99.1433503 27.3414766M104.971024 27.3181228C104.289359 27.3181228 103.762475 27.1106332 103.390821 26.6965521 103.018268 26.2820219 102.832441 25.7112008 102.832441 24.9840888L102.832441 20.9146869 104.618268 20.9146869 104.618268 24.4128186C104.618268 24.8336364 104.712307 25.1516075 104.900383 25.3658339 105.08846 25.5805093 105.354377 25.687847 105.699484 25.687847 106.043691 25.687847 106.315907 25.5805093 106.515682 25.3658339 106.715457 25.1516075 106.815345 24.8336364 106.815345 24.4128186L106.815345 20.9146869 108.601172 20.9146869 108.601172 27.2004555 106.815345 27.2004555 106.815345 26.3017828C106.713657 26.4360673 106.602071 26.563615 106.480586 26.6857734 106.359101 26.8079318 106.224118 26.9161678 106.075637 27.0104812 105.926255 27.1052438 105.762026 27.1802455 105.581598 27.2350371 105.401621 27.2902779 105.197796 27.3181228 104.971024 27.3181228M113.488913 25.8050652C113.700387 25.8050652 113.898362 25.7637469 114.082389 25.6820086 114.265967 25.5998211 114.428396 25.4826029 114.570129 25.3299049 114.710961 25.177656 114.822547 24.9957657 114.904887 24.7846832 114.987227 24.5736007 115.028172 24.3351223 115.028172 24.0692481L115.028172 24.0458943C115.028172 23.787655 114.987227 23.5514222 114.904887 23.3362977 114.822547 23.1216222 114.710961 22.9374864 114.570129 22.7852375 114.428396 22.6325395 114.265967 22.5153213 114.082389 22.4331339 113.898362 22.3509464 113.700387 22.3100772 113.488913 22.3100772 113.27789 22.3100772 113.079914 22.3509464 112.895437 22.4331339 112.71141 22.5153213 112.55078 22.6325395 112.413997 22.7852375 112.276764 22.9374864 112.166978 23.1216222 112.085088 23.3362977 112.002748 23.5514222 111.961804 23.787655 111.961804 24.0458943L111.961804 24.0692481C111.961804 24.3274874 112.002748 24.5641693 112.085088 24.7788448 112.166978 24.9939693 112.276764 25.177656 112.413997 25.3299049 112.55078 25.4826029 112.71141 25.5998211 112.895437 25.6820086 113.079914 25.7637469 113.27789 25.8050652 113.488913 25.8050652ZM110.199373 20.9146869 111.985201 20.9146869 111.985201 21.8174016C112.204323 21.5205387 112.46844 21.2762219 112.778452 21.0844512 113.087113 20.8931296 113.477215 20.7970196 113.947406 20.7970196 114.31501 20.7970196 114.671366 20.8675302 115.016473 21.0081022 115.36113 21.1491233 115.666642 21.3584094 115.932559 21.6359605 116.198926 21.9135115 116.412649 22.2534892 116.572829 22.6563424 116.733459 23.0587466 116.813999 23.52223 116.813999 24.0458943L116.813999 24.0692481C116.813999 24.5929125 116.733459 25.0563958 116.572829 25.4592491 116.412649 25.8621024 116.200726 26.20208 115.938858 26.4796311 115.676091 26.7567331 115.372379 26.9660192 115.028172 27.1065912 114.683065 27.2471631 114.323109 27.3181228 113.947406 27.3181228 113.469116 27.3181228 113.075865 27.2238093 112.766753 27.0365297 112.457192 26.848801 112.196674 26.6300835 111.985201 26.3794792L111.985201 29.0768446 110.199373 29.0768446 110.199373 20.9146869 110.199373 20.9146869ZM122.26552 23.5648956C122.210627 23.1660843 122.069794 22.8436221 121.842573 22.5975088 121.615351 22.3509464 121.313889 22.2278898 120.937735 22.2278898 120.562032 22.2278898 120.25832 22.3495991 120.027049 22.5916703 119.796228 22.8341907 119.645496 23.1584494 119.574855 23.5648956L122.26552 23.5648956ZM121.114114 27.3414766C120.644372 27.3414766 120.207476 27.2628821 119.803877 27.1065912 119.400727 26.9503003 119.05247 26.7275408 118.758207 26.4383128 118.464844 26.1490848 118.235822 25.8068616 118.071143 25.4120924 117.906463 25.0173231 117.824123 24.5776427 117.824123 24.0926019L117.824123 24.0692481C117.824123 23.6237292 117.900614 23.2015641 118.053595 22.8027529 118.206126 22.4039416 118.419399 22.0563291 118.693865 21.7590171 118.967881 21.4617051 119.29499 21.2272687 119.675193 21.0552589 120.054945 20.8832491 120.475643 20.7970196 120.937735 20.7970196 121.46237 20.7970196 121.917263 20.8913331 122.301066 21.0786127 122.684418 21.2663414 123.003878 21.5182932 123.258546 21.8353661 123.513215 22.1515408 123.700841 22.5153213 123.822326 22.9258095 123.943811 23.3362977 124.004553 23.7643012 124.004553 24.2098201 124.004553 24.2803307 124.002754 24.3548832 123.998704 24.4330287 123.994655 24.5111741 123.988805 24.5929125 123.981156 24.6791419L119.598702 24.6791419C119.684642 25.0855881 119.862819 25.3923315 120.133236 25.5998211 120.403202 25.8068616 120.73796 25.9106065 121.137511 25.9106065 121.435374 25.9106065 121.70174 25.8598568 121.936611 25.7579085 122.171482 25.6564092 122.414452 25.4924834 122.66507 25.2656819L123.687343 26.1688457C123.38948 26.5362192 123.029525 26.8236507 122.606578 27.0306913 122.18363 27.2377318 121.685542 27.3414766 121.114114 27.3414766L121.114114 27.3414766ZM125.332338 20.9146869 127.118166 20.9146869 127.118166 22.1811822C127.298143 21.7513822 127.545162 21.4069134 127.858323 21.1491233 128.171484 20.8913331 128.594432 20.7736658 129.127165 20.7970196L129.127165 22.6621809 129.033577 22.6621809C128.437851 22.6621809 127.96991 22.8418256 127.629302 23.2015641 127.288244 23.5613027 127.118166 24.1199978 127.118166 24.8785476L127.118166 27.2004555 125.332338 27.2004555 125.332338 20.9146869M132.570137 26.0866583C132.993084 26.0866583 133.331442 25.9847099 133.58611 25.7812623 133.840778 25.5782637 133.968112 25.3123896 133.968112 24.9840888L133.968112 24.667465C133.811082 24.5969545 133.636954 24.5403664 133.445278 24.4972517 133.253151 24.454586 133.047527 24.4330287 132.828404 24.4330287 132.444602 24.4330287 132.14269 24.5071321 131.923567 24.6557881 131.704444 24.8044441 131.594658 25.0191196 131.594658 25.3007127L131.594658 25.3240665C131.594658 25.5665868 131.684647 25.7543156 131.865074 25.8872526 132.045052 26.0201897 132.279923 26.0866583 132.570137 26.0866583ZM132.029304 27.3181228C131.731441 27.3181228 131.451576 27.2768045 131.189259 27.1946171 130.926941 27.1124296 130.69792 26.989373 130.502194 26.8249981 130.306019 26.6610723 130.151238 26.4598702 130.037852 26.2213918 129.924466 25.9829135 129.867323 25.7071588 129.867323 25.394577L129.867323 25.3712232C129.867323 25.0272036 129.929865 24.7298916 130.0554 24.4797363 130.180484 24.229581 130.355062 24.0225405 130.578235 23.8581656 130.801407 23.6942398 131.067774 23.5711832 131.377335 23.4885466 131.686447 23.4068082 132.029304 23.36549 132.405457 23.36549 132.726267 23.36549 133.006582 23.3892929 133.245502 23.4360005 133.484423 23.4831572 133.717494 23.5455838 133.944715 23.6237292L133.944715 23.518188C133.944715 23.1427305 133.830879 22.8575445 133.603658 22.6621809 133.376436 22.4668173 133.039878 22.3689109 132.593534 22.3689109 132.248877 22.3689109 131.945164 22.3981032 131.682847 22.4569368 131.42008 22.5153213 131.144264 22.5997544 130.85405 22.7088885L130.407706 21.3485289C130.752363 21.1998729 131.112768 21.0786127 131.488921 20.9847484 131.865074 20.8913331 132.319068 20.8441764 132.851801 20.8441764 133.34539 20.8441764 133.766537 20.9048065 134.114794 21.0260666 134.463051 21.1473268 134.751015 21.3211331 134.978686 21.5479345 135.213557 21.7823709 135.385886 22.0698024 135.495222 22.4097801 135.605458 22.7497577 135.659902 23.1310536 135.659902 23.5532187L135.659902 27.2004555 133.932567 27.2004555 133.932567 26.5205003C133.713444 26.7625715 133.451127 26.9561387 133.145615 27.1007527 132.840103 27.2453667 132.467999 27.3181228 132.029304 27.3181228L132.029304 27.3181228ZM140.17194 27.3414766C139.701748 27.3414766 139.264853 27.2552472 138.861703 27.0832373 138.458103 26.9112275 138.111196 26.6785876 137.821882 26.3853176 137.532118 26.0920476 137.304897 25.7484771 137.140217 25.3532587 136.975988 24.9589386 136.893648 24.5385699 136.893648 24.0926019L136.893648 24.0692481C136.893648 23.6237292 136.975988 23.2015641 137.140217 22.8027529 137.304897 22.4039416 137.532118 22.0563291 137.821882 21.7590171 138.111196 21.4617051 138.458103 21.2272687 138.861703 21.0552589 139.264853 20.8832491 139.709397 20.7970196 140.195337 20.7970196 140.790613 20.7970196 141.283751 20.8913331 141.675652 21.0786127 142.067104 21.2663414 142.411761 21.5245807 142.709624 21.8524323L141.61716 23.0255123C141.413335 22.8144298 141.203661 22.646462 140.988588 22.5211598 140.772615 22.3963067 140.504448 22.3334311 140.183188 22.3334311 139.955967 22.3334311 139.750342 22.3787913 139.566765 22.4686137 139.382288 22.5584361 139.221658 22.6814927 139.084875 22.8377836 138.947642 22.9945236 138.841905 23.1759648 138.767665 23.3834544 138.693424 23.590495 138.656078 23.811458 138.656078 24.0458943L138.656078 24.0692481C138.656078 24.3117685 138.693424 24.5385699 138.767665 24.7496525 138.841905 24.960735 138.949892 25.1444217 139.090724 25.3007127 139.232007 25.4570036 139.399836 25.5805093 139.596011 25.6698825 139.791737 25.760154 140.01131 25.8050652 140.254279 25.8050652 140.551692 25.8050652 140.81221 25.7444351 141.035382 25.6231749 141.258554 25.5019147 141.479927 25.3397854 141.699499 25.1367868L142.745169 26.1921996C142.439657 26.5281352 142.090501 26.8038898 141.699499 27.0185652 141.307148 27.2336898 140.798262 27.3414766 140.17194 27.3414766M143.990614 27.2004555 145.776441 27.2004555 145.776441 20.9146869 143.990614 20.9146869 143.990614 27.2004555ZM143.94337 20.2226056 145.823236 20.2226056 145.823236 18.6394866 143.94337 18.6394866 143.94337 20.2226056ZM151.204565 18.146811 152.743374 18.8150893 151.239211 20.2226056 149.876781 20.2226056 151.204565 18.146811ZM150.569694 25.8050652C150.828412 25.8050652 151.057434 25.760154 151.257209 25.6698825 151.456984 25.5805093 151.627513 25.4570036 151.768345 25.3007127 151.909178 25.1444217 152.017164 24.9625315 152.091405 24.7554909 152.165646 24.5484504 152.202991 24.3274874 152.202991 24.0926019L152.202991 24.0692481C152.202991 23.8348118 152.163846 23.6138488 152.085556 23.4068082 152.007265 23.1993186 151.89343 23.0156319 151.744948 22.855299 151.596017 22.6954152 151.419639 22.5683165 151.215814 22.4744522 151.011989 22.3805878 150.788817 22.3334311 150.546297 22.3334311 150.28758 22.3334311 150.058558 22.3787913 149.858783 22.4686137 149.659008 22.5584361 149.488929 22.6814927 149.347647 22.8377836 149.206814 22.9945236 149.098828 23.1759648 149.025037 23.3834544 148.950346 23.590495 148.913451 23.811458 148.913451 24.0458943L148.913451 24.0692481C148.913451 24.3041336 148.952146 24.5246475 149.030436 24.7321371 149.108726 24.9391777 149.222562 25.1228644 149.371494 25.2831973 149.519975 25.4435302 149.694553 25.5706288 149.894329 25.6640441 150.094104 25.7579085 150.319076 25.8050652 150.569694 25.8050652ZM150.546297 27.3414766C150.060808 27.3414766 149.609964 27.2570436 149.195116 27.0890758 148.779817 26.921108 148.421662 26.6902645 148.1202 26.3974436 147.818287 26.1041736 147.581617 25.760154 147.409288 25.3649356 147.23651 24.9706155 147.15057 24.5462048 147.15057 24.0926019L147.15057 24.0692481C147.15057 23.6160943 147.23651 23.1916837 147.409288 22.7969144 147.581617 22.4021452 147.820087 22.0563291 148.126049 21.7590171 148.431561 21.4617051 148.791516 21.2272687 149.206814 21.0552589 149.622112 20.8832491 150.076556 20.7970196 150.569694 20.7970196 151.055184 20.7970196 151.506028 20.8814526 151.920876 21.0494205 152.336174 21.2178374 152.69433 21.4482317 152.995792 21.7410526 153.297255 22.0347717 153.534375 22.3787913 153.706704 22.7735606 153.879482 23.1683299 153.965421 23.5927405 153.965421 24.0458943L153.965421 24.0692481C153.965421 24.522851 153.879482 24.9468126 153.706704 25.3415818 153.534375 25.7368002 153.295905 26.0826163 152.989943 26.3794792 152.684431 26.6767912 152.324026 26.9112275 151.909178 27.0832373 151.493879 27.2552472 151.039886 27.3414766 150.546297 27.3414766L150.546297 27.3414766ZM155.25766 20.9146869 157.043488 20.9146869 157.043488 21.8129105C157.145175 21.6795243 157.256761 21.5510783 157.378246 21.429369 157.499731 21.3072106 157.635164 21.1994238 157.784096 21.1046612 157.932577 21.0098986 158.097257 20.9353461 158.277234 20.8801053 158.457662 20.8248646 158.661486 20.7970196 158.888258 20.7970196 159.569923 20.7970196 160.096358 21.0045093 160.468911 21.4185903 160.840565 21.8331205 161.026842 22.4039416 161.026842 23.1310536L161.026842 27.2004555 159.240564 27.2004555 159.240564 23.7027729C159.240564 23.281506 159.146976 22.9635349 158.958899 22.7493086 158.770823 22.5350823 158.504456 22.4272954 158.160249 22.4272954 157.815142 22.4272954 157.542926 22.5350823 157.343151 22.7493086 157.143826 22.9635349 157.043488 23.281506 157.043488 23.7027729L157.043488 27.2004555 155.25766 27.2004555 155.25766 20.9146869M162.08421 28.3618586C162.911207 28.2756291 163.29321 27.8884948 163.231117 27.2004555L162.507157 27.2004555 162.507157 25.3240665 164.398722 25.3240665 164.398722 26.9071855C164.398722 27.6814542 164.211995 28.2383529 163.838092 28.5783305 163.464188 28.9187572 162.930555 29.0925635 162.236741 29.1006475L162.08421 28.3618586"/><polyline fill="#4D4E4C" points="82.325 34.262 79.822 34.262 79.822 32.597 86.637 32.597 86.637 34.262 84.135 34.262 84.135 40.806 82.325 40.806 82.325 34.262"/><path fill="#4D4E4C" d="M87.8353589 34.5200795 89.6216364 34.5200795 89.6216364 35.7870238C89.8016139 35.3572238 90.0481832 35.0127551 90.3613442 34.7549649 90.6749552 34.4967256 91.0979025 34.3795075 91.6306361 34.4028613L91.6306361 36.2680225 91.5365978 36.2680225C90.941322 36.2680225 90.4733803 36.4476673 90.1327727 36.8074058 89.7917152 37.1671443 89.6216364 37.7262885 89.6216364 38.4843892L89.6216364 40.8062972 87.8353589 40.8062972 87.8353589 34.5200795M95.0731573 39.6924999C95.4961046 39.6924999 95.8349124 39.5910007 96.0895807 39.387553 96.344249 39.1845545 96.4711332 38.9182312 96.4711332 38.5899305L96.4711332 38.2733067C96.3145527 38.2032452 96.1404244 38.146208 95.9482983 38.1030933 95.7566222 38.0604277 95.5509978 38.0388703 95.3318751 38.0388703 94.9476229 38.0388703 94.6461605 38.1129738 94.4270378 38.2616298 94.2074651 38.4102858 94.0981287 38.6254103 94.0981287 38.9065543L94.0981287 38.9299081C94.0981287 39.1724285 94.1876676 39.3601572 94.3680951 39.4930943 94.5485226 39.6260314 94.7833934 39.6924999 95.0731573 39.6924999ZM94.5327746 40.9235154C94.2349117 40.9235154 93.9550466 40.8826462 93.6927292 40.8009078 93.429962 40.7187204 93.2009405 40.5952146 93.0052149 40.4312888 92.8094893 40.267363 92.6547085 40.0657118 92.5408727 39.8272335 92.4274869 39.5887551 92.3707939 39.3130005 92.3707939 39.0004187L92.3707939 38.9770649C92.3707939 38.6330452 92.4333361 38.3357332 92.5588705 38.085578 92.6839549 37.8354227 92.8585332 37.6283822 93.0817054 37.4640072 93.3048776 37.3000814 93.5712444 37.1765757 93.8803559 37.0948374 94.1899173 37.0126499 94.5327746 36.9717807 94.9089278 36.9717807 95.2297378 36.9717807 95.5096029 36.9951345 95.7485232 37.0418422 95.9874434 37.0885498 96.2205144 37.1514254 96.4477361 37.2295709L96.4477361 37.1240296C96.4477361 36.7485722 96.3343502 36.4633862 96.1071285 36.2680225 95.8799068 36.0726589 95.5433487 35.9747525 95.0965544 35.9747525 94.7518973 35.9747525 94.4486351 36.0039448 94.1863178 36.0627785 93.9235505 36.121163 93.6472849 36.2051469 93.357521 36.3147302L92.9111766 34.9543706C93.2558337 34.8057146 93.6162388 34.6849035 93.9923919 34.59059 94.3680951 34.4967256 94.8225385 34.450018 95.3552722 34.450018 95.8484107 34.450018 96.2695583 34.5106481 96.6182648 34.6319083 96.9665215 34.7531685 97.2544856 34.9269747 97.4817073 35.1537762 97.717028 35.3882126 97.8889066 35.6756441 97.9986929 36.0156217 98.1084792 36.3555993 98.1633724 36.7368953 98.1633724 37.1590603L98.1633724 40.8062972 96.4360375 40.8062972 96.4360375 40.1263419C96.2169148 40.3688623 95.9545975 40.5624295 95.6486356 40.7070435 95.3435736 40.8512084 94.97147 40.9235154 94.5327746 40.9235154L94.5327746 40.9235154ZM99.7026306 34.5200795 101.488458 34.5200795 101.488458 35.4192013C101.590146 35.285366 101.701732 35.1573691 101.823216 35.0352107 101.944701 34.9130523 102.079685 34.8048163 102.228616 34.7105029 102.377097 34.6157403 102.541777 34.5411877 102.722204 34.485947 102.902182 34.4307062 103.105557 34.4028613 103.333228 34.4028613 104.014444 34.4028613 104.541328 34.6103509 104.913432 35.0248811 105.285085 35.4389622 105.471362 36.0097833 105.471362 36.7368953L105.471362 40.8062972 103.685535 40.8062972 103.685535 37.3086146C103.685535 36.8873477 103.591496 36.5693766 103.40342 36.3551502 103.215343 36.1409239 102.949426 36.0335862 102.604319 36.0335862 102.259662 36.0335862 101.987896 36.1409239 101.788121 36.3551502 101.588346 36.5693766 101.488458 36.8873477 101.488458 37.3086146L101.488458 40.8062972 99.7026306 40.8062972 99.7026306 34.5200795M109.231094 40.9235154C108.784749 40.9235154 108.328056 40.8476155 107.862364 40.6953666 107.396222 40.5426686 106.951678 40.3023937 106.52873 39.9736439L107.292285 38.801013C107.636942 39.0516174 107.9798 39.238897 108.320407 39.3641992 108.661465 39.4890523 108.980475 39.5514788 109.277888 39.5514788 109.536606 39.5514788 109.726482 39.5088132 109.847967 39.4230329 109.969452 39.3368034 110.030194 39.2236272 110.030194 39.0826061L110.030194 39.0588032C110.030194 38.965388 109.995099 38.8832005 109.924457 38.8126899 109.853816 38.7426285 109.757978 38.6819984 109.636493 38.6312488 109.515008 38.58005 109.375976 38.5310969 109.219395 38.4843892 109.062365 38.4376816 108.898135 38.386932 108.725807 38.3316912 108.506684 38.2692647 108.285312 38.1933648 108.062139 38.1030933 107.838517 38.0137201 107.636942 37.8960528 107.456965 37.7514388 107.276537 37.6068248 107.129855 37.4289765 107.01602 37.217894 106.902634 37.0068114 106.845941 36.7485722 106.845941 36.4436253L106.845941 36.4202714C106.845941 36.1000547 106.906683 35.8162161 107.028168 35.5701028 107.149653 35.3235405 107.313883 35.1147035 107.521757 34.9422445 107.728731 34.7706838 107.971701 34.6413396 108.250216 34.5555593 108.527831 34.4697789 108.827494 34.4266642 109.148754 34.4266642 109.548304 34.4266642 109.953704 34.4908872 110.364952 34.6202314 110.776201 34.7486774 111.154154 34.9269747 111.498811 35.1537762L110.817146 36.3852407C110.503985 36.2051469 110.198473 36.0627785 109.90061 35.9572372 109.603197 35.8512468 109.34088 35.7987007 109.113658 35.7987007 108.894086 35.7987007 108.729856 35.840019 108.62007 35.9222065 108.510284 36.0039448 108.45539 36.1076896 108.45539 36.2329918L108.45539 36.2563456C108.45539 36.342126 108.490936 36.418475 108.561577 36.4849435 108.631768 36.5514121 108.725807 36.6138386 108.843242 36.6726723 108.961127 36.7310568 109.096111 36.7876449 109.248642 36.8424365 109.401622 36.8972282 109.564052 36.9520198 109.736381 37.0068114 109.955503 37.077322 110.178676 37.1608568 110.405897 37.2587632 110.633119 37.3566695 110.836944 37.4761333 111.016921 37.6167052 111.196899 37.7572772 111.34583 37.9292871 111.463716 38.1322856 111.581151 38.3357332 111.639644 38.5822956 111.639644 38.8715236L111.639644 38.8948774C111.639644 39.246981 111.578901 39.5496824 111.457416 39.8038797 111.335932 40.0580769 111.165853 40.267363 110.94628 40.4312888 110.727157 40.5952146 110.470689 40.7187204 110.176876 40.8009078 109.883063 40.8826462 109.567652 40.9235154 109.231094 40.9235154M113.225696 36.044814 112.485538 36.044814 112.485538 34.5789131 113.225696 34.5789131 113.225696 34.1801018C113.225696 33.5001466 113.394425 32.991752 113.730983 32.6558164 114.060342 32.3270666 114.541782 32.1631408 115.176203 32.1631408 115.458318 32.1631408 115.699038 32.1788597 115.898813 32.2098484 116.098588 32.2412862 116.280816 32.284401 116.445045 32.3391926L116.445045 33.8163213C116.311862 33.7696137 116.182728 33.7327865 116.057643 33.7049416 115.932109 33.6779949 115.791277 33.6645215 115.634696 33.6645215 115.20365 33.6645215 114.988127 33.8908738 114.988127 34.3444768L114.988127 34.59059 116.433347 34.59059 116.433347 36.044814 115.011974 36.044814 115.011974 40.8062972 113.225696 40.8062972 113.225696 36.044814M120.521987 39.4109068C120.780705 39.4109068 121.009727 39.3659957 121.209502 39.2761733 121.409277 39.186351 121.579806 39.0632943 121.720638 38.9065543 121.86147 38.7502634 121.969007 38.5683731 122.043698 38.3613326 122.117938 38.1542921 122.155284 37.9328799 122.155284 37.6988927L122.155284 37.6755389C122.155284 37.4406534 122.116139 37.2196904 122.037848 37.0126499 121.959558 36.8056094 121.845722 36.6219226 121.697241 36.4615897 121.548309 36.3012568 121.371931 36.1741582 121.168557 36.0802938 120.964732 35.9864295 120.74156 35.9392727 120.49859 35.9392727 120.240322 35.9392727 120.010851 35.984633 119.811076 36.0744554 119.611301 36.1642777 119.441222 36.2873344 119.300389 36.4436253 119.159107 36.6003653 119.05157 36.7818064 118.97688 36.9892961 118.902639 37.1963366 118.865294 37.4172996 118.865294 37.651736L118.865294 37.6755389C118.865294 37.9095261 118.904439 38.1309382 118.983179 38.3379788 119.061019 38.5450193 119.174855 38.728706 119.323787 38.8890389 119.472268 39.0493719 119.646846 39.1760214 119.846621 39.2703349 120.046397 39.3641992 120.271369 39.4109068 120.521987 39.4109068ZM120.49859 40.9473183C120.013101 40.9473183 119.562707 40.8633344 119.147409 40.6953666 118.73211 40.5269496 118.373955 40.2965553 118.072492 40.0032853 117.77058 39.7100153 117.533909 39.3659957 117.361581 38.9712264 117.189252 38.5764571 117.102863 38.1520465 117.102863 37.6988927L117.102863 37.6755389C117.102863 37.221936 117.189252 36.7975253 117.361581 36.4027561 117.533909 36.0079868 117.77283 35.6621707 118.078342 35.3648587 118.383854 35.0679958 118.743809 34.8331104 119.159107 34.6611006 119.574405 34.4890907 120.028849 34.4028613 120.521987 34.4028613 121.007477 34.4028613 121.457871 34.4872943 121.873169 34.6552621 122.288467 34.823679 122.646623 35.0540734 122.948535 35.3468943 123.249997 35.6406134 123.487118 35.984633 123.659446 36.3794023 123.831325 36.7741715 123.917714 37.1985822 123.917714 37.651736L123.917714 37.6755389C123.917714 38.1286927 123.831325 38.5531033 123.659446 38.9478726 123.487118 39.3426419 123.248198 39.6884579 122.942686 39.9857699 122.637174 40.2826328 122.276769 40.5175183 121.86147 40.6895281 121.446172 40.8610888 120.992179 40.9473183 120.49859 40.9473183L120.49859 40.9473183ZM125.209953 34.5200795 126.996231 34.5200795 126.996231 35.7870238C127.176208 35.3572238 127.422778 35.0127551 127.736389 34.7549649 128.04955 34.4967256 128.472497 34.3795075 129.005231 34.4028613L129.005231 36.2680225 128.911192 36.2680225C128.315916 36.2680225 127.847975 36.4476673 127.507367 36.8074058 127.16631 37.1671443 126.996231 37.7262885 126.996231 38.4843892L126.996231 40.8062972 125.209953 40.8062972 125.209953 34.5200795M130.121542 34.5200795 131.907369 34.5200795 131.907369 35.4192013C132.009056 35.285366 132.120643 35.1573691 132.242127 35.0352107 132.363612 34.9130523 132.498595 34.8048163 132.647527 34.7105029 132.796008 34.6157403 132.962938 34.5411877 133.146965 34.485947 133.330992 34.4307062 133.536616 34.4028613 133.763838 34.4028613 134.178686 34.4028613 134.537291 34.4895399 134.838754 34.662897 135.140216 34.8362542 135.373287 35.0841639 135.537967 35.4070752 135.811983 35.076529 136.117495 34.8263737 136.454503 34.6570586 136.791061 34.4877434 137.174863 34.4028613 137.605909 34.4028613 138.271826 34.4028613 138.792411 34.598674 139.168565 34.9894013 139.544718 35.3805777 139.732794 35.9554407 139.732794 36.7135414L139.732794 40.8062972 137.946517 40.8062972 137.946517 37.3086146C137.946517 36.8873477 137.856528 36.5693766 137.6761 36.3551502 137.496123 36.1409239 137.237405 36.0335862 136.900847 36.0335862 136.563839 36.0335862 136.299722 36.1409239 136.107596 36.3551502 135.91592 36.5693766 135.820082 36.8873477 135.820082 37.3086146L135.820082 40.8062972 134.033804 40.8062972 134.033804 37.3086146C134.033804 36.8873477 133.943815 36.5693766 133.763838 36.3551502 133.58341 36.1409239 133.325142 36.0335862 132.988134 36.0335862 132.651576 36.0335862 132.387009 36.1409239 132.195333 36.3551502 132.003207 36.5693766 131.907369 36.8873477 131.907369 37.3086146L131.907369 40.8062972 130.121542 40.8062972 130.121542 34.5200795M143.609961 39.6924999C144.032909 39.6924999 144.371267 39.5910007 144.626385 39.387553 144.880603 39.1845545 145.007937 38.9182312 145.007937 38.5899305L145.007937 38.2733067C144.851357 38.2032452 144.677228 38.146208 144.485102 38.1030933 144.293426 38.0604277 144.087352 38.0388703 143.868229 38.0388703 143.484427 38.0388703 143.182965 38.1129738 142.963392 38.2616298 142.744269 38.4102858 142.634483 38.6254103 142.634483 38.9065543L142.634483 38.9299081C142.634483 39.1724285 142.724472 39.3601572 142.904899 39.4930943 143.084877 39.6260314 143.320197 39.6924999 143.609961 39.6924999ZM143.069579 40.9235154C142.771716 40.9235154 142.491401 40.8826462 142.229083 40.8009078 141.966766 40.7187204 141.737745 40.5952146 141.542019 40.4312888 141.345843 40.267363 141.191063 40.0657118 141.077677 39.8272335 140.964291 39.5887551 140.907598 39.3130005 140.907598 39.0004187L140.907598 38.9770649C140.907598 38.6330452 140.97014 38.3357332 141.095225 38.085578 141.220759 37.8354227 141.394887 37.6283822 141.618059 37.4640072 141.841682 37.3000814 142.107598 37.1765757 142.41716 37.0948374 142.726721 37.0126499 143.069579 36.9717807 143.445282 36.9717807 143.766542 36.9717807 144.046407 36.9951345 144.285327 37.0418422 144.524247 37.0885498 144.757318 37.1514254 144.98454 37.2295709L144.98454 37.1240296C144.98454 36.7485722 144.870704 36.4633862 144.643933 36.2680225 144.416711 36.0726589 144.079703 35.9747525 143.633358 35.9747525 143.288701 35.9747525 142.984989 36.0039448 142.722672 36.0627785 142.460355 36.121163 142.184089 36.2051469 141.894325 36.3147302L141.447981 34.9543706C141.792638 34.8057146 142.153043 34.6849035 142.528746 34.59059 142.904899 34.4967256 143.359343 34.450018 143.892076 34.450018 144.385215 34.450018 144.806362 34.5106481 145.155069 34.6319083 145.503326 34.7531685 145.79129 34.9269747 146.018511 35.1537762 146.253382 35.3882126 146.425711 35.6756441 146.535497 36.0156217 146.645283 36.3555993 146.700176 36.7368953 146.700176 37.1590603L146.700176 40.8062972 144.972842 40.8062972 144.972842 40.1263419C144.753269 40.3688623 144.490952 40.5624295 144.18544 40.7070435 143.879928 40.8512084 143.507824 40.9235154 143.069579 40.9235154L143.069579 40.9235154ZM151.211764 40.9473183C150.741573 40.9473183 150.305127 40.8610888 149.901528 40.6895281 149.497928 40.5175183 149.151471 40.2844293 148.861707 39.9916084 148.571943 39.6983384 148.344722 39.3543188 148.180492 38.9595495 148.015813 38.5647802 147.933473 38.1444116 147.933473 37.6988927L147.933473 37.6755389C147.933473 37.2295709 148.015813 36.8074058 148.180492 36.4085945 148.344722 36.0097833 148.571943 35.6621707 148.861707 35.3648587 149.151471 35.0679958 149.497928 34.8331104 149.901528 34.6611006 150.305127 34.4890907 150.749672 34.4028613 151.235162 34.4028613 151.830437 34.4028613 152.324026 34.4967256 152.715477 34.6849035 153.107378 34.8721831 153.452035 35.1304224 153.749448 35.458274L152.656984 36.631354C152.45316 36.4202714 152.243486 36.2523036 152.028413 36.1270014 151.81289 36.0021484 151.544723 35.9392727 151.223463 35.9392727 150.996241 35.9392727 150.790617 35.984633 150.60659 36.0744554 150.422563 36.1642777 150.261933 36.2873344 150.12515 36.4436253 149.987917 36.6003653 149.88218 36.7818064 149.807489 36.9892961 149.733249 37.1963366 149.695903 37.4172996 149.695903 37.651736L149.695903 37.6755389C149.695903 37.9176101 149.733249 38.1444116 149.807489 38.355045 149.88218 38.5665767 149.989717 38.7502634 150.130549 38.9065543 150.271832 39.0632943 150.440111 39.186351 150.635836 39.2761733 150.831562 39.3659957 151.051134 39.4109068 151.294104 39.4109068 151.591517 39.4109068 151.852035 39.3502768 152.075207 39.2290166 152.298829 39.1077564 152.519752 38.9460761 152.739324 38.7426285L153.784994 39.7980412C153.479482 40.1344259 153.130775 40.4097315 152.739324 40.624856 152.347423 40.8399806 151.838086 40.9473183 151.211764 40.9473183M155.030439 40.8062972 156.816266 40.8062972 156.816266 34.5200795 155.030439 34.5200795 155.030439 40.8062972ZM154.983195 33.8284473 156.86306 33.8284473 156.86306 32.2453282 154.983195 32.2453282 154.983195 33.8284473ZM162.24439 31.7526526 163.783648 32.420931 162.279936 33.8284473 160.916606 33.8284473 162.24439 31.7526526ZM161.609969 39.4109068C161.868687 39.4109068 162.097708 39.3659957 162.297484 39.2761733 162.496809 39.186351 162.667337 39.0632943 162.80817 38.9065543 162.949452 38.7502634 163.056989 38.5683731 163.13168 38.3613326 163.20592 38.1542921 163.243266 37.9328799 163.243266 37.6988927L163.243266 37.6755389C163.243266 37.4406534 163.204121 37.2196904 163.12583 37.0126499 163.04709 36.8056094 162.933704 36.6219226 162.784773 36.4615897 162.635841 36.3012568 162.459913 36.1741582 162.256089 36.0802938 162.052264 35.9864295 161.829092 35.9392727 161.586572 35.9392727 161.327854 35.9392727 161.098833 35.984633 160.899058 36.0744554 160.699283 36.1642777 160.529204 36.2873344 160.387921 36.4436253 160.247089 36.6003653 160.139102 36.7818064 160.064862 36.9892961 159.990171 37.1963366 159.953276 37.4172996 159.953276 37.651736L159.953276 37.6755389C159.953276 37.9095261 159.992421 38.1309382 160.070711 38.3379788 160.149001 38.5450193 160.262387 38.728706 160.411319 38.8890389 160.56025 39.0493719 160.734828 39.1760214 160.934603 39.2703349 161.134378 39.3641992 161.3589 39.4109068 161.609969 39.4109068ZM161.586572 40.9473183C161.100633 40.9473183 160.650239 40.8633344 160.23539 40.6953666 159.820092 40.5269496 159.461937 40.2965553 159.160024 40.0032853 158.858562 39.7100153 158.621441 39.3659957 158.449563 38.9712264 158.277234 38.5764571 158.190845 38.1520465 158.190845 37.6988927L158.190845 37.6755389C158.190845 37.221936 158.277234 36.7975253 158.449563 36.4027561 158.621441 36.0079868 158.860812 35.6621707 159.165874 35.3648587 159.471386 35.0679958 159.831791 34.8331104 160.247089 34.6611006 160.661937 34.4890907 161.116381 34.4028613 161.609969 34.4028613 162.095459 34.4028613 162.545853 34.4872943 162.961151 34.6552621 163.376449 34.823679 163.734605 35.0540734 164.036067 35.3468943 164.337529 35.6406134 164.57465 35.984633 164.746978 36.3794023 164.919307 36.7741715 165.005696 37.1985822 165.005696 37.651736L165.005696 37.6755389C165.005696 38.1286927 164.919307 38.5531033 164.746978 38.9478726 164.57465 39.3426419 164.33573 39.6884579 164.030218 39.9857699 163.724706 40.2826328 163.364751 40.5175183 162.949452 40.6895281 162.534154 40.8610888 162.080161 40.9473183 161.586572 40.9473183L161.586572 40.9473183Z"/><g transform="translate(80.158 34.403)"><mask id="b" fill="#fff"><use xlink:href="#a"/></mask><path fill="#4D4E4C" d="M86.14042.117218177 87.9262475.117218177 87.9262475 1.01633998C88.0279349.882504666 88.139521.754507806 88.2610058.632349399 88.3824907.510190993 88.5174739.401955051 88.6664053.307641576 88.8148869.212878988 88.9795663.138326431 89.1599939.083085681 89.3399714.0278449309 89.5433461 0 89.7710178 0 90.4522329 0 90.9791173.207489647 91.3512209.622019828 91.7228746 1.0361009 91.9091514 1.60692198 91.9091514 2.33403397L91.9091514 6.40343589 90.1233239 6.40343589 90.1233239 2.90575328C90.1233239 2.48448642 90.0292856 2.16651527 89.841209 1.95228895 89.6535824 1.73806262 89.3872156 1.63072491 89.0421085 1.63072491 88.6974515 1.63072491 88.4256853 1.73806262 88.2259102 1.95228895 88.0261351 2.16651527 87.9262475 2.48448642 87.9262475 2.90575328L87.9262475 6.40343589 86.14042 6.40343589 86.14042.117218177M2.06749246 21.6907521C1.73858343 21.6907521 1.44881953 21.6516794 1.19820075 21.5735339.947581965 21.4953885.708661726 21.3898472.48144003 21.2569101L1.08076538 19.9666119C1.19820075 20.0371225 1.32553489 20.095507 1.46276779 20.1426638 1.59955075 20.1898205 1.72688489 20.2131743 1.84432026 20.2131743 2.00090076 20.2131743 2.12463535 20.1835329 2.21462414 20.1251484 2.30461293 20.0663147 2.38875245 19.958977 2.46704269 19.8026861L0 13.4931146 1.89156438 13.4931146 3.32463587 17.7740482 4.69921465 13.4931146 6.55613334 13.4931146 4.13543487 19.9315812C4.0179995 20.2517979 3.89246514 20.5239597 3.75973167 20.7467191 3.62609832 20.9694786 3.47941659 21.1513688 3.3187866 21.2919408 3.15815661 21.4329619 2.97637925 21.5340121 2.77255464 21.5968877 2.56873003 21.6593143 2.33385928 21.6907521 2.06749246 21.6907521" mask="url(#b)"/></g><path fill="#4D4E4C" d="M95.1253508 49.9600937C95.5721451 49.9600937 95.9145525 49.8545524 96.1539227 49.6434699 96.3928429 49.4323873 96.5120781 49.1507942 96.5120781 48.7986906L96.5120781 48.7753368C96.5120781 48.3846095 96.3865437 48.0913395 96.1363749 47.8959759 95.8853061 47.7006123 95.5370495 47.6027059 95.0907051 47.6027059L93.2927291 47.6027059 93.2927291 49.9600937 95.1253508 49.9600937ZM91.4830545 45.9724301 95.2432361 45.9724301C96.2848564 45.9724301 97.0839568 46.2499812 97.6400875 46.8050833 98.110279 47.2744052 98.3451497 47.9000179 98.3451497 48.6819215L98.3451497 48.7052753C98.3451497 49.3699608 98.18227 49.9111405 97.8574105 50.3292636 97.5325509 50.7478357 97.1073539 51.0550282 96.5827193 51.2503918L98.592169 54.1821936 96.4769824 54.1821936 94.714552 51.5548896 93.2927291 51.5548896 93.2927291 54.1821936 91.4830545 54.1821936 91.4830545 45.9724301 91.4830545 45.9724301ZM103.925805 50.5466337C103.870911 50.1478224 103.730079 49.824911 103.502857 49.5787978 103.275636 49.3326845 102.974173 49.2096279 102.59802 49.2096279 102.222317 49.2096279 101.918605 49.3308881 101.687333 49.5729593 101.456512 49.8154797 101.305781 50.1397384 101.23514 50.5466337L103.925805 50.5466337ZM102.774398 54.3227656C102.304657 54.3227656 101.867761 54.2446201 101.464161 54.0883292 101.061011 53.9320383 100.712755 53.7092789 100.418491 53.4200509 100.125128 53.1303738 99.8961065 52.7885997 99.731427 52.3933813 99.5667476 51.9986121 99.4844078 51.5589316 99.4844078 51.07434L99.4844078 51.0509862C99.4844078 50.6050182 99.5608983 50.1828531 99.7138792 49.7840418 99.8664102 49.3856797 100.079684 49.0376181 100.354149 48.740306 100.628165 48.4434432 100.955275 48.2085577 101.335477 48.0365479 101.71523 47.8645381 102.135928 47.7787577 102.59802 47.7787577 103.122655 47.7787577 103.577548 47.872173 103.96135 48.0603508 104.344702 48.2476304 104.664163 48.4995821 104.918831 48.8166551 105.173499 49.1332789 105.361126 49.4970594 105.482611 49.9070985 105.604096 50.3180358 105.664838 50.7455902 105.664838 51.1915582 105.664838 51.2616196 105.663038 51.3361722 105.658989 51.4143176 105.654939 51.4924631 105.64909 51.5746505 105.641441 51.6604309L101.258987 51.6604309C101.344926 52.0668771 101.523104 52.3740695 101.79352 52.5811101 102.063487 52.7885997 102.398245 52.8918954 102.797795 52.8918954 103.095658 52.8918954 103.362025 52.8411458 103.596896 52.7396465 103.831766 52.6381473 104.074736 52.4737724 104.325355 52.2469709L105.347627 53.1496856C105.049765 53.5175082 104.689809 53.8049397 104.266862 54.0119802 103.843915 54.2190208 103.345827 54.3227656 102.774398 54.3227656L102.774398 54.3227656ZM109.201397 54.2994118C108.754603 54.2994118 108.29836 54.2230628 107.832668 54.0708139 107.366526 53.9181159 106.921981 53.6778411 106.499034 53.3490912L107.262589 52.1769095C107.607246 52.4270647 107.950103 52.6143443 108.290711 52.7396465 108.631768 52.8644996 108.950329 52.9269261 109.248642 52.9269261 109.506909 52.9269261 109.696786 52.8842605 109.818271 52.7984802 109.939755 52.7122507 110.000048 52.5990745 110.000048 52.4580534L110.000048 52.4346996C110.000048 52.3408353 109.964952 52.2586478 109.894761 52.1881373 109.82412 52.1180758 109.727832 52.0574457 109.606797 52.0066961 109.485312 51.9554973 109.346279 51.9065442 109.189699 51.8598365 109.032668 51.8131289 108.868439 51.7623793 108.69611 51.7071385 108.476988 51.644712 108.255615 51.5688121 108.032443 51.4785406 107.809271 51.3891674 107.607246 51.2715001 107.427268 51.1268861 107.246841 50.9827212 107.100159 50.8044238 106.986773 50.5933413 106.872937 50.3822587 106.816245 50.1240195 106.816245 49.8190726L106.816245 49.7957188C106.816245 49.475502 106.876987 49.1921125 106.998472 48.9455501 107.119957 48.6989878 107.284186 48.4901508 107.49161 48.318141 107.699035 48.1461312 107.942004 48.0172361 108.22007 47.9310066 108.498135 47.8452263 108.797798 47.8021115 109.119058 47.8021115 109.518608 47.8021115 109.924007 47.8667836 110.335256 47.9956787 110.746505 48.1245738 111.124008 48.3024221 111.469115 48.5292235L110.78745 49.760688C110.474289 49.5805942 110.168777 49.4382258 109.871364 49.3326845 109.573501 49.2266941 109.311184 49.174148 109.083962 49.174148 108.864389 49.174148 108.70016 49.2154663 108.590374 49.2976538 108.480587 49.3793921 108.426144 49.4831369 108.426144 49.6084391L108.426144 49.6317929C108.426144 49.7175733 108.46124 49.7939223 108.531431 49.8603909 108.602072 49.9268594 108.69611 49.9892859 108.813546 50.0481196 108.930981 50.1065041 109.065964 50.1630922 109.218945 50.2178838 109.371926 50.2726755 109.534356 50.3274671 109.706684 50.3822587 109.925807 50.4527693 110.148979 50.5367532 110.376201 50.6342105 110.603423 50.7321168 110.807247 50.8515806 110.987225 50.9921526 111.167203 51.1327245 111.316584 51.3047344 111.434019 51.508182 111.551005 51.7116296 111.609947 51.9577429 111.609947 52.2469709L111.609947 52.2703247C111.609947 52.6224284 111.549205 52.9251297 111.42817 53.179327 111.306685 53.4335242 111.136156 53.6428103 110.917034 53.8067361 110.697461 53.9706619 110.440993 54.0941677 110.14718 54.1763551 109.853366 54.2580935 109.537956 54.2994118 109.201397 54.2994118M112.973278 54.1821936 114.759105 54.1821936 114.759105 47.8959759 112.973278 47.8959759 112.973278 54.1821936ZM112.926483 47.2038946 114.805899 47.2038946 114.805899 45.6207756 112.926483 45.6207756 112.926483 47.2038946Z"/><polygon fill="#4D4E4C" points="116.522 54.182 118.307 54.182 118.307 45.621 116.522 45.621"/><path fill="#4D4E4C" d="M120.069344 54.1821936 121.855171 54.1821936 121.855171 47.8959759 120.069344 47.8959759 120.069344 54.1821936ZM120.022549 47.2038946 121.902415 47.2038946 121.902415 45.6207756 120.022549 45.6207756 120.022549 47.2038946ZM127.671147 50.5466337C127.616254 50.1478224 127.475421 49.824911 127.248199 49.5787978 127.020528 49.3326845 126.719065 49.2096279 126.343362 49.2096279 125.967209 49.2096279 125.663497 49.3308881 125.432676 49.5729593 125.201404 49.8154797 125.050673 50.1397384 124.980482 50.5466337L127.671147 50.5466337ZM126.51929 54.3227656C126.049549 54.3227656 125.613103 54.2446201 125.209503 54.0883292 124.806354 53.9320383 124.457647 53.7092789 124.163834 53.4200509 123.87002 53.1303738 123.640999 52.7885997 123.476319 52.3933813 123.31209 51.9986121 123.22975 51.5589316 123.22975 51.07434L123.22975 51.0509862C123.22975 50.6050182 123.30624 50.1828531 123.458771 49.7840418 123.611302 49.3856797 123.824576 49.0376181 124.099042 48.740306 124.373508 48.4434432 124.700167 48.2085577 125.080369 48.0365479 125.460122 47.8645381 125.88127 47.7787577 126.343362 47.7787577 126.867997 47.7787577 127.32244 47.872173 127.706242 48.0603508 128.090045 48.2476304 128.409505 48.4995821 128.663723 48.8166551 128.918391 49.1332789 129.106468 49.4970594 129.227953 49.9070985 129.349438 50.3180358 129.41018 50.7455902 129.41018 51.1915582 129.41018 51.2616196 129.40793 51.3361722 129.403881 51.4143176 129.399831 51.4924631 129.393982 51.5746505 129.386333 51.6604309L125.003879 51.6604309C125.089818 52.0668771 125.268446 52.3740695 125.538412 52.5811101 125.808379 52.7885997 126.143587 52.8918954 126.543137 52.8918954 126.84055 52.8918954 127.106917 52.8411458 127.341788 52.7396465 127.577108 52.6381473 127.819628 52.4737724 128.070247 52.2469709L129.09252 53.1496856C128.795107 53.5175082 128.434702 53.8049397 128.011754 54.0119802 127.588807 54.2190208 127.091169 54.3227656 126.51929 54.3227656L126.51929 54.3227656ZM130.737515 47.8959759 132.523342 47.8959759 132.523342 48.7946486C132.62503 48.6608133 132.736616 48.5328164 132.858101 48.410658 132.979586 48.2884996 133.114569 48.1802636 133.26395 48.0859502 133.412432 47.9911876 133.576661 47.916635 133.757089 47.8613943 133.937066 47.8061535 134.140891 47.7787577 134.368113 47.7787577 135.049778 47.7787577 135.576212 47.9857982 135.948766 48.4003284 136.320419 48.8144095 136.506696 49.3856797 136.506696 50.1123426L136.506696 54.1821936 134.720419 54.1821936 134.720419 50.6840619C134.720419 50.262795 134.62683 49.9448239 134.438754 49.7305975 134.250677 49.5163712 133.98431 49.4090335 133.639653 49.4090335 133.294546 49.4090335 133.02278 49.5163712 132.823005 49.7305975 132.62323 49.9448239 132.523342 50.262795 132.523342 50.6840619L132.523342 54.1821936 130.737515 54.1821936 130.737515 47.8959759M141.029983 54.3227656C140.560241 54.3227656 140.123346 54.2365361 139.719746 54.0649754 139.316146 53.8929656 138.969689 53.6598766 138.679925 53.3670557 138.390162 53.0737857 138.16294 52.7297661 137.99826 52.3349968 137.834031 51.9402275 137.751691 51.5198589 137.751691 51.07434L137.751691 51.0509862C137.751691 50.6050182 137.834031 50.1828531 137.99826 49.7840418 138.16294 49.3856797 138.390162 49.0376181 138.679925 48.740306 138.969689 48.4434432 139.316146 48.2085577 139.719746 48.0365479 140.123346 47.8645381 140.56744 47.7787577 141.05338 47.7787577 141.648656 47.7787577 142.142244 47.872173 142.534145 48.0603508 142.925147 48.2476304 143.270254 48.5058697 143.567667 48.8337213L142.475203 50.0072504C142.271378 49.7957188 142.061704 49.6277509 141.846631 49.5024488 141.631108 49.3775957 141.362941 49.31472 141.041681 49.31472 140.81446 49.31472 140.608835 49.3600803 140.424808 49.4499027 140.240781 49.539725 140.080151 49.6627817 139.943368 49.8190726 139.806135 49.9758126 139.700398 50.1577029 139.626158 50.3647434 139.551467 50.5717839 139.514571 50.7927469 139.514571 51.0271833L139.514571 51.0509862C139.514571 51.2935066 139.551467 51.5198589 139.626158 51.7309415 139.700398 51.942024 139.807935 52.1257107 139.948767 52.2820016 140.09005 52.4387416 140.258329 52.5617983 140.454054 52.6516206 140.64978 52.741443 140.869353 52.7863542 141.112322 52.7863542 141.409735 52.7863542 141.670253 52.7261732 141.893425 52.604913 142.117047 52.4836528 142.33797 52.3215235 142.557542 52.1180758L143.603212 53.1734885C143.2977 53.5098733 142.948994 53.7851788 142.557542 54.0003033 142.165641 54.2154279 141.656305 54.3227656 141.029983 54.3227656M144.848657 54.1821936 146.634485 54.1821936 146.634485 47.8959759 144.848657 47.8959759 144.848657 54.1821936ZM144.801863 47.2038946 146.681279 47.2038946 146.681279 45.6207756 144.801863 45.6207756 144.801863 47.2038946ZM150.640786 53.0679472C151.063733 53.0679472 151.402541 52.966448 151.656759 52.7630003 151.911427 52.5600018 152.039211 52.2941276 152.039211 51.9653778L152.039211 51.648754C151.882181 51.5786926 151.708053 51.5221045 151.515927 51.4785406 151.32425 51.435875 151.118626 51.4143176 150.899053 51.4143176 150.515251 51.4143176 150.213789 51.4884211 149.994666 51.6370771 149.775093 51.7857331 149.665757 52.0008576 149.665757 52.2820016L149.665757 52.3053554C149.665757 52.5478758 149.755296 52.7356045 149.935723 52.8685416 150.115701 53.0014787 150.351022 53.0679472 150.640786 53.0679472ZM150.100403 54.2994118C149.80254 54.2994118 149.522675 54.2580935 149.260358 54.1763551 148.99759 54.0941677 148.768569 53.9706619 148.572843 53.8067361 148.377118 53.6428103 148.222337 53.4411591 148.108951 53.2026808 147.995115 52.9642024 147.938422 52.6884478 147.938422 52.3763151L147.938422 52.3525122C147.938422 52.0084925 148.000964 51.7116296 148.126499 51.4610253 148.251583 51.2113191 148.426161 51.0038295 148.649334 50.8394546 148.872506 50.6755287 149.138423 50.552023 149.447984 50.4702847 149.757546 50.3880972 150.100403 50.347228 150.476106 50.347228 150.797366 50.347228 151.077681 50.3705818 151.316151 50.4172895 151.555072 50.4639971 151.788143 50.5268727 152.015814 50.6050182L152.015814 50.4994769C152.015814 50.1240195 151.901978 49.8388335 151.674757 49.6434699 151.447535 49.4481062 151.110977 49.3501999 150.664183 49.3501999 150.319526 49.3501999 150.016263 49.3793921 149.753946 49.4382258 149.491179 49.4970594 149.214913 49.5805942 148.925149 49.6901775L148.478805 48.3298179C148.823462 48.181611 149.183867 48.0603508 149.56002 47.9660373 149.935723 47.872173 150.390167 47.8254653 150.92245 47.8254653 151.416489 47.8254653 151.837187 47.8860954 152.185893 48.0073556 152.53415 48.1286158 152.822114 48.3024221 153.049336 48.5292235 153.284656 48.7636599 153.456535 49.0510914 153.566321 49.391069 153.676107 49.7310467 153.731001 50.1123426 153.731001 50.5345076L153.731001 54.1821936 152.003666 54.1821936 152.003666 53.5017892C151.784093 53.7443096 151.521776 53.9378768 151.216714 54.0824908 150.911202 54.2266557 150.538648 54.2994118 150.100403 54.2994118L150.100403 54.2994118Z"/></g></svg>