<svg xmlns="http://www.w3.org/2000/svg" width="81" height="81" viewBox="0 0 81 81"><g fill="#4D4D4D" fill-rule="evenodd" transform="translate(16 8)"><path d="M48,0 L48,55.0346576 L0,55.0346576 L0,0 L48,0 Z M25.8803687,46.1159977 C25.4108463,46.1159977 24.9743729,46.2314496 24.5709483,46.4623534 C24.1675238,46.6932572 23.8490007,47.0125803 23.6153791,47.4203226 C23.3817576,47.828065 23.2649468,48.2707245 23.2649468,48.7483012 C23.2649468,49.4646662 23.5213607,50.0751533 24.0341885,50.5797627 C24.5470163,51.084372 25.1760851,51.3366766 25.9213949,51.3366766 C26.6575877,51.3366766 27.2815282,51.0832456 27.7932164,50.5763836 C28.3049046,50.0695215 28.5607487,49.4522762 28.5607487,48.7246476 C28.5607487,47.9902608 28.3043348,47.3718891 27.791507,46.8695325 C27.2786792,46.367176 26.6416331,46.1159977 25.8803687,46.1159977 Z M30.5026931,46.1159977 C30.2793281,46.1159977 30.0724876,46.167247 29.8821715,46.2697458 C29.6918554,46.3722446 29.5442749,46.5124764 29.4394301,46.6904413 C29.3345853,46.8684062 29.2821629,47.0655192 29.2821629,47.2817803 C29.2821629,47.5543595 29.3710531,47.8077905 29.5488334,48.0420734 C29.6513989,48.181742 29.9123713,48.4081404 30.3317505,48.7212685 C30.7488505,49.0321439 31.036034,49.2979649 31.1933012,49.5187315 C31.307263,49.6786746 31.3642439,49.8419968 31.3642439,50.0086981 C31.3642439,50.1551249 31.3254969,50.2936672 31.2480029,50.424325 C31.1705089,50.5549827 31.0576868,50.659171 30.9095365,50.7368899 C30.7613863,50.8146087 30.6029794,50.8534682 30.4343161,50.8534682 C30.0400085,50.8534682 29.6924252,50.5797627 29.3915662,50.0323517 L28.9642097,50.2857827 C29.1738993,50.6642397 29.4029624,50.9340029 29.6513989,51.0950724 C29.8998355,51.2561419 30.1767625,51.3366766 30.48218,51.3366766 C30.8787669,51.3366766 31.2155238,51.2037661 31.4924508,50.9379452 C31.7693778,50.6721242 31.9078413,50.3589961 31.9078413,49.9985609 C31.9078413,49.7485089 31.8269285,49.4995833 31.6651028,49.2517841 C31.5032772,49.0039849 31.2046974,48.7212685 30.7693636,48.403635 C30.4024068,48.1355613 30.1858795,47.9699863 30.1197817,47.9069102 C29.9989822,47.787516 29.9157902,47.6771327 29.8702055,47.5757603 C29.8246208,47.4743879 29.8018284,47.3696364 29.8018284,47.2615059 C29.8018284,47.083541 29.8662168,46.9337351 29.9949936,46.8120882 C30.1237703,46.6904413 30.2895847,46.6296179 30.4924366,46.6296179 C30.6497038,46.6296179 30.795005,46.6690405 30.9283402,46.7478857 C31.0616754,46.8267309 31.2229313,46.9900531 31.4121078,47.2378523 L31.82237,46.930356 C31.5921673,46.6194806 31.3739306,46.4060354 31.1676599,46.2900203 C30.9613891,46.1740052 30.7397335,46.1159977 30.5026931,46.1159977 Z M35.8840391,46.1159977 C35.49429,46.1159977 35.16665,46.2393341 34.9011191,46.4860069 C34.6355883,46.7326798 34.5028229,47.0283493 34.5028229,47.3730155 C34.5028229,47.6118038 34.5825961,47.8511554 34.7421425,48.0910701 C34.9016889,48.3309848 35.2549703,48.6717087 35.8019867,49.1132418 C36.0891703,49.345272 36.2749279,49.5176051 36.3592596,49.6302411 C36.4435913,49.7428771 36.4857571,49.8555131 36.4857571,49.9681491 C36.4857571,50.0920487 36.4299158,50.2013057 36.3182333,50.2959199 C36.2065508,50.3905342 36.0686571,50.4378413 35.9045522,50.4378413 C35.5900178,50.4378413 35.3119512,50.2182011 35.0703523,49.7789206 L34.2669221,50.25875 C34.4560986,50.6304489 34.6834522,50.903028 34.9489831,51.0764875 C35.2145139,51.2499469 35.5261993,51.3366766 35.8840391,51.3366766 C36.3421653,51.3366766 36.7136806,51.2037661 36.9985849,50.9379452 C37.2834893,50.6721242 37.4259414,50.3353425 37.4259414,49.9276002 C37.4259414,49.7180972 37.385485,49.5249264 37.3045722,49.3480879 C37.2236593,49.1712494 37.0863355,48.9859631 36.8926005,48.7922292 C36.8151065,48.713384 36.5940207,48.5230291 36.2293432,48.2211646 C35.839594,47.8945202 35.6059725,47.6816382 35.5284785,47.5825185 C35.4714976,47.5081787 35.4430072,47.4293335 35.4430072,47.3459829 C35.4430072,47.2626322 35.4828938,47.1877293 35.562667,47.121274 C35.6424402,47.0548188 35.7450058,47.0215912 35.8703637,47.0215912 C36.1279172,47.0215912 36.3809123,47.1927979 36.6293489,47.5352114 L37.3370513,46.9168397 C37.07266,46.6127224 36.8270725,46.4032195 36.6002886,46.2883307 C36.3735048,46.173442 36.1347549,46.1159977 35.8840391,46.1159977 Z M42.7149784,46.1159977 C42.3252293,46.1159977 41.9975893,46.2393341 41.7320584,46.4860069 C41.4665276,46.7326798 41.3337622,47.0283493 41.3337622,47.3730155 C41.3337622,47.6118038 41.4135354,47.8511554 41.5730818,48.0910701 C41.7326283,48.3309848 42.0859096,48.6717087 42.632926,49.1132418 C42.9201096,49.345272 43.1058672,49.5176051 43.1901989,49.6302411 C43.2745306,49.7428771 43.3166964,49.8555131 43.3166964,49.9681491 C43.3166964,50.0920487 43.2608551,50.2013057 43.1491726,50.2959199 C43.0374901,50.3905342 42.8995964,50.4378413 42.7354915,50.4378413 C42.4209571,50.4378413 42.1428905,50.2182011 41.9012916,49.7789206 L41.0978614,50.25875 C41.2870379,50.6304489 41.5143915,50.903028 41.7799224,51.0764875 C42.0454532,51.2499469 42.3571386,51.3366766 42.7149784,51.3366766 C43.1731046,51.3366766 43.5446199,51.2037661 43.8295242,50.9379452 C44.1144286,50.6721242 44.2568807,50.3353425 44.2568807,49.9276002 C44.2568807,49.7180972 44.2164243,49.5249264 44.1355115,49.3480879 C44.0545987,49.1712494 43.9172748,48.9859631 43.7235398,48.7922292 C43.6460458,48.713384 43.4249601,48.5230291 43.0602825,48.2211646 C42.6705333,47.8945202 42.4369118,47.6816382 42.3594178,47.5825185 C42.3024369,47.5081787 42.2739465,47.4293335 42.2739465,47.3459829 C42.2739465,47.2626322 42.3138331,47.1877293 42.3936063,47.121274 C42.4733795,47.0548188 42.5759451,47.0215912 42.701303,47.0215912 C42.9588565,47.0215912 43.2118516,47.1927979 43.4602882,47.5352114 L44.1679906,46.9168397 C43.9035993,46.6127224 43.6580118,46.4032195 43.4312279,46.2883307 C43.2044441,46.173442 42.9656942,46.1159977 42.7149784,46.1159977 Z M40.7661963,46.2410236 L38.2704343,46.2410236 L38.2704343,51.2116507 L39.2174563,51.2116507 L39.2174563,48.9746995 L40.7661963,48.9746995 L40.7661963,48.065727 L39.2174563,48.065727 L39.2174563,47.1635125 L40.7661963,47.1635125 L40.7661963,46.2410236 Z M22.4170351,46.2410236 L21.9144638,46.2410236 L21.9144638,51.2116507 L22.4170351,51.2116507 L22.4170351,46.2410236 Z M16.2049444,46.2410236 L16.1228919,46.2410236 L15.4083519,51.2116507 L15.8938289,51.2116507 L16.3827247,47.6298256 L18.1844598,51.2116507 L18.3109573,51.2116507 L20.0887604,47.6568582 L20.5810751,51.2116507 L21.0768087,51.2116507 L20.3554309,46.2410236 L20.2733784,46.2410236 L18.249418,50.3195735 L16.2049444,46.2410236 Z M14.8544614,46.2410236 L11.9723691,46.2410236 L11.9723691,51.2116507 L14.8339483,51.2116507 L14.8339483,50.721684 L12.4749403,50.721684 L12.4749403,48.7719547 L14.8339483,48.7719547 L14.8339483,48.2853672 L12.4749403,48.2853672 L12.4749403,46.7309903 L14.8544614,46.7309903 L14.8544614,46.2410236 Z M8.83382646,46.2410236 L7.83210279,46.2410236 L7.83210279,51.2116507 L8.33467405,51.2116507 L8.33467405,48.9003598 L8.62185763,48.9003598 L10.4270115,51.2116507 L11.0492426,51.2116507 L9.24066986,48.9003598 C9.66232829,48.8981071 9.99281733,48.844605 10.232137,48.7398535 C10.4714566,48.635102 10.6555048,48.4802275 10.7842816,48.2752299 C10.9130584,48.0702324 10.9774467,47.8325704 10.9774467,47.562244 C10.9774467,47.2378523 10.8839981,46.96471 10.6971009,46.742817 C10.5102036,46.5209241 10.2674651,46.3761868 9.96888536,46.3086052 C9.77059194,46.2635508 9.39223897,46.2410236 8.83382646,46.2410236 Z M4.74484294,46.2410236 L3.74311927,46.2410236 L3.74311927,51.2116507 L4.24569053,51.2116507 L4.24569053,48.9003598 L4.60467,48.9003598 C5.22918032,48.9003598 5.65539722,48.8733271 5.88332069,48.8192618 C6.19557585,48.7449221 6.44059359,48.6001848 6.6183739,48.38505 C6.79615421,48.1699153 6.88504437,47.8967729 6.88504437,47.5656231 C6.88504437,47.2367259 6.79387498,46.9635836 6.6115362,46.7461961 C6.42919742,46.5288086 6.19443624,46.3851977 5.90725266,46.3153634 C5.70668,46.2658035 5.31921009,46.2410236 4.74484294,46.2410236 Z M25.9043006,46.6025852 C26.2826536,46.6025852 26.6404935,46.6983258 26.9778202,46.889807 C27.3151469,47.0812882 27.5766891,47.3364088 27.7624468,47.6551687 C27.9482044,47.9739286 28.0410832,48.3304216 28.0410832,48.7246476 C28.0410832,49.1211264 27.9482044,49.4815616 27.7624468,49.8059533 C27.5766891,50.130345 27.317996,50.3860287 26.9863673,50.5730045 C26.6547387,50.7599803 26.2940498,50.8534682 25.9043006,50.8534682 C25.3208165,50.8534682 24.8222339,50.6501602 24.4085528,50.2435442 C23.9948717,49.8369282 23.7880312,49.3385138 23.7880312,48.7483012 C23.7880312,48.3495697 23.8814798,47.9880081 24.068377,47.6636164 C24.2552743,47.3392247 24.5151071,47.0812882 24.8478753,46.889807 C25.1806436,46.6983258 25.5327854,46.6025852 25.9043006,46.6025852 Z M9.22015675,46.7276112 C9.56432119,46.7276112 9.81047855,46.7568965 9.95862881,46.8154673 C10.1067791,46.874038 10.2264389,46.9714681 10.3176083,47.1077577 C10.4087777,47.2440473 10.4543624,47.3955427 10.4543624,47.562244 C10.4543624,47.7334507 10.4093475,47.8883252 10.3193177,48.0268675 C10.2292879,48.1654098 10.10393,48.266219 9.94324397,48.3292952 C9.78255792,48.3923714 9.53469114,48.4239095 9.19964363,48.4239095 L8.33467405,48.4171513 L8.33467405,46.7276112 Z M5.13459208,46.7242321 C5.47419806,46.7242321 5.71864598,46.7535175 5.86793586,46.8120882 C6.01722574,46.8706589 6.13745537,46.9692154 6.22862476,47.1077577 C6.31979415,47.2463 6.36537884,47.3989218 6.36537884,47.5656231 C6.36537884,47.7368298 6.31979415,47.8917043 6.22862476,48.0302466 C6.13745537,48.1687889 6.01209746,48.2690349 5.85255102,48.3309848 C5.69300459,48.3929346 5.44114915,48.4239095 5.09698471,48.4239095 L4.24569053,48.4137722 L4.24569053,46.7242321 Z M41.030628,17.097011 C40.455459,17.2531748 39.9435851,17.5357985 39.4590582,17.8695304 C38.1245691,18.7888218 37.0842808,19.9857136 36.1780809,21.3064443 C34.5994538,23.6069664 33.534906,26.1440274 32.6942066,28.7815575 C32.5643084,29.1891122 32.3239195,29.4162596 31.9026877,29.5077737 C27.7627061,30.4078451 24.2843453,32.393637 21.6206602,35.6979756 C20.745336,36.7839146 20.0199791,37.9622414 19.4900209,39.2530498 C19.3804124,39.5201664 19.3766632,39.7831331 19.5802219,40.012683 C19.7734151,40.2304386 20.0204202,40.2795811 20.3009474,40.218426 C20.5322941,40.1679731 20.7678311,40.1354299 20.9993984,40.086069 C23.6483073,39.5221321 26.1518802,38.5962883 28.4157258,37.1021393 C30.7942524,35.5322017 32.5918759,33.4953016 33.4848434,30.7562105 C33.5551957,30.5402021 33.7119998,30.4517457 33.921072,30.3894986 C36.6392306,29.5800678 38.8009661,28.0420182 40.2565317,25.5977818 C41.5257408,23.4665282 42.0246029,21.131934 42.0521704,18.6844214 C42.0521704,18.3969927 42.0594482,18.1093455 42.0508471,17.8221352 C42.0309985,17.1786967 41.6668866,16.9244664 41.030628,17.097011 Z M31.6115745,31.2255755 C31.7586749,31.4088222 31.7145668,31.5933795 31.6151032,31.7855811 C30.7521292,33.4548956 29.4712314,34.7507275 27.9336248,35.8117676 C26.2392141,36.9811396 24.3694739,37.7833629 22.3967414,38.3630254 C22.3380777,38.3802799 22.2783112,38.3938213 22.2267048,38.406926 C22.0518164,38.3833376 21.9144198,38.3171591 21.8295118,38.1677661 C21.7337974,37.9991528 21.7481325,37.8373104 21.8546534,37.6761231 C22.1832584,37.1805488 22.5367844,36.7028841 22.9220682,36.2492447 C25.090861,33.695366 27.8200466,32.005084 31.0458888,31.078585 C31.2761328,31.0124065 31.4620482,31.0390526 31.6115745,31.2255755 Z M34.1791482,10.4287295 C33.487534,10.6080449 32.8872234,10.9666756 32.320435,11.383622 C30.9215482,12.4125558 29.8528102,13.7337233 28.9278644,15.1780746 C27.3679832,17.6135746 26.2985835,20.2655198 25.5191943,23.0277625 C24.8851411,25.2749923 23.6655535,27.1028731 21.84345,28.555524 C19.9243088,30.0854924 17.7226555,31.0567657 15.3809591,31.748473 C15.1831345,31.8070072 15.0115542,31.7471626 14.895109,31.5761468 C14.769401,31.3915896 14.8214485,31.2183898 14.9372321,31.0427874 C15.9239292,29.5466727 17.1362389,28.2584852 18.5660014,27.1705805 C19.5099136,26.4524455 20.5268247,25.8533444 21.6065898,25.3568964 C22.0461265,25.1548663 22.1841847,24.7396672 21.9515147,24.3679318 C21.7576598,24.0584436 21.3935479,23.9870232 20.9716544,24.1846851 C17.9917146,25.5822964 15.5706237,27.6189781 13.7743234,30.3678977 C13.3058959,31.0845039 12.8912803,31.830814 12.5834061,32.6299794 C12.3705847,33.1821222 12.7598383,33.6757309 13.3264062,33.5767907 C16.0308912,33.1041495 18.591143,32.2307243 20.9414404,30.8110534 C23.8766105,29.0379937 25.942411,26.6123222 26.8514779,23.2511969 C27.5250078,20.7613126 28.5152336,18.3806337 29.8781723,16.1687865 C30.6754253,14.8747019 31.6001505,13.6843625 32.7908473,12.7146181 C32.9999195,12.5442576 33.2244295,12.4772054 33.4709935,12.6110913 C33.7133672,12.7427931 33.7901152,12.9548701 33.7647531,13.2278837 C33.7175575,13.7317576 33.6436765,14.2308265 33.5393609,14.7250904 C33.0473356,17.0544427 32.0385846,19.0961478 30.1653157,20.6562569 C29.8486199,20.9200973 29.8069378,21.311708 30.0495321,21.6067812 C30.2892593,21.899015 30.7109323,21.9221665 31.0362291,21.6581077 C31.797093,21.0404417 32.4523181,20.3258012 32.9999195,19.5174625 C34.523191,17.2687038 35.1107102,14.7488972 35.1874582,11.9728946 C35.1770928,11.7496787 35.1731231,11.4179125 35.1435707,11.0885489 C35.0919643,10.5143466 34.7465983,10.2815206 34.1791482,10.4287295 Z M40.4484017,19.1192775 C40.7013614,19.2483584 40.7337808,19.4748505 40.6839387,19.729736 C40.4539152,22.1101965 39.7797237,24.3275039 38.1991117,26.2021247 C37.3281983,27.2352083 36.2568138,28.0072908 35.0270813,28.5703541 C34.8360935,28.6577185 34.6495164,28.6649261 34.4858756,28.5223038 C34.323558,28.3812103 34.2882715,28.1986188 34.3606087,27.9987728 C35.2317427,25.5925399 36.2865867,23.2797868 37.8766819,21.2409211 C38.4485427,20.5074972 39.0907559,19.8404703 39.8264782,19.2638656 C40.0152607,19.1160014 40.2071307,18.9960938 40.4484017,19.1192775 Z M27.7115628,4.15452689 C26.9471703,4.32182964 26.2976793,4.71846384 25.6856801,5.17800038 C24.1820367,6.30740316 23.0563993,7.76114614 22.0924179,9.34615406 C20.6886792,11.6543205 19.6878676,14.1387445 18.964275,16.724948 C18.361759,18.8778243 17.2341368,20.6657359 15.5189953,22.1006956 C13.7050517,23.6182145 11.6092577,24.6102369 9.36570181,25.3229116 C8.43700683,25.6179848 7.49507943,25.8606393 6.53065693,26.0137453 C6.14096231,26.0755556 5.90895397,26.3841702 5.94953337,26.7580897 C5.98768684,27.1099496 6.29732534,27.3523857 6.74061124,27.3215898 C7.16382798,27.2687344 7.64460572,27.165426 8.12229589,27.049013 C11.0962811,26.3232336 13.8750883,25.182255 16.2562613,23.2252933 C18.1293096,21.6859333 19.4662246,19.7894714 20.1349026,17.4467961 C20.7539591,15.2779758 21.5313635,13.1663792 22.5934853,11.1659537 C23.4745436,9.50624925 24.5086568,7.95727913 25.9386398,6.7027269 C26.5601222,6.15757328 27.2292413,5.68034546 28.0370802,5.43550684 C28.4349349,5.31494402 28.6493,4.98470673 28.5520417,4.62563921 C28.4523575,4.25718002 28.1166953,4.06585206 27.7115628,4.15452689 Z"/><g fill-rule="nonzero" transform="translate(10.569 57.645)"><path d="M2.43385671 1.39467973 4.7178864 6.23329739 4.19182709 6.23329739 3.42271505 4.64125732 1.3118188 4.64125732.546036253 6.23329739 0 6.23329739 2.3139951 1.39467973 2.43385671 1.39467973ZM2.3739259 2.4209535 1.5315651 4.17417118 3.20629824 4.17417118 2.3739259 2.4209535ZM9.95520858 2.29266928 9.56898781 2.58542045C9.35590049 2.31130887 9.10008473 2.10353229 8.80154052 1.96209071 8.50299631 1.82064913 8.17504161 1.74992834 7.81767642 1.74992834 7.42701633 1.74992834 7.06521182 1.84257806 6.73226289 2.02787749 6.39931396 2.21317692 6.14127853 2.46207024 5.95815662 2.77455744 5.7750347 3.08704464 5.68347375 3.43845569 5.68347375 3.82879059 5.68347375 4.41867871 5.88823734 4.91098312 6.29776453 5.30570379 6.70729172 5.70042447 7.22391748 5.89778481 7.84764182 5.89778481 8.53351663 5.89778481 9.10729862 5.6324448 9.56898781 5.10176478L9.95520858 5.39122661C9.71104602 5.69823158 9.40639775 5.93561221 9.04126375 6.1033685 8.67612975 6.27112479 8.26826731 6.35500293 7.81767642 6.35500293 6.96088783 6.35500293 6.28500149 6.07321623 5.79001741 5.50964281 5.37494107 5.0337851 5.1674029 4.45924723 5.1674029 3.78602918 5.1674029 3.07772485 5.41877934 2.48180627 5.92153223 1.99827344 6.42428513 1.51474061 7.05411353 1.27297419 7.81101744 1.27297419 8.26826731 1.27297419 8.68112399 1.36233457 9.04958747 1.54105532 9.41805096 1.71977607 9.71992466 1.97031406 9.95520858 2.29266928ZM15.4156065 2.29266928 15.0293858 2.58542045C14.8162985 2.31130887 14.5604827 2.10353229 14.2619385 1.96209071 13.9633943 1.82064913 13.6354396 1.74992834 13.2780744 1.74992834 12.8874143 1.74992834 12.5256098 1.84257806 12.1926608 2.02787749 11.8597119 2.21317692 11.6016765 2.46207024 11.4185546 2.77455744 11.2354327 3.08704464 11.1438717 3.43845569 11.1438717 3.82879059 11.1438717 4.41867871 11.3486353 4.91098312 11.7581625 5.30570379 12.1676897 5.70042447 12.6843154 5.89778481 13.3080398 5.89778481 13.9939146 5.89778481 14.5676966 5.6324448 15.0293858 5.10176478L15.4156065 5.39122661C15.171444 5.69823158 14.8667957 5.93561221 14.5016617 6.1033685 14.1365277 6.27112479 13.7286653 6.35500293 13.2780744 6.35500293 12.4212858 6.35500293 11.7453994 6.07321623 11.2504154 5.50964281 10.835339 5.0337851 10.6278009 4.45924723 10.6278009 3.78602918 10.6278009 3.07772485 10.8791773 2.48180627 11.3819302 1.99827344 11.8846831 1.51474061 12.5145115 1.27297419 13.2714154 1.27297419 13.7286653 1.27297419 14.1415219 1.36233457 14.5099854 1.54105532 14.8784489 1.71977607 15.1803226 1.97031406 15.4156065 2.29266928ZM16.3179336 1.39467973 19.1246931 1.39467973 19.1246931 1.87163389 16.8073685 1.87163389 16.8073685 3.38472982 19.1047162 3.38472982 19.1047162 3.85839464 16.8073685 3.85839464 16.8073685 5.75634324 19.1047162 5.75634324 19.1047162 6.23329739 16.3179336 6.23329739 16.3179336 1.39467973ZM17.9726898 0 18.68853 0 17.7063306 1.01311641 17.2468611 1.01311641 17.9726898 0ZM19.3810992 5.33201851 19.7972854 5.08531808C20.0902804 5.618191 20.4287785 5.88462746 20.8127796 5.88462746 20.9770344 5.88462746 21.1313008 5.84680006 21.2755787 5.77114526 21.4198565 5.69549047 21.5297297 5.59406918 21.6051981 5.46688141 21.6806665 5.33969363 21.7184007 5.20483073 21.7184007 5.06229271 21.7184007 4.90001865 21.6629092 4.74103393 21.5519263 4.58533856 21.3987698 4.37043507 21.1190927 4.11167374 20.712895 3.80905455 20.3044776 3.50424247 20.0503266 3.28385676 19.9504419 3.14789742 19.7773084 2.91983658 19.6907417 2.67313615 19.6907417 2.40779614 19.6907417 2.19727845 19.7417939 2.00540034 19.8438982 1.83216182 19.9460026 1.6589233 20.0897255 1.52241573 20.2750671 1.42263911 20.4604087 1.3228625 20.6618428 1.27297419 20.8793694 1.27297419 21.110214 1.27297419 21.3260759 1.32944118 21.5269551 1.44237515 21.7278343 1.55530912 21.9403667 1.7630857 22.1645523 2.06570489L21.7650136 2.36503474C21.5807818 2.12381654 21.4237409 1.96483182 21.2938908 1.88808058 21.1640408 1.81132934 21.0225375 1.77295372 20.869381 1.77295372 20.6718312 1.77295372 20.510351 1.83216182 20.3849403 1.95057802 20.2595295 2.06899423 20.1968241 2.21482159 20.1968241 2.38806011 20.1968241 2.49331896 20.2190207 2.59528846 20.2634139 2.69396863 20.3078071 2.7926488 20.3888247 2.90010054 20.5064666 3.01632386 20.5708367 3.07772485 20.7817044 3.23890246 21.1390696 3.49985669 21.5630246 3.80905455 21.8538 4.08426258 22.0113958 4.32548077 22.1689916 4.56669897 22.2477895 4.80901361 22.2477895 5.05242469 22.2477895 5.40328752 22.1129452 5.7080996 21.8432566 5.96686093 21.5735679 6.22562227 21.2456132 6.35500293 20.8593925 6.35500293 20.5619581 6.35500293 20.2922695 6.27660702 20.0503266 6.1198152 19.8083837 5.96302337 19.5853079 5.70042447 19.3810992 5.33201851Z"/><polygon points="23.13 1.395 23.62 1.395 23.62 6.233 23.13 6.233"/><polygon points="24.172 1.865 24.172 1.395 26.859 1.395 26.859 1.865 25.767 1.865 25.767 6.233 25.268 6.233 25.268 1.865"/></g></g></svg>