<svg xmlns="http://www.w3.org/2000/svg" width="81" height="81" viewBox="0 0 81 81"><g fill="#4D4D4D" fill-rule="evenodd" transform="translate(1 22)"><g fill-rule="nonzero" transform="translate(43.62 7.113)"><polygon points="1.416 4.033 1.848 4.033 3.264 .065 2.827 .065 1.661 3.4 1.65 3.4 .478 .065 0 .065"/><path d="M4.8221317 4.03261002 5.28842493 4.03261002 5.28842493 2.4420351 6.08695209 2.4420351C6.83302126 2.4420351 7.33428648 2.01630501 7.33428648 1.23579985 7.33428648.490772188 6.90879391.0650420971 6.02866543.0650420971L4.8221317.0650420971 4.8221317 4.03261002ZM5.28842493 2.05178252 5.28842493.461207598 5.98203611.461207598C6.61736064.461207598 6.83884992.703637233 6.83884992 1.26536444 6.83884992 1.79752705 6.59987464 2.05178252 5.99369344 2.05178252L5.28842493 2.05178252ZM7.74903443 4.03261002 8.209499 4.03261002 8.209499 2.32968966 8.95556817 2.32968966 9.92895529 4.03261002 10.4535352 4.03261002 9.41603273 2.24690881 9.41603273 2.21734422C9.89981196 2.06360835 10.1795879 1.74431079 10.1795879 1.17667067 10.1795879.461207598 9.74826666.0650420971 8.88562418.0650420971L7.74903443.0650420971 7.74903443 4.03261002ZM8.209499 1.96308875 8.209499.461207598 8.85065219.461207598C9.45100472.461207598 9.68998001.691811397 9.68998001 1.18258358 9.68998001 1.69700744 9.46849072 1.96308875 8.85648086 1.96308875L8.209499 1.96308875Z"/><polygon points="10.827 4.033 13.165 4.033 13.165 3.636 11.288 3.636 11.288 2.188 12.722 2.188 12.722 1.792 11.288 1.792 11.288 .461 13.147 .461 13.147 .065 10.827 .065"/><polygon points="13.731 4.033 14.162 4.033 14.162 .68 14.18 .68 15.311 4.033 15.742 4.033 16.884 .68 16.902 .68 16.902 4.033 17.368 4.033 17.368 .065 16.686 .065 15.561 3.418 15.55 3.418 14.419 .065 13.731 .065"/><polygon points="18.098 4.033 18.558 4.033 18.558 .065 18.098 .065"/><path d="M20.7739237 4.09765212C21.8463982 4.09765212 22.49338 3.34671154 22.49338 2.09908586L22.49338 2.00447918C22.49338.703637233 21.8463982 0 20.7914097 0 19.7131066 0 19.0661248.750940576 19.0661248 1.99856626L19.0661248 2.09317294C19.0661248 3.39401489 19.7131066 4.09765212 20.7739237 4.09765212ZM20.7855811 3.71331246C19.9112813 3.71331246 19.5615613 3.05106565 19.5615613 2.09317294L19.5615613 1.90987249C19.5615613 1.0229348 19.9637393.384339665 20.7680951.384339665 21.6540522.390252583 21.9979435 1.04067355 21.9979435 2.00447918L21.9979435 2.18777963C21.9979435 3.0688044 21.5957656 3.71331246 20.7855811 3.71331246ZM.384691916 9.58189929.850985147 9.58189929.850985147 7.99132437 1.64951231 7.99132437C2.39558147 7.99132437 2.8968467 7.56559428 2.8968467 6.78508911 2.8968467 6.04006145 2.47135413 5.61433136 1.59122565 5.61433136L.384691916 5.61433136.384691916 9.58189929ZM.850985147 7.60107178.850985147 6.01049686 1.54459633 6.01049686C2.17992086 6.01049686 2.40141014 6.2529265 2.40141014 6.8146537 2.40141014 7.34681631 2.16243486 7.60107178 1.55625366 7.60107178L.850985147 7.60107178Z"/><polygon points="4.203 9.582 4.658 9.582 4.658 8.021 5.94 5.614 5.497 5.614 4.46 7.583 4.448 7.583 3.405 5.614 2.915 5.614 4.203 8.021"/><polygon points="6.256 9.582 6.687 9.582 6.687 6.229 6.705 6.229 7.836 9.582 8.267 9.582 9.409 6.229 9.427 6.229 9.427 9.582 9.893 9.582 9.893 5.614 9.211 5.614 8.086 8.967 8.075 8.967 6.944 5.614 6.256 5.614"/><polygon points="10.605 9.582 12.942 9.582 12.942 9.186 11.066 9.186 11.066 7.737 12.499 7.737 12.499 7.341 11.066 7.341 11.066 6.01 12.925 6.01 12.925 5.614 10.605 5.614"/><path d="M14.7452583,9.58189929 L15.9109914,9.58189929 C17.1816405,9.58189929 17.7528497,8.85461038 17.7528497,7.6069847 L17.7528497,7.49463926 C17.7528497,6.22927483 17.0942105,5.61433136 15.9051627,5.61433136 L14.7452583,5.61433136 L14.7452583,9.58189929 Z M15.2057229,9.17982087 L15.2057229,6.01640978 L15.8585334,6.01640978 C16.7561479,6.01640978 17.2515844,6.39483653 17.2515844,7.49463926 L17.2515844,7.6720268 C17.2515844,8.73043911 16.8435779,9.17982087 15.9226487,9.17982087 L15.2057229,9.17982087 Z"/><polygon points="18.243 9.582 20.581 9.582 20.581 9.186 18.704 9.186 18.704 7.737 20.138 7.737 20.138 7.341 18.704 7.341 18.704 6.01 20.563 6.01 20.563 5.614 18.243 5.614"/><polygon points="21.147 9.582 23.379 9.582 23.379 9.186 21.613 9.186 21.613 5.614 21.147 5.614"/><path d="M24.6401543 9.58189929 25.0831329 9.58189929 25.4853108 8.42296738 27.0532218 8.42296738 27.467057 9.58189929 27.9508363 9.58189929 26.5228132 5.61433136 26.074006 5.61433136 24.6401543 9.58189929ZM26.2605233 6.24110066 26.2721806 6.24110066 26.9075052 8.02680187 25.6193701 8.02680187 26.2605233 6.24110066ZM28.2033834 5.58899359 28.8722 5.58899359 30.9839528 9.02472226 30.9839528 5.58899359 31.5218521 5.58899359 31.5218521 9.83024184 30.8871878 9.83024184 28.7441287 6.39740033 28.7441287 9.83024184 28.2033834 9.83024184 28.2033834 5.58899359ZM30.0419175 4.7055205C30.0950433 4.72861783 30.1434258 4.74690322 30.1870649 4.76037667 30.230704 4.77385012 30.2752918 4.78058684 30.3208282 4.78058684 30.4270799 4.78058684 30.502974 4.74690322 30.5485105 4.67953599 30.5731761 4.64296521 30.5902522 4.58810904 30.599739 4.51496748L30.8985719 4.51496748C30.8587275 4.75941428 30.7823591 4.92783235 30.6694667 5.0202217 30.5565742 5.11261104 30.432772 5.15880571 30.29806 5.15880571 30.2563183 5.15880571 30.2031924 5.1511066 30.1386824 5.13570837 30.0741725 5.12031015 30.0172519 5.10298715 29.9679208 5.08373937L29.8170813 5.0288832C29.7279057 4.99616197 29.655332 4.97162105 29.5993601 4.95526044 29.5433882 4.93889983 29.4888394 4.93071952 29.4357135 4.93071952 29.3693062 4.93071952 29.3147573 4.95285447 29.2720669 4.99712436 29.2293765 5.04139425 29.2004419 5.10876148 29.1852631 5.19922605L28.9063523 5.19922605C28.9310179 5.04716859 28.971811 4.92302041 29.0287315 4.82678151 29.1368806 4.64970194 29.2972068 4.56116215 29.5097102 4.56116215 29.5742202 4.56116215 29.6458453 4.57078604 29.7245854 4.59003382 29.8033255 4.6092816 29.9091028 4.64777716 30.0419175 4.7055205ZM33.6599041 9.64694139C34.7323786 9.64694139 35.3793604 8.89600081 35.3793604 7.64837513L35.3793604 7.55376844C35.3793604 6.2529265 34.7323786 5.54928927 33.6773901 5.54928927 32.599087 5.54928927 31.9521052 6.30022984 31.9521052 7.54785552L31.9521052 7.64246221C31.9521052 8.94330415 32.599087 9.64694139 33.6599041 9.64694139ZM33.6715615 9.26260172C32.7972617 9.26260172 32.4475417 8.60035491 32.4475417 7.64246221L32.4475417 7.45916175C32.4475417 6.57222407 32.8497196 5.93362893 33.6540755 5.93362893 34.5400326 5.93954185 34.8839239 6.58996282 34.8839239 7.55376844L34.8839239 7.7370689C34.8839239 8.61809367 34.481746 9.26260172 33.6715615 9.26260172ZM.384691916 15.1311886.850985147 15.1311886.850985147 13.5406136 1.64951231 13.5406136C2.39558147 13.5406136 2.8968467 13.1148835 2.8968467 12.3343784 2.8968467 11.5893507 2.47135413 11.1636206 1.59122565 11.1636206L.384691916 11.1636206.384691916 15.1311886ZM.850985147 13.1503611.850985147 11.5597861 1.54459633 11.5597861C2.17992086 11.5597861 2.40141014 11.8022158 2.40141014 12.363943 2.40141014 12.8961056 2.16243486 13.1503611 1.55625366 13.1503611L.850985147 13.1503611ZM2.6121548 15.1311886 3.05513337 15.1311886 3.45731129 13.9722566 5.02522228 13.9722566 5.43905752 15.1311886 5.92283675 15.1311886 4.49481372 11.1636206 4.04600649 11.1636206 2.6121548 15.1311886ZM4.23252378 11.7903899 4.24418111 11.7903899 4.87950564 13.5760911 3.59137059 13.5760911 4.23252378 11.7903899Z"/><polygon points="6.233 15.131 8.465 15.131 8.465 14.735 6.699 14.735 6.699 11.164 6.233 11.164"/><polygon points="8.886 15.131 11.223 15.131 11.223 14.735 9.346 14.735 9.346 13.286 10.78 13.286 10.78 12.89 9.346 12.89 9.346 11.56 11.205 11.56 11.205 11.164 8.886 11.164"/><polygon points="11.789 15.131 12.221 15.131 12.221 11.802 12.238 11.802 14.179 15.131 14.657 15.131 14.657 11.164 14.237 11.164 14.237 14.339 14.22 14.339 12.337 11.164 11.789 11.164"/><path d="M16.8610639,15.1962307 C17.3215284,15.1962307 17.677077,15.0897981 17.939367,14.9360623 L17.939367,14.5398968 C17.694563,14.664068 17.4031297,14.8000652 16.9193505,14.8000652 C16.021736,14.8000652 15.6487015,14.2087734 15.6487015,13.1917515 L15.6487015,12.9966252 C15.6487015,11.9441258 16.1732813,11.494744 16.9135218,11.494744 C17.2982138,11.494744 17.589647,11.5834378 17.8985663,11.7076091 L17.8985663,11.3173565 C17.659591,11.1872723 17.3565004,11.0985785 16.9368365,11.0985785 C15.9401347,11.0985785 15.1590936,11.6543928 15.1590936,13.0734931 L15.1590936,13.1917515 C15.1590936,14.5339838 15.8060754,15.1962307 16.8610639,15.1962307 Z"/><polygon points="18.424 15.131 18.885 15.131 18.885 11.164 18.424 11.164"/><path d="M19.2234988 15.1311886 19.6664773 15.1311886 20.0686552 13.9722566 21.6365662 13.9722566 22.0504015 15.1311886 22.5341807 15.1311886 21.1061577 11.1636206 20.6573504 11.1636206 19.2234988 15.1311886ZM20.8438677 11.7903899 20.8555251 11.7903899 21.4908496 13.5760911 20.2027145 13.5760911 20.8438677 11.7903899ZM.244803946 20.6804778 2.67535741 20.6804778 2.67535741 20.2783994.891785805 20.2783994 1.50379567 19.6516301C2.17992086 18.9539058 2.58792743 18.4808724 2.58792743 17.7949739 2.58792743 17.0854237 2.16243486 16.6419549 1.37556503 16.6419549.932586462 16.6419549.536237216 16.8429941.291433269 17.0026429L.425492573 17.3751567C.652810524 17.2155079.967558455 17.0499462 1.29979238 17.0499462 1.85351559 17.0499462 2.10414821 17.3101146 2.10414821 17.8363643 2.10414821 18.4040044 1.73111362 18.8356474 1.17739041 19.4210263L.244803946 20.4025707.244803946 20.6804778ZM4.50647106 20.7514328C5.29916955 20.7514328 5.90535075 20.2015315 5.90535075 18.8592991L5.90535075 18.4986111C5.90535075 17.1209012 5.27585489 16.6478678 4.51229972 16.6478678 3.74291589 16.6478678 3.07261937 17.1209012 3.07261937 18.5222628L3.07261937 18.8533862C3.07261937 20.1956185 3.70211523 20.7514328 4.50647106 20.7514328ZM4.50647106 20.3611803C3.89446119 20.3611803 3.56805593 19.8881468 3.56805593 18.9006895L3.56805593 18.4631336C3.56805593 17.4697634 3.90028985 17.0381204 4.51229972 17.0381204 5.11265226 17.0381204 5.43322885 17.4934151 5.43322885 18.4926982L5.43322885 18.9302541C5.43322885 19.947276 5.10682359 20.3611803 4.50647106 20.3611803ZM6.30844137 20.6804778 8.73899484 20.6804778 8.73899484 20.2783994 6.95542323 20.2783994 7.56743309 19.6516301C8.24355828 18.9539058 8.65156486 18.4808724 8.65156486 17.7949739 8.65156486 17.0854237 8.22607228 16.6419549 7.43920246 16.6419549 6.99622389 16.6419549 6.59987464 16.8429941 6.35507069 17.0026429L6.48913 17.3751567C6.71644795 17.2155079 7.03119588 17.0499462 7.36342981 17.0499462 7.91715302 17.0499462 8.16778563 17.3101146 8.16778563 17.8363643 8.16778563 18.4040044 7.79475104 18.8356474 7.24102783 19.4210263L6.30844137 20.4025707 6.30844137 20.6804778Z"/><polygon points="9.801 20.704 10.244 20.704 10.244 16.648 9.999 16.648 9.078 17.085 9.078 17.357 9.801 17.186"/></g><rect width="9.365" height="9.5" y="28.5"/><path d="M28.0939066,0 L28.0939066,28.5 L9.36463552,28.5 L9.36463552,19 L18.729,18.999 L18.729,9.499 L9.364,9.499 L9.36463552,19 L0,19 L0,0 L28.0939066,0 Z"/></g></svg>