<svg xmlns="http://www.w3.org/2000/svg" width="81" height="81" viewBox="0 0 81 81"><g fill="none" fill-rule="evenodd" transform="translate(4 28)"><path fill="gray" d="M43.0785715,24 C43.8636228,24 44.5444094,23.7109713 45.1209314,23.132914 C45.6974534,22.5548567 45.9857144,21.8722571 45.9857144,21.0851153 C45.9857144,20.6915444 45.9059826,20.3164221 45.7465191,19.9597484 C45.5870556,19.6030748 45.3785263,19.2894479 45.1209314,19.0188679 C44.8633365,18.7482879 44.5566758,18.5330538 44.2009494,18.3731656 C43.8452231,18.2132775 43.4710971,18.1333333 43.0785715,18.1333333 C42.6860459,18.1333333 42.3119199,18.2132775 41.9561936,18.3731656 C41.6004672,18.5330538 41.2938066,18.7482879 41.0362116,19.0188679 C40.7786167,19.2894479 40.5700875,19.6030748 40.4106239,19.9597484 C40.2511604,20.3164221 40.1714287,20.6915444 40.1714287,21.0851153 C40.1714287,21.8722571 40.4596897,22.5548567 41.0362116,23.132914 C41.6127337,23.7109713 42.2935203,24 43.0785715,24 Z"/><path fill="#4D4D4D" d="M3.29350005,23.6432432 L3.29350005,13.9135135 C3.29350005,12.4648648 3.58128161,11.372973 4.15684473,10.6378378 C4.73240784,9.90270272 5.54245963,9.53513514 6.58700009,9.53513514 C7.14124604,9.53513514 7.6102234,9.5891892 7.99393217,9.69729733 C8.37764093,9.80540539 8.75069107,9.95675678 9.1130827,10.1513514 L9.1130827,10.1513514 L9.97642733,6.97297295 C9.63535289,6.73513516 9.24631487,6.55675674 8.80931328,6.43783781 C8.37231162,6.31891895 7.81273635,6.25945946 7.13058748,6.25945946 C6.29921855,6.25945946 5.54778892,6.44864867 4.87629862,6.82702705 C4.20480832,7.20540543 3.6772088,7.67567571 3.29350005,8.23783781 L3.29350005,8.23783781 L3.29350005,6.61621623 L0,6.61621623 L0,23.6432432 L3.29350005,23.6432432 Z M16.678404,24 C17.9574331,24 19.0552665,23.8054054 19.9719041,23.4162162 C20.8885416,23.0270271 21.7199106,22.4756757 22.4660109,21.7621622 L22.4660109,21.7621622 L20.5154915,19.6216216 C19.9612455,20.0540541 19.3910117,20.3891892 18.80479,20.6270271 C18.2185682,20.8648648 17.5737244,20.9837838 16.8702584,20.9837838 C16.3586467,20.9837838 15.8683522,20.8918919 15.3993748,20.7081081 C14.9303975,20.5243243 14.5040544,20.2432432 14.1203457,19.8648649 C13.736637,19.4864865 13.4168797,19.0054054 13.1610738,18.4216216 C12.905268,17.8378378 12.7347308,17.1351351 12.6494622,16.3135135 L12.6494622,16.3135135 L23.74504,16.3135135 C23.7663572,16.1405406 23.7876743,15.9189189 23.8089915,15.6486486 C23.8303087,15.3783784 23.8409672,15.0918919 23.8409672,14.7891892 C23.8409672,13.6432432 23.6970764,12.5513514 23.4092949,11.5135135 C23.1215133,10.4756757 22.6845117,9.56756754 22.09829,8.78918918 C21.5120683,8.01081082 20.7766265,7.39459459 19.8919647,6.94054055 C19.0073029,6.48648651 17.9680917,6.25945946 16.7743312,6.25945946 C15.6871564,6.25945946 14.6905795,6.45405404 13.7846006,6.84324322 C12.8786216,7.23243246 12.1058748,7.8 11.4663602,8.54594596 C10.8268457,9.29189192 10.3258926,10.2162162 9.96350098,11.3189189 C9.60110941,12.4216216 9.41991359,13.6972973 9.41991359,15.145946 C9.41991359,16.5513513 9.61176798,17.8054054 9.99547674,18.9081081 C10.3791854,20.0108108 10.9014557,20.9405406 11.5622874,21.6972973 C12.2231191,22.4540541 12.9958659,23.0270271 13.8805277,23.4162162 C14.7651895,23.8054054 15.697815,24 16.678404,24 Z M20.5154915,13.5567568 L12.7134137,13.5567568 C12.8626337,12.1945946 13.2623303,11.1405405 13.9125035,10.3945946 C14.5626766,9.64864863 15.4420092,9.27567568 16.5505011,9.27567568 C17.2326499,9.27567568 17.8135423,9.38918918 18.2931783,9.61621623 C18.7728143,9.84324322 19.1725108,10.1513514 19.4922681,10.5405405 C19.8120254,10.9297297 20.0518433,11.3837838 20.211722,11.9027027 C20.3716007,12.4216216 20.4728571,12.9729729 20.5154915,13.5567568 L20.5154915,13.5567568 Z M31.3103614,24 C32.2056818,24 33.005075,23.8108108 33.7085411,23.4324325 C34.4120071,23.0540541 35.0728388,22.5837838 35.6910362,22.0216216 L35.6910362,22.0216216 L35.6910362,23.6432432 L38.9525605,23.6432432 L38.9525605,0 L35.6910362,1.71891892 L35.6910362,8.20540541 C35.2220589,7.68648651 34.61452,7.23243246 33.8684197,6.84324322 C33.1223193,6.45405404 32.3229261,6.25945946 31.47024,6.25945946 C30.5962368,6.25945946 29.7595385,6.43243244 28.9601453,6.77837836 C28.1607521,7.12432434 27.4572861,7.65405404 26.8497472,8.36756754 C26.2422084,9.08108109 25.7572432,9.97837838 25.3948516,11.0594595 C25.0324599,12.1405405 24.8512642,13.4054054 24.8512642,14.854054 C24.8512642,16.4756757 25.0164721,17.8648648 25.346888,19.0216216 C25.6773038,20.1783784 26.1356226,21.1243243 26.7218443,21.8594595 C27.308066,22.5945946 27.9955442,23.1351351 28.7842788,23.4810811 C29.5730134,23.827027 30.415041,24 31.3103614,24 Z M31.9179002,20.9189189 C30.7028225,20.9189189 29.7701971,20.4324325 29.1200239,19.4594595 C28.4698508,18.4864865 28.1447642,16.9189189 28.1447642,14.7567568 C28.1447642,12.9405405 28.4538629,11.5837838 29.0720604,10.6864865 C29.6902578,9.78918916 30.5962368,9.34054055 31.7899973,9.34054055 C32.1950232,9.34054055 32.5947198,9.41081084 32.9890871,9.55135137 C33.3834544,9.69189189 33.7511753,9.87027025 34.0922498,10.0864865 C34.4333242,10.3027027 34.7424229,10.5405405 35.0195459,10.8 C35.2966689,11.0594595 35.5311575,11.3189189 35.7230119,11.5783784 L35.7230119,11.5783784 L35.7230119,18.745946 C35.2966689,19.3081081 34.7530815,19.8108108 34.0922498,20.254054 C33.431418,20.6972973 32.7066349,20.9189189 31.9179002,20.9189189 Z M53.6763631,24 C54.9553922,24 56.0532255,23.8054054 56.9698631,23.4162162 C57.8865007,23.0270271 58.7178696,22.4756757 59.46397,21.7621622 L59.46397,21.7621622 L57.5134505,19.6216216 C56.9592046,20.0540541 56.3889707,20.3891892 55.802749,20.6270271 C55.2165273,20.8648648 54.5716834,20.9837838 53.8682174,20.9837838 C53.3566058,20.9837838 52.8663113,20.8918919 52.3973339,20.7081081 C51.9283565,20.5243243 51.5020135,20.2432432 51.1183047,19.8648649 C50.734596,19.4864865 50.4148387,19.0054054 50.1590329,18.4216216 C49.9032271,17.8378378 49.7326899,17.1351351 49.6474213,16.3135135 L49.6474213,16.3135135 L60.7429991,16.3135135 C60.7643163,16.1405406 60.7856334,15.9189189 60.8069505,15.6486486 C60.8282677,15.3783784 60.8389263,15.0918919 60.8389263,14.7891892 C60.8389263,13.6432432 60.6950355,12.5513514 60.4072539,11.5135135 C60.1194724,10.4756757 59.6824707,9.56756754 59.0962491,8.78918918 C58.5100274,8.01081082 57.7745856,7.39459459 56.8899238,6.94054055 C56.005262,6.48648651 54.9660508,6.25945946 53.7722903,6.25945946 C52.6851155,6.25945946 51.6885386,6.45405404 50.7825596,6.84324322 C49.8765807,7.23243246 49.1038339,7.8 48.4643193,8.54594596 C47.8248047,9.29189192 47.3238516,10.2162162 46.96146,11.3189189 C46.5990685,12.4216216 46.4178727,13.6972973 46.4178727,15.145946 C46.4178727,16.5513513 46.609727,17.8054054 46.9934358,18.9081081 C47.3771445,20.0108108 47.8994148,20.9405406 48.5602465,21.6972973 C49.2210782,22.4540541 49.993825,23.0270271 50.8784868,23.4162162 C51.7631487,23.8054054 52.6957741,24 53.6763631,24 Z M57.5134505,13.5567568 L49.7113727,13.5567568 C49.8605928,12.1945946 50.2602894,11.1405405 50.9104625,10.3945946 C51.5606357,9.64864863 52.4399682,9.27567568 53.5484601,9.27567568 C54.230609,9.27567568 54.8115015,9.38918918 55.2911374,9.61621623 C55.7707733,9.84324322 56.1704699,10.1513514 56.4902272,10.5405405 C56.8099845,10.9297297 57.0498025,11.3837838 57.2096811,11.9027027 C57.3695597,12.4216216 57.4708162,12.9729729 57.5134505,13.5567568 L57.5134505,13.5567568 Z M67.7007817,24 C68.5321506,24 69.3262142,23.9135135 70.0829736,23.7405405 C70.8397323,23.5675676 71.5058932,23.2864865 72.0814562,22.8972973 C72.6570198,22.5081081 73.1206678,21.9945946 73.4724003,21.3567568 C73.8241334,20.7189189 74,19.9243243 74,18.9729729 C74,18.172973 73.8827558,17.4918919 73.6482669,16.9297297 C73.4137785,16.3675676 73.0567162,15.8756757 72.5770804,15.454054 C72.0974446,15.0324325 71.5058932,14.6540541 70.8024276,14.3189189 C70.0989613,13.9837838 69.2782509,13.6324324 68.3402963,13.2648649 C67.7007817,13.0054054 67.1838405,12.772973 66.7894734,12.5675675 C66.3951062,12.3621621 66.0806779,12.1621622 65.8461895,11.9675675 C65.6117006,11.7729729 65.4518218,11.5837838 65.3665531,11.4 C65.2812851,11.2162162 65.2386504,11.0162162 65.2386504,10.8 C65.2386504,10.345946 65.4198462,9.97297295 65.7822379,9.68108109 C66.1446295,9.38918918 66.730851,9.24324322 67.5409029,9.24324322 C68.3509548,9.24324322 69.1077136,9.36216215 69.8111798,9.6 C70.5146455,9.83783785 71.2074532,10.2054054 71.8896019,10.7027027 L71.8896019,10.7027027 L73.3285099,8.14054055 C72.5824096,7.57837838 71.7137353,7.12432434 70.7224882,6.77837836 C69.7312404,6.43243244 68.7026879,6.25945946 67.6368301,6.25945946 C66.8054611,6.25945946 66.0380438,6.35675678 65.3345776,6.55135137 C64.6311113,6.74594596 64.0235729,7.03783781 63.5119609,7.42702705 C63.0003496,7.81621623 62.6059825,8.30270267 62.3288592,8.88648651 C62.0517362,9.47027027 61.9131747,10.1405406 61.9131747,10.8972973 C61.9131747,11.5675676 61.9984433,12.1567568 62.1689806,12.6648649 C62.3395177,13.172973 62.6219702,13.6324324 63.0163374,14.0432432 C63.4107045,14.4540541 63.9223164,14.8378378 64.5511726,15.1945946 C65.180028,15.5513514 65.9421167,15.9027027 66.8374366,16.2486486 C68.0525148,16.7243243 69.0064572,17.1567568 69.6992649,17.545946 C70.3920721,17.9351351 70.7384759,18.454054 70.7384759,19.1027027 C70.7384759,20.3567567 69.7152527,20.9837838 67.6688056,20.9837838 C66.8800713,20.9837838 66.0646901,20.8432432 65.2226627,20.5621622 C64.3806352,20.2810811 63.5652541,19.8594594 62.7765192,19.2972973 L62.7765192,19.2972973 L61.2736601,21.8270271 C62.1263462,22.4540541 63.122923,22.972973 64.2633911,23.3837838 C65.4038585,23.7945946 66.5496552,24 67.7007817,24 Z"/></g></svg>