<?xml version="1.0" encoding="UTF-8"?>
<svg width="120px" height="120px" viewBox="0 0 120 120" version="1.1" xmlns="http://www.w3.org/2000/svg" xmlns:xlink="http://www.w3.org/1999/xlink">
    <title>roams/icon/roams_negro</title>
    <defs>
        <path d="M59.9399389,0 C93.0437733,0 119.879878,26.8361045 119.879878,59.9394299 C119.879878,93.0427553 93.0437733,119.87886 59.9399389,119.87886 C26.8366135,119.87886 -3.7658765e-12,93.0427553 -3.7658765e-12,59.9394299 C-3.7658765e-12,26.8361045 26.8366135,0 59.9399389,0 Z M50.1764506,25.89396 C48.8586698,21.3440787 45.0458093,17.3062436 37.6796742,18.8062436 C30.3603665,20.2975908 25.6068884,28.044452 26.4716661,34.694435 C27.1552426,39.9446895 30.8642687,45.7604343 36.7716322,48.8423821 C36.4204276,49.1976586 36.0687139,49.5697319 35.7164913,49.958602 C30.9665762,55.2052935 22.6694944,59.4645402 14.3561249,60.655073 C12.1618595,60.9696301 12.4377333,60.6657618 12.1033254,63.8001357 C12.0345311,64.447681 11.9657819,64.9712182 11.9123706,65.391217 L11.8754269,65.6871224 C11.718674,66.9804036 11.7966442,67.0680264 12.7650153,66.8276213 C17.0721072,65.7567017 32.2558534,63.0895826 42.2326094,52.2261622 C42.6795046,51.7736681 43.0933152,51.3400068 43.4796403,50.9195792 C47.3255853,51.4504581 51.8942993,51.2249746 57.0972175,50.0436037 C56.6823889,50.6635562 56.2568714,51.3171021 55.8221921,52.0052596 C53.3164235,55.9753987 50.6879878,59.4823549 48.8199864,63.3211741 C48.6355729,63.7000226 48.4500283,64.0803391 48.2645442,64.4619829 L47.8478101,65.3228619 C44.0148102,73.2816427 40.5927044,81.7665253 48.2280285,89.5215473 C50.9898202,92.3230404 55.0581948,96.1414998 61.4231422,98.3968442 C69.8260943,101.379539 86.411605,96.2504242 103.482694,79.4613166 C104.566339,78.3970139 104.551069,78.325755 103.199695,77.6126569 L103.199695,77.6126569 L103.149548,77.5877888 C102.673693,77.3523434 98.9988948,75.5394881 97.1666101,74.6569393 C95.3006447,73.7565321 93.4127927,72.8927723 91.5096709,72.0702409 C91.239396,71.9531727 90.8576518,72.2662029 90.6372582,72.4779437 C79.303529,83.347472 65.2344757,89.1163895 55.6267391,88.6903631 C55.370716,88.1365796 55.1559213,87.5481846 55.0592128,86.937903 C52.8629114,72.3603665 69.1185952,52.6104513 81.456566,40.2480489 C82.4032915,39.2992874 82.9524941,38.282321 82.306583,37.0246013 C82.1416695,36.7044452 80.3825925,33.3985409 79.5712589,32.1230064 C78.7919919,30.8963353 78.0503902,29.6167289 77.0833051,28.5498812 C76.366644,27.7558534 75.2163217,27.4412962 73.9764167,27.7706142 C73.4561365,27.9093436 71.6569273,28.8843449 69.0731218,30.1807535 L68.5076202,30.4632872 C63.7942253,32.807757 56.7861395,36.0239097 50.1326773,37.3523923 C50.1348093,37.3351922 50.1406922,37.2965291 50.1496764,37.2381348 L50.1715875,37.0955514 C50.3768787,35.7526296 51.2652714,29.6541254 50.1764506,25.89396 Z M33.4241432,27.1091279 C33.4836953,26.8515779 35.9696132,26.6673227 37.0634374,26.9228368 C40.1586189,27.6506956 41.9624873,30.4394639 41.5700543,36.4028164 C41.5690363,36.427757 41.5105022,37.2497794 41.4774177,37.7435019 C39.7773838,37.4635562 38.2127418,36.9128266 36.8471157,36.0190363 C34.9826773,34.799491 32.6107737,30.6715643 33.4241432,27.1091279 Z" id="path-1"></path>
        <radialGradient cx="70.4109219%" cy="99.7139689%" fx="70.4109219%" fy="99.7139689%" r="117.155302%" gradientTransform="translate(0.704109,0.997140),scale(1.000000,0.666636),rotate(-90.000000),translate(-0.704109,-0.997140)" id="radialGradient-3">
            <stop stop-color="#000000" offset="0%"></stop>
            <stop stop-color="#000000" stop-opacity="0" offset="100%"></stop>
        </radialGradient>
        <radialGradient cx="75.0628264%" cy="0%" fx="75.0628264%" fy="0%" r="126.031972%" gradientTransform="translate(0.750628,0.000000),scale(0.838016,1.000000),rotate(-35.679974),scale(1.000000,0.140904),translate(-0.750628,-0.000000)" id="radialGradient-4">
            <stop stop-color="#000000" offset="0%"></stop>
            <stop stop-color="#000000" stop-opacity="0" offset="100%"></stop>
        </radialGradient>
        <radialGradient cx="77.6531779%" cy="7.30732851%" fx="77.6531779%" fy="7.30732851%" r="43.5904969%" gradientTransform="translate(0.776532,0.073073),scale(0.838016,1.000000),rotate(-30.827754),scale(1.000000,0.211512),translate(-0.776532,-0.073073)" id="radialGradient-5">
            <stop stop-color="#000000" offset="0%"></stop>
            <stop stop-color="#000000" offset="32.105152%"></stop>
            <stop stop-color="#000000" offset="63.4396115%"></stop>
            <stop stop-color="#000000" stop-opacity="0" offset="100%"></stop>
        </radialGradient>
        <radialGradient cx="54.8018443%" cy="8.7196091%" fx="54.8018443%" fy="8.7196091%" r="49.3037197%" gradientTransform="translate(0.548018,0.087196),scale(0.478146,1.000000),rotate(66.506596),scale(1.000000,3.889900),translate(-0.548018,-0.087196)" id="radialGradient-6">
            <stop stop-color="#000000" offset="0%"></stop>
            <stop stop-color="#000000" stop-opacity="0" offset="100%"></stop>
        </radialGradient>
        <linearGradient x1="27.8916606%" y1="8.59812749%" x2="62.4177133%" y2="59.9001042%" id="linearGradient-7">
            <stop stop-color="#000000" offset="0%"></stop>
            <stop stop-color="#000000" stop-opacity="0.01" offset="99.9234586%"></stop>
        </linearGradient>
        <linearGradient x1="63.9791744%" y1="110.243058%" x2="51.7964922%" y2="49.6769611%" id="linearGradient-8">
            <stop stop-color="#000000" offset="0%"></stop>
            <stop stop-color="#000000" stop-opacity="0" offset="100%"></stop>
        </linearGradient>
    </defs>
    <g id="roams/icon/roams_negro" stroke="none" stroke-width="1" fill="none" fill-rule="evenodd">
        <g id="Group" transform="translate(0.000000, 0.000000)">
            <mask id="mask-2" fill="white">
                <use xlink:href="#path-1"></use>
            </mask>
            <use id="Mask" fill="#000000" xlink:href="#path-1"></use>
            <path d="M45.6950826,83.7201928 C46.4300673,84.8588084 47.3146958,85.8956255 48.4955577,86.6840544 C50.365086,87.9061446 52.8031586,88.5647805 55.6260293,88.6910106 C55.3694973,88.1387541 55.1562295,87.5478141 55.058503,86.9390595 C54.1234844,80.7227378 56.5411973,73.5668165 60.5800504,66.4434707 L48.8208037,63.3233486 C46.4046177,68.2844955 43.7975597,73.4965756 43.6692937,78.6455406 C43.6586048,79.077166 44.0159174,81.1187337 45.6950826,83.7201928" id="Mask" fill="url(#radialGradient-3)" opacity="0.6"></path>
            <path d="M59.1009191,69.2011904 C64.1460497,59.2056017 72.4024121,49.4604371 79.9217538,41.8026495 C80.6643734,41.0447602 80.6175461,40.6273866 79.6687847,41.0783537 C78.1575869,41.7955237 73.6000707,43.8951165 73.6000707,43.8951165 C67.5746211,46.9287099 62.0505288,48.9193784 57.0970168,50.0437422 C56.6806612,50.6642037 56.2566707,51.3172407 55.8219913,52.0053981 C53.3167317,55.9755372 50.688296,59.4819845 48.8213127,63.3192766 C48.0929448,64.8172407 47.3447263,66.3386183 46.6535149,67.8722118 L59.1009191,69.2011904 Z" id="Mask" fill="url(#radialGradient-4)" opacity="0.9"></path>
            <path d="M59.1009191,69.2011904 C64.1460497,59.2056017 72.4024121,49.4604371 79.9217538,41.8026495 C80.6643734,41.0447602 80.6175461,40.6273866 79.6687847,41.0783537 C78.1575869,41.7955237 73.6000707,43.8951165 73.6000707,43.8951165 C67.5746211,46.9287099 62.0505288,48.9193784 57.0970168,50.0437422 C56.6806612,50.6642037 56.2566707,51.3172407 55.8219913,52.0053981 C53.3167317,55.9755372 50.688296,59.4819845 48.8213127,63.3192766 C48.0929448,64.8172407 47.3447263,66.3386183 46.6535149,67.8722118 L59.1009191,69.2011904 Z" id="Mask-Copy" fill="url(#radialGradient-5)" opacity="0.17"></path>
            <path d="M36.771635,48.8423821 C36.7711486,48.8428735 36.7708605,48.8431645 36.7707709,48.843255 C36.419347,49.1982681 36.0689353,49.5700508 35.7144582,49.959111 C32.5276581,53.479301 27.7436405,56.5556498 22.427726,58.5575161 C21.6973222,58.8323719 20.9567385,59.086868 20.210556,59.3215134 C19.9372272,59.5103495 36.4041427,54.325755 42.1338678,50.6498134 C42.1338678,50.6498134 42.124197,50.6472684 42.119616,50.6467594 C41.5571797,50.5551408 40.9713296,50.4314557 40.3758088,50.2741771 C39.1543773,49.9526675 37.912608,49.4923527 36.7734781,48.8434322" id="Mask" fill="url(#radialGradient-6)"></path>
            <path d="M41.5722458,20.1491036 C34.8398061,19.6166977 33.4533113,26.9548382 33.4253167,27.102446 L33.4278617,27.1044819 C33.5154084,26.8499858 35.9763856,26.6687846 37.063593,26.9232807 C40.0009869,27.6134741 41.7717708,30.166579 41.6094023,35.5227038 L41.6099112,35.5227038 L48.8253846,35.8947771 C48.8289476,35.8550757 51.7821203,20.9563652 41.5722458,20.1491036" id="Mask" fill="url(#linearGradient-7)" opacity="0.4"></path>
            <path d="M44.107536,20.6962702 L37.063593,26.9232807 C37.5074342,26.9772339 37.9634912,27.1431653 38.4078413,27.42362 C40.6626768,28.602446 41.9015638,31.3678006 41.5697009,36.4032603 C41.5686829,36.427692 41.5101488,37.2502234 41.4775733,37.7439458 C41.4770643,37.7434368 41.4770643,37.7434368 41.4765553,37.7434368 L41.4765553,37.7439458 C43.4753676,38.0732637 46.5379737,37.8080788 48.4970846,37.5759784 C48.4970846,37.5759784 51.8314925,24.1859207 44.107536,20.6962702" id="Mask" fill="url(#linearGradient-8)" opacity="0.65"></path>
        </g>
    </g>
</svg>