<?xml version="1.0" encoding="UTF-8"?>
<svg width="268px" height="80px" viewBox="0 0 268 80" version="1.1" xmlns="http://www.w3.org/2000/svg" xmlns:xlink="http://www.w3.org/1999/xlink">
    <title>roams/logo/roams_secundario</title>
    <defs>
        <path d="M40.2604101,0 C62.495567,0 80.5208202,18.0252532 80.5208202,40.2600682 C80.5208202,62.4948833 62.495567,80.5201364 40.2604101,80.5201364 C18.025595,80.5201364 -2.54374299e-12,62.4948833 -2.54374299e-12,40.2600682 C-2.54374299e-12,18.0252532 18.025595,0 40.2604101,0 Z M33.7024781,17.3924343 C32.8173522,14.3363737 30.2563331,11.6242438 25.3086534,12.6317626 C20.3924266,13.6334695 17.1996142,18.836875 17.7804675,23.3035303 C18.2396116,26.830017 20.7308873,30.7363318 24.6987404,32.806412 C24.4628436,33.0450439 24.2266049,33.2949578 23.9900243,33.5561537 C20.7996051,37.0802473 15.2266278,39.9410947 9.64271044,40.7407508 C8.16886805,40.9520323 8.35416672,40.7479302 8.12955191,42.853224 C7.91006529,44.9192016 7.69126243,45.1058678 8.57399522,44.8867231 C11.4669793,44.1674087 21.6655857,42.3759603 28.3667652,35.0792267 C28.6669354,34.7752959 28.9448834,34.4840146 29.2043699,34.2016221 C31.7876112,34.5582024 34.8563213,34.4067498 38.3510133,33.6132476 C38.0723815,34.0296568 37.7865703,34.46863 37.4946052,34.9308511 C35.8115326,37.5975109 34.046067,39.9530605 32.7913693,42.5315154 L32.7913693,42.5315154 L32.5371997,43.0533565 C32.3249316,43.4893201 32.1120417,43.9279613 31.9024942,44.3688124 L31.6528951,44.8988648 C29.3017653,49.9438706 27.5910718,55.2517782 32.3937635,60.1297611 C34.2488015,62.0114657 36.9814441,64.5762455 41.2566469,66.0911134 C46.900735,68.0945271 58.0408776,64.6494077 69.5071731,53.3725134 C70.2350345,52.6576434 70.2247781,52.6097803 69.3170881,52.1308072 C69.2869905,52.1156546 68.2808336,51.6188366 67.2027932,51.0901073 L66.8207958,50.9029043 C66.2477396,50.6223094 65.6843501,50.3476005 65.2647908,50.1455131 C64.0114606,49.5407283 62.7434297,48.9605588 61.4651423,48.4080816 C61.2836043,48.3294493 61.0271947,48.5397052 60.8791609,48.6819271 C53.2665308,55.9827632 43.8166403,59.8576251 37.3633235,59.5714719 C37.1913581,59.1995071 37.047085,58.8042944 36.9821279,58.3943809 C35.506918,48.6029529 46.4255226,35.3373457 54.7126809,27.0337772 C55.3485767,26.3965138 55.7174647,25.7134387 55.2836196,24.8686545 C55.1728507,24.6536123 53.9913152,22.4331052 53.4463594,21.5763552 C52.9229419,20.7524257 52.4248235,19.8929407 51.7752525,19.1763613 C51.2938862,18.6430294 50.5212386,18.4317478 49.6884202,18.6529439 C48.7024398,18.9158492 40.8781863,23.6501961 33.6730765,25.0888249 C33.6983756,24.8847228 34.5099974,20.1811451 33.7024781,17.3924343 Z M22.4503017,18.2086373 C22.4903016,18.0356463 24.1600409,17.9118859 24.8947399,18.0835094 C26.973709,18.5723971 28.1853298,20.4455547 27.9217407,24.4510145 C27.921057,24.4677666 27.8817408,25.019902 27.8595187,25.3515251 C26.7176412,25.1634914 25.6667037,24.7935778 24.7494411,24.1932374 C23.4971366,23.3740942 21.9039783,20.6014517 22.4503017,18.2086373 Z" id="path-1"></path>
        <radialGradient cx="70.4109219%" cy="99.7139689%" fx="70.4109219%" fy="99.7139689%" r="117.155302%" gradientTransform="translate(0.704109,0.997140),scale(1.000000,0.666636),rotate(-90.000000),translate(-0.704109,-0.997140)" id="radialGradient-3">
            <stop stop-color="#FFFFFF" offset="0%"></stop>
            <stop stop-color="#FFFFFF" stop-opacity="0" offset="100%"></stop>
        </radialGradient>
        <radialGradient cx="75.0628264%" cy="0%" fx="75.0628264%" fy="0%" r="126.031972%" gradientTransform="translate(0.750628,0.000000),scale(0.838016,1.000000),rotate(-35.679974),scale(1.000000,0.140904),translate(-0.750628,-0.000000)" id="radialGradient-4">
            <stop stop-color="#FFFFFF" offset="0%"></stop>
            <stop stop-color="#FFFFFF" stop-opacity="0" offset="100%"></stop>
        </radialGradient>
        <radialGradient cx="77.6531779%" cy="7.30732851%" fx="77.6531779%" fy="7.30732851%" r="43.5904969%" gradientTransform="translate(0.776532,0.073073),scale(0.838016,1.000000),rotate(-30.827754),scale(1.000000,0.211512),translate(-0.776532,-0.073073)" id="radialGradient-5">
            <stop stop-color="#FFFFFF" offset="0%"></stop>
            <stop stop-color="#FFFFFF" offset="32.105152%"></stop>
            <stop stop-color="#FFFFFF" offset="63.6613176%"></stop>
            <stop stop-color="#FFFFFF" stop-opacity="0" offset="100%"></stop>
        </radialGradient>
        <radialGradient cx="54.8018443%" cy="8.7196091%" fx="54.8018443%" fy="8.7196091%" r="49.3037197%" gradientTransform="translate(0.548018,0.087196),scale(0.478146,1.000000),rotate(66.506596),scale(1.000000,3.889900),translate(-0.548018,-0.087196)" id="radialGradient-6">
            <stop stop-color="#FFFFFF" offset="0%"></stop>
            <stop stop-color="#FFFFFF" stop-opacity="0" offset="100%"></stop>
        </radialGradient>
        <linearGradient x1="27.8916606%" y1="8.59812749%" x2="62.3648801%" y2="59.8215998%" id="linearGradient-7">
            <stop stop-color="#FFFFFF" offset="0%"></stop>
            <stop stop-color="#FFFFFF" stop-opacity="0.01" offset="99.8020481%"></stop>
        </linearGradient>
        <linearGradient x1="63.9791744%" y1="110.243058%" x2="51.7964922%" y2="49.6769611%" id="linearGradient-8">
            <stop stop-color="#FFFFFF" offset="0%"></stop>
            <stop stop-color="#FFFFFF" stop-opacity="0" offset="100%"></stop>
        </linearGradient>
    </defs>
    <g id="roams/logo/roams_secundario" stroke="none" stroke-width="1" fill="none" fill-rule="evenodd">
        <g id="Logo-Roams/Blanco/Simbolo">
            <g id="Group" transform="translate(-0.043241, -0.300752)">
                <g id="Group" transform="translate(-0.000000, 0.000000)">
                    <mask id="mask-2" fill="white">
                        <use xlink:href="#path-1"></use>
                    </mask>
                    <use id="Mask" fill="#FFFFFF" xlink:href="#path-1"></use>
                    <path d="M30.6924364,56.233112 C31.1861104,56.9978963 31.7802969,57.6943048 32.5734573,58.2238761 C33.8291806,59.0447287 35.4667832,59.4871208 37.3628468,59.5719069 C37.1905395,59.2009676 37.047292,58.8040456 36.9816512,58.3951577 C36.3536186,54.2197838 37.9775461,49.4133003 40.6903596,44.6286971 L32.7919183,42.532976 C31.1690164,45.8652752 29.4179098,49.3661209 29.3317561,52.8245737 C29.3245767,53.1144874 29.5645761,54.485766 30.6924364,56.233112" id="Mask" fill="url(#radialGradient-3)" opacity="0.6"></path>
                    <path d="M39.6968579,46.4810001 C43.0855672,39.7671711 48.6311941,33.2215467 53.6817795,28.0779701 C54.1805816,27.5689116 54.1491287,27.2885704 53.5118654,27.5914756 C52.4968253,28.0731838 49.4356365,29.4834366 49.4356365,29.4834366 C45.3884673,31.5210383 41.6780494,32.8581289 38.3508784,33.6133406 C38.071221,34.0300917 37.7864354,34.468723 37.4944704,34.9309441 C35.8117396,37.597604 34.046274,39.9528116 32.7922601,42.5302409 C32.3030306,43.5363922 31.8004678,44.55827 31.3361955,45.5883528 L39.6968579,46.4810001 Z" id="Mask" fill="url(#radialGradient-4)" opacity="0.9"></path>
                    <path d="M39.6968579,46.4810001 C43.0855672,39.7671711 48.6311941,33.2215467 53.6817795,28.0779701 C54.1805816,27.5689116 54.1491287,27.2885704 53.5118654,27.5914756 C52.4968253,28.0731838 49.4356365,29.4834366 49.4356365,29.4834366 C45.3884673,31.5210383 41.6780494,32.8581289 38.3508784,33.6133406 C38.071221,34.0300917 37.7864354,34.468723 37.4944704,34.9309441 C35.8117396,37.597604 34.046274,39.9528116 32.7922601,42.5302409 C32.3030306,43.5363922 31.8004678,44.55827 31.3361955,45.5883528 L39.6968579,46.4810001 Z" id="Mask-Copy" fill="url(#radialGradient-5)" opacity="0.17"></path>
                    <path d="M24.6987423,32.806412 C24.6984156,32.8067421 24.6982221,32.8069375 24.6981619,32.8069983 C24.4621178,33.0454532 24.2267535,33.295172 23.9886587,33.5564956 C21.8481513,35.920934 18.6348262,37.9872535 15.064237,39.3318655 C14.57364,39.5164804 14.0762053,39.6874201 13.57501,39.8450265 C13.3914208,39.9718638 24.4519054,36.4894796 28.3004425,34.020426 C28.3004425,34.020426 28.2939468,34.0187166 28.2908699,34.0183747 C27.9130931,33.9568364 27.5195898,33.8737597 27.1195909,33.768119 C26.2991807,33.5521676 25.4651101,33.2429838 24.6999802,32.8071174" id="Mask" fill="url(#radialGradient-6)"></path>
                    <path d="M27.9232127,13.5337337 C23.401173,13.1761278 22.4698933,18.1050041 22.4510899,18.2041492 L22.4527993,18.2055167 C22.5116026,18.0345769 24.1645898,17.9128679 24.8948444,18.0838076 C26.8678308,18.5473961 28.0572295,20.2622636 27.9481699,23.8598612 L27.9485118,23.8598612 L32.7949952,24.1097751 C32.7973883,24.0831085 34.780973,14.0759546 27.9232127,13.5337337" id="Mask" fill="url(#linearGradient-7)" opacity="0.4"></path>
                    <path d="M29.6261144,13.9012542 L24.8948444,18.0838076 C25.1929633,18.1200468 25.4992873,18.2314995 25.7977481,18.4198751 C27.3122741,19.211668 28.1444088,21.0690991 27.9215033,24.4513127 C27.9208196,24.4677229 27.8815034,25.0202001 27.8596232,25.3518232 C27.8592813,25.3514814 27.8592813,25.3514814 27.8589394,25.3514814 L27.8589394,25.3518232 C29.2015001,25.5730192 31.2585888,25.3949 32.5744829,25.239003 C32.5744829,25.239003 34.8141353,16.2451798 29.6261144,13.9012542" id="Mask" fill="url(#linearGradient-8)" opacity="0.65"></path>
                </g>
            </g>
            <path d="M130.680767,24.0712055 C133.875273,24.0712055 136.738641,24.7529599 139.270872,26.1164687 C141.803103,27.4799774 143.78019,29.369411 145.202135,31.7847694 C146.62408,34.2001278 147.335052,36.9466241 147.335052,40.0242581 C147.335052,43.1018922 146.62408,45.8581278 145.202135,48.2929649 C143.78019,50.727802 141.803103,52.6269749 139.270872,53.9904837 C136.738641,55.3539925 133.875273,56.0357469 130.680767,56.0357469 C127.525218,56.0357469 124.681328,55.3539925 122.149098,53.9904837 C119.616867,52.6269749 117.639779,50.727802 116.217834,48.2929649 C114.79589,45.8581278 114.084917,43.1018922 114.084917,40.0242581 C114.084917,36.9466241 114.79589,34.2001278 116.217834,31.7847694 C117.639779,29.369411 119.616867,27.4799774 122.149098,26.1164687 C124.681328,24.7529599 127.525218,24.0712055 130.680767,24.0712055 Z M165.116896,24.0712055 C169.713868,24.0712055 173.229773,25.1717519 175.66461,27.3728446 C178.099447,29.5739373 179.316866,32.8950551 179.316866,37.336198 L179.316866,37.336198 L179.316866,55.6266942 L172.421407,55.6266942 L172.421407,51.8283484 L172.237138,52.0967648 C171.353585,53.3293767 170.139153,54.2820149 168.593843,54.9546792 C166.938154,55.675391 164.941587,56.0357469 162.604144,56.0357469 C160.2667,56.0357469 158.221437,55.6364336 156.468354,54.837807 C154.715272,54.0391805 153.361502,52.9288947 152.407046,51.5069499 C151.45259,50.085005 150.975362,48.4780125 150.975362,46.6859724 C150.975362,43.8810401 152.017472,41.6312506 154.101693,39.936604 C156.185913,38.2419574 159.468074,37.3946341 163.948174,37.3946341 L163.948174,37.3946341 L172.012354,37.3946341 L172.012354,36.9271454 L172.00746,36.6037016 C171.945469,34.5792807 171.294564,33.0119273 170.054745,31.9016416 C168.749673,30.7329198 166.811542,30.1485589 164.240354,30.1485589 C162.487272,30.1485589 160.763407,30.4212607 159.06876,30.9666642 C157.374114,31.5120677 155.942429,32.2717368 154.773708,33.2456717 L154.773708,33.2456717 L151.910339,27.9279875 L152.266024,27.6653232 C153.829289,26.5464907 155.678076,25.6795893 157.812384,25.064619 C160.110871,24.4023434 162.545708,24.0712055 165.116896,24.0712055 Z M255.353541,24.0712055 C257.496198,24.0712055 259.638855,24.3146892 261.781511,24.8016566 C263.924168,25.2886241 265.677251,25.9411604 267.04076,26.7592657 L267.04076,26.7592657 L264.235827,32.3106942 L263.835978,32.0827935 C261.287873,30.6764316 258.440915,29.9732506 255.295105,29.9732506 C253.152449,29.9732506 251.525978,30.2946491 250.415692,30.9374461 C249.305406,31.5802431 248.750263,32.4275664 248.750263,33.479416 C248.750263,34.6481378 249.344364,35.4759825 250.532564,35.9629499 C251.720765,36.4499173 253.561501,36.9076667 256.054775,37.336198 C258.548048,37.7257719 260.593311,38.173782 262.190564,38.6802281 C263.787817,39.1866742 265.161065,40.0437368 266.310308,41.251416 C267.459552,42.4590952 268.034173,44.1732206 268.034173,46.393792 C268.034173,49.3155965 266.768058,51.6530401 264.235827,53.4061228 C261.703597,55.1592055 258.255867,56.0357469 253.892639,56.0357469 C251.360409,56.0357469 248.886614,55.704609 246.471256,55.0423333 C244.055897,54.3800576 242.127506,53.5424737 240.686083,52.5295815 L240.686083,52.5295815 L243.491015,46.9781529 L243.847516,47.2080421 C245.176261,48.0368336 246.742334,48.7101337 248.545737,49.2279424 C250.513085,49.7928246 252.451216,50.0752657 254.360128,50.0752657 C258.723356,50.0752657 260.90497,48.9260226 260.90497,46.6275363 C260.90497,45.5367293 260.349827,44.7770602 259.239541,44.3485288 C258.129256,43.9199975 256.346955,43.5109449 253.892639,43.1213709 C251.321451,42.731797 249.227491,42.283787 247.61076,41.7773409 C245.994028,41.2708947 244.591562,40.384614 243.403361,39.1184987 C242.215161,37.8523835 241.62106,36.0895614 241.62106,33.8300326 C241.62106,30.8692707 242.857958,28.502609 245.331752,26.7300476 C247.805547,24.9574862 251.146143,24.0712055 255.353541,24.0712055 Z M113.048324,24.0712055 L113.048324,31.0251003 L112.681346,30.9619893 C112.20139,30.8871911 111.758834,30.849792 111.353678,30.849792 C108.509788,30.849792 106.289216,31.6776366 104.691963,33.3333258 C103.09471,34.989015 102.296084,37.3751554 102.296084,40.4917469 L102.296084,40.4917469 L102.296084,55.6266942 L94.9915723,55.6266942 L94.9915723,24.4218221 L101.945467,24.4218221 L101.945467,28.9798371 L102.119537,28.7180912 C104.250384,25.6201674 107.893313,24.0712055 113.048324,24.0712055 L113.048324,24.0712055 Z M224.598215,24.0712055 C228.532911,24.0712055 231.649503,25.2107093 233.947989,27.4897168 C236.246475,29.7687243 237.395718,33.1872356 237.395718,37.7452506 L237.395718,37.7452506 L237.395718,55.6266942 L230.091207,55.6266942 L230.091207,38.6802281 L230.087099,38.2952257 C230.032329,35.7590198 229.429859,33.8323515 228.279688,32.5152206 C227.072009,31.1322331 225.338405,30.4407393 223.078876,30.4407393 C220.62456,30.4407393 218.657212,31.2491053 217.176831,32.8658371 C215.69645,34.4825689 214.95626,36.7907945 214.95626,39.7905138 L214.95626,39.7905138 L214.95626,55.6266942 L207.651748,55.6266942 L207.651748,38.6802281 L207.647641,38.2952257 C207.592871,35.7590198 206.9904,33.8323515 205.84023,32.5152206 C204.63255,31.1322331 202.898946,30.4407393 200.639418,30.4407393 C198.146144,30.4407393 196.169057,31.2393659 194.708154,32.836619 C193.247252,34.4338722 192.516801,36.7518371 192.516801,39.7905138 L192.516801,39.7905138 L192.516801,55.6266942 L185.21229,55.6266942 L185.21229,24.4218221 L192.166185,24.4218221 L192.166185,28.3954762 L192.421097,28.1000162 C193.545097,26.8416526 194.921029,25.868811 196.548891,25.1814912 C198.301974,24.4413008 200.249844,24.0712055 202.3925,24.0712055 C204.729944,24.0712055 206.804425,24.5094762 208.615944,25.3860175 C210.427463,26.2625589 211.859147,27.5578922 212.910997,29.2720175 C214.196591,27.635807 215.85228,26.3599524 217.878064,25.4444536 C219.903849,24.5289549 222.143899,24.0712055 224.598215,24.0712055 Z M172.012354,42.2448296 L164.474099,42.2448296 L164.162488,42.2474227 C160.16283,42.3148433 158.163001,43.6969664 158.163001,46.393792 C158.163001,47.7183434 158.688926,48.770193 159.740775,49.5493409 C160.792625,50.3284887 162.253527,50.7180627 164.123482,50.7180627 C165.95448,50.7180627 167.580951,50.2992707 169.002896,49.4616867 C170.42484,48.6241028 171.427993,47.4261629 172.012354,45.8678672 L172.012354,45.8678672 L172.012354,42.2448296 Z M130.680767,30.2654311 C127.992707,30.2654311 125.781874,31.1614511 124.04827,32.9534912 C122.314666,34.7455313 121.447864,37.1024536 121.447864,40.0242581 C121.447864,42.9460627 122.314666,45.302985 124.04827,47.0950251 C125.781874,48.8870652 127.992707,49.7830852 130.680767,49.7830852 C133.368827,49.7830852 135.589398,48.8870652 137.342481,47.0950251 C139.095564,45.302985 139.972105,42.9460627 139.972105,40.0242581 C139.972105,37.1024536 139.095564,34.7455313 137.342481,32.9534912 C135.589398,31.1614511 133.368827,30.2654311 130.680767,30.2654311 Z" id="Combined-Shape" fill="#FFFFFF"></path>
        </g>
    </g>
</svg>