<?xml version="1.0" encoding="UTF-8"?>
<svg width="198px" height="32px" viewBox="0 0 198 32" version="1.1" xmlns="http://www.w3.org/2000/svg" xmlns:xlink="http://www.w3.org/1999/xlink">
    <title>Logo/telefonia/roams/logo/roams_principal</title>
    <defs>
        <path d="M16.056872,0 C24.9248162,0 32.1137441,7.15629454 32.1137441,15.983848 C32.1137441,24.8114014 24.9248162,31.967696 16.056872,31.967696 C7.1890642,31.967696 -1.0052836e-12,24.8114014 -1.0052836e-12,15.983848 C-1.0052836e-12,7.15629454 7.1890642,0 16.056872,0 Z M13.4414025,6.90505599 C13.0883919,5.69175433 12.0669925,4.6149983 10.0937325,5.0149983 C8.13301663,5.41269087 6.85964213,7.47852053 7.09130111,9.25184934 C7.27441943,10.6519172 8.26800332,12.2027825 9.85048372,13.0246352 C9.75640209,13.1193756 9.6621841,13.2185952 9.56782976,13.3222939 C8.29540971,14.7214116 6.07276513,15.8572107 3.84575734,16.1746861 C3.25795164,16.258568 3.33185345,16.1775365 3.24227136,17.0133695 C3.15473454,17.8335935 3.06747041,17.9077027 3.41952662,17.820699 C4.573322,17.5351205 8.64078477,16.8238887 11.313385,13.9269766 C11.4331005,13.8063115 11.5439532,13.6906685 11.647443,13.5785545 C12.6777051,13.7201222 13.9015845,13.6599932 15.2953562,13.344961 C15.1842308,13.5102816 15.070242,13.6845606 14.9537989,13.8680692 C14.2825469,14.926773 13.5784345,15.8619613 13.0780293,16.8856464 C11.9665025,19.1587377 10.7015817,21.6299966 12.919454,23.8724126 C13.6592902,24.6194774 14.7491373,25.6377333 16.4541965,26.2391585 C18.705202,27.0345436 23.1481732,25.6667798 27.7212225,21.1896844 C28.011512,20.9058704 28.0074215,20.886868 27.6454118,20.6967085 C27.625641,20.6868001 26.5498379,20.1581269 26.0292529,19.9085171 C25.529393,19.6684086 25.0236701,19.4380726 24.5138567,19.2187309 C24.4414548,19.1875127 24.3391921,19.2709874 24.2801525,19.3274516 C21.2440426,22.2259925 17.4751868,23.7643705 14.9014405,23.6507635 C14.8328563,23.5030879 14.7753165,23.3461826 14.74941,23.1834408 C14.1610589,19.2960977 18.5156752,14.0294537 21.820804,10.732813 C22.0744154,10.47981 22.2215372,10.2086189 22.0485088,9.87322701 C22.0043313,9.78785205 21.5331051,8.90627757 21.3157628,8.56613505 C21.1070107,8.23902273 20.9083485,7.89779437 20.6492831,7.61330166 C20.457302,7.40156091 20.1491506,7.317679 19.8170015,7.40549712 C19.4237675,7.50987445 16.3032569,9.38948083 13.4296764,9.96063794 L13.4296764,9.96063794 L13.4387917,9.90065137 C13.4911784,9.56059124 13.7354566,7.91594105 13.4414025,6.90505599 Z M8.95374938,7.22910078 C8.96970235,7.16042077 9.63563672,7.11128605 9.92865329,7.17942314 C10.7577988,7.37351883 11.241024,8.11719036 11.1358979,9.70741771 C11.1356252,9.71406854 11.119945,9.93327452 11.1110822,10.0649338 C10.6556726,9.99028164 10.236532,9.84342043 9.87070446,9.60507635 C9.37125368,9.27986427 8.73586176,8.17908381 8.95374938,7.22910078 Z" id="path-1"></path>
        <radialGradient cx="70.4109219%" cy="99.7139689%" fx="70.4109219%" fy="99.7139689%" r="116.623489%" gradientTransform="translate(0.704109,0.997140),scale(1.000000,0.669676),rotate(-90.000000),translate(-0.704109,-0.997140)" id="radialGradient-3">
            <stop stop-color="#000000" offset="0%"></stop>
            <stop stop-color="#000000" stop-opacity="0" offset="100%"></stop>
        </radialGradient>
        <radialGradient cx="75.0628264%" cy="0%" fx="75.0628264%" fy="0%" r="126.411469%" gradientTransform="translate(0.750628,0.000000),scale(0.834212,1.000000),rotate(-35.556561),scale(1.000000,0.140904),translate(-0.750628,-0.000000)" id="radialGradient-4">
            <stop stop-color="#000000" offset="0%"></stop>
            <stop stop-color="#000000" stop-opacity="0" offset="100%"></stop>
        </radialGradient>
        <radialGradient cx="77.6531779%" cy="7.30732851%" fx="77.6531779%" fy="7.30732851%" r="43.7371593%" gradientTransform="translate(0.776532,0.073073),scale(0.834212,1.000000),rotate(-30.713164),scale(1.000000,0.211512),translate(-0.776532,-0.073073)" id="radialGradient-5">
            <stop stop-color="#000000" offset="0%"></stop>
            <stop stop-color="#000000" offset="32.105152%"></stop>
            <stop stop-color="#000000" offset="63.4396115%"></stop>
            <stop stop-color="#000000" stop-opacity="0" offset="100%"></stop>
        </radialGradient>
        <radialGradient cx="54.8018443%" cy="8.7196091%" fx="54.8018443%" fy="8.7196091%" r="49.3395173%" gradientTransform="translate(0.548018,0.087196),scale(0.475975,1.000000),rotate(66.411144),scale(1.000000,3.889900),translate(-0.548018,-0.087196)" id="radialGradient-6">
            <stop stop-color="#000000" offset="0%"></stop>
            <stop stop-color="#000000" stop-opacity="0" offset="100%"></stop>
        </radialGradient>
        <linearGradient x1="27.8916606%" y1="8.97315251%" x2="62.4177133%" y2="59.8104274%" id="linearGradient-7">
            <stop stop-color="#000000" offset="0%"></stop>
            <stop stop-color="#000000" stop-opacity="0.01" offset="99.9234586%"></stop>
        </linearGradient>
        <linearGradient x1="64.1069575%" y1="110.243058%" x2="51.8129139%" y2="49.6769611%" id="linearGradient-8">
            <stop stop-color="#000000" offset="0%"></stop>
            <stop stop-color="#000000" stop-opacity="0" offset="100%"></stop>
        </linearGradient>
    </defs>
    <g id="Logo/telefonia/roams/logo/roams_principal" stroke="none" stroke-width="1" fill="none" fill-rule="evenodd">
        <g id="Logo-Roams/Gris/Horizontal">
            <g id="Group">
                <mask id="mask-2" fill="white">
                    <use xlink:href="#path-1"></use>
                </mask>
                <use id="Mask" fill="#000000" xlink:href="#path-1"></use>
                <path d="M12.2409216,22.3253848 C12.4378113,22.6290156 12.674788,22.9055001 12.9911204,23.1157478 C13.4919347,23.4416386 14.1450521,23.6172748 14.9012503,23.6509362 C14.8325298,23.5036677 14.7753991,23.3460838 14.7492199,23.1837492 C14.4987446,21.5260634 15.146408,19.6178177 16.2283468,17.7182589 L13.0782482,16.8862263 C12.4309938,18.2091988 11.7326081,19.5990868 11.6982478,20.9721442 C11.6953845,21.0872443 11.7911023,21.6316623 12.2409216,22.3253848" id="Mask" fill="url(#radialGradient-3)" opacity="0.6"></path>
                <path d="M15.8321132,18.4536508 C17.1836163,15.7881605 19.3953529,13.1894499 21.4096544,11.1473732 C21.6085893,10.9452694 21.5960451,10.8339698 21.3418883,10.9542276 C20.9370646,11.145473 19.7161849,11.7053644 19.7161849,11.7053644 C18.1020713,12.5143227 16.6222626,13.0451676 15.2953024,13.3449979 C15.183768,13.5104543 15.0701882,13.6845975 14.9537452,13.8681062 C14.2826295,14.9268099 13.5785171,15.8618625 13.0783845,16.8851404 C12.8832674,17.2845975 12.6828326,17.6902982 12.4976691,18.0992565 L15.8321132,18.4536508 Z" id="Mask" fill="url(#radialGradient-4)" opacity="0.9"></path>
                <path d="M15.8321132,18.4536508 C17.1836163,15.7881605 19.3953529,13.1894499 21.4096544,11.1473732 C21.6085893,10.9452694 21.5960451,10.8339698 21.3418883,10.9542276 C20.9370646,11.145473 19.7161849,11.7053644 19.7161849,11.7053644 C18.1020713,12.5143227 16.6222626,13.0451676 15.2953024,13.3449979 C15.183768,13.5104543 15.0701882,13.6845975 14.9537452,13.8681062 C14.2826295,14.9268099 13.5785171,15.8618625 13.0783845,16.8851404 C12.8832674,17.2845975 12.6828326,17.6902982 12.4976691,18.0992565 L15.8321132,18.4536508 Z" id="Mask-Copy" fill="url(#radialGradient-5)" opacity="0.17"></path>
                <path d="M9.85048449,13.0246352 C9.85035417,13.0247663 9.85027701,13.0248439 9.85025301,13.024868 C9.75611263,13.1195382 9.66224339,13.2186802 9.56728513,13.3224296 C8.71359654,14.2611469 7.43204103,15.0815066 6.00799955,15.6153376 C5.81233702,15.6886325 5.61394748,15.7564981 5.41405809,15.8190702 C5.34083803,15.8694265 9.75203965,14.486868 11.2869338,13.5066169 C11.2869338,13.5066169 11.2843432,13.5059382 11.283116,13.5058025 C11.1324491,13.4813709 10.97551,13.4483882 10.8159802,13.4064472 C10.4887799,13.3207113 10.1561314,13.1979607 9.85097821,13.0249153" id="Mask" fill="url(#radialGradient-6)"></path>
                <path d="M11.136485,5.37309429 C9.33298095,5.2311194 8.96156301,7.18795686 8.95406375,7.22731892 L8.9547455,7.22786185 C8.97819773,7.15999622 9.63745094,7.11167589 9.92869497,7.17954152 C10.715572,7.3635931 11.1899343,8.04442106 11.1464386,9.47272102 L11.1465749,9.47272102 L13.0794753,9.57194057 C13.0804298,9.56135353 13.8715337,5.58836405 11.136485,5.37309429" id="Mask" fill="url(#linearGradient-7)" opacity="0.4"></path>
                <path d="M11.8156454,5.51900538 L9.92869497,7.17954152 C10.0475923,7.19392903 10.1697621,7.23817742 10.2887958,7.31296534 C10.8928272,7.62731892 11.2247036,8.36474681 11.1358033,9.70753609 C11.1355306,9.71405119 11.1198503,9.93339289 11.1111239,10.0650522 C11.1109875,10.0649165 11.1109875,10.0649165 11.1108512,10.0649165 L11.1108512,10.0650522 C11.6462984,10.1528703 12.4667176,10.0821543 12.9915295,10.0202609 C12.9915295,10.0202609 13.8847596,6.44957885 11.8156454,5.51900538" id="Mask" fill="url(#linearGradient-8)" opacity="0.65"></path>
            </g>
            <path d="M52.1965594,9.67619048 C53.4706094,9.67619048 54.6125933,9.94685714 55.6225111,10.4881905 C56.6324288,11.0295238 57.4209415,11.7796571 57.9880492,12.7385905 C58.5551568,13.6975238 58.8387107,14.7879238 58.8387107,16.0097905 C58.8387107,17.2316571 58.5551568,18.3259238 57.9880492,19.2925905 C57.4209415,20.2592571 56.6324288,21.0132571 55.6225111,21.5545905 C54.6125933,22.0959238 53.4706094,22.3665905 52.1965594,22.3665905 C50.9380465,22.3665905 49.8038312,22.0959238 48.7939134,21.5545905 C47.7839957,21.0132571 46.995483,20.2592571 46.4283754,19.2925905 C45.8612677,18.3259238 45.5777139,17.2316571 45.5777139,16.0097905 C45.5777139,14.7879238 45.8612677,13.6975238 46.4283754,12.7385905 C46.995483,11.7796571 47.7839957,11.0295238 48.7939134,10.4881905 C49.8038312,9.94685714 50.9380465,9.67619048 52.1965594,9.67619048 Z M65.9305604,9.67619048 C67.7639496,9.67619048 69.1661815,10.1131238 70.1372563,10.9869905 C71.108331,11.8608571 71.5938684,13.1793905 71.5938684,14.9425905 L71.5938684,14.9425905 L71.5938684,22.2041905 L68.8437847,22.2041905 L68.8437847,20.6961905 L68.7190555,20.871909 C68.3714827,21.3278892 67.9042159,21.6830497 67.3172552,21.9373905 C66.6569244,22.2235238 65.8606431,22.3665905 64.9284113,22.3665905 C63.9961795,22.3665905 63.1804768,22.2080571 62.4813029,21.8909905 C61.7821291,21.5739238 61.2422116,21.1331238 60.8615503,20.5685905 C60.4808889,20.0040571 60.2905583,19.3660571 60.2905583,18.6545905 C60.2905583,17.5409905 60.7061783,16.6477905 61.5374183,15.9749905 C62.3686583,15.3021905 63.677667,14.9657905 65.4644446,14.9657905 L65.4644446,14.9657905 L68.6806441,14.9657905 L68.6806441,14.7801905 L68.6752223,14.567846 C68.6354622,13.804609 68.3770214,13.2103238 67.8999,12.7849905 C67.379404,12.3209905 66.6064285,12.0889905 65.5809735,12.0889905 C64.8817997,12.0889905 64.1942788,12.1972571 63.5184108,12.4137905 C62.8425427,12.6303238 62.2715508,12.9319238 61.8054349,13.3185905 L61.8054349,13.3185905 L60.663451,11.2073905 L60.9143524,11.027228 C61.5142339,10.6195363 62.2152285,10.3006571 63.0173362,10.0705905 C63.9340308,9.80765714 64.9051055,9.67619048 65.9305604,9.67619048 Z M101.919222,9.67619048 C102.773768,9.67619048 103.628314,9.77285714 104.482859,9.96619048 C105.337405,10.1595238 106.036579,10.4185905 106.580381,10.7433905 L106.580381,10.7433905 L105.461703,12.9473905 L105.194819,12.7991683 C104.206157,12.2793164 103.106523,12.0193905 101.895916,12.0193905 C101.041371,12.0193905 100.392693,12.1469905 99.9498825,12.4021905 C99.5070724,12.6573905 99.2856674,12.9937905 99.2856674,13.4113905 C99.2856674,13.8753905 99.5226096,14.2040571 99.9964941,14.3973905 C100.470379,14.5907238 101.204511,14.7724571 102.198892,14.9425905 C103.193272,15.0972571 104.008975,15.2751238 104.646,15.4761905 C105.283025,15.6772571 105.830711,16.0175238 106.289058,16.4969905 C106.747406,16.9764571 106.976579,17.6569905 106.976579,18.5385905 C106.976579,19.6985905 106.471621,20.6265905 105.461703,21.3225905 C104.451785,22.0185905 103.076743,22.3665905 101.336577,22.3665905 C100.32666,22.3665905 99.3400476,22.2351238 98.3767414,21.9721905 C97.4134353,21.7092571 96.6443441,21.3767238 96.0694678,20.9745905 L96.0694678,20.9745905 L97.1881459,18.7705905 L97.4347593,18.9251782 C97.9417792,19.2253578 98.5315585,19.4715619 99.2040971,19.6637905 C99.9887255,19.8880571 100.761701,20.0001905 101.523024,20.0001905 C103.26319,20.0001905 104.133273,19.5439238 104.133273,18.6313905 C104.133273,18.1983238 103.911867,17.8967238 103.469057,17.7265905 C103.026247,17.5564571 102.315421,17.3940571 101.336577,17.2393905 C100.311122,17.0847238 99.475998,16.9068571 98.8312044,16.7057905 C98.1864108,16.5047238 97.6270717,16.1528571 97.1531872,15.6501905 C96.6793028,15.1475238 96.4423605,14.4476571 96.4423605,13.5505905 C96.4423605,12.3751238 96.9356665,11.4355238 97.9222784,10.7317905 C98.9088904,10.0280571 100.241205,9.67619048 101.919222,9.67619048 Z M45.1642943,9.67619048 L45.1642943,12.4369905 L44.9822178,12.4065405 C44.8045112,12.3804405 44.639914,12.3673905 44.4884263,12.3673905 C43.354211,12.3673905 42.4685908,12.6960571 41.8315658,13.3533905 C41.1945408,14.0107238 40.8760283,14.9580571 40.8760283,16.1953905 L40.8760283,16.1953905 L40.8760283,22.2041905 L37.962804,22.2041905 L37.962804,9.81539048 L40.7361935,9.81539048 L40.7361935,11.6249905 L40.8603854,11.4438095 C41.7172212,10.2653968 43.1518575,9.67619048 45.1642943,9.67619048 L45.1642943,9.67619048 Z M89.6532182,9.67619048 C91.222475,9.67619048 92.4654506,10.1285905 93.3821452,11.0333905 C94.2988398,11.9381905 94.7571871,13.2953905 94.7571871,15.1049905 L94.7571871,15.1049905 L94.7571871,22.2041905 L91.8439628,22.2041905 L91.8439628,15.4761905 L91.8389456,15.2110821 C91.8021526,14.2593988 91.5629985,13.5319016 91.1214832,13.0285905 C90.6398301,12.4795238 89.9484249,12.2049905 89.0472675,12.2049905 C88.0684242,12.2049905 87.2837958,12.5259238 86.6933823,13.1677905 C86.1029689,13.8096571 85.8077622,14.7260571 85.8077622,15.9169905 L85.8077622,15.9169905 L85.8077622,22.2041905 L82.8945379,22.2041905 L82.8945379,15.4761905 L82.8895207,15.2110821 C82.8527277,14.2593988 82.6135736,13.5319016 82.1720583,13.0285905 C81.6904052,12.4795238 80.999,12.2049905 80.0978426,12.2049905 C79.1034621,12.2049905 78.3149494,12.5220571 77.7323045,13.1561905 C77.1496597,13.7903238 76.8583373,14.7105905 76.8583373,15.9169905 L76.8583373,15.9169905 L76.8583373,22.2041905 L73.945113,22.2041905 L73.945113,9.81539048 L76.7185025,9.81539048 L76.7185025,11.3929905 L76.8987583,11.190353 C77.3321004,10.7319113 77.85466,10.3741238 78.4664371,10.1169905 C79.1656109,9.82312381 79.9424707,9.67619048 80.7970165,9.67619048 C81.7292482,9.67619048 82.5566039,9.85019048 83.2790835,10.1981905 C84.0015631,10.5461905 84.5725551,11.0604571 84.9920594,11.7409905 C85.5047868,11.0913905 86.1651177,10.5848571 86.9730519,10.2213905 C87.7809861,9.85792381 88.6743748,9.67619048 89.6532182,9.67619048 Z M68.6806441,16.8913905 L65.6741967,16.8913905 L65.460083,16.8945043 C63.9248083,16.9401733 63.157171,17.4882021 63.157171,18.5385905 C63.157171,19.0644571 63.3669231,19.4820571 63.7864274,19.7913905 C64.2059317,20.1007238 64.7885765,20.2553905 65.5343619,20.2553905 C66.2646102,20.2553905 66.9132881,20.0891238 67.4803957,19.7565905 C68.0475034,19.4240571 68.4475862,18.9484571 68.6806441,18.3297905 L68.6806441,18.3297905 L68.6806441,16.8913905 Z M52.1965594,12.1353905 C51.1244928,12.1353905 50.242757,12.4911238 49.5513518,13.2025905 C48.8599465,13.9140571 48.5142439,14.8497905 48.5142439,16.0097905 C48.5142439,17.1697905 48.8599465,18.1055238 49.5513518,18.8169905 C50.242757,19.5284571 51.1244928,19.8841905 52.1965594,19.8841905 C53.2686259,19.8841905 54.1542461,19.5284571 54.8534199,18.8169905 C55.5525937,18.1055238 55.9021806,17.1697905 55.9021806,16.0097905 C55.9021806,14.8497905 55.5525937,13.9140571 54.8534199,13.2025905 C54.1542461,12.4911238 53.2686259,12.1353905 52.1965594,12.1353905 Z" id="Combined-Shape" fill="#000000"></path>
        </g>
        <path d="M129.856,22 L129.856,12.56 L133.568,12.56 L133.568,10.8 L124.064,10.8 L124.064,12.56 L127.776,12.56 L127.776,22 L129.856,22 Z M138.08,22.112 C138.816,22.112 139.477333,21.9946667 140.064,21.76 C140.650667,21.5253333 141.136,21.1786667 141.52,20.72 L141.52,20.72 L140.448,19.488 C139.84,20.1066667 139.066667,20.416 138.128,20.416 C137.392,20.416 136.776,20.232 136.28,19.864 C135.784,19.496 135.477333,18.9973333 135.36,18.368 L135.36,18.368 L142.064,18.368 C142.085333,18.112 142.096,17.9146667 142.096,17.776 C142.096,16.9013333 141.912,16.1306667 141.544,15.464 C141.176,14.7973333 140.664,14.28 140.008,13.912 C139.352,13.544 138.608,13.36 137.776,13.36 C136.933333,13.36 136.176,13.5466667 135.504,13.92 C134.832,14.2933333 134.306667,14.8133333 133.928,15.48 C133.549333,16.1466667 133.36,16.896 133.36,17.728 C133.36,18.5706667 133.554667,19.3253333 133.944,19.992 C134.333333,20.6586667 134.885333,21.1786667 135.6,21.552 C136.314667,21.9253333 137.141333,22.112 138.08,22.112 Z M140.192,17.04 L135.344,17.04 C135.44,16.4106667 135.709333,15.9066667 136.152,15.528 C136.594667,15.1493333 137.136,14.96 137.776,14.96 C138.426667,14.96 138.970667,15.152 139.408,15.536 C139.845333,15.92 140.106667,16.4213333 140.192,17.04 L140.192,17.04 Z M146.016,22 L146.016,10.128 L144.016,10.128 L144.016,22 L146.016,22 Z M152.656,22.112 C153.392,22.112 154.053333,21.9946667 154.64,21.76 C155.226667,21.5253333 155.712,21.1786667 156.096,20.72 L156.096,20.72 L155.024,19.488 C154.416,20.1066667 153.642667,20.416 152.704,20.416 C151.968,20.416 151.352,20.232 150.856,19.864 C150.36,19.496 150.053333,18.9973333 149.936,18.368 L149.936,18.368 L156.64,18.368 C156.661333,18.112 156.672,17.9146667 156.672,17.776 C156.672,16.9013333 156.488,16.1306667 156.12,15.464 C155.752,14.7973333 155.24,14.28 154.584,13.912 C153.928,13.544 153.184,13.36 152.352,13.36 C151.509333,13.36 150.752,13.5466667 150.08,13.92 C149.408,14.2933333 148.882667,14.8133333 148.504,15.48 C148.125333,16.1466667 147.936,16.896 147.936,17.728 C147.936,18.5706667 148.130667,19.3253333 148.52,19.992 C148.909333,20.6586667 149.461333,21.1786667 150.176,21.552 C150.890667,21.9253333 151.717333,22.112 152.656,22.112 Z M154.768,17.04 L149.92,17.04 C150.016,16.4106667 150.285333,15.9066667 150.728,15.528 C151.170667,15.1493333 151.712,14.96 152.352,14.96 C153.002667,14.96 153.546667,15.152 153.984,15.536 C154.421333,15.92 154.682667,16.4213333 154.768,17.04 L154.768,17.04 Z M160.864,22 L160.864,15.12 L163.152,15.12 L163.152,13.52 L160.8,13.52 L160.8,13.008 C160.8,12.0906667 161.221333,11.632 162.064,11.632 C162.458667,11.632 162.826667,11.7493333 163.168,11.984 L163.168,11.984 L163.728,10.48 C163.290667,10.1706667 162.688,10.016 161.92,10.016 C160.949333,10.016 160.197333,10.28 159.664,10.808 C159.130667,11.336 158.864,12.0586667 158.864,12.976 L158.864,12.976 L158.864,13.52 L157.456,13.52 L157.456,15.12 L158.864,15.12 L158.864,22 L160.864,22 Z M168.208,22.112 C169.082667,22.112 169.866667,21.9253333 170.56,21.552 C171.253333,21.1786667 171.794667,20.6586667 172.184,19.992 C172.573333,19.3253333 172.768,18.5706667 172.768,17.728 C172.768,16.8853333 172.573333,16.1333333 172.184,15.472 C171.794667,14.8106667 171.253333,14.2933333 170.56,13.92 C169.866667,13.5466667 169.082667,13.36 168.208,13.36 C167.344,13.36 166.565333,13.5466667 165.872,13.92 C165.178667,14.2933333 164.637333,14.8106667 164.248,15.472 C163.858667,16.1333333 163.664,16.8853333 163.664,17.728 C163.664,18.5706667 163.858667,19.3253333 164.248,19.992 C164.637333,20.6586667 165.178667,21.1786667 165.872,21.552 C166.565333,21.9253333 167.344,22.112 168.208,22.112 Z M168.208,20.4 C167.472,20.4 166.866667,20.1546667 166.392,19.664 C165.917333,19.1733333 165.68,18.528 165.68,17.728 C165.68,16.928 165.917333,16.2826667 166.392,15.792 C166.866667,15.3013333 167.472,15.056 168.208,15.056 C168.944,15.056 169.552,15.3013333 170.032,15.792 C170.512,16.2826667 170.752,16.928 170.752,17.728 C170.752,18.528 170.512,19.1733333 170.032,19.664 C169.552,20.1546667 168.944,20.4 168.208,20.4 Z M176.688,22 L176.688,17.68 C176.688,16.848 176.901333,16.2106667 177.328,15.768 C177.754667,15.3253333 178.336,15.104 179.072,15.104 C179.722667,15.104 180.224,15.2933333 180.576,15.672 C180.928,16.0506667 181.104,16.6133333 181.104,17.36 L181.104,17.36 L181.104,22 L183.104,22 L183.104,17.104 C183.104,15.8666667 182.778667,14.9333333 182.128,14.304 C181.477333,13.6746667 180.613333,13.36 179.536,13.36 C178.906667,13.36 178.341333,13.4613333 177.84,13.664 C177.338667,13.8666667 176.922667,14.1653333 176.592,14.56 L176.592,14.56 L176.592,13.456 L174.688,13.456 L174.688,22 L176.688,22 Z M187.04,12.288 L189.824,10.096 L187.472,10.096 L185.312,12.288 L187.04,12.288 Z M187.648,22 L187.648,13.456 L185.648,13.456 L185.648,22 L187.648,22 Z M192.848,22.112 C193.488,22.112 194.034667,22.0133333 194.488,21.816 C194.941333,21.6186667 195.290667,21.3333333 195.536,20.96 L195.536,20.96 L195.536,22 L197.424,22 L197.424,16.992 C197.424,15.776 197.090667,14.8666667 196.424,14.264 C195.757333,13.6613333 194.794667,13.36 193.536,13.36 C192.832,13.36 192.165333,13.4506667 191.536,13.632 C190.906667,13.8133333 190.368,14.0746667 189.92,14.416 L189.92,14.416 L190.704,15.872 C191.024,15.6053333 191.416,15.3973333 191.88,15.248 C192.344,15.0986667 192.816,15.024 193.296,15.024 C194,15.024 194.530667,15.184 194.888,15.504 C195.245333,15.824 195.424,16.2826667 195.424,16.88 L195.424,16.88 L195.424,17.008 L193.216,17.008 C191.989333,17.008 191.090667,17.24 190.52,17.704 C189.949333,18.168 189.664,18.784 189.664,19.552 C189.664,20.0426667 189.794667,20.4826667 190.056,20.872 C190.317333,21.2613333 190.688,21.5653333 191.168,21.784 C191.648,22.0026667 192.208,22.112 192.848,22.112 Z M193.264,20.656 C192.752,20.656 192.352,20.5493333 192.064,20.336 C191.776,20.1226667 191.632,19.8346667 191.632,19.472 C191.632,18.7146667 192.208,18.336 193.36,18.336 L193.36,18.336 L195.424,18.336 L195.424,19.328 C195.264,19.7546667 194.989333,20.0826667 194.6,20.312 C194.210667,20.5413333 193.765333,20.656 193.264,20.656 Z" id="Telefonía" fill="#000000" fill-rule="nonzero" opacity="0.6"></path>
        <line x1="115.5" y1="4.5" x2="115.5" y2="27.5" id="Line" stroke="#000000" opacity="0.4" stroke-linecap="square"></line>
    </g>
</svg>