<?xml version="1.0" encoding="UTF-8"?>
<svg width="208px" height="66px" viewBox="0 0 208 66" version="1.1" xmlns="http://www.w3.org/2000/svg" xmlns:xlink="http://www.w3.org/1999/xlink">
    <title>simyo/logo/simyo_principal</title>
    <g id="simyo/logo/simyo_principal" stroke="none" stroke-width="1" fill="none" fill-rule="evenodd">
        <path d="M162.343384,16.0324232 C162.335824,21.9595434 162.358504,27.8885639 162.328264,33.815684 C162.309364,35.1877202 162.288574,36.5616567 162.150604,37.9298922 C162.039094,38.9408662 161.861434,39.9746441 161.364364,40.8734988 C160.867294,41.7932571 160.099954,42.5153814 159.393094,43.2698112 C158.202394,44.5069242 156.658264,45.3525697 155.032865,45.865658 C152.925515,46.5326728 150.725555,46.8082203 148.559615,47.2110896 C148.557725,50.1717992 148.563395,53.1344091 148.557725,56.097019 C148.572845,56.3421612 148.480235,56.6538149 148.727825,56.8153427 C150.141545,58.0581566 150.750125,60.1276128 150.239825,61.9424251 C149.738975,63.8731574 148.011515,65.4029207 146.040246,65.6480629 C144.097326,65.9426136 142.048566,64.9620448 141.037416,63.2707537 C139.950666,61.5433564 140.064066,59.1584459 141.309576,57.5431679 C141.536376,57.1992087 141.884136,56.9578672 142.126056,56.6291106 C142.148736,53.4897703 142.127946,50.3504299 142.135506,47.2110896 C139.752216,46.8709311 137.331127,46.5136696 135.097147,45.5673067 C133.793047,45.0162118 132.594787,44.2085728 131.615767,43.1766952 C130.782277,42.3139467 130.082977,41.3314776 129.449827,40.3129023 C128.852587,39.3038286 128.625788,38.1256258 128.553968,36.9683267 C128.349848,33.9905141 128.359298,31.0070006 128.315828,28.0253874 C128.300708,24.0289996 128.313938,20.0307114 128.308268,16.0343236 C130.735027,16.0324232 133.159897,16.0343236 135.586657,16.0343236 C135.597997,21.7429061 135.556417,27.4552893 135.615007,33.1657722 C135.664147,34.6366253 135.649027,36.1321827 136.021357,37.5669297 C136.193347,38.2586487 136.629937,38.8781554 137.244187,39.2449185 C137.949156,39.6762927 138.688146,40.0563582 139.464936,40.3395069 C140.487426,40.6625625 141.576066,40.6492602 142.638246,40.6853664 C144.620856,40.7100707 146.605355,40.7138713 148.586075,40.6758648 C149.754095,40.6359579 150.982595,40.6302569 152.042885,40.0677601 C152.846135,39.6325852 153.753335,39.2392175 154.265525,38.4372795 C154.764485,37.5992352 154.847645,36.5958625 154.945925,35.6437987 C155.133035,33.1106627 155.080115,30.5661247 155.104685,28.0272878 C155.099015,24.0289996 155.114135,20.0307114 155.110355,16.0343236 C157.520104,16.0324232 159.931744,16.0343236 162.343384,16.0324232 Z M193.561455,15.8847678 C195.077235,15.920874 196.604355,15.9189737 198.099345,16.2040228 C199.535745,16.5175767 200.934344,17.0116618 202.253564,17.6615736 C203.895974,18.476814 205.398524,19.6607177 206.375654,21.2379892 C207.131654,22.4617998 207.621164,23.8661415 207.747794,25.3046891 C207.940574,27.5964836 207.902774,29.89968 207.883874,32.1971755 C207.855524,33.7440417 207.830954,35.2890076 207.745904,36.8320732 C207.685424,37.7651338 207.613604,38.7152973 207.296084,39.6027501 C206.674274,41.2997422 205.629104,42.8523094 204.217274,43.9811037 C202.678814,45.2258179 200.813384,45.9802478 198.929055,46.5123393 C197.838525,46.7821858 196.708305,46.8429963 195.591315,46.9418133 C192.329175,47.1660519 189.055696,47.2382643 185.785996,47.2211613 C183.595486,47.1793541 181.372847,47.1907561 179.239037,46.626359 C177.432197,46.1645795 175.638587,45.5412722 174.060437,44.5321985 C172.525758,43.4547131 171.391758,41.8774416 170.597958,40.1937518 C169.968588,38.9015294 169.889208,37.4420782 169.779588,36.0339358 C169.611378,33.3677769 169.603818,30.6921164 169.717218,28.0240572 C169.787148,26.7584394 169.845738,25.4852202 170.108448,24.2424063 C170.584728,22.3800858 171.539178,20.6127816 172.966128,19.3129579 C174.434657,17.9561243 176.296307,17.1199804 178.188197,16.5441813 C180.478877,15.8011534 182.918866,15.9284753 185.294596,15.8714655 C188.048326,15.8543626 190.805836,15.8524623 193.561455,15.8847678 Z M53.3161,16.0333734 L53.3161,47.2082391 L53.3161,47.2082391 C50.8780002,47.2101394 48.4399005,47.2101394 46.0018008,47.2082391 L46.0018008,16.0333734 L46.0018008,16.0333734 L53.3161,16.0333734 L53.3161,16.0333734 Z M78.3803321,15.7070872 C81.5630918,15.7488944 84.8327914,15.7888013 87.8624611,16.8871904 C89.002131,17.3014617 90.0548608,17.907666 91.1359407,18.4454586 C92.6384905,17.7119323 94.1240304,16.9099943 95.7513202,16.490022 C98.1421699,15.8439108 100.63886,15.7602964 103.101529,15.7469941 C105.411109,15.7773993 107.724469,15.8078046 110.028379,15.995937 C111.838998,16.1365612 113.647728,16.5565334 115.259898,17.4173816 C117.148008,18.4226546 118.796088,19.9676205 119.733527,21.9173561 C120.028367,22.5235605 120.353447,23.1240638 120.498977,23.787278 C120.756017,24.9312749 120.812717,26.105677 120.878867,27.2724778 C121.003607,30.0944635 120.996047,32.9164493 121.013057,35.738435 L121.013057,47.2088092 L121.013057,47.2088092 L113.668518,47.2088092 L113.668518,47.2088092 L113.668238,34.9897061 C113.665998,32.9531889 113.660328,30.9166717 113.647728,28.8801545 C113.617488,27.627839 113.640168,26.3717228 113.522988,25.1232079 C113.479518,24.8552618 113.473848,24.5436082 113.279178,24.3345722 C112.776438,23.868992 112.432458,23.2494854 111.873018,22.8447157 C110.742799,21.9781666 109.268599,21.8451437 107.902129,21.7368251 C105.700279,21.6152041 103.492759,21.638008 101.28902,21.6798152 C100.10021,21.7292237 98.8622598,21.748227 97.75094,22.2328104 C97.23119,22.4608497 96.7095501,22.7059919 96.2748501,23.0765556 C95.8288102,23.4604217 95.5585402,24.0058156 95.4092302,24.5664121 C95.1332903,25.5868877 95.0690303,26.6491706 95.0085503,27.7000514 C94.8894803,30.3073002 94.9253903,32.9183496 94.9083803,35.5274987 L94.9083803,47.2088092 L87.5373811,47.2088092 L87.5373811,47.2088092 C87.5354911,41.1695698 87.5468311,35.1322306 87.5222611,29.0948915 C87.5033611,27.9109877 87.5014711,26.727084 87.4126411,25.5488812 C87.3653911,25.1251082 87.3294811,24.6747307 87.0894512,24.3079676 C86.5602512,23.5307338 85.9214313,22.7801046 85.0482514,22.3886372 C83.9955215,21.9078545 82.8237217,21.8071372 81.6840518,21.7273234 C79.875322,21.6266061 78.0609222,21.6456094 76.2503024,21.6684133 C75.0860625,21.6969182 73.9180427,21.742526 72.7670328,21.9420604 C71.8541629,22.1035882 70.924283,22.4019395 70.2287631,23.0480507 C69.5200131,23.7416701 68.8925332,24.6386245 68.8887532,25.6724024 C68.8018132,28.2416446 68.8982032,30.8146875 68.8679632,33.38583 C68.8509532,37.9922229 68.8641832,42.6024164 68.8585132,47.2088092 L61.563114,47.2088092 L61.563114,47.2088092 C61.593354,41.9220993 61.640604,36.633489 61.650054,31.3467791 C61.716204,28.6160091 61.617924,25.8548338 62.122554,23.1582697 C62.4211739,21.4650783 63.5287138,20.0702382 64.7477637,18.9262413 C66.2314135,17.5561055 68.1554333,16.7826724 70.1021331,16.3627001 C72.8180628,15.7831003 75.6114825,15.7070872 78.3803321,15.7070872 Z M25.7461061,15.9047213 C27.9196058,15.9636314 30.1479156,15.9693324 32.2269153,16.6952573 C33.9827251,17.2672558 35.7082949,18.3181366 36.5663549,20.02273 C37.2467548,21.2997498 37.2845548,22.7820049 37.2524248,24.1977486 C35.619465,24.1901473 33.9846151,24.2110509 32.3535453,24.1844463 C31.8394654,24.1597421 31.3064854,24.1749447 30.8150855,24.0058156 C30.3917255,23.8556897 30.3236856,23.3502027 30.0420756,23.0518514 C29.3219857,22.2385114 28.3467458,21.5847989 27.2448759,21.4878822 C25.9372323,21.3501085 24.6236824,21.3273936 23.3102249,21.3223088 L21.734504,21.3184339 C21.4720192,21.31712 21.2096341,21.3149524 20.9473966,21.3111518 L17.3656807,21.3079288 C15.574732,21.3099356 13.7839194,21.3252142 11.9944676,21.3890652 C10.9058277,21.4555766 9.78883786,21.4821812 8.74933798,21.8508447 C8.24470804,22.0180735 7.83457808,22.4171421 7.6493581,22.9188285 C7.26379815,23.9355035 7.10503816,25.0661981 7.33561814,26.1398829 C7.47736812,26.7688912 7.77409809,27.3959991 8.29762803,27.7950678 C8.70019798,28.1105221 9.22183793,28.1884355 9.71323787,28.2587476 C10.7565178,28.3841692 11.8073576,28.424076 12.8563075,28.4658832 C18.1823269,28.6312117 23.5121263,28.650215 28.8381457,28.8174437 C30.3747155,28.9067591 31.9698754,28.9086594 33.4024952,29.545269 C34.939065,30.1248688 36.4094849,31.0902349 37.2240748,32.5648887 C38.1520647,34.2390769 38.4280046,36.2002144 38.4280046,38.0929402 C38.3902046,40.3714324 37.7060247,42.7563429 36.0598349,44.3906242 C34.7689651,45.6163351 33.0736352,46.3574627 31.3310554,46.6368108 C28.9572157,47.0301785 26.545576,47.0434808 24.1490562,47.1232945 C19.6017168,47.2050086 15.0505973,47.2468158 10.5051478,47.0909889 C8.78713797,47.0510821 7.07668817,46.754631 5.45317835,46.1845329 C4.48171846,45.8367731 3.52537857,45.4034985 2.70889866,44.7630883 C2.05495873,44.2595016 1.59568878,43.5544802 1.20445883,42.8361566 C0.713058883,41.8878934 0.306708928,40.8845207 0.102588951,39.8317395 C-0.0542810311,39.0545057 0.0213189604,38.2563683 0.000528962784,37.4696329 C2.12677872,37.463932 4.25302848,37.4677326 6.38116825,37.4677326 C6.53803823,38.1423487 6.61363822,38.8682737 7.04266817,39.4402721 C7.86292808,40.578568 9.18025793,41.4584195 10.6147678,41.4451172 C13.7767374,41.5439342 16.9387071,41.5116286 20.1006767,41.4869244 C22.2911865,41.4527185 24.4835862,41.4337152 26.672206,41.3291972 C27.6644559,41.2626858 28.6680457,41.2170779 29.6300556,40.9472315 C30.1346856,40.8085076 30.6241955,40.5234586 30.8925755,40.0578784 C31.4822554,39.0906119 31.5691954,37.8896052 31.3839754,36.7931165 C31.2422254,35.9683745 30.8415455,35.0828221 30.0175056,34.7616669 C28.9307557,34.3302926 27.7400558,34.3017877 26.590936,34.2181733 C22.7580164,34.0471439 18.9213168,34.117456 15.0865073,34.0528449 C12.5331176,33.9939347 9.97594784,33.9768318 7.43011813,33.7620948 C5.8633083,33.5644608 4.27003848,33.1140833 2.99239863,32.1449165 C1.86028875,31.2840683 1.14964883,29.9899456 0.688488885,28.6673179 C0.263238933,27.2838798 0.363408922,25.814927 0.355848923,24.3877813 C0.38419892,23.0822566 0.459798911,21.753928 0.879378864,20.5073134 C1.16476883,19.6407643 1.69396877,18.8502282 2.41216869,18.2877314 C3.44410858,17.4610891 4.70662843,17.0050106 5.95024829,16.6059419 C6.8064182,16.3265939 7.6852681,16.1156576 8.584908,16.0453455 C10.8547977,15.8477114 13.1379175,15.8895186 15.4134772,15.8705154 C18.8589468,15.8629141 22.3025265,15.8572131 25.7461061,15.9047213 Z M185.716066,21.3140023 C184.325026,21.3444075 182.916976,21.2930987 181.542947,21.5534435 C180.684887,21.7548782 179.894867,22.1824518 179.150207,22.6442312 C178.178747,23.2580369 177.541817,24.2595093 177.078767,25.2894865 C176.685647,26.1807399 176.679977,27.1765113 176.638397,28.1323758 C176.596817,30.0612078 176.604377,31.9900398 176.627057,33.9188718 C176.659187,34.9868556 176.651627,36.075743 176.944577,37.1114213 C177.252647,38.0900897 177.761057,39.0231503 178.511387,39.7281717 C179.694527,40.8531653 181.316147,41.3719546 182.905636,41.5638876 C185.379646,41.8318337 187.874446,41.8413354 190.361686,41.8128305 C192.017325,41.7710233 193.684305,41.7292161 195.322935,41.4422667 C196.266045,41.2826392 197.212935,41.043198 198.059655,40.5814185 C198.751395,40.2051538 199.341075,39.6464576 199.779554,38.9927451 C200.259614,38.2706208 200.667854,37.4819851 200.809604,36.6173362 C200.991044,35.5512528 201.017504,34.466166 201.066644,33.3886805 C201.140354,31.4541476 201.191384,29.5082126 200.968364,27.5831813 C200.802044,26.251052 200.501534,24.8790159 199.711515,23.7711252 C199.065135,22.8532672 198.069105,22.2508635 197.033385,21.8764991 C195.889935,21.4565268 194.655765,21.4147196 193.455615,21.3596101 C190.873876,21.2854974 188.295916,21.306401 185.716066,21.3140023 Z M51.9269501,0.522333685 C53.11576,1.10953475 54.0569799,2.18321955 54.4784498,3.44693706 C54.9679598,4.86838171 54.7846298,6.50646365 53.9813799,7.77778247 C53.21971,9.01679572 51.9080501,9.89474683 50.4735403,10.1132844 C49.1373104,10.3299217 47.7217006,9.9764609 46.6425107,9.15361927 C45.4801608,8.28326947 44.7222709,6.8884294 44.6353309,5.43087853 C44.550281,4.26027705 44.8885909,3.06687164 45.5746608,2.1167081 C46.2720708,1.13803966 47.3229106,0.423516677 48.4871505,0.142268269 C49.6306004,-0.135179484 50.8723302,-0.00595724317 51.9269501,0.522333685 Z" id="Combined-Shape" fill="#FF5900"></path>
    </g>
</svg>