<svg xmlns="http://www.w3.org/2000/svg" width="237" height="60" viewBox="0 0 237 60"><g fill="none" fill-rule="evenodd" transform="translate(0 1)"><g fill="#000" fill-rule="nonzero" transform="translate(99)"><g transform="translate(0 18.913)"><polygon points=".576 8.55 .576 0 6.39 0 6.39 1.009 1.716 1.009 1.716 3.657 5.761 3.657 5.761 4.666 1.716 4.666 1.716 8.55"/><path d="M7.34210358 5.45335702C7.34210358 4.3063051 7.66345533 3.45670901 8.30615882 2.90456877 8.84305136 2.445748 9.49751163 2.21633761 10.2695396 2.21633761 11.1277839 2.21633761 11.8292712 2.49532397 12.3740016 3.05329668 12.918732 3.6112694 13.1910972 4.38212717 13.1910972 5.36587001 13.1910972 6.16297389 13.0705903 6.78996413 12.8295765 7.24684075 12.5885627 7.70371736 12.237819 8.05852579 11.7773455 8.31126605 11.316872 8.5640063 10.81427 8.69037643 10.2695396 8.69037643 9.39561961 8.69037643 8.68923361 8.41236215 8.1503816 7.85633359 7.61152959 7.30030503 7.34210358 6.49931284 7.34210358 5.45335702ZM8.42960491 5.45335702C8.42960491 6.24657259 8.60399702 6.84051218 8.95278123 7.23517581 9.30156544 7.62983944 9.7404849 7.82717125 10.2695396 7.82717125 10.7946754 7.82717125 11.2316354 7.62886736 11.5804196 7.23225958 11.9292038 6.83565179 12.1035959 6.23101934 12.1035959 5.41836222 12.1035959 4.65236483 11.9282241 4.07203432 11.5774804 3.6773707 11.2267367 3.28270707 10.7907565 3.08537526 10.2695396 3.08537526 9.7404849 3.08537526 9.30156544 3.28173499 8.95278123 3.67445446 8.60399702 4.06717393 8.42960491 4.66014145 8.42960491 5.45335702ZM14.4314366 8.55039721 14.4314366 2.35631683 15.383735 2.35631683 15.383735 3.23701941C15.8422491 2.55656488 16.5045472 2.21633761 17.3706294 2.21633761 17.746846 2.21633761 18.0926911 2.28341099 18.4081644 2.41755774 18.7236378 2.55170449 18.9597529 2.72765059 19.1165099 2.94539604 19.2732668 3.16314149 19.3829967 3.42171421 19.4456995 3.7211142 19.4848887 3.91552978 19.5044833 4.25575705 19.5044833 4.741796L19.5044833 8.55039721 18.4463739 8.55039721 18.4463739 4.78262327C18.4463739 4.35490899 18.4052252 4.03509536 18.3229278 3.82318238 18.2406304 3.6112694 18.0946505 3.44212785 17.8849881 3.31575772 17.6753257 3.18938759 17.4294132 3.12620253 17.1472507 3.12620253 16.6965745 3.12620253 16.3076213 3.2681259 15.9803912 3.55197265 15.6531611 3.83581939 15.489546 4.37435055 15.489546 5.16756612L15.489546 8.55039721 14.4314366 8.55039721ZM25.1771254 8.55039721 25.1771254 7.76884658C24.7813141 8.38319981 24.1993539 8.69037643 23.4312449 8.69037643 22.9335416 8.69037643 22.4760072 8.55428552 22.0586419 8.28210371 21.6412765 8.0099219 21.3179653 7.62983944 21.0887082 7.14185633 20.8594512 6.65387323 20.7448227 6.09298428 20.7448227 5.45918949 20.7448227 4.84094794 20.8486742 4.280059 21.0563771 3.77652264 21.2640801 3.27298629 21.5756345 2.88707136 21.9910404 2.61877786 22.4064463 2.35048436 22.8708388 2.21633761 23.3842178 2.21633761 23.7604345 2.21633761 24.0955025 2.29507592 24.3894217 2.45255254 24.683341 2.61002916 24.9223954 2.8151376 25.1065848 3.06787785L25.1065848 0 26.1588158 0 26.1588158 8.55039721 25.1771254 8.55039721ZM21.832324 5.45918949C21.832324 6.25240505 22.0008377 6.84537257 22.3378652 7.23809205 22.6748926 7.63081152 23.0726634 7.82717125 23.5311775 7.82717125 23.9936105 7.82717125 24.3864826 7.63956022 24.7097938 7.26433815 25.033105 6.88911608 25.1947606 6.3165622 25.1947606 5.5466765 25.1947606 4.69902457 25.0301658 4.07689471 24.7009762 3.68028693 24.3717866 3.28367915 23.966178 3.08537526 23.4841504 3.08537526 23.0138795 3.08537526 22.6210074 3.27590252 22.3055341 3.65695706 21.9900607 4.0380116 21.832324 4.63875574 21.832324 5.45918949ZM27.4285471 5.45335702C27.4285471 4.3063051 27.7498988 3.45670901 28.3926023 2.90456877 28.9294949 2.445748 29.5839551 2.21633761 30.3559831 2.21633761 31.2142274 2.21633761 31.9157147 2.49532397 32.4604451 3.05329668 33.0051755 3.6112694 33.2775407 4.38212717 33.2775407 5.36587001 33.2775407 6.16297389 33.1570338 6.78996413 32.91602 7.24684075 32.6750062 7.70371736 32.3242625 8.05852579 31.863789 8.31126605 31.4033155 8.5640063 30.9007135 8.69037643 30.3559831 8.69037643 29.4820631 8.69037643 28.7756771 8.41236215 28.2368251 7.85633359 27.6979731 7.30030503 27.4285471 6.49931284 27.4285471 5.45335702ZM28.5160484 5.45335702C28.5160484 6.24657259 28.6904405 6.84051218 29.0392247 7.23517581 29.3880089 7.62983944 29.8269284 7.82717125 30.3559831 7.82717125 30.8811189 7.82717125 31.3180789 7.62886736 31.6668631 7.23225958 32.0156473 6.83565179 32.1900394 6.23101934 32.1900394 5.41836222 32.1900394 4.65236483 32.0146676 4.07203432 31.6639239 3.6773707 31.3131802 3.28270707 30.8772 3.08537526 30.3559831 3.08537526 29.8269284 3.08537526 29.3880089 3.28173499 29.0392247 3.67445446 28.6904405 4.06717393 28.5160484 4.66014145 28.5160484 5.45335702Z"/><polygon points="38.021 8.55 38.021 0 44.252 0 44.252 1.009 39.162 1.009 39.162 3.628 43.929 3.628 43.929 4.631 39.162 4.631 39.162 7.541 44.452 7.541 44.452 8.55"/><path d="M49.9839125 8.55039721 49.9839125 7.6405323C49.497966 8.34042838 48.8376273 8.69037643 48.0028966 8.69037643 47.6345178 8.69037643 47.2906322 8.62038682 46.9712399 8.4804076 46.6518476 8.34042838 46.4147528 8.16448228 46.2599553 7.9525693 46.1051578 7.74065632 45.9964077 7.48111152 45.9337049 7.1739349 45.8905967 6.96785439 45.8690426 6.64123621 45.8690426 6.19408038L45.8690426 2.35631683 46.927152 2.35631683 46.927152 5.79164013C46.927152 6.33989207 46.9487061 6.70928167 46.9918143 6.89980894 47.058436 7.17587906 47.1995172 7.39265243 47.415058 7.55012905 47.6305988 7.70760567 47.8970857 7.78634398 48.2145185 7.78634398 48.5319513 7.78634398 48.8297895 7.70566152 49.1080331 7.54429658 49.3862767 7.38293165 49.5832026 7.16324205 49.6988108 6.88522777 49.8144191 6.60721349 49.8722232 6.20380116 49.8722232 5.67499078L49.8722232 2.35631683 50.9303326 2.35631683 50.9303326 8.55039721 49.9839125 8.55039721ZM52.5762806 8.55039721 52.5762806 2.35631683 53.528579 2.35631683 53.528579 3.29534408C53.7715523 2.85596487 53.9959107 2.56628566 54.2016542 2.42630644 54.4073977 2.28632722 54.6337155 2.21633761 54.8806077 2.21633761 55.2372298 2.21633761 55.5997302 2.32909865 55.968109 2.55462072L55.6036491 3.52864278C55.3450002 3.37699863 55.0863512 3.30117655 54.8277022 3.30117655 54.5964857 3.30117655 54.3887828 3.37019408 54.2045934 3.50822914 54.020404 3.6462642 53.88912 3.83776355 53.8107415 4.08272718 53.6931738 4.4560051 53.63439 4.86427781 53.63439 5.30754534L53.63439 8.55039721 52.5762806 8.55039721ZM56.2032445 5.45335702C56.2032445 4.3063051 56.5245962 3.45670901 57.1672997 2.90456877 57.7041923 2.445748 58.3586525 2.21633761 59.1306805 2.21633761 59.9889248 2.21633761 60.6904121 2.49532397 61.2351425 3.05329668 61.7798729 3.6112694 62.0522381 4.38212717 62.0522381 5.36587001 62.0522381 6.16297389 61.9317312 6.78996413 61.6907174 7.24684075 61.4497036 7.70371736 61.0989599 8.05852579 60.6384864 8.31126605 60.1780129 8.5640063 59.6754109 8.69037643 59.1306805 8.69037643 58.2567605 8.69037643 57.5503745 8.41236215 57.0115225 7.85633359 56.4726705 7.30030503 56.2032445 6.49931284 56.2032445 5.45335702ZM57.2907458 5.45335702C57.2907458 6.24657259 57.4651379 6.84051218 57.8139221 7.23517581 58.1627063 7.62983944 58.6016258 7.82717125 59.1306805 7.82717125 59.6558163 7.82717125 60.0927763 7.62886736 60.4415605 7.23225958 60.7903447 6.83565179 60.9647368 6.23101934 60.9647368 5.41836222 60.9647368 4.65236483 60.7893649 4.07203432 60.4386213 3.6773707 60.0878776 3.28270707 59.6518973 3.08537526 59.1306805 3.08537526 58.6016258 3.08537526 58.1627063 3.28173499 57.8139221 3.67445446 57.4651379 4.06717393 57.2907458 4.66014145 57.2907458 5.45335702ZM63.2925775 10.9242114 63.2925775 2.35631683 64.2566327 2.35631683 64.2566327 3.16119733C64.4839303 2.84624409 64.7406198 2.61002916 65.0267012 2.45255254 65.3127826 2.29507592 65.6596074 2.21633761 66.0671755 2.21633761 66.6001491 2.21633761 67.0704199 2.35242852 67.477988 2.62461033 67.8855561 2.89679214 68.1931916 3.28076291 68.4008945 3.77652264 68.6085975 4.27228237 68.712449 4.81567392 68.712449 5.40669728 68.712449 6.04049207 68.5978205 6.6111018 68.3685634 7.11852646 68.1393064 7.62595113 67.8061979 8.01478229 67.3692379 8.28501994 66.9322779 8.5552576 66.4727841 8.69037643 65.9907565 8.69037643 65.6380533 8.69037643 65.3216002 8.61649851 65.0413972 8.46874267 64.7611941 8.32098683 64.5309574 8.13434787 64.3506869 7.9088258L64.3506869 10.9242114 63.2925775 10.9242114ZM64.2507543 5.48835183C64.2507543 6.2854557 64.4133897 6.87453491 64.7386603 7.25558945 65.063931 7.63664398 65.4577828 7.82717125 65.9202158 7.82717125 66.3904867 7.82717125 66.7931561 7.62983944 67.1282241 7.23517581 67.463292 6.84051218 67.630826 6.22907519 67.630826 5.40086481 67.630826 4.61153756 67.467211 4.0205142 67.1399808 3.62779472 66.8127507 3.23507525 66.4218381 3.03871552 65.9672429 3.03871552 65.5165667 3.03871552 65.1178162 3.24771226 64.7709914 3.66570576 64.4241667 4.08369926 64.2507543 4.69124795 64.2507543 5.48835183ZM74.261645 6.55569336 75.3550247 6.68984011C75.182592 7.3236349 74.8631997 7.81550632 74.3968478 8.16545436 73.9304959 8.51540241 73.3348195 8.69037643 72.6098186 8.69037643 71.6967094 8.69037643 70.9726882 8.41139007 70.4377551 7.85341736 69.9028221 7.29544464 69.6353555 6.51292193 69.6353555 5.50584923 69.6353555 4.46378172 69.9057612 3.65501291 70.4465727 3.07954279 70.9873842 2.50407267 71.6888715 2.21633761 72.5510348 2.21633761 73.3857655 2.21633761 74.0676582 2.4982402 74.5967129 3.06204539 75.1257676 3.62585057 75.390295 4.41906613 75.390295 5.44169209 75.390295 5.50390507 75.3883355 5.59722455 75.3844166 5.72165052L70.7287352 5.72165052C70.7679245 6.40210505 70.9619112 6.92313881 71.3106954 7.28475178 71.6594796 7.64636476 72.0944801 7.82717125 72.615697 7.82717125 73.0036704 7.82717125 73.3348195 7.72607515 73.6091442 7.52388295 73.8834688 7.32169075 74.1009691 6.99896088 74.261645 6.55569336ZM70.7875191 4.85844535 74.2734017 4.85844535C74.2263746 4.33741159 74.0931312 3.94663628 73.8736715 3.6861194 73.5366441 3.28173499 73.0996841 3.07954279 72.5627915 3.07954279 72.076845 3.07954279 71.6682972 3.24090772 71.3371481 3.56363758 71.0059991 3.88636745 70.8227894 4.31797003 70.7875191 4.85844535ZM76.289688 5.45335702C76.289688 4.3063051 76.6110397 3.45670901 77.2537432 2.90456877 77.7906358 2.445748 78.445096 2.21633761 79.217124 2.21633761 80.0753683 2.21633761 80.7768556 2.49532397 81.321586 3.05329668 81.8663164 3.6112694 82.1386816 4.38212717 82.1386816 5.36587001 82.1386816 6.16297389 82.0181747 6.78996413 81.7771609 7.24684075 81.5361471 7.70371736 81.1854034 8.05852579 80.7249299 8.31126605 80.2644564 8.5640063 79.7618544 8.69037643 79.217124 8.69037643 78.343204 8.69037643 77.636818 8.41236215 77.097966 7.85633359 76.559114 7.30030503 76.289688 6.49931284 76.289688 5.45335702ZM77.3771893 5.45335702C77.3771893 6.24657259 77.5515814 6.84051218 77.9003656 7.23517581 78.2491498 7.62983944 78.6880693 7.82717125 79.217124 7.82717125 79.7422598 7.82717125 80.1792198 7.62886736 80.528004 7.23225958 80.8767882 6.83565179 81.0511803 6.23101934 81.0511803 5.41836222 81.0511803 4.65236483 80.8758085 4.07203432 80.5250648 3.6773707 80.1743211 3.28270707 79.7383408 3.08537526 79.217124 3.08537526 78.6880693 3.08537526 78.2491498 3.28173499 77.9003656 3.67445446 77.5515814 4.06717393 77.3771893 4.66014145 77.3771893 5.45335702ZM4.43230272 21.4906982 4.43230272 20.7091476C4.03649143 21.3235008 3.45453126 21.6306774 2.68642221 21.6306774 2.1887189 21.6306774 1.73118455 21.4945865 1.31381918 21.2224047.8964538 20.9502229.573142593 20.5701404.343885556 20.0821573.114628519 19.5941742 0 19.0332853 0 18.3994905 0 17.781249.103851478 17.22036.311554435 16.7168237.519257392 16.2132873.830811828 15.8273724 1.24621774 15.5590789 1.66162366 15.2907854 2.12601612 15.1566386 2.63939512 15.1566386 3.0156118 15.1566386 3.35067978 15.2353769 3.64459906 15.3928536 3.93851833 15.5503302 4.17757268 15.7554386 4.3617621 16.0081789L4.3617621 12.940301 5.41399311 12.940301 5.41399311 21.4906982 4.43230272 21.4906982ZM1.08750133 18.3994905C1.08750133 19.1927061 1.25601505 19.7856736 1.59304249 20.1783931 1.93006993 20.5711125 2.32784069 20.7674723 2.78635476 20.7674723 3.24878776 20.7674723 3.64165986 20.5798612 3.96497107 20.2046392 4.28828228 19.8294171 4.44993788 19.2568632 4.44993788 18.4869775 4.44993788 17.6393256 4.28534308 17.0171957 3.95615349 16.6205879 3.6269639 16.2239802 3.22135529 16.0256763 2.73932768 16.0256763 2.26905683 16.0256763 1.87618473 16.2162035 1.56071137 16.5972581 1.24523801 16.9783126 1.08750133 17.5790567 1.08750133 18.3994905ZM11.3511625 19.4959944 12.4445423 19.6301411C12.2721096 20.2639359 11.9527173 20.7558073 11.4863654 21.1057554 11.0200135 21.4557034 10.4243371 21.6306774 9.6993362 21.6306774 8.78622697 21.6306774 8.06220581 21.3516911 7.52727273 20.7937184 6.99233964 20.2357457 6.7248731 19.4532229 6.7248731 18.4461502 6.7248731 17.4040827 6.99527883 16.5953139 7.53609031 16.0198438 8.07690178 15.4443737 8.77838912 15.1566386 9.64055234 15.1566386 10.4752831 15.1566386 11.1571758 15.4385412 11.6862305 16.0023464 12.2152852 16.5661516 12.4798126 17.3593671 12.4798126 18.3819931 12.4798126 18.4442061 12.4778531 18.5375256 12.4739342 18.6619515L7.81825281 18.6619515C7.85744205 19.3424061 8.05142877 19.8634398 8.40021298 20.2250528 8.7489972 20.5866658 9.18399773 20.7674723 9.70521458 20.7674723 10.093188 20.7674723 10.4243371 20.6663762 10.6986617 20.464184 10.9729864 20.2619918 11.1904867 19.9392619 11.3511625 19.4959944ZM7.87703667 17.7987464 11.3629193 17.7987464C11.3158922 17.2777126 11.1826488 16.8869373 10.9631891 16.6264204 10.6261617 16.222036 10.1892017 16.0198438 9.65230911 16.0198438 9.16636257 16.0198438 8.75781477 16.1812087 8.42666572 16.5039386 8.09551667 16.8266685 7.91230698 17.258271 7.87703667 17.7987464ZM17.2530617 21.4906982 17.2530617 12.940301 20.2216464 12.940301C20.8917823 12.940301 21.4032019 12.9811283 21.755905 13.0627828 22.2496894 13.1755439 22.6709737 13.3796802 23.0197579 13.6751919 23.4743531 14.0562464 23.8143197 14.5432575 24.0396578 15.136225 24.2649959 15.7291925 24.377665 16.4067308 24.377665 17.1688399 24.377665 17.8181879 24.301246 18.393658 24.1484079 18.8952502 23.9955699 19.3968424 23.7996237 19.8119197 23.5605694 20.140482 23.321515 20.4690443 23.0599269 20.7276171 22.7758049 20.9162002 22.4916829 21.1047833 22.1487771 21.2476787 21.7470874 21.3448865 21.3453977 21.4420943 20.8839445 21.4906982 20.3627276 21.4906982L17.2530617 21.4906982ZM18.3934685 20.4816814 20.2334031 20.4816814C20.8016471 20.4816814 21.2474247 20.4291892 21.5707359 20.3242047 21.8940471 20.2192203 22.1517163 20.0714645 22.3437436 19.8809372 22.6141493 19.6126437 22.8247915 19.2520028 22.97567 18.7990145 23.1265486 18.3460262 23.2019879 17.7968022 23.2019879 17.1513425 23.2019879 16.2570308 23.0540485 15.5697717 22.7581697 15.0895652 22.462291 14.6093588 22.1027298 14.287601 21.679486 14.1242919 21.3738099 14.0076425 20.881985 13.9493179 20.2040112 13.9493179L18.3934685 13.9493179 18.3934685 20.4816814ZM30.0855774 19.4959944 31.1789571 19.6301411C31.0065244 20.2639359 30.6871322 20.7558073 30.2207802 21.1057554 29.7544283 21.4557034 29.1587519 21.6306774 28.433751 21.6306774 27.5206418 21.6306774 26.7966206 21.3516911 26.2616876 20.7937184 25.7267545 20.2357457 25.4592879 19.4532229 25.4592879 18.4461502 25.4592879 17.4040827 25.7296937 16.5953139 26.2705051 16.0198438 26.8113166 15.4443737 27.5128039 15.1566386 28.3749672 15.1566386 29.2096979 15.1566386 29.8915906 15.4385412 30.4206453 16.0023464 30.9497 16.5661516 31.2142274 17.3593671 31.2142274 18.3819931 31.2142274 18.4442061 31.2122679 18.5375256 31.208349 18.6619515L26.5526676 18.6619515C26.5918569 19.3424061 26.7858436 19.8634398 27.1346278 20.2250528 27.483412 20.5866658 27.9184126 20.7674723 28.4396294 20.7674723 28.8276029 20.7674723 29.1587519 20.6663762 29.4330766 20.464184 29.7074012 20.2619918 29.9249015 19.9392619 30.0855774 19.4959944ZM26.6114515 17.7987464 30.0973341 17.7987464C30.0503071 17.2777126 29.9170636 16.8869373 29.6976039 16.6264204 29.3605765 16.222036 28.9236165 16.0198438 28.3867239 16.0198438 27.9007774 16.0198438 27.4922296 16.1812087 27.1610805 16.5039386 26.8299315 16.8266685 26.6467218 17.258271 26.6114515 17.7987464ZM32.0842285 19.6418061 33.1305811 19.478497C33.1893649 19.8945463 33.35298 20.2133879 33.6214263 20.4350216 33.8898726 20.6566554 34.2651095 20.7674723 34.7471371 20.7674723 35.2330837 20.7674723 35.5936246 20.6692924 35.8287601 20.4729327 36.0638955 20.2765729 36.1814632 20.0461905 36.1814632 19.7817853 36.1814632 19.5445983 36.0776117 19.3579593 35.8699088 19.2218684 35.7249086 19.1285489 35.3643676 19.0099554 34.7882858 18.8660879 34.0123389 18.6716723 33.4744667 18.5035028 33.174669 18.3615795 32.8748713 18.2196561 32.6475737 18.0232963 32.4927763 17.7725003 32.3379788 17.5217042 32.26058 17.244662 32.26058 16.9413736 32.26058 16.6653035 32.3242625 16.409647 32.4516276 16.1744042 32.5789926 15.9391613 32.752405 15.7437737 32.9718647 15.5882412 33.1364595 15.4677035 33.3608179 15.3656354 33.6449398 15.2820367 33.9290618 15.198438 34.2337581 15.1566386 34.5590288 15.1566386 35.0488943 15.1566386 35.4789961 15.2266282 35.8493344 15.3666074 36.2196727 15.5065867 36.4930176 15.6961419 36.6693692 15.935273 36.8457208 16.1744042 36.9672074 16.4942178 37.0338291 16.8947139L35.9992333 17.0346931C35.9522062 16.7158516 35.8160236 16.4669996 35.5906855 16.2881373 35.3653473 16.109275 35.0469348 16.0198438 34.6354478 16.0198438 34.1495013 16.0198438 33.8026765 16.0995542 33.5949736 16.258975 33.3872706 16.4183957 33.2834191 16.6050347 33.2834191 16.8188918 33.2834191 16.9549827 33.3265273 17.0774646 33.4127436 17.1863373 33.4989599 17.2990983 33.6341628 17.3924178 33.8183522 17.4662957 33.9241631 17.5051788 34.2357176 17.59461 34.7530155 17.7345892 35.5015299 17.9328931 36.0237265 18.0952301 36.3196053 18.2216002 36.615484 18.3479704 36.8476802 18.5316931 37.016194 18.7727684 37.1847077 19.0138437 37.2689645 19.3132437 37.2689645 19.6709684 37.2689645 20.0209164 37.1660928 20.3504508 36.9603493 20.6595716 36.7546058 20.9686924 36.4577473 21.2078236 36.0697739 21.3769651 35.6818004 21.5461067 35.242881 21.6306774 34.7530155 21.6306774 33.9417983 21.6306774 33.3235881 21.46348 32.8983849 21.1290852 32.4731816 20.7946904 32.2017962 20.2989307 32.0842285 19.6418061ZM42.6006603 20.726645C42.2087679 21.0571515 41.8315715 21.2904502 41.469071 21.4265411 41.1065706 21.562632 40.7176174 21.6306774 40.3022115 21.6306774 39.6163998 21.6306774 39.0893046 21.4644521 38.7209258 21.1320015 38.3525469 20.7995508 38.1683575 20.3747528 38.1683575 19.8576073 38.1683575 19.554319 38.2379184 19.2772768 38.3770402 19.0264807 38.516162 18.7756846 38.698392 18.5744645 38.9237301 18.4228204 39.1490682 18.2711762 39.4028185 18.156471 39.684981 18.0787048 39.892684 18.0242684 40.2061979 17.9717762 40.6255227 17.9212282 41.4798481 17.8201321 42.1088353 17.6995944 42.5124845 17.5596152 42.5164034 17.4157477 42.5183629 17.3243723 42.5183629 17.2854892 42.5183629 16.8577749 42.4184303 16.5564308 42.2185652 16.3814568 41.9481595 16.1442698 41.5464698 16.0256763 41.0134961 16.0256763 40.5157928 16.0256763 40.1483937 16.1121912 39.9112989 16.2852211 39.674204 16.4582509 39.4988321 16.7644555 39.3851833 17.2038347L38.3505875 17.0638555C38.4446417 16.6244763 38.5994391 16.2696678 38.8149799 15.9994302 39.0305207 15.7291925 39.3420752 15.5211678 39.7496433 15.3753561 40.1572113 15.2295445 40.6294416 15.1566386 41.1663342 15.1566386 41.6993078 15.1566386 42.1323489 15.2188516 42.4654574 15.3432776 42.7985659 15.4677035 43.0434986 15.6242081 43.2002556 15.8127912 43.3570125 16.0013743 43.4667424 16.2395334 43.5294452 16.5272685 43.5647155 16.7061308 43.5823506 17.0288607 43.5823506 17.495458L43.5823506 18.8952502C43.5823506 19.8712164 43.6048845 20.4884859 43.6499521 20.7470586 43.6950197 21.0056313 43.7841752 21.2535112 43.9174186 21.4906982L42.8122821 21.4906982C42.7025523 21.2729528 42.6320116 21.0182684 42.6006603 20.726645ZM42.5124845 18.3819931C42.1284299 18.5375256 41.5523482 18.6697282 40.7842391 18.7786009 40.3492386 18.8408139 40.0416031 18.9108035 39.8613326 18.9885697 39.6810621 19.0663359 39.5419403 19.1800691 39.4439672 19.329769 39.3459941 19.479469 39.2970076 19.6456944 39.2970076 19.828445 39.2970076 20.1084034 39.4037982 20.3417021 39.6173796 20.5283411 39.8309609 20.7149801 40.1434951 20.8082995 40.5549821 20.8082995 40.9625501 20.8082995 41.3250506 20.7198404 41.6424834 20.5429223 41.9599162 20.3660041 42.1930922 20.1239567 42.3420113 19.8167801 42.4556601 19.5795931 42.5124845 19.229645 42.5124845 18.7669359L42.5124845 18.3819931ZM45.2106634 21.4906982 45.2106634 15.2966178 46.1629619 15.2966178 46.1629619 16.2356451C46.4059352 15.7962659 46.6302936 15.5065867 46.8360371 15.3666074 47.0417806 15.2266282 47.2680984 15.1566386 47.5149906 15.1566386 47.8716127 15.1566386 48.2341131 15.2693997 48.6024919 15.4949217L48.238032 16.4689438C47.9793831 16.3172996 47.7207341 16.2414776 47.4620851 16.2414776 47.2308686 16.2414776 47.0231657 16.3104951 46.8389763 16.4485302 46.6547868 16.5865652 46.5235029 16.7780646 46.4451244 17.0230282 46.3275567 17.3963061 46.2687729 17.8045788 46.2687729 18.2478463L46.2687729 21.4906982 45.2106634 21.4906982ZM49.2197224 21.4906982 49.2197224 15.2966178 50.1720209 15.2966178 50.1720209 16.2356451C50.4149941 15.7962659 50.6393525 15.5065867 50.845096 15.3666074 51.0508395 15.2266282 51.2771574 15.1566386 51.5240496 15.1566386 51.8806716 15.1566386 52.2431721 15.2693997 52.6115509 15.4949217L52.247091 16.4689438C51.988442 16.3172996 51.729793 16.2414776 51.4711441 16.2414776 51.2399276 16.2414776 51.0322246 16.3104951 50.8480352 16.4485302 50.6638458 16.5865652 50.5325619 16.7780646 50.4541834 17.0230282 50.3366157 17.3963061 50.2778318 17.8045788 50.2778318 18.2478463L50.2778318 21.4906982 49.2197224 21.4906982ZM52.8466863 18.393658C52.8466863 17.2466061 53.1680381 16.39701 53.8107415 15.8448698 54.3476341 15.386049 55.0020944 15.1566386 55.7741223 15.1566386 56.6323666 15.1566386 57.333854 15.435625 57.8785844 15.9935977 58.4233148 16.5515704 58.69568 17.3224282 58.69568 18.306171 58.69568 19.1032749 58.5751731 19.7302651 58.3341592 20.1871418 58.0931454 20.6440184 57.7424018 20.9988268 57.2819282 21.2515671 56.8214547 21.5043073 56.3188527 21.6306774 55.7741223 21.6306774 54.9002023 21.6306774 54.1938163 21.3526632 53.6549643 20.7966346 53.1161123 20.240606 52.8466863 19.4396139 52.8466863 18.393658ZM53.9341876 18.393658C53.9341876 19.1868736 54.1085797 19.7808132 54.457364 20.1754768 54.8061482 20.5701404 55.2450676 20.7674723 55.7741223 20.7674723 56.2992581 20.7674723 56.7362181 20.5691684 57.0850023 20.1725606 57.4337865 19.7759528 57.6081786 19.1713203 57.6081786 18.3586632 57.6081786 17.5926658 57.4328068 17.0123353 57.0820631 16.6176717 56.7313194 16.2230081 56.2953392 16.0256763 55.7741223 16.0256763 55.2450676 16.0256763 54.8061482 16.222036 54.457364 16.6147555 54.1085797 17.0074749 53.9341876 17.6004425 53.9341876 18.393658Z"/><polygon points="59.913 21.491 59.913 12.94 60.971 12.94 60.971 21.491"/><polygon points="62.587 21.491 62.587 12.94 63.645 12.94 63.645 21.491"/><path d="M64.8914983 18.393658C64.8914983 17.2466061 65.2128501 16.39701 65.8555536 15.8448698 66.3924461 15.386049 67.0469064 15.1566386 67.8189344 15.1566386 68.6771787 15.1566386 69.378666 15.435625 69.9233964 15.9935977 70.4681268 16.5515704 70.740492 17.3224282 70.740492 18.306171 70.740492 19.1032749 70.6199851 19.7302651 70.3789713 20.1871418 70.1379575 20.6440184 69.7872138 20.9988268 69.3267403 21.2515671 68.8662667 21.5043073 68.3636648 21.6306774 67.8189344 21.6306774 66.9450144 21.6306774 66.2386284 21.3526632 65.6997764 20.7966346 65.1609244 20.240606 64.8914983 19.4396139 64.8914983 18.393658ZM65.9789997 18.393658C65.9789997 19.1868736 66.1533918 19.7808132 66.502176 20.1754768 66.8509602 20.5701404 67.2898797 20.7674723 67.8189344 20.7674723 68.3440701 20.7674723 68.7810301 20.5691684 69.1298143 20.1725606 69.4785986 19.7759528 69.6529907 19.1713203 69.6529907 18.3586632 69.6529907 17.5926658 69.4776188 17.0123353 69.1268752 16.6176717 68.7761315 16.2230081 68.3401512 16.0256763 67.8189344 16.0256763 67.2898797 16.0256763 66.8509602 16.222036 66.502176 16.6147555 66.1533918 17.0074749 65.9789997 17.6004425 65.9789997 18.393658ZM75.4784708 21.4906982 75.4784708 12.940301 79.2994214 12.940301C80.0675304 12.940301 80.6514501 13.0170952 81.0511803 13.1706835 81.4509105 13.3242718 81.7703028 13.5954815 82.0093571 13.9843127 82.2484115 14.3731438 82.3679387 14.8028023 82.3679387 15.273288 82.3679387 15.8798646 82.170033 16.3911776 81.7742217 16.8072269 81.3784104 17.2232762 80.7670583 17.4876814 79.9401654 17.6004425 80.2419225 17.74431 80.4711796 17.8862334 80.6279365 18.0262126 80.961045 18.3295009 81.2765184 18.7086113 81.5743566 19.1635437L83.0733449 21.4906982 81.6390188 21.4906982 80.498612 19.7117957C80.1655035 19.1985385 79.8911789 18.8058191 79.6756381 18.5336372 79.4600973 18.2614554 79.2670903 18.0709282 79.0966171 17.9620554 78.9261439 17.8531827 78.7527315 17.7773606 78.57638 17.7345892 78.4470555 17.707371 78.2354336 17.6937619 77.9415143 17.6937619L76.6188776 17.6937619 76.6188776 21.4906982 75.4784708 21.4906982ZM76.6188776 16.7139074 79.0701644 16.7139074C79.5913812 16.7139074 79.9989493 16.6604431 80.2928686 16.5535146 80.5867878 16.446586 80.8101665 16.2755003 80.9630045 16.0402574 81.1158425 15.8050146 81.1922615 15.5493581 81.1922615 15.273288 81.1922615 14.8689036 81.0443222 14.5364529 80.7484434 14.275936 80.4525647 14.0154192 79.985233 13.8851607 79.3464485 13.8851607L76.6188776 13.8851607 76.6188776 16.7139074ZM88.2933513 19.4959944 89.386731 19.6301411C89.2142984 20.2639359 88.8949061 20.7558073 88.4285542 21.1057554 87.9622023 21.4557034 87.3665259 21.6306774 86.641525 21.6306774 85.7284157 21.6306774 85.0043946 21.3516911 84.4694615 20.7937184 83.9345284 20.2357457 83.6670619 19.4532229 83.6670619 18.4461502 83.6670619 17.4040827 83.9374676 16.5953139 84.4782791 16.0198438 85.0190906 15.4443737 85.7205779 15.1566386 86.5827411 15.1566386 87.4174719 15.1566386 88.0993646 15.4385412 88.6284193 16.0023464 89.157474 16.5661516 89.4220013 17.3593671 89.4220013 18.3819931 89.4220013 18.4442061 89.4200419 18.5375256 89.416123 18.6619515L84.7604416 18.6619515C84.7996308 19.3424061 84.9936175 19.8634398 85.3424018 20.2250528 85.691186 20.5866658 86.1261865 20.7674723 86.6474034 20.7674723 87.0353768 20.7674723 87.3665259 20.6663762 87.6408505 20.464184 87.9151752 20.2619918 88.1326754 19.9392619 88.2933513 19.4959944ZM84.8192254 17.7987464 88.3051081 17.7987464C88.258081 17.2777126 88.1248376 16.8869373 87.9053779 16.6264204 87.5683504 16.222036 87.1313904 16.0198438 86.5944979 16.0198438 86.1085513 16.0198438 85.7000035 16.1812087 85.3688545 16.5039386 85.0377054 16.8266685 84.8544958 17.258271 84.8192254 17.7987464ZM90.5212595 22.0039554 91.5499769 22.1555995C91.5930851 22.4705527 91.7126123 22.6999631 91.9085584 22.8438307 92.1711263 23.0382462 92.5297079 23.135454 92.984303 23.135454 93.4741685 23.135454 93.8523446 23.0382462 94.1188314 22.8438307 94.3853182 22.6494151 94.5655887 22.3772333 94.6596429 22.0272852 94.7145078 21.8134281 94.7399808 21.3643281 94.7360619 20.6799853 94.2736289 21.2204606 93.6975471 21.4906982 93.0078165 21.4906982 92.1495723 21.4906982 91.4853147 21.1835216 91.0150438 20.5691684 90.544773 19.9548151 90.3096376 19.2179801 90.3096376 18.3586632 90.3096376 17.7676399 90.417408 17.2223042 90.6329488 16.7226561 90.8484896 16.2230081 91.1610237 15.8370932 91.5705513 15.5649113 91.9800788 15.2927295 92.4611267 15.1566386 93.0136949 15.1566386 93.7504526 15.1566386 94.3578858 15.4521503 94.8359945 16.0431737L94.8359945 15.2966178 95.8118065 15.2966178 95.8118065 20.6508229C95.8118065 21.6151242 95.7128536 22.298495 95.514948 22.7009352 95.3170423 23.1033755 95.0035285 23.4212449 94.5744063 23.6545436 94.1452842 23.8878423 93.6172092 24.0044917 92.9901814 24.0044917 92.2455859 24.0044917 91.6440311 23.8382663 91.185517 23.5058157 90.7270029 23.1733651 90.5055838 22.6727449 90.5212595 22.0039554ZM91.3971389 18.2828411C91.3971389 19.0954983 91.5597742 19.6884658 91.8850449 20.0617437 92.2103156 20.4350216 92.6178836 20.6216606 93.1077491 20.6216606 93.5936956 20.6216606 94.0012637 20.4359937 94.3304533 20.0646599 94.6596429 19.6933262 94.8242377 19.1110515 94.8242377 18.317836 94.8242377 17.5596152 94.6547442 16.9880334 94.3157573 16.6030905 93.9767704 16.2181477 93.5682226 16.0256763 93.0901139 16.0256763 92.6198431 16.0256763 92.2201129 16.2152315 91.8909233 16.5943418 91.5617337 16.9734522 91.3971389 17.5362853 91.3971389 18.2828411ZM97.4166057 14.1476218 97.4166057 12.940301 98.4747151 12.940301 98.4747151 14.1476218 97.4166057 14.1476218ZM97.4166057 21.4906982 97.4166057 15.2966178 98.4747151 15.2966178 98.4747151 21.4906982 97.4166057 21.4906982ZM99.6915409 18.393658C99.6915409 17.2466061 100.012893 16.39701 100.655596 15.8448698 101.192489 15.386049 101.846949 15.1566386 102.618977 15.1566386 103.477221 15.1566386 104.178709 15.435625 104.723439 15.9935977 105.268169 16.5515704 105.540535 17.3224282 105.540535 18.306171 105.540535 19.1032749 105.420028 19.7302651 105.179014 20.1871418 104.938 20.6440184 104.587256 20.9988268 104.126783 21.2515671 103.666309 21.5043073 103.163707 21.6306774 102.618977 21.6306774 101.745057 21.6306774 101.038671 21.3526632 100.499819 20.7966346 99.960967 20.240606 99.6915409 19.4396139 99.6915409 18.393658ZM100.779042 18.393658C100.779042 19.1868736 100.953434 19.7808132 101.302219 20.1754768 101.651003 20.5701404 102.089922 20.7674723 102.618977 20.7674723 103.144113 20.7674723 103.581073 20.5691684 103.929857 20.1725606 104.278641 19.7759528 104.453033 19.1713203 104.453033 18.3586632 104.453033 17.5926658 104.277661 17.0123353 103.926918 16.6176717 103.576174 16.2230081 103.140194 16.0256763 102.618977 16.0256763 102.089922 16.0256763 101.651003 16.222036 101.302219 16.6147555 100.953434 17.0074749 100.779042 17.6004425 100.779042 18.393658ZM106.780874 21.4906982 106.780874 15.2966178 107.733172 15.2966178 107.733172 16.1773204C108.191686 15.4968659 108.853985 15.1566386 109.720067 15.1566386 110.096283 15.1566386 110.442128 15.223712 110.757602 15.3578587 111.073075 15.4920055 111.30919 15.6679516 111.465947 15.885697 111.622704 16.1034425 111.732434 16.3620152 111.795137 16.6614152 111.834326 16.8558308 111.853921 17.1960581 111.853921 17.682097L111.853921 21.4906982 110.795811 21.4906982 110.795811 17.7229243C110.795811 17.29521 110.754663 16.9753964 110.672365 16.7634834 110.590068 16.5515704 110.444088 16.3824289 110.234425 16.2560587 110.024763 16.1296886 109.778851 16.0665035 109.496688 16.0665035 109.046012 16.0665035 108.657059 16.2084269 108.329829 16.4922737 108.002598 16.7761204 107.838983 17.3146516 107.838983 18.1078671L107.838983 21.4906982 106.780874 21.4906982ZM117.550076 20.726645C117.158184 21.0571515 116.780988 21.2904502 116.418487 21.4265411 116.055987 21.562632 115.667033 21.6306774 115.251628 21.6306774 114.565816 21.6306774 114.038721 21.4644521 113.670342 21.1320015 113.301963 20.7995508 113.117774 20.3747528 113.117774 19.8576073 113.117774 19.554319 113.187334 19.2772768 113.326456 19.0264807 113.465578 18.7756846 113.647808 18.5744645 113.873146 18.4228204 114.098484 18.2711762 114.352235 18.156471 114.634397 18.0787048 114.8421 18.0242684 115.155614 17.9717762 115.574939 17.9212282 116.429264 17.8201321 117.058251 17.6995944 117.461901 17.5596152 117.465819 17.4157477 117.467779 17.3243723 117.467779 17.2854892 117.467779 16.8577749 117.367846 16.5564308 117.167981 16.3814568 116.897576 16.1442698 116.495886 16.0256763 115.962912 16.0256763 115.465209 16.0256763 115.09781 16.1121912 114.860715 16.2852211 114.62362 16.4582509 114.448248 16.7644555 114.334599 17.2038347L113.300004 17.0638555C113.394058 16.6244763 113.548855 16.2696678 113.764396 15.9994302 113.979937 15.7291925 114.291491 15.5211678 114.699059 15.3753561 115.106627 15.2295445 115.578858 15.1566386 116.11575 15.1566386 116.648724 15.1566386 117.081765 15.2188516 117.414873 15.3432776 117.747982 15.4677035 117.992915 15.6242081 118.149672 15.8127912 118.306429 16.0013743 118.416158 16.2395334 118.478861 16.5272685 118.514132 16.7061308 118.531767 17.0288607 118.531767 17.495458L118.531767 18.8952502C118.531767 19.8712164 118.554301 20.4884859 118.599368 20.7470586 118.644436 21.0056313 118.733591 21.2535112 118.866835 21.4906982L117.761698 21.4906982C117.651968 21.2729528 117.581428 21.0182684 117.550076 20.726645ZM117.461901 18.3819931C117.077846 18.5375256 116.501764 18.6697282 115.733655 18.7786009 115.298655 18.8408139 114.991019 18.9108035 114.810749 18.9885697 114.630478 19.0663359 114.491356 19.1800691 114.393383 19.329769 114.29541 19.479469 114.246424 19.6456944 114.246424 19.828445 114.246424 20.1084034 114.353214 20.3417021 114.566796 20.5283411 114.780377 20.7149801 115.092911 20.8082995 115.504398 20.8082995 115.911966 20.8082995 116.274467 20.7198404 116.591899 20.5429223 116.909332 20.3660041 117.142508 20.1239567 117.291427 19.8167801 117.405076 19.5795931 117.461901 19.229645 117.461901 18.7669359L117.461901 18.3819931Z"/><polygon points="120.148 21.491 120.148 12.94 121.206 12.94 121.206 21.491"/></g><path d="M0 .157962659 1.88500231.157962659 1.88500231 5.1748567C1.88500231 5.9709885 1.90835256 6.48699985 1.95505307 6.72289076 2.03571758 7.10200114 2.22782649 7.40634253 2.53137979 7.63591493 2.83493309 7.86548732 3.24993078 7.98027352 3.77637287 7.98027352 4.31130595 7.98027352 4.71462852 7.87180583 4.98634056 7.65487045 5.25805261 7.43793506 5.42150438 7.17150471 5.47669589 6.85557939 5.5318874 6.53965407 5.55948316 6.01521805 5.55948316 5.28227131L5.55948316.157962659 7.44448546.157962659 7.44448546 5.02321255C7.44448546 6.13526967 7.39353946 6.92087062 7.29164744 7.38001542 7.18975542 7.83916021 7.00189202 8.22669527 6.72805722 8.54262059 6.45422243 8.85854591 6.08804799 9.11023308 5.62953392 9.2976821 5.17101984 9.48513112 4.57240425 9.57885563 3.83368713 9.57885563 2.94213198 9.57885563 2.26603599 9.47670644 1.80539917 9.27240807 1.34476234 9.0681097.98071066 8.80273243.713244116 8.47627627.445777573 8.14982011.269589294 7.80756768.18467928 7.44951899.06155976 6.91876446 0 6.13526967 0 5.09903463L0 .157962659ZM15.5703738 9.42089297 13.7808952 9.42089297 13.7808952 5.99626253C13.7808952 5.27174047 13.7426857 4.80311791 13.6662667 4.59039486 13.5898477 4.37767182 13.4656668 4.21233757 13.293724 4.09439212 13.1217813 3.97644666 12.9148131 3.91747394 12.6728196 3.91747394 12.362898 3.91747394 12.0848177 4.00172069 11.8385787 4.17021419 11.5923396 4.3387077 11.423581 4.56196159 11.3323027 4.83997587 11.2410245 5.11799015 11.1953853 5.63189533 11.1953853 6.38169142L11.1953853 9.42089297 9.40590678 9.42089297 9.40590678 2.71063923 11.0680203 2.71063923 11.0680203 3.69632622C11.6581449 2.93810545 12.4011075 2.55899507 13.2969082 2.55899507 13.6917397 2.55899507 14.0526073 2.62955173 14.3795108 2.77066504 14.7064144 2.91177834 14.9537148 3.09185577 15.1214121 3.31089733 15.2891094 3.52993888 15.4058606 3.7784668 15.4716659 4.05648108 15.5374712 4.33449536 15.5703738 4.73256126 15.5703738 5.25067878L15.5703738 9.42089297ZM17.3853253 1.80077431 17.3853253.157962659 19.1748039.157962659 19.1748039 1.80077431 17.3853253 1.80077431ZM17.3853253 9.42089297 17.3853253 2.71063923 19.1748039 2.71063923 19.1748039 9.42089297 17.3853253 9.42089297ZM20.5949239 5.9709885C20.5949239 5.38126124 20.7413936 4.8104895 21.0343332 4.25867328 21.3272727 3.70685706 21.7422704 3.2856233 22.2793263 2.99497201 22.8163821 2.70432072 23.4160591 2.55899507 24.0783572 2.55899507 25.1015228 2.55899507 25.9400092 2.88861049 26.5938163 3.54784132 27.2476234 4.20707215 27.574527 5.0400619 27.574527 6.04681058 27.574527 7.06198393 27.2444393 7.90339836 26.584264 8.57105387 25.9240886 9.23870937 25.0930318 9.57253712 24.0910937 9.57253712 23.4712506 9.57253712 22.8800646 9.43352998 22.3175358 9.1555157 21.7550069 8.87750142 21.3272727 8.46995776 21.0343332 7.93288472 20.7413936 7.39581169 20.5949239 6.74184628 20.5949239 5.9709885ZM22.4289802 6.0657661C22.4289802 6.73131543 22.5881864 7.24100828 22.906599 7.59484464 23.2250115 7.94868099 23.6177204 8.12559917 24.0847254 8.12559917 24.5517305 8.12559917 24.9433779 7.94868099 25.2596677 7.59484464 25.5759575 7.24100828 25.7341024 6.7271031 25.7341024 6.05312909 25.7341024 5.39600442 25.5759575 4.89052392 25.2596677 4.53668756 24.9433779 4.18285121 24.5517305 4.00593303 24.0847254 4.00593303 23.6177204 4.00593303 23.2250115 4.18285121 22.906599 4.53668756 22.5881864 4.89052392 22.4289802 5.40021676 22.4289802 6.0657661ZM23.1804338 1.8892334 24.0592524 0 26.0652515 0 24.3139825 1.8892334 23.1804338 1.8892334ZM35.1272727 9.42089297 33.3377942 9.42089297 33.3377942 5.99626253C33.3377942 5.27174047 33.2995847 4.80311791 33.2231657 4.59039486 33.1467467 4.37767182 33.0225658 4.21233757 32.850623 4.09439212 32.6786802 3.97644666 32.471712 3.91747394 32.2297185 3.91747394 31.919797 3.91747394 31.6417167 4.00172069 31.3954776 4.17021419 31.1492386 4.3387077 30.9804799 4.56196159 30.8892017 4.83997587 30.7979234 5.11799015 30.7522843 5.63189533 30.7522843 6.38169142L30.7522843 9.42089297 28.9628057 9.42089297 28.9628057 2.71063923 30.6249192 2.71063923 30.6249192 3.69632622C31.2150438 2.93810545 31.9580065 2.55899507 32.8538071 2.55899507 33.2486387 2.55899507 33.6095062 2.62955173 33.9364098 2.77066504 34.2633133 2.91177834 34.5106138 3.09185577 34.678311 3.31089733 34.8460083 3.52993888 34.9627596 3.7784668 35.0285648 4.05648108 35.0943701 4.33449536 35.1272727 4.73256126 35.1272727 5.25067878L35.1272727 9.42089297Z"/><polygon points="40.578 9.421 40.578 .158 47.501 .158 47.501 1.725 42.463 1.725 42.463 3.778 47.151 3.778 47.151 5.339 42.463 5.339 42.463 7.86 47.679 7.86 47.679 9.421"/><path d="M53.7161975 9.42089297 53.7161975 8.41625046C53.4699585 8.77429915 53.146239 9.05652577 52.7450392 9.26293031 52.3438394 9.46933485 51.9203507 9.57253712 51.4745731 9.57253712 51.0203046 9.57253712 50.6127365 9.47354719 50.2518689 9.27556732 49.8910014 9.07758746 49.6299031 8.79957318 49.4685741 8.44152449 49.307245 8.08347579 49.2265805 7.58852613 49.2265805 6.95667549L49.2265805 2.71063923 51.0160591 2.71063923 51.0160591 5.79407032C51.0160591 6.73763394 51.0489617 7.31577727 51.114767 7.52850032 51.1805722 7.74122337 51.3005076 7.90971687 51.4745731 8.03398083 51.6486387 8.15824478 51.8694047 8.22037676 52.1368713 8.22037676 52.4425473 8.22037676 52.7163821 8.1371831 52.9583756 7.97079576 53.2003692 7.80440843 53.3659437 7.59800389 53.4550992 7.35158214 53.5442547 7.10516039 53.5888325 6.50174304 53.5888325 5.54133007L53.5888325 2.71063923 55.378311 2.71063923 55.378311 9.42089297 53.7161975 9.42089297ZM58.9445316 9.42089297 57.1550531 9.42089297 57.1550531 2.71063923 58.8171666 2.71063923 58.8171666 3.66473368C59.1016151 3.21401356 59.3574066 2.91704377 59.5845408 2.77382429 59.8116751 2.63060481 60.0695893 2.55899507 60.3582833 2.55899507 60.7658514 2.55899507 61.1585602 2.67062202 61.5364098 2.89387591L60.9823719 4.44190997C60.6809414 4.24814244 60.4007383 4.15125867 60.1417628 4.15125867 59.8912783 4.15125867 59.6790032 4.21970916 59.5049377 4.35661013 59.3308722 4.4935111 59.1939548 4.74098593 59.0941855 5.09903463 58.9944162 5.45708332 58.9445316 6.20687941 58.9445316 7.34842289L58.9445316 9.42089297ZM61.8930318 5.9709885C61.8930318 5.38126124 62.0395016 4.8104895 62.3324412 4.25867328 62.6253807 3.70685706 63.0403784 3.2856233 63.5774342 2.99497201 64.1144901 2.70432072 64.7141671 2.55899507 65.3764652 2.55899507 66.3996308 2.55899507 67.2381172 2.88861049 67.8919243 3.54784132 68.5457314 4.20707215 68.872635 5.0400619 68.872635 6.04681058 68.872635 7.06198393 68.5425473 7.90339836 67.8823719 8.57105387 67.2221966 9.23870937 66.3911398 9.57253712 65.3892017 9.57253712 64.7693586 9.57253712 64.1781726 9.43352998 63.6156437 9.1555157 63.0531149 8.87750142 62.6253807 8.46995776 62.3324412 7.93288472 62.0395016 7.39581169 61.8930318 6.74184628 61.8930318 5.9709885ZM63.7270881 6.0657661C63.7270881 6.73131543 63.8862944 7.24100828 64.204707 7.59484464 64.5231195 7.94868099 64.9158283 8.12559917 65.3828334 8.12559917 65.8498385 8.12559917 66.2414859 7.94868099 66.5577757 7.59484464 66.8740655 7.24100828 67.0322104 6.7271031 67.0322104 6.05312909 67.0322104 5.39600442 66.8740655 4.89052392 66.5577757 4.53668756 66.2414859 4.18285121 65.8498385 4.00593303 65.3828334 4.00593303 64.9158283 4.00593303 64.5231195 4.18285121 64.204707 4.53668756 63.8862944 4.89052392 63.7270881 5.40021676 63.7270881 6.0657661ZM70.2227042 2.71063923 71.891186 2.71063923 71.891186 3.69632622C72.1077065 3.35933921 72.4006461 3.08553727 72.7700046 2.87492039 73.1393632 2.66430351 73.549054 2.55899507 73.9990771 2.55899507 74.7844947 2.55899507 75.4510383 2.86438955 75.9987079 3.47517849 76.5463775 4.08596744 76.8202123 4.93685963 76.8202123 6.02785506 76.8202123 7.14833685 76.5442547 8.01923765 75.9923396 8.64055744 75.4404246 9.26187723 74.7717582 9.57253712 73.9863406 9.57253712 73.6127365 9.57253712 73.2741578 9.49882122 72.9706045 9.3513894 72.6670512 9.20395759 72.3475773 8.95121733 72.0121827 8.59316864L72.0121827 11.9735695 70.2227042 11.9735695 70.2227042 2.71063923ZM71.993078 5.95203298C71.993078 6.70604141 72.1437933 7.26312305 72.4452238 7.62327791 72.7466544 7.98343278 73.1138902 8.16351021 73.5469312 8.16351021 73.9629903 8.16351021 74.3089986 7.99817596 74.5849562 7.66750746 74.8609137 7.33683896 74.9988925 6.7945005 74.9988925 6.04049207 74.9988925 5.3370317 74.8566682 4.81470184 74.5722197 4.4735025 74.2877711 4.13230315 73.9353946 3.96170348 73.51509 3.96170348 73.0778034 3.96170348 72.7148131 4.1291439 72.4261191 4.46402474 72.137425 4.79890557 71.993078 5.29490832 71.993078 5.95203298ZM82.1568066 7.28523782 83.9399169 7.58220762C83.7106599 8.23090761 83.348731 8.72480419 82.8541301 9.06389736 82.3595293 9.40299054 81.7407476 9.57253712 80.997785 9.57253712 79.8217813 9.57253712 78.9514536 9.19132057 78.386802 8.42888747 77.9410245 7.81809853 77.7181357 7.04724075 77.7181357 6.11631415 77.7181357 5.00425703 78.0110752 4.13335624 78.5969543 3.50361177 79.1828334 2.87386731 79.9236733 2.55899507 80.8194739 2.55899507 81.8256576 2.55899507 82.6195662 2.88861049 83.2011998 3.54784132 83.7828334 4.20707215 84.0609137 5.21698008 84.0354407 6.57756511L79.552192 6.57756511C79.5649285 7.10410731 79.7092755 7.51375714 79.985233 7.8065146 80.2611906 8.09927206 80.6050761 8.24565079 81.0168897 8.24565079 81.2970928 8.24565079 81.532718 8.16982871 81.7237656 8.01818456 81.9148131 7.86654041 82.0591601 7.62222483 82.1568066 7.28523782ZM82.2586987 5.49078202C82.2459622 4.97687684 82.1122289 4.58618253 81.8574988 4.31869909 81.6027688 4.05121566 81.2928473 3.91747394 80.9277342 3.91747394 80.5371481 3.91747394 80.2144901 4.05858725 79.95976 4.34081386 79.70503 4.62304048 79.5797877 5.0063632 79.5840332 5.49078202L82.2586987 5.49078202ZM86.8311029 4.75783528 85.2071989 4.46718399C85.3897554 3.81848401 85.7039225 3.33827752 86.1497 3.02656454 86.5954776 2.71485156 87.2577757 2.55899507 88.1365944 2.55899507 88.9347485 2.55899507 89.5291186 2.65271958 89.9197047 2.84016861 90.3102907 3.02761763 90.5851869 3.2656147 90.7443932 3.55415982 90.9035994 3.84270495 90.9832026 4.3724064 90.9832026 5.14326417L90.9640978 7.21573425C90.9640978 7.80546151 90.992755 8.24038537 91.0500692 8.52050582 91.1073835 8.80062626 91.2145824 9.10075532 91.3716659 9.42089297L89.6012921 9.42089297C89.5545916 9.30294752 89.4972773 9.12813551 89.4293493 8.89645694 89.3996308 8.7911485 89.3784033 8.72164493 89.3656668 8.68794623 89.0599908 8.98280986 88.7330872 9.20395759 88.3849562 9.3513894 88.0368251 9.49882122 87.6653438 9.57253712 87.2705122 9.57253712 86.5742501 9.57253712 86.0255192 9.3850881 85.6243193 9.01019006 85.2231195 8.63529201 85.0225196 8.16140404 85.0225196 7.58852613 85.0225196 7.20941575 85.1137979 6.87137566 85.2963544 6.57440586 85.4789109 6.27743606 85.7347024 6.04996983 86.0637287 5.89200717 86.392755 5.73404451 86.8671897 5.59609046 87.4870328 5.47814501 88.3233964 5.32228852 88.9029072 5.17696287 89.2255653 5.04216807L89.2255653 4.86524989C89.2255653 4.52405055 89.1406553 4.28078805 88.9708353 4.13546241 88.8010152 3.99013676 88.4804799 3.91747394 88.0092293 3.91747394 87.6908168 3.91747394 87.442455 3.97960592 87.264144 4.10386988 87.0858329 4.22813383 86.9414859 4.4461223 86.8311029 4.75783528ZM89.2255653 6.19845473C88.9963083 6.27427681 88.633318 6.36484207 88.1365944 6.4701505 87.6398708 6.57545894 87.31509 6.67866121 87.162252 6.77975732 86.9287494 6.94403848 86.8119982 7.15254919 86.8119982 7.40528944 86.8119982 7.65381736 86.9053992 7.86864658 87.0922012 8.04977709 87.2790032 8.23090761 87.5167513 8.32147287 87.8054453 8.32147287 88.1281034 8.32147287 88.4359022 8.21616443 88.7288417 8.00554755 88.9453623 7.84547872 89.0875865 7.64960502 89.1555145 7.41792646 89.202215 7.2662823 89.2255653 6.97773718 89.2255653 6.55229109L89.2255653 6.19845473Z"/><g transform="translate(0 48.775)"><path d="M.945440346 1.31716555.945440346 2.33298696 0 2.33298696 0 1.53102269C0 1.0968279.0522523162.78252271.156756949.58810713.293919279.328886356.511092968.132850646.808278016 0L1.02381882.340227265C.844201484.414753237.711937808.525732131.627027795.673163946.542117781.820595761.494764119 1.03526296.48496681 1.31716555L.945440346 1.31716555ZM2.46402329 1.31716555 2.46402329 2.33298696 1.51858294 2.33298696 1.51858294 1.53102269C1.51858294 1.0968279 1.57083526.78252271 1.67533989.58810713 1.81250222.328886356 2.02967591.132850646 2.32686096 0L2.54240176.340227265C2.36278442.414753237 2.23052075.525732131 2.14561073.673163946 2.06070072.820595761 2.01334706 1.03526296 2.00354975 1.31716555L2.46402329 1.31716555ZM8.42078733.121509738 9.37112634.121509738 9.37112634 4.23825965C9.37112634 4.95435703 9.28948209 5.5230226 9.1261936 5.94425636 8.96290512 6.36549012 8.66816939 6.70814758 8.24198644 6.97222874 7.81580349 7.2363099 7.25654041 7.36835048 6.56419722 7.36835048 5.89144865 7.36835048 5.34116645 7.25332127 4.91335061 7.02326283 4.48553477 6.79320439 4.1801853 6.46026771 3.99730219 6.02445279 3.81441908 5.58863786 3.72297753 4.99324015 3.72297753 4.23825965L3.72297753.121509738 4.67331653.121509738 4.67331653 4.23339926C4.67331653 4.85228885 4.73128394 5.3083554 4.84721877 5.6015989 4.9631536 5.8948424 5.16236555 6.12085051 5.44485464 6.27962324 5.72734372 6.43839596 6.07269887 6.51778232 6.4809201 6.51778232 7.17979482 6.51778232 7.67782471 6.36062973 7.97500976 6.04632454 8.27219481 5.73201935 8.42078733 5.12771092 8.42078733 4.23339926L8.42078733.121509738ZM10.8407227 7.24684075 10.8407227 2.0851071 11.6343048 2.0851071 11.6343048 2.81902591C12.0163998 2.25198047 12.5683149 1.96845775 13.2900501 1.96845775 13.6035639 1.96845775 13.8917681 2.02435223 14.1546626 2.13614119 14.4175571 2.24793014 14.6143197 2.39455189 14.7449505 2.57600644 14.8755813 2.75746098 14.9670228 2.97293825 15.0192751 3.22243824 15.0519328 3.38445122 15.0682617 3.66797394 15.0682617 4.0730064L15.0682617 7.24684075 14.1865039 7.24684075 14.1865039 4.10702913C14.1865039 3.75060057 14.1522133 3.48408921 14.0836321 3.30749506 14.0150509 3.1309009 13.893401 2.98994961 13.7186823 2.88464117 13.5439637 2.77933273 13.3390366 2.72667851 13.1039012 2.72667851 12.7283377 2.72667851 12.40421 2.84494799 12.1315182 3.08148694 11.8588265 3.3180259 11.7224806 3.76680186 11.7224806 4.42781484L11.7224806 7.24684075 10.8407227 7.24684075ZM19.815058 6.61012972C19.4884811 6.88555179 19.1741507 7.07996737 18.872067 7.19337646 18.5699833 7.30678555 18.2458557 7.36349009 17.8996841 7.36349009 17.3281744 7.36349009 16.8889283 7.22496899 16.581946 6.94792679 16.2749636 6.67088459 16.1214724 6.31688622 16.1214724 5.88593169 16.1214724 5.63319143 16.1794398 5.40232293 16.2953747 5.19332618 16.4113095 4.98432943 16.5631678 4.816646 16.7509496 4.69027587 16.9387313 4.56390574 17.1501899 4.46831808 17.3853253 4.40351289 17.5584111 4.35814925 17.8196727 4.31440575 18.1691101 4.27228237 18.8810479 4.18803562 19.4052039 4.08758757 19.7415782 3.97093822 19.744844 3.85104862 19.7464769 3.77490251 19.7464769 3.74249992 19.7464769 3.38607135 19.6631997 3.13495123 19.4966455 2.98913954 19.2713074 2.7914837 18.936566 2.69265578 18.4924213 2.69265578 18.0776685 2.69265578 17.7715026 2.76475156 17.5739235 2.90894312 17.3763445 3.05313467 17.2302013 3.30830512 17.1354939 3.67445446L16.2733307 3.55780512C16.3517092 3.19165577 16.4807071 2.89598208 16.6603244 2.67078403 16.8399418 2.44558598 17.0995705 2.27223209 17.4392105 2.15072235 17.7788506 2.02921262 18.1723758 1.96845775 18.6197863 1.96845775 19.063931 1.96845775 19.4247986 2.0203019 19.702389 2.12399021 19.9799794 2.22767852 20.18409 2.35809897 20.3147208 2.51525157 20.4453516 2.67240416 20.5367932 2.87087007 20.5890455 3.11064928 20.6184374 3.25970123 20.6331334 3.52864278 20.6331334 3.91747394L20.6331334 5.08396742C20.6331334 5.8972726 20.6519115 6.41166382 20.6894679 6.62714109 20.7270242 6.84261835 20.8013205 7.04918491 20.9123567 7.24684075L19.9914096 7.24684075C19.8999681 7.06538621 19.8411842 6.8531492 19.815058 6.61012972ZM19.7415782 4.65625314C19.4215328 4.78586353 18.9414646 4.89603236 18.3013738 4.98675963 17.9388733 5.03860378 17.6825104 5.09692846 17.532285 5.16173365 17.3820596 5.22653884 17.2661247 5.32131644 17.1844805 5.44606644 17.1028363 5.57081643 17.0620141 5.70933753 17.0620141 5.86162974 17.0620141 6.09492843 17.1510064 6.28934402 17.3289908 6.44487648 17.5069753 6.60040894 17.7674204 6.67817518 18.1103262 6.67817518 18.4499663 6.67817518 18.75205 6.60445927 19.0165773 6.45702745 19.2811047 6.30959564 19.475418 6.10788947 19.5995172 5.85190896 19.6942246 5.65425312 19.7415782 5.36262975 19.7415782 4.97703885L19.7415782 4.65625314ZM24.7871925 7.24684075 24.7871925 2.0851071 25.5758759 2.0851071 25.5758759 2.80930513C25.7391644 2.55656488 25.9563381 2.35323858 26.227397 2.19932625 26.4984559 2.04541392 26.8070711 1.96845775 27.1532427 1.96845775 27.5386035 1.96845775 27.8545668 2.04784411 28.1011324 2.20661683 28.347698 2.36538956 28.5216002 2.58734734 28.6228391 2.8724902 29.0343261 2.2698019 29.5699123 1.96845775 30.2295978 1.96845775 30.7455894 1.96845775 31.1423805 2.11021911 31.4199709 2.39374183 31.6975613 2.67726455 31.8363565 3.11388954 31.8363565 3.7036168L31.8363565 7.24684075 30.9594974 7.24684075 30.9594974 3.99524017C30.9594974 3.64529213 30.9309219 3.39336194 30.8737709 3.2394496 30.8166199 3.08553727 30.7129317 2.96159734 30.5627063 2.86762981 30.4124809 2.77366228 30.2361294 2.72667851 30.0336516 2.72667851 29.6678854 2.72667851 29.3641688 2.84737818 29.1225019 3.08877753 28.8808349 3.33017687 28.7600014 3.71657784 28.7600014 4.24798042L28.7600014 7.24684075 27.8782436 7.24684075 27.8782436 3.89317199C27.8782436 3.50434083 27.8063966 3.21271746 27.6627028 3.01830188 27.5190089 2.8238863 27.2838735 2.72667851 26.9572965 2.72667851 26.709098 2.72667851 26.4796777 2.7914837 26.2690355 2.92109409 26.0583934 3.05070448 25.9057186 3.24025967 25.8110113 3.48975966 25.716304 3.73925966 25.6689503 4.09892848 25.6689503 4.56876613L25.6689503 7.24684075 24.7871925 7.24684075ZM36.539065 6.61012972C36.212488 6.88555179 35.8981577 7.07996737 35.596074 7.19337646 35.2939903 7.30678555 34.9698626 7.36349009 34.623691 7.36349009 34.0521813 7.36349009 33.6129353 7.22496899 33.3059529 6.94792679 32.9989706 6.67088459 32.8454794 6.31688622 32.8454794 5.88593169 32.8454794 5.63319143 32.9034468 5.40232293 33.0193816 5.19332618 33.1353165 4.98432943 33.2871748 4.816646 33.4749565 4.69027587 33.6627383 4.56390574 33.8741969 4.46831808 34.1093323 4.40351289 34.2824181 4.35814925 34.5436797 4.31440575 34.893117 4.27228237 35.6050548 4.18803562 36.1292109 4.08758757 36.4655852 3.97093822 36.4688509 3.85104862 36.4704838 3.77490251 36.4704838 3.74249992 36.4704838 3.38607135 36.3872067 3.13495123 36.2206524 2.98913954 35.9953143 2.7914837 35.6605729 2.69265578 35.2164282 2.69265578 34.8016755 2.69265578 34.4955096 2.76475156 34.2979305 2.90894312 34.1003514 3.05313467 33.9542082 3.30830512 33.8595009 3.67445446L32.9973377 3.55780512C33.0757162 3.19165577 33.2047141 2.89598208 33.3843314 2.67078403 33.5639487 2.44558598 33.8235774 2.27223209 34.1632175 2.15072235 34.5028575 2.02921262 34.8963828 1.96845775 35.3437933 1.96845775 35.787938 1.96845775 36.1488055 2.0203019 36.4263959 2.12399021 36.7039864 2.22767852 36.908097 2.35809897 37.0387278 2.51525157 37.1693586 2.67240416 37.2608001 2.87087007 37.3130524 3.11064928 37.3424444 3.25970123 37.3571403 3.52864278 37.3571403 3.91747394L37.3571403 5.08396742C37.3571403 5.8972726 37.3759185 6.41166382 37.4134749 6.62714109 37.4510312 6.84261835 37.5253275 7.04918491 37.6363636 7.24684075L36.7154166 7.24684075C36.623975 7.06538621 36.5651912 6.8531492 36.539065 6.61012972ZM36.4655852 4.65625314C36.1455397 4.78586353 35.6654716 4.89603236 35.0253807 4.98675963 34.6628803 5.03860378 34.4065173 5.09692846 34.2562919 5.16173365 34.1060665 5.22653884 33.9901317 5.32131644 33.9084875 5.44606644 33.8268432 5.57081643 33.7860211 5.70933753 33.7860211 5.86162974 33.7860211 6.09492843 33.8750133 6.28934402 34.0529978 6.44487648 34.2309822 6.60040894 34.4914274 6.67817518 34.8343332 6.67817518 35.1739732 6.67817518 35.4760569 6.60445927 35.7405843 6.45702745 36.0051116 6.30959564 36.1994249 6.10788947 36.3235242 5.85190896 36.4182315 5.65425312 36.4655852 5.36262975 36.4655852 4.97703885L36.4655852 4.65625314ZM38.723865 7.24684075 38.723865 2.0851071 39.517447 2.0851071 39.517447 2.81902591C39.8995421 2.25198047 40.4514572 1.96845775 41.1731923 1.96845775 41.4867062 1.96845775 41.7749104 2.02435223 42.0378048 2.13614119 42.3006993 2.24793014 42.4974619 2.39455189 42.6280927 2.57600644 42.7587235 2.75746098 42.8501651 2.97293825 42.9024174 3.22243824 42.9350751 3.38445122 42.9514039 3.66797394 42.9514039 4.0730064L42.9514039 7.24684075 42.0696461 7.24684075 42.0696461 4.10702913C42.0696461 3.75060057 42.0353555 3.48408921 41.9667743 3.30749506 41.8981932 3.1309009 41.7765433 2.98994961 41.6018246 2.88464117 41.4271059 2.77933273 41.2221788 2.72667851 40.9870434 2.72667851 40.6114799 2.72667851 40.2873522 2.84494799 40.0146605 3.08148694 39.7419687 3.3180259 39.6056228 3.76680186 39.6056228 4.42781484L39.6056228 7.24684075 38.723865 7.24684075ZM47.8647545 5.58458754 48.7759043 5.6963765C48.6322104 6.22453882 48.3660502 6.63443167 47.9774236 6.92605504 47.588797 7.21767841 47.0924 7.36349009 46.4882326 7.36349009 45.7273082 7.36349009 45.1239573 7.13100146 44.6781797 6.6660242 44.2324021 6.20104694 44.0095133 5.54894468 44.0095133 4.70971743 44.0095133 3.84132784 44.2348514 3.16735383 44.6855277 2.68779539 45.1362039 2.20823696 45.7207767 1.96845775 46.439246 1.96845775 47.134855 1.96845775 47.7030989 2.20337657 48.1439778 2.67321423 48.5848568 3.14305188 48.8052962 3.80406485 48.8052962 4.65625314 48.8052962 4.7080973 48.8036633 4.78586353 48.8003976 4.88955184L44.9206631 4.88955184C44.9533208 5.45659728 45.1149764 5.89079208 45.4056299 6.19213622 45.6962834 6.49348037 46.0587839 6.64415245 46.4931312 6.64415245 46.8164424 6.64415245 47.0924 6.5599057 47.3210039 6.39141219 47.5496078 6.22291869 47.730858 5.95397714 47.8647545 5.58458754ZM44.9696496 4.17021419 47.8745518 4.17021419C47.8353626 3.7360194 47.7243264 3.4103733 47.5414433 3.1932759 47.2605871 2.8562889 46.8964538 2.68779539 46.4490433 2.68779539 46.0440879 2.68779539 45.7036314 2.82226617 45.4276738 3.09120772 45.1517163 3.36014928 44.9990416 3.7198181 44.9696496 4.17021419ZM49.8732029 7.24684075 49.8732029 2.0851071 50.666785 2.0851071 50.666785 2.86762981C50.8692627 2.50148046 51.056228 2.26008112 51.2276809 2.14343177 51.3991339 2.02678242 51.5877321 1.96845775 51.7934756 1.96845775 52.0906606 1.96845775 52.3927443 2.06242528 52.6997267 2.25036034L52.3960101 3.06204539C52.1804693 2.93567526 51.9649285 2.8724902 51.7493877 2.8724902 51.5567073 2.8724902 51.3836215 2.9300048 51.2301303 3.04503402 51.0766391 3.16006324 50.9672358 3.31964603 50.9019204 3.52378239 50.8039473 3.83484732 50.7549608 4.17507458 50.7549608 4.54446418L50.7549608 7.24684075 49.8732029 7.24684075ZM56.6186504 6.61012972C56.2920734 6.88555179 55.9777431 7.07996737 55.6756594 7.19337646 55.3735757 7.30678555 55.049448 7.36349009 54.7032764 7.36349009 54.1317667 7.36349009 53.6925207 7.22496899 53.3855383 6.94792679 53.078556 6.67088459 52.9250648 6.31688622 52.9250648 5.88593169 52.9250648 5.63319143 52.9830322 5.40232293 53.098967 5.19332618 53.2149018 4.98432943 53.3667601 4.816646 53.5545419 4.69027587 53.7423237 4.56390574 53.9537823 4.46831808 54.1889177 4.40351289 54.3620035 4.35814925 54.6232651 4.31440575 54.9727024 4.27228237 55.6846402 4.18803562 56.2087963 4.08758757 56.5451706 3.97093822 56.5484363 3.85104862 56.5500692 3.77490251 56.5500692 3.74249992 56.5500692 3.38607135 56.4667921 3.13495123 56.3002378 2.98913954 56.0748997 2.7914837 55.7401583 2.69265578 55.2960136 2.69265578 54.8812609 2.69265578 54.575095 2.76475156 54.3775159 2.90894312 54.1799368 3.05313467 54.0337936 3.30830512 53.9390863 3.67445446L53.0769231 3.55780512C53.1553016 3.19165577 53.2842995 2.89598208 53.4639168 2.67078403 53.6435341 2.44558598 53.9031628 2.27223209 54.2428029 2.15072235 54.5824429 2.02921262 54.9759682 1.96845775 55.4233787 1.96845775 55.8675233 1.96845775 56.2283909 2.0203019 56.5059813 2.12399021 56.7835718 2.22767852 56.9876824 2.35809897 57.1183132 2.51525157 57.2489439 2.67240416 57.3403855 2.87087007 57.3926378 3.11064928 57.4220297 3.25970123 57.4367257 3.52864278 57.4367257 3.91747394L57.4367257 5.08396742C57.4367257 5.8972726 57.4555039 6.41166382 57.4930602 6.62714109 57.5306166 6.84261835 57.6049129 7.04918491 57.715949 7.24684075L56.795002 7.24684075C56.7035604 7.06538621 56.6447765 6.8531492 56.6186504 6.61012972ZM56.5451706 4.65625314C56.2251251 4.78586353 55.745057 4.89603236 55.1049661 4.98675963 54.7424657 5.03860378 54.4861027 5.09692846 54.3358773 5.16173365 54.1856519 5.22653884 54.0697171 5.32131644 53.9880728 5.44606644 53.9064286 5.57081643 53.8656065 5.70933753 53.8656065 5.86162974 53.8656065 6.09492843 53.9545987 6.28934402 54.1325832 6.44487648 54.3105676 6.60040894 54.5710127 6.67817518 54.9139186 6.67817518 55.2535586 6.67817518 55.5556423 6.60445927 55.8201697 6.45702745 56.084697 6.30959564 56.2790103 6.10788947 56.4031096 5.85190896 56.4978169 5.65425312 56.5451706 5.36262975 56.5451706 4.97703885L56.5451706 4.65625314ZM64.9659579 7.24684075 64.9659579 6.59554855C64.6361152 7.10750958 64.1511483 7.36349009 63.5110575 7.36349009 63.0963047 7.36349009 62.7150261 7.25008101 62.3672216 7.02326283 62.0194171 6.79644465 61.7499911 6.47970927 61.5589436 6.07305668 61.3678961 5.66640409 61.2723723 5.19899664 61.2723723 4.67083431 61.2723723 4.15563302 61.3589152 3.68822557 61.532001 3.26861194 61.7050868 2.84899831 61.9647155 2.52740254 62.3108871 2.30382462 62.6570587 2.08024671 63.0440524 1.96845775 63.4718682 1.96845775 63.7853821 1.96845775 64.0646054 2.03407301 64.3095382 2.16530352 64.5544709 2.29653404 64.7536829 2.46745774 64.907174 2.67807462L64.907174.121509738 65.7840332.121509738 65.7840332 7.24684075 64.9659579 7.24684075ZM62.1786234 4.67083431C62.1786234 5.33184728 62.3190515 5.82598688 62.5999077 6.15325311 62.8807639 6.48051934 63.2122395 6.64415245 63.5943346 6.64415245 63.9796954 6.64415245 64.3070889 6.48780992 64.5765149 6.17512486 64.8459409 5.8624398 64.9806539 5.38531157 64.9806539 4.74374015 64.9806539 4.03736355 64.8434915 3.518922 64.5691669 3.18841551 64.2948422 2.85790903 63.956835 2.69265578 63.5551454 2.69265578 63.163253 2.69265578 62.8358596 2.85142851 62.5729651 3.16897396 62.3100706 3.4865194 62.1786234 3.98713952 62.1786234 4.67083431ZM70.7316744 5.58458754 71.6428242 5.6963765C71.4991303 6.22453882 71.2329701 6.63443167 70.8443435 6.92605504 70.4557169 7.21767841 69.9593199 7.36349009 69.3551525 7.36349009 68.5942281 7.36349009 67.9908771 7.13100146 67.5450996 6.6660242 67.099322 6.20104694 66.8764332 5.54894468 66.8764332 4.70971743 66.8764332 3.84132784 67.1017713 3.16735383 67.5524476 2.68779539 68.0031238 2.20823696 68.5876966 1.96845775 69.3061659 1.96845775 70.0017749 1.96845775 70.5700188 2.20337657 71.0108977 2.67321423 71.4517766 3.14305188 71.6722161 3.80406485 71.6722161 4.65625314 71.6722161 4.7080973 71.6705832 4.78586353 71.6673175 4.88955184L67.787583 4.88955184C67.8202407 5.45659728 67.9818963 5.89079208 68.2725498 6.19213622 68.5632033 6.49348037 68.9257037 6.64415245 69.3600511 6.64415245 69.6833623 6.64415245 69.9593199 6.5599057 70.1879238 6.39141219 70.4165276 6.22291869 70.5977779 5.95397714 70.7316744 5.58458754ZM67.8365695 4.17021419 70.7414717 4.17021419C70.7022825 3.7360194 70.5912463 3.4103733 70.4083632 3.1932759 70.127507 2.8562889 69.7633737 2.68779539 69.3159632 2.68779539 68.9110078 2.68779539 68.5705513 2.82226617 68.2945937 3.09120772 68.0186362 3.36014928 67.8659614 3.7198181 67.8365695 4.17021419ZM75.5372546 7.24684075 75.5372546.121509738 76.4190125.121509738 76.4190125 2.67807462C76.8304994 2.2049967 77.3497568 1.96845775 77.9767846 1.96845775 78.3621455 1.96845775 78.6968869 2.04379379 78.9810088 2.19446586 79.2651308 2.34513793 79.468425 2.55332462 79.5908913 2.81902591 79.7133577 3.0847272 79.7745909 3.4703181 79.7745909 3.97579861L79.7745909 7.24684075 78.8928331 7.24684075 78.8928331 3.97579861C78.8928331 3.53836356 78.7973093 3.22000804 78.6062618 3.02073208 78.4152142 2.82145611 78.1449718 2.72181812 77.7955344 2.72181812 77.5342728 2.72181812 77.2885237 2.78905351 77.0582869 2.92352429 76.8280501 3.05799506 76.6639452 3.24025967 76.5659721 3.4703181 76.467999 3.70037654 76.4190125 4.01792199 76.4190125 4.42295445L76.4190125 7.24684075 75.5372546 7.24684075ZM84.5115899 6.61012972C84.185013 6.88555179 83.8706826 7.07996737 83.5685989 7.19337646 83.2665152 7.30678555 82.9423876 7.36349009 82.596216 7.36349009 82.0247063 7.36349009 81.5854602 7.22496899 81.2784779 6.94792679 80.9714955 6.67088459 80.8180043 6.31688622 80.8180043 5.88593169 80.8180043 5.63319143 80.8759717 5.40232293 80.9919066 5.19332618 81.1078414 4.98432943 81.2596997 4.816646 81.4474815 4.69027587 81.6352632 4.56390574 81.8467218 4.46831808 82.0818572 4.40351289 82.254943 4.35814925 82.5162046 4.31440575 82.865642 4.27228237 83.5775798 4.18803562 84.1017358 4.08758757 84.4381101 3.97093822 84.4413759 3.85104862 84.4430088 3.77490251 84.4430088 3.74249992 84.4430088 3.38607135 84.3597316 3.13495123 84.1931774 2.98913954 83.9678393 2.7914837 83.6330979 2.69265578 83.1889532 2.69265578 82.7742004 2.69265578 82.4680345 2.76475156 82.2704554 2.90894312 82.0728764 3.05313467 81.9267332 3.30830512 81.8320258 3.67445446L80.9698626 3.55780512C81.0482411 3.19165577 81.177239 2.89598208 81.3568563 2.67078403 81.5364737 2.44558598 81.7961024 2.27223209 82.1357424 2.15072235 82.4753825 2.02921262 82.8689077 1.96845775 83.3163182 1.96845775 83.7604629 1.96845775 84.1213304 2.0203019 84.3989209 2.12399021 84.6765113 2.22767852 84.8806219 2.35809897 85.0112527 2.51525157 85.1418835 2.67240416 85.2333251 2.87087007 85.2855774 3.11064928 85.3149693 3.25970123 85.3296653 3.52864278 85.3296653 3.91747394L85.3296653 5.08396742C85.3296653 5.8972726 85.3484434 6.41166382 85.3859998 6.62714109 85.4235561 6.84261835 85.4978524 7.04918491 85.6088886 7.24684075L84.6879415 7.24684075C84.5964999 7.06538621 84.5377161 6.8531492 84.5115899 6.61012972ZM84.4381101 4.65625314C84.1180647 4.78586353 83.6379965 4.89603236 82.9979056 4.98675963 82.6354052 5.03860378 82.3790423 5.09692846 82.2288169 5.16173365 82.0785915 5.22653884 81.9626566 5.32131644 81.8810124 5.44606644 81.7993681 5.57081643 81.758546 5.70933753 81.758546 5.86162974 81.758546 6.09492843 81.8475382 6.28934402 82.0255227 6.44487648 82.2035072 6.60040894 82.4639523 6.67817518 82.8068581 6.67817518 83.1464982 6.67817518 83.4485819 6.60445927 83.7131092 6.45702745 83.9776366 6.30959564 84.1719499 6.10788947 84.2960491 5.85190896 84.3907565 5.65425312 84.4381101 5.36262975 84.4381101 4.97703885L84.4381101 4.65625314ZM90.0911576 5.35614923 90.9582194 5.46793819C90.8635121 6.06090571 90.6210287 6.52507291 90.2307692 6.86043978 89.8405097 7.19580666 89.361258 7.36349009 88.7930141 7.36349009 88.0810763 7.36349009 87.5087501 7.13262159 87.0760356 6.67088459 86.6433211 6.20914759 86.4269639 5.54732455 86.4269639 4.68541548 86.4269639 4.12809082 86.5200383 3.64043174 86.7061872 3.22243824 86.8923361 2.80444474 87.1756416 2.49094962 87.5561038 2.28195287 87.936566 2.07295612 88.3505023 1.96845775 88.7979127 1.96845775 89.3628909 1.96845775 89.8249973 2.11021911 90.184232 2.39374183 90.5434667 2.67726455 90.7737035 3.07986681 90.8749423 3.60154862L90.0176778 3.73277914C89.9360335 3.38607135 89.7915232 3.12523045 89.5841468 2.95025643 89.3767704 2.77528241 89.1261226 2.68779539 88.8322033 2.68779539 88.3880586 2.68779539 88.0271911 2.84575805 87.7496007 3.16168337 87.4720102 3.47760869 87.333215 3.97741874 87.333215 4.66111353 87.333215 5.3545291 87.4671116 5.85838948 87.7349047 6.17269467 88.0026978 6.48699985 88.3521352 6.64415245 88.7832168 6.64415245 89.1293884 6.64415245 89.418409 6.53884401 89.6502787 6.32822713 89.8821483 6.11761025 90.0291079 5.79358429 90.0911576 5.35614923ZM95.2739342 5.58458754 96.185084 5.6963765C96.0413901 6.22453882 95.7752298 6.63443167 95.3866032 6.92605504 94.9979766 7.21767841 94.5015796 7.36349009 93.8974122 7.36349009 93.1364879 7.36349009 92.5331369 7.13100146 92.0873593 6.6660242 91.6415818 6.20104694 91.418693 5.54894468 91.418693 4.70971743 91.418693 3.84132784 91.6440311 3.16735383 92.0947073 2.68779539 92.5453836 2.20823696 93.1299563 1.96845775 93.8484257 1.96845775 94.5440346 1.96845775 95.1122786 2.20337657 95.5531575 2.67321423 95.9940364 3.14305188 96.2144759 3.80406485 96.2144759 4.65625314 96.2144759 4.7080973 96.212843 4.78586353 96.2095772 4.88955184L92.3298427 4.88955184C92.3625004 5.45659728 92.524156 5.89079208 92.8148096 6.19213622 93.1054631 6.49348037 93.4679635 6.64415245 93.9023109 6.64415245 94.2256221 6.64415245 94.5015796 6.5599057 94.7301835 6.39141219 94.9587874 6.22291869 95.1400376 5.95397714 95.2739342 5.58458754ZM92.3788293 4.17021419 95.2837315 4.17021419C95.2445423 3.7360194 95.1335061 3.4103733 94.950623 3.1932759 94.6697668 2.8562889 94.3056335 2.68779539 93.858223 2.68779539 93.4532675 2.68779539 93.112811 2.82226617 92.8368535 3.09120772 92.560896 3.36014928 92.4082212 3.7198181 92.3788293 4.17021419ZM97.2823826 7.24684075 97.2823826 2.0851071 98.0759646 2.0851071 98.0759646 2.86762981C98.2784424 2.50148046 98.4654077 2.26008112 98.6368606 2.14343177 98.8083135 2.02678242 98.9969117 1.96845775 99.2026552 1.96845775 99.4998403 1.96845775 99.801924 2.06242528 100.108906 2.25036034L99.8051897 3.06204539C99.5896489 2.93567526 99.3741081 2.8724902 99.1585673 2.8724902 98.9658869 2.8724902 98.7928011 2.9300048 98.6393099 3.04503402 98.4858187 3.16006324 98.3764155 3.31964603 98.3111001 3.52378239 98.213127 3.83484732 98.1641404 4.17507458 98.1641404 4.54446418L98.1641404 7.24684075 97.2823826 7.24684075Z"/><polygon points="103.553 7.247 103.553 .122 108.745 .122 108.745 .962 104.503 .962 104.503 3.145 108.476 3.145 108.476 3.981 104.503 3.981 104.503 6.406 108.912 6.406 108.912 7.247"/><path d="M113.521423 7.24684075 113.521423 6.48861998C113.116467 7.07186672 112.566185 7.36349009 111.870576 7.36349009 111.563594 7.36349009 111.277022 7.30516542 111.010862 7.18851607 110.744702 7.07186672 110.547123 6.92524497 110.418125 6.74865082 110.289127 6.57205667 110.198502 6.35576934 110.14625 6.09978882 110.110326 5.92805506 110.092364 5.65587325 110.092364 5.28324339L110.092364 2.0851071 110.974122 2.0851071 110.974122 4.94787651C110.974122 5.40475313 110.992084 5.71257779 111.028008 5.87135052 111.083526 6.10140895 111.201093 6.28205343 111.380711 6.41328395 111.560328 6.54451446 111.7824 6.61012972 112.046928 6.61012972 112.311455 6.61012972 112.559654 6.54289433 112.791523 6.40842356 113.023393 6.27395278 113.187498 6.09087811 113.283838 5.85919954 113.380178 5.62752098 113.428348 5.29134404 113.428348 4.85066872L113.428348 2.0851071 114.310106 2.0851071 114.310106 7.24684075 113.521423 7.24684075ZM115.681729 7.24684075 115.681729 2.0851071 116.475311 2.0851071 116.475311 2.86762981C116.677789 2.50148046 116.864755 2.26008112 117.036207 2.14343177 117.20766 2.02678242 117.396259 1.96845775 117.602002 1.96845775 117.899187 1.96845775 118.201271 2.06242528 118.508253 2.25036034L118.204537 3.06204539C117.988996 2.93567526 117.773455 2.8724902 117.557914 2.8724902 117.365234 2.8724902 117.192148 2.9300048 117.038657 3.04503402 116.885166 3.16006324 116.775762 3.31964603 116.710447 3.52378239 116.612474 3.83484732 116.563487 4.17507458 116.563487 4.54446418L116.563487 7.24684075 115.681729 7.24684075ZM118.704199 4.66597392C118.704199 3.71009732 118.971992 3.00210058 119.507579 2.54198371 119.954989 2.15963307 120.500373 1.96845775 121.143729 1.96845775 121.858933 1.96845775 122.443506 2.20094638 122.897448 2.66592364 123.35139 3.1309009 123.578361 3.77328238 123.578361 4.59306808 123.578361 5.25732131 123.477938 5.77981318 123.277093 6.16054369 123.076249 6.5412742 122.783962 6.8369479 122.400234 7.04756478 122.016506 7.25818166 121.597671 7.36349009 121.143729 7.36349009 120.415463 7.36349009 119.826808 7.13181153 119.377764 6.6684544 118.928721 6.20509726 118.704199 5.53760377 118.704199 4.66597392ZM119.61045 4.66597392C119.61045 5.32698689 119.755777 5.82193656 120.046431 6.15082291 120.337084 6.47970927 120.70285 6.64415245 121.143729 6.64415245 121.581343 6.64415245 121.945476 6.47889921 122.236129 6.14839272 122.526783 5.81788623 122.67211 5.31402586 122.67211 4.63681158 122.67211 3.99848043 122.525966 3.51487167 122.23368 3.18598532 121.941394 2.85709896 121.578077 2.69265578 121.143729 2.69265578 120.70285 2.69265578 120.337084 2.8562889 120.046431 3.18355512 119.755777 3.51082135 119.61045 4.00496095 119.61045 4.66597392ZM124.611977 9.22501927 124.611977 2.0851071 125.415356 2.0851071 125.415356 2.75584085C125.604771 2.49337981 125.818679 2.29653404 126.05708 2.16530352 126.295481 2.03407301 126.584502 1.96845775 126.924142 1.96845775 127.368287 1.96845775 127.760179 2.08186684 128.099819 2.30868501 128.439459 2.53550319 128.695822 2.85547883 128.868908 3.26861194 129.041994 3.68174505 129.128536 4.13457134 129.128536 4.62709081 129.128536 5.15525313 129.033013 5.63076124 128.841965 6.05361512 128.650918 6.47646901 128.373327 6.80049498 128.009194 7.02569302 127.645061 7.25089107 127.262149 7.36349009 126.860459 7.36349009 126.56654 7.36349009 126.302829 7.30192516 126.069327 7.17879529 125.835824 7.05566543 125.64396 6.90013296 125.493735 6.7121979L125.493735 9.22501927 124.611977 9.22501927ZM125.410458 4.69513626C125.410458 5.35938949 125.545987 5.85028883 125.817046 6.16783428 126.088105 6.48537972 126.416315 6.64415245 126.801675 6.64415245 127.193568 6.64415245 127.529126 6.47970927 127.808349 6.15082291 128.087572 5.82193656 128.227184 5.31240573 128.227184 4.62223042 128.227184 3.9644577 128.090838 3.47193823 127.818146 3.14467201 127.545455 2.81740578 127.219694 2.65377267 126.840865 2.65377267 126.465301 2.65377267 126.133009 2.82793662 125.843988 3.17626454 125.554968 3.52459245 125.410458 4.03088303 125.410458 4.69513626ZM133.586312 6.61012972C133.259735 6.88555179 132.945405 7.07996737 132.643321 7.19337646 132.341237 7.30678555 132.01711 7.36349009 131.670938 7.36349009 131.099428 7.36349009 130.660182 7.22496899 130.3532 6.94792679 130.046218 6.67088459 129.892727 6.31688622 129.892727 5.88593169 129.892727 5.63319143 129.950694 5.40232293 130.066629 5.19332618 130.182564 4.98432943 130.334422 4.816646 130.522204 4.69027587 130.709985 4.56390574 130.921444 4.46831808 131.156579 4.40351289 131.329665 4.35814925 131.590927 4.31440575 131.940364 4.27228237 132.652302 4.18803562 133.176458 4.08758757 133.512832 3.97093822 133.516098 3.85104862 133.517731 3.77490251 133.517731 3.74249992 133.517731 3.38607135 133.434454 3.13495123 133.2679 2.98913954 133.042561 2.7914837 132.70782 2.69265578 132.263675 2.69265578 131.848923 2.69265578 131.542757 2.76475156 131.345178 2.90894312 131.147599 3.05313467 131.001455 3.30830512 130.906748 3.67445446L130.044585 3.55780512C130.122963 3.19165577 130.251961 2.89598208 130.431579 2.67078403 130.611196 2.44558598 130.870825 2.27223209 131.210465 2.15072235 131.550105 2.02921262 131.94363 1.96845775 132.39104 1.96845775 132.835185 1.96845775 133.196053 2.0203019 133.473643 2.12399021 133.751234 2.22767852 133.955344 2.35809897 134.085975 2.51525157 134.216606 2.67240416 134.308047 2.87087007 134.3603 3.11064928 134.389692 3.25970123 134.404387 3.52864278 134.404387 3.91747394L134.404387 5.08396742C134.404387 5.8972726 134.423166 6.41166382 134.460722 6.62714109 134.498278 6.84261835 134.572575 7.04918491 134.683611 7.24684075L133.762664 7.24684075C133.671222 7.06538621 133.612438 6.8531492 133.586312 6.61012972ZM133.512832 4.65625314C133.192787 4.78586353 132.712719 4.89603236 132.072628 4.98675963 131.710127 5.03860378 131.453765 5.09692846 131.303539 5.16173365 131.153314 5.22653884 131.037379 5.32131644 130.955735 5.44606644 130.87409 5.57081643 130.833268 5.70933753 130.833268 5.86162974 130.833268 6.09492843 130.92226 6.28934402 131.100245 6.44487648 131.278229 6.60040894 131.538675 6.67817518 131.88158 6.67817518 132.22122 6.67817518 132.523304 6.60445927 132.787831 6.45702745 133.052359 6.30959564 133.246672 6.10788947 133.370771 5.85190896 133.465479 5.65425312 133.512832 5.36262975 133.512832 4.97703885L133.512832 4.65625314ZM135.535977 1.0644253 135.535977.048603895 136.481417.048603895 136.481417.850568163C136.481417 1.28476296 136.430798 1.59744802 136.329559 1.78862334 136.189131 2.05108437 135.970324 2.24874021 135.673139 2.38159086L135.457598 2.0365032C135.63395 1.96521749 135.765397 1.85261847 135.85194 1.69870613 135.938483 1.5447938 135.986653 1.33336685 135.99645 1.0644253L135.535977 1.0644253ZM137.05456 1.0644253 137.05456.048603895 138 .048603895 138 .850568163C138 1.28476296 137.949381 1.59744802 137.848142 1.78862334 137.707714 2.05108437 137.488907 2.24874021 137.191722 2.38159086L136.976181 2.0365032C137.152533 1.96521749 137.28398 1.85261847 137.370523 1.69870613 137.457066 1.5447938 137.505236 1.33336685 137.515033 1.0644253L137.05456 1.0644253Z"/></g></g><g transform="translate(0 .021)"><polygon fill="#039" points="0 57.979 88.113 57.979 88.113 0 0 0"/><path fill="#FC0" d="M42.1789577,12.6327319 L44.0381401,11.293287 L45.8973225,12.6327319 L45.1898763,10.4668667 L47.0782638,9.12772838 L44.7505575,9.12772838 L44.0381401,6.93549126 L43.3257228,9.13018158 L40.9992593,9.12772838 L42.886404,10.4668667 L42.1789577,12.6327319 M32.5571296,15.1840556 L34.416312,13.8449173 L36.2745623,15.1840556 L35.5680482,13.0181903 L37.4555036,11.679052 L35.1274866,11.679052 L34.4150692,9.48466838 L33.7026519,11.6815052 L31.3761884,11.679052 L33.2633331,13.0181903 L32.5571296,15.1840556 M27.3760258,16.4489847 L26.6636084,18.6458216 L24.3371449,18.6433684 L26.2242896,19.9825066 L25.5168434,22.1483719 L27.3760258,20.8092336 L29.2355188,22.1483719 L28.5277619,19.9825066 L30.4149066,18.6433684 L28.0884431,18.6433684 L27.3760258,16.4489847 M24.7935518,30.2935953 L26.6514914,31.6327336 L25.945288,29.467175 L27.8324327,28.1280367 L25.5059691,28.1280367 L24.7935518,25.9336531 L24.0811345,28.1326365 L21.7531175,28.1280367 L23.6418157,29.467175 L22.9340587,31.6327336 L24.7935518,30.2935953 M28.0884431,37.6412235 L27.3760258,35.4468398 L26.6636084,37.6436767 L24.3371449,37.6412235 L26.2242896,38.9803618 L25.5168434,41.146227 L27.3760258,39.8046356 L29.2355188,41.146227 L28.5277619,38.9803618 L30.4149066,37.6412235 L28.0884431,37.6412235 M35.1420891,44.6030866 L34.4296718,42.4111561 L33.7184972,44.6055398 L31.3907909,44.6030866 L33.2779356,45.9425315 L32.5717322,48.1080902 L34.4309145,46.7689519 L36.2891649,48.1080902 L35.5826507,45.9425315 L37.4697954,44.6030866 L35.1420891,44.6030866 M44.7518002,47.1258919 L44.0393829,44.9315082 L43.3282084,47.1283451 L41.0005021,47.1258919 L42.8876468,48.4650302 L42.1811326,50.6308954 L44.0406257,49.2914505 L45.8985653,50.6308954 L45.1911191,48.4650302 L47.0795065,47.1258919 L44.7518002,47.1258919 M54.3615114,44.6030866 L53.6503368,42.4111561 L52.9366767,44.6055398 L50.6111453,44.6030866 L52.4973579,45.9425315 L51.7908437,48.1080902 L53.6503368,46.7689519 L55.5095192,48.1080902 L54.8008302,45.9425315 L56.6892176,44.6030866 L54.3615114,44.6030866 M61.4176429,37.6412235 L60.7039828,35.4468398 L59.9903227,37.6436767 L57.6647913,37.6412235 L59.5534895,38.9803618 L58.8444897,41.146227 L60.7039828,39.8046356 L62.5631652,41.146227 L61.8544762,38.9803618 L63.7428637,37.6412235 L61.4176429,37.6412235 M66.2986181,28.1016649 L63.9709118,28.1016649 L63.2572517,25.9072812 L62.5460772,28.1041181 L60.2183709,28.1016649 L62.1067583,29.4408031 L61.4005548,31.6063618 L63.2572517,30.2647703 L65.1167448,31.6063618 L64.4102306,29.4408031 L66.2986181,28.1016649 M58.8444897,22.1195468 L60.7039828,20.7804086 L62.5631652,22.1195468 L61.8544762,19.9539882 L63.7428637,18.6169965 L61.4176429,18.6169965 L60.7039828,16.4226128 L59.9903227,18.6194497 L57.6647913,18.6169965 L59.5534895,19.9539882 L58.8444897,22.1195468 M53.6767456,9.48712157 L52.9655711,11.6839584 L50.6378648,11.679052 L52.5240774,13.0206435 L51.8175633,15.1865088 L53.6792312,13.8449173 L55.5362387,15.1865088 L54.8297246,13.0206435 L56.7184227,11.679052 L54.3882309,11.679052 L53.6767456,9.48712157"/></g></g></svg>