<?xml version="1.0" encoding="UTF-8"?>
<svg width="288px" height="71px" viewBox="0 0 288 71" version="1.1" xmlns="http://www.w3.org/2000/svg" xmlns:xlink="http://www.w3.org/1999/xlink">
    <title>vodafone/logo/vodafone_principal</title>
    <g id="vodafone/logo/vodafone_principal" stroke="none" stroke-width="1" fill="none" fill-rule="evenodd">
        <path d="M35.5100062,-7.10542736e-15 C40.9513212,-7.10542736e-15 46.1068009,1.22352012 50.7161791,3.41038345 C62.7217136,9.10810267 71.0200123,21.3351695 71.0200123,35.5 C71.0200123,55.1062534 55.1215353,71 35.5100062,71 C15.8982265,71 -7.10542736e-15,55.1062534 -7.10542736e-15,35.5 C-7.10542736e-15,15.8937466 15.8982265,-7.10542736e-15 35.5100062,-7.10542736e-15 Z M48.1654755,3.13023708 C40.7751991,3.15487928 32.6270292,6.31459268 26.6788802,11.2383855 C20.5809063,16.2866632 15.8105614,24.7957226 15.8397406,33.6356564 C15.8842211,47.0028847 26.0347333,55.3278466 35.7913914,55.2953803 C47.8365121,55.25546 54.9632169,45.3672978 54.9334955,36.3427656 C54.9033371,27.3179829 49.9949429,20.7959236 39.1822447,18.1629544 C39.1599463,18.0507426 39.1399029,17.8097878 39.1389007,17.5843624 C39.1163518,10.7639901 44.2587535,4.75214383 50.7205163,3.41236524 C50.1063174,3.20606793 49.1140868,3.12708495 48.1654755,3.13023708 Z M123.330752,23.6579753 C125.40951,23.6579753 127.218934,24.0434528 128.760276,24.8131555 C130.300867,25.5836096 131.590664,26.6047869 132.63092,27.8761864 C133.669923,29.1488383 134.449113,30.5905593 134.96874,32.2026017 C135.487866,33.8146442 135.748681,35.4630052 135.748681,37.1464324 C135.748681,38.8311119 135.487866,40.487989 134.96874,42.1175645 C134.449113,43.7486429 133.679194,45.2076465 132.657478,46.4978315 C131.636013,47.787265 130.346216,48.8264764 128.787586,49.6144636 C127.228204,50.4024508 125.40951,50.7964443 123.330752,50.7964443 C121.252245,50.7964443 119.433551,50.4024508 117.87467,49.6144636 C116.31604,48.8264764 115.026243,47.787265 114.004778,46.4978315 C112.983313,45.2076465 112.21189,43.7486429 111.693516,42.1175645 C111.172887,40.487989 110.913825,38.8311119 110.913825,37.1464324 C110.913825,35.4630052 111.172887,33.8146442 111.693516,32.2026017 C112.21189,30.5905593 112.983313,29.1488383 114.004778,27.8761864 C115.026243,26.6047869 116.31604,25.5836096 117.87467,24.8131555 C119.433551,24.0434528 121.252245,23.6579753 123.330752,23.6579753 Z M162.435178,14.361079 L162.435178,50.205479 L156.309143,50.205479 L156.038055,48.217477 C155.430237,48.8980114 154.626244,49.4983945 153.626827,50.016873 C152.626407,50.5366039 151.4471,50.7963442 150.090157,50.7963442 C148.304284,50.7963442 146.731624,50.4206351 145.374932,49.6674636 C144.017237,48.9160454 142.874259,47.9129022 141.944994,46.6582843 C141.01648,45.4054197 140.310699,43.9539303 139.828654,42.3055693 C139.346609,40.6584607 139.105586,38.938715 139.105586,37.1465826 C139.105586,35.4631555 139.354877,33.8147945 139.855212,32.2025016 C140.355547,30.5904591 141.114192,29.1487381 142.132149,27.8760862 C143.150107,26.6046867 144.427878,25.5837598 145.96446,24.8133057 C147.499539,24.0433526 149.303451,23.6578751 151.375945,23.6578751 C152.733389,23.6578751 154.197314,23.9065945 155.769222,24.4032819 L155.769222,14.361079 L162.435178,14.361079 Z M178.082586,23.6579502 C179.515192,23.6579502 180.824031,23.8458048 182.007096,24.2222653 C183.18916,24.5987258 184.210625,25.1883386 185.070489,25.9943598 C185.930855,26.7991286 186.602812,27.8195545 187.086361,29.0536336 C187.570661,30.2879632 187.812436,31.7827844 187.812436,33.5360935 L187.812436,50.1810078 L181.736008,50.1810078 L181.468929,48.2468574 C180.749118,49.0426093 179.831879,49.6675387 178.717462,50.1188906 C177.602545,50.569992 176.380394,50.7964193 175.049258,50.7964193 C173.93434,50.7964193 172.863267,50.6085648 171.839046,50.2321043 C170.814073,49.8561447 169.906355,49.3183798 169.114889,48.6198113 C168.323673,47.9212429 167.685288,47.0616205 167.199735,46.0409442 C166.714182,45.0197669 166.471657,43.8645867 166.471657,42.5744017 C166.471657,41.2842167 166.72245,40.1470705 167.227045,39.1622118 C167.730637,38.1776035 168.413367,37.3442808 169.27674,36.6632454 C170.140362,35.982711 171.129257,35.4266616 172.244175,34.9971009 C173.359343,34.5675401 174.528128,34.2449313 175.750779,34.0297752 C176.614402,33.8509377 177.558449,33.7169348 178.584173,33.6267646 C179.608896,33.5380973 180.462998,33.4571946 181.146731,33.3845575 L181.146731,33.0085979 C181.146731,31.5758939 180.77743,30.5554681 180.038577,29.945066 C179.300978,29.3366678 178.283521,29.0313415 176.98696,29.0313415 C176.229317,29.0313415 175.509005,29.1222631 174.826024,29.3011007 C174.141038,29.4799382 173.52846,29.7033599 172.988288,29.9721171 C172.447365,30.2411248 171.970331,30.5093811 171.556684,30.7783888 C171.141784,31.047146 170.809062,31.2888522 170.557016,31.5040083 L168.353237,26.8284339 C168.639608,26.5782117 169.078309,26.2736369 169.670343,25.9147095 C170.261375,25.5572849 170.977428,25.2078754 171.820255,24.8669821 C172.662081,24.5268401 173.61164,24.2413012 174.669434,24.0071092 C175.725725,23.7746705 176.863692,23.6579502 178.082586,23.6579502 Z M220.715889,23.6579753 C222.794397,23.6579753 224.604071,24.0434528 226.145414,24.8131555 C227.686004,25.5836096 228.975802,26.6047869 230.016057,27.8761864 C231.055061,29.1488383 231.834,30.5905593 232.353877,32.2026017 C232.873003,33.8146442 233.133818,35.4630052 233.133818,37.1464324 C233.133818,38.8311119 232.873003,40.487989 232.353877,42.1175645 C231.834,43.7486429 231.06408,45.2076465 230.042615,46.4978315 C229.02115,47.787265 227.731353,48.8264764 226.172723,49.6144636 C224.613091,50.4024508 222.794397,50.7964443 220.715889,50.7964443 C218.637131,50.7964443 216.818688,50.4024508 215.259807,49.6144636 C213.700927,48.8264764 212.41138,47.787265 211.389915,46.4978315 C210.36845,45.2076465 209.596777,43.7486429 209.078653,42.1175645 C208.558024,40.487989 208.298962,38.8311119 208.298962,37.1464324 C208.298962,35.4630052 208.558024,33.8146442 209.078653,32.2026017 C209.596777,30.5905593 210.36845,29.1488383 211.389915,27.8761864 C212.41138,26.6047869 213.700927,25.5836096 215.259807,24.8131555 C216.818688,24.0434528 218.637131,23.6579753 220.715889,23.6579753 Z M276.496804,23.6580504 C278.145129,23.6580504 279.668182,23.9268076 281.066214,24.4640716 C282.463744,25.0010851 283.673117,25.8344079 284.694582,26.962537 C285.716047,28.0911671 286.522546,29.5516736 287.113327,31.342804 C287.704609,33.1344354 288,35.2662088 288,37.7376231 L288,38.9198544 L271.175014,38.9198544 C271.318826,41.1054794 272.002308,42.6819547 273.22546,43.6492803 C274.448362,44.616105 276.031796,45.1002688 277.974008,45.1002688 C278.872957,45.1002688 279.718541,45.0198671 280.510258,44.8578112 C281.301223,44.6972582 282.003496,44.4916201 282.614571,44.2401455 C283.226148,43.9901737 283.74853,43.7386991 284.180467,43.4882264 C284.612153,43.2375032 284.935855,43.0040626 285.151573,42.7889065 L286.92542,48.2174019 C286.673874,48.3962394 286.271001,48.638697 285.716047,48.9425204 C285.159841,49.2470952 284.470346,49.5333855 283.646559,49.8023932 C282.82127,50.071401 281.853671,50.3033387 280.743514,50.5009617 C279.632605,50.6973323 278.413461,50.796269 277.087836,50.796269 C275.403433,50.796269 273.799956,50.5282632 272.276903,49.9902478 C270.7536,49.4532343 269.418454,48.6199115 268.27272,47.491031 C267.12473,46.3631523 266.210748,44.9569984 265.531275,43.2728198 C264.849797,41.5893927 264.509559,39.5836071 264.509559,37.2539603 C264.509559,35.0690867 264.822488,33.1344354 265.449848,31.4502568 C266.076708,29.7663287 266.936823,28.3516588 268.030194,27.2047442 C269.122813,26.058581 270.396075,25.1814255 271.847221,24.5715244 C273.298368,23.9631262 274.847979,23.6580504 276.496804,23.6580504 Z M90.1894076,24.3024917 L96.9623453,41.4994479 L103.520317,24.3024917 L110.293505,24.3024917 L99.7579076,50.2053788 L93.9518167,50.2053788 L83.0935196,24.3024917 L90.1894076,24.3024917 Z M203.299721,13.6618093 C204.912468,13.6618093 206.246862,13.8155995 207.304656,14.1186715 C208.360947,14.4237473 208.979288,14.6298863 209.158927,14.7375896 L208.406546,20.2722854 C208.191329,20.1648326 207.769915,20.0125452 207.143306,19.8154231 C206.515695,19.6185516 205.682889,19.5201158 204.643134,19.5201158 C203.711364,19.5201158 202.932174,19.7981405 202.305315,20.3534385 C201.678205,20.9087366 201.364524,21.8131936 201.364524,23.0663086 L201.364524,24.302642 L206.955148,24.302642 L206.955148,29.6767847 L201.418141,29.6767847 L201.418141,50.2052786 L194.752686,50.2052786 L194.752686,29.6767847 L191.312225,29.6767847 L191.312225,24.302642 L194.752686,24.302642 L194.752686,22.9057556 C194.752686,21.2223284 194.967903,19.7981405 195.397585,18.6336928 C195.828018,17.4692451 196.427318,16.520204 197.198991,15.785317 C197.968911,15.0511815 198.873623,14.5139175 199.913377,14.1730241 C200.95213,13.8323812 202.081329,13.6618093 203.299721,13.6618093 Z M251.189674,23.6580254 C252.551627,23.6580254 253.805096,23.8646654 254.953085,24.276192 C256.09882,24.6882197 257.084708,25.3419535 257.909246,26.2373935 C258.732782,27.1328334 259.368661,28.2980326 259.817133,29.7304861 C260.265105,31.1639415 260.489341,32.8836872 260.489341,34.8897232 L260.489341,50.2053788 L253.823886,50.2053788 L253.823886,35.4267367 C253.823886,33.4570192 253.411492,31.9343955 252.586954,30.8586152 C251.762667,29.7843377 250.61618,29.2465728 249.146744,29.2465728 C248.10724,29.2465728 247.14841,29.51533 246.271007,30.052594 C245.392853,30.5903589 244.631953,31.1812241 243.986303,31.8269428 L243.986303,50.2053788 L237.320848,50.2053788 L237.320848,24.3024917 L243.395271,24.3024917 L243.717971,26.3450967 C244.757225,25.4852239 245.930018,24.8222226 247.238856,24.3563433 C248.546692,23.8912155 249.863548,23.6580254 251.189674,23.6580254 Z M181.200597,38.0601318 C180.478782,38.0964503 179.739679,38.159319 178.982287,38.2487378 C178.224894,38.337906 177.503079,38.4546263 176.817843,38.5978967 C175.374964,38.8841871 174.373793,39.3768669 173.81433,40.0759363 C173.255117,40.7745047 172.975761,41.5356913 172.975761,42.3592456 C172.975761,43.2191185 173.290945,43.9094213 173.922314,44.4289017 C174.554184,44.9486326 175.44687,45.2076214 176.601374,45.2076214 C177.466249,45.2076214 178.305319,45.0287839 179.116578,44.6706079 C179.928338,44.3129329 180.622844,43.8645867 181.200597,43.3265713 L181.200597,38.0601318 Z M152.186954,29.2464225 C151.04598,29.2464225 150.065604,29.4630814 149.245575,29.8946459 C148.425798,30.3257094 147.748078,30.9090604 147.21392,31.6464521 C146.67926,32.3840943 146.277389,33.2099028 146.01056,34.1276349 C145.74298,35.0441146 145.60944,35.9868939 145.60944,36.9579767 C145.60944,38.0365122 145.725442,39.0702131 145.957445,40.0593299 C146.189448,41.0481962 146.545971,41.9100729 147.026263,42.6477151 C147.507807,43.3846058 148.114372,43.9777252 148.845207,44.4268228 C149.576042,44.8759204 150.440166,45.100344 151.43808,45.100344 C152.257357,45.100344 153.095925,44.8759204 153.95103,44.4268228 C154.806384,43.9777252 155.412699,43.446723 155.769222,42.8358201 L155.769222,30.0015977 C154.486441,29.4986485 153.2916,29.2464225 152.186954,29.2464225 Z M123.330752,29.2465227 C122.363905,29.2465227 121.521328,29.4546655 120.804273,29.8674445 C120.087469,30.2802236 119.478147,30.8377759 118.977311,31.5390995 C118.474972,32.2404231 118.098405,33.0757497 117.848363,34.0465819 C117.596818,35.0174142 117.471797,36.0413467 117.471797,37.1198822 C117.471797,38.2347363 117.596818,39.2684373 117.848363,40.2212355 C118.098405,41.1725309 118.466454,42.0093603 118.950002,42.728217 C119.433551,43.4468232 120.042872,44.0138935 120.777716,44.426923 C121.512309,44.8394516 122.363905,45.046342 123.330752,45.046342 C124.298601,45.046342 125.140427,44.8394516 125.857231,44.426923 C126.574035,44.0138935 127.182605,43.4468232 127.684945,42.728217 C128.186783,42.0093603 128.563349,41.1725309 128.814143,40.2212355 C129.064186,39.2684373 129.19071,38.2347363 129.19071,37.1198822 C129.19071,36.0413467 129.064186,35.0174142 128.814143,34.0465819 C128.563349,33.0757497 128.186783,32.2404231 127.684945,31.5390995 C127.182605,30.8377759 126.574035,30.2802236 125.857231,29.8674445 C125.140427,29.4546655 124.298601,29.2465227 123.330752,29.2465227 Z M220.715889,29.2465227 C219.749043,29.2465227 218.906465,29.4546655 218.18941,29.8674445 C217.472606,30.2802236 216.863285,30.8377759 216.362198,31.5390995 C215.859859,32.2404231 215.483543,33.0757497 215.2335,34.0465819 C214.981955,35.0174142 214.856934,36.0413467 214.856934,37.1198822 C214.856934,38.2347363 214.981955,39.2684373 215.2335,40.2212355 C215.483543,41.1725309 215.851591,42.0093603 216.335139,42.728217 C216.818688,43.4468232 217.427759,44.0138935 218.162853,44.426923 C218.897446,44.8394516 219.749043,45.046342 220.715889,45.046342 C221.683738,45.046342 222.525564,44.8394516 223.242368,44.426923 C223.959423,44.0138935 224.567742,43.4468232 225.070082,42.728217 C225.571669,42.0093603 225.948236,41.1725309 226.19928,40.2212355 C226.449323,39.2684373 226.575847,38.2347363 226.575847,37.1198822 C226.575847,36.0413467 226.449323,35.0174142 226.19928,34.0465819 C225.948236,33.0757497 225.571669,32.2404231 225.070082,31.5390995 C224.567742,30.8377759 223.959423,30.2802236 223.242368,29.8674445 C222.525564,29.4546655 221.683738,29.2465227 220.715889,29.2465227 Z M276.471249,28.9783415 C275.317497,28.9783415 274.219115,29.4086537 273.173848,30.2677751 C272.129333,31.1281489 271.516003,32.4175825 271.336364,34.1373282 L281.227062,34.1373282 C281.155156,33.2418882 280.964994,32.4624171 280.659582,31.7996663 C280.353167,31.136665 279.975097,30.599401 279.525122,30.1873734 C279.074394,29.7758467 278.587338,29.4715223 278.064705,29.2738993 C277.542823,29.0775287 277.01117,28.9783415 276.471249,28.9783415 Z" id="Combined-Shape" fill="#E60000"></path>
    </g>
</svg>